<svg width="166" height="90" viewBox="0 0 166 90" fill="none" xmlns="http://www.w3.org/2000/svg">
<g filter="url(#filter0_d_1_140)">
<rect x="18" y="10" width="137" height="54" rx="12" fill="white" shape-rendering="crispEdges"/>
<path d="M31.8068 45.5V43.9659L37.5682 37.6591C38.2443 36.9205 38.8011 36.2784 39.2386 35.733C39.6761 35.1818 40 34.6648 40.2102 34.1818C40.4261 33.6932 40.5341 33.1818 40.5341 32.6477C40.5341 32.0341 40.3864 31.5028 40.0909 31.054C39.8011 30.6051 39.4034 30.2585 38.8977 30.0142C38.392 29.7699 37.8239 29.6477 37.1932 29.6477C36.5227 29.6477 35.9375 29.7869 35.4375 30.0653C34.9432 30.3381 34.5597 30.7216 34.2869 31.2159C34.0199 31.7102 33.8864 32.2898 33.8864 32.9545H31.875C31.875 31.9318 32.1108 31.0341 32.5824 30.2614C33.054 29.4886 33.696 28.8864 34.5085 28.4545C35.3267 28.0227 36.2443 27.8068 37.2614 27.8068C38.2841 27.8068 39.1903 28.0227 39.9801 28.4545C40.7699 28.8864 41.3892 29.4687 41.8381 30.2017C42.2869 30.9347 42.5114 31.75 42.5114 32.6477C42.5114 33.2898 42.3949 33.9176 42.1619 34.5312C41.9347 35.1392 41.5369 35.8182 40.9688 36.5682C40.4062 37.3125 39.625 38.2216 38.625 39.2955L34.7045 43.4886V43.625H42.8182V45.5H31.8068ZM52.0312 45.7386C50.7472 45.7386 49.6534 45.3892 48.75 44.6903C47.8466 43.9858 47.1563 42.9659 46.679 41.6307C46.2017 40.2898 45.9631 38.6705 45.9631 36.7727C45.9631 34.8864 46.2017 33.2756 46.679 31.9403C47.1619 30.5994 47.8551 29.5767 48.7585 28.8722C49.6676 28.1619 50.7585 27.8068 52.0312 27.8068C53.304 27.8068 54.392 28.1619 55.2955 28.8722C56.2045 29.5767 56.8977 30.5994 57.375 31.9403C57.858 33.2756 58.0994 34.8864 58.0994 36.7727C58.0994 38.6705 57.8608 40.2898 57.3835 41.6307C56.9062 42.9659 56.2159 43.9858 55.3125 44.6903C54.4091 45.3892 53.3153 45.7386 52.0312 45.7386ZM52.0312 43.8636C53.304 43.8636 54.2926 43.25 54.9972 42.0227C55.7017 40.7955 56.054 39.0455 56.054 36.7727C56.054 35.2614 55.892 33.9744 55.5682 32.9119C55.25 31.8494 54.7898 31.0398 54.1875 30.483C53.5909 29.9261 52.8722 29.6477 52.0312 29.6477C50.7699 29.6477 49.7841 30.2699 49.0739 31.5142C48.3636 32.7528 48.0085 34.5057 48.0085 36.7727C48.0085 38.2841 48.1676 39.5682 48.4858 40.625C48.804 41.6818 49.2614 42.4858 49.858 43.0369C50.4602 43.5881 51.1847 43.8636 52.0312 43.8636ZM66.4858 42.4318V31.1818H68.3949V42.4318H66.4858ZM61.8153 37.7614V35.8523H73.0653V37.7614H61.8153Z" fill="#1D2220"/>
<path d="M85.9261 30.0625V34H84.9205V25.2727H85.9261V28.4773H86.0114C86.1648 28.1392 86.3949 27.8707 86.7017 27.6719C87.0114 27.4702 87.4233 27.3693 87.9375 27.3693C88.3835 27.3693 88.7741 27.4588 89.1094 27.6378C89.4446 27.8139 89.7045 28.0852 89.8892 28.4517C90.0767 28.8153 90.1705 29.2784 90.1705 29.8409V34H89.1648V29.9091C89.1648 29.3892 89.0298 28.9872 88.7599 28.7031C88.4929 28.4162 88.1222 28.2727 87.6477 28.2727C87.3182 28.2727 87.0227 28.3423 86.7614 28.4815C86.5028 28.6207 86.2983 28.8239 86.1477 29.0909C86 29.358 85.9261 29.6818 85.9261 30.0625ZM92.0103 34V27.4545H92.9819V28.4432H93.0501C93.1694 28.1193 93.3853 27.8565 93.6978 27.6548C94.0103 27.4531 94.3626 27.3523 94.7546 27.3523C94.8285 27.3523 94.9208 27.3537 95.0316 27.3565C95.1424 27.3594 95.2262 27.3636 95.283 27.3693V28.392C95.2489 28.3835 95.1708 28.3707 95.0487 28.3537C94.9293 28.3338 94.8029 28.3239 94.6694 28.3239C94.3512 28.3239 94.0671 28.3906 93.8171 28.5241C93.57 28.6548 93.3739 28.8366 93.229 29.0696C93.087 29.2997 93.016 29.5625 93.016 29.858V34H92.0103ZM101.112 28.9205L100.208 29.1761C100.151 29.0256 100.067 28.8793 99.9567 28.7372C99.8487 28.5923 99.701 28.473 99.5135 28.3793C99.326 28.2855 99.0859 28.2386 98.7933 28.2386C98.3928 28.2386 98.0589 28.331 97.7919 28.5156C97.5277 28.6974 97.3956 28.929 97.3956 29.2102C97.3956 29.4602 97.4865 29.6577 97.6683 29.8026C97.8501 29.9474 98.1342 30.0682 98.5206 30.1648L99.4922 30.4034C100.077 30.5455 100.513 30.7628 100.8 31.0554C101.087 31.3452 101.231 31.7187 101.231 32.1761C101.231 32.5511 101.123 32.8864 100.907 33.1818C100.694 33.4773 100.396 33.7102 100.012 33.8807C99.6286 34.0511 99.1825 34.1364 98.674 34.1364C98.0064 34.1364 97.4538 33.9915 97.0163 33.7017C96.5788 33.4119 96.3018 32.9886 96.1854 32.4318L97.1399 32.1932C97.2308 32.5455 97.4027 32.8097 97.6555 32.9858C97.9112 33.1619 98.245 33.25 98.657 33.25C99.1257 33.25 99.4979 33.1506 99.7734 32.9517C100.052 32.75 100.191 32.5085 100.191 32.2273C100.191 32 100.112 31.8097 99.9524 31.6562C99.7933 31.5 99.549 31.3835 99.2195 31.3068L98.1286 31.0511C97.5291 30.9091 97.0888 30.6889 96.8075 30.3906C96.5291 30.0895 96.3899 29.7131 96.3899 29.2614C96.3899 28.892 96.4936 28.5653 96.701 28.2812C96.9112 27.9972 97.1967 27.7741 97.5575 27.6122C97.9212 27.4503 98.3331 27.3693 98.7933 27.3693C99.4411 27.3693 99.9496 27.5114 100.319 27.7955C100.691 28.0795 100.955 28.4545 101.112 28.9205ZM110.756 28.9205L109.853 29.1761C109.796 29.0256 109.712 28.8793 109.601 28.7372C109.493 28.5923 109.346 28.473 109.158 28.3793C108.971 28.2855 108.73 28.2386 108.438 28.2386C108.037 28.2386 107.703 28.331 107.436 28.5156C107.172 28.6974 107.04 28.929 107.04 29.2102C107.04 29.4602 107.131 29.6577 107.313 29.8026C107.495 29.9474 107.779 30.0682 108.165 30.1648L109.137 30.4034C109.722 30.5455 110.158 30.7628 110.445 31.0554C110.732 31.3452 110.875 31.7187 110.875 32.1761C110.875 32.5511 110.767 32.8864 110.551 33.1818C110.338 33.4773 110.04 33.7102 109.657 33.8807C109.273 34.0511 108.827 34.1364 108.319 34.1364C107.651 34.1364 107.098 33.9915 106.661 33.7017C106.223 33.4119 105.946 32.9886 105.83 32.4318L106.784 32.1932C106.875 32.5455 107.047 32.8097 107.3 32.9858C107.556 33.1619 107.89 33.25 108.301 33.25C108.77 33.25 109.142 33.1506 109.418 32.9517C109.696 32.75 109.836 32.5085 109.836 32.2273C109.836 32 109.756 31.8097 109.597 31.6562C109.438 31.5 109.194 31.3835 108.864 31.3068L107.773 31.0511C107.174 30.9091 106.733 30.6889 106.452 30.3906C106.174 30.0895 106.034 29.7131 106.034 29.2614C106.034 28.892 106.138 28.5653 106.346 28.2812C106.556 27.9972 106.841 27.7741 107.202 27.6122C107.566 27.4503 107.978 27.3693 108.438 27.3693C109.086 27.3693 109.594 27.5114 109.963 27.7955C110.336 28.0795 110.6 28.4545 110.756 28.9205ZM114.315 34.1534C113.901 34.1534 113.524 34.0753 113.186 33.919C112.848 33.7599 112.58 33.5312 112.381 33.233C112.182 32.9318 112.082 32.5682 112.082 32.142C112.082 31.767 112.156 31.4631 112.304 31.2301C112.452 30.9943 112.649 30.8097 112.896 30.6761C113.143 30.5426 113.416 30.4432 113.714 30.3778C114.016 30.3097 114.318 30.2557 114.622 30.2159C115.02 30.1648 115.342 30.1264 115.589 30.1009C115.839 30.0724 116.021 30.0256 116.135 29.9602C116.251 29.8949 116.31 29.7812 116.31 29.6193V29.5852C116.31 29.1648 116.195 28.8381 115.964 28.6051C115.737 28.3722 115.392 28.2557 114.929 28.2557C114.449 28.2557 114.072 28.3608 113.8 28.571C113.527 28.7812 113.335 29.0057 113.224 29.2443L112.27 28.9034C112.44 28.5057 112.668 28.196 112.952 27.9744C113.239 27.75 113.551 27.5937 113.889 27.5057C114.23 27.4148 114.565 27.3693 114.895 27.3693C115.105 27.3693 115.347 27.3949 115.619 27.446C115.895 27.4943 116.161 27.5952 116.416 27.7486C116.675 27.902 116.889 28.1335 117.06 28.4432C117.23 28.7528 117.315 29.1676 117.315 29.6875V34H116.31V33.1136H116.259C116.19 33.2557 116.077 33.4077 115.918 33.5696C115.759 33.7315 115.547 33.8693 115.283 33.983C115.018 34.0966 114.696 34.1534 114.315 34.1534ZM114.469 33.25C114.866 33.25 115.202 33.1719 115.474 33.0156C115.75 32.8594 115.957 32.6577 116.097 32.4105C116.239 32.1634 116.31 31.9034 116.31 31.6307V30.7102C116.267 30.7614 116.173 30.8082 116.028 30.8509C115.886 30.8906 115.722 30.9261 115.534 30.9574C115.349 30.9858 115.169 31.0114 114.993 31.0341C114.82 31.054 114.679 31.071 114.571 31.0852C114.31 31.1193 114.065 31.1747 113.838 31.2514C113.614 31.3253 113.432 31.4375 113.293 31.5881C113.156 31.7358 113.088 31.9375 113.088 32.1932C113.088 32.5426 113.217 32.8068 113.476 32.9858C113.737 33.1619 114.068 33.25 114.469 33.25ZM124.269 27.4545L121.848 34H120.826L118.405 27.4545H119.496L121.303 32.6705H121.371L123.178 27.4545H124.269ZM128.106 34.1364C127.475 34.1364 126.931 33.9972 126.474 33.7188C126.02 33.4375 125.669 33.0455 125.422 32.5426C125.177 32.0369 125.055 31.4489 125.055 30.7784C125.055 30.108 125.177 29.517 125.422 29.0057C125.669 28.4915 126.012 28.0909 126.453 27.804C126.896 27.5142 127.413 27.3693 128.004 27.3693C128.345 27.3693 128.681 27.4261 129.014 27.5398C129.346 27.6534 129.649 27.8381 129.922 28.0938C130.194 28.3466 130.412 28.6818 130.574 29.0994C130.735 29.517 130.816 30.0312 130.816 30.642V31.0682H125.771V30.1989H129.794C129.794 29.8295 129.72 29.5 129.572 29.2102C129.427 28.9205 129.22 28.6918 128.95 28.5241C128.683 28.3565 128.368 28.2727 128.004 28.2727C127.603 28.2727 127.257 28.3722 126.964 28.571C126.674 28.767 126.451 29.0227 126.295 29.3381C126.139 29.6534 126.061 29.9915 126.061 30.3523V30.9318C126.061 31.4261 126.146 31.8452 126.316 32.1889C126.49 32.5298 126.73 32.7898 127.037 32.9688C127.343 33.1449 127.7 33.233 128.106 33.233C128.37 33.233 128.609 33.196 128.822 33.1222C129.038 33.0455 129.224 32.9318 129.38 32.7812C129.537 32.6278 129.657 32.4375 129.743 32.2102L130.714 32.483C130.612 32.8125 130.44 33.1023 130.199 33.3523C129.957 33.5994 129.659 33.7926 129.304 33.9318C128.949 34.0682 128.549 34.1364 128.106 34.1364ZM134.818 34.1364C134.272 34.1364 133.791 33.9986 133.373 33.723C132.956 33.4446 132.629 33.0526 132.393 32.5469C132.157 32.0384 132.039 31.4375 132.039 30.7443C132.039 30.0568 132.157 29.4602 132.393 28.9545C132.629 28.4489 132.957 28.0582 133.377 27.7827C133.798 27.5071 134.284 27.3693 134.835 27.3693C135.261 27.3693 135.598 27.4403 135.845 27.5824C136.095 27.7216 136.285 27.8807 136.416 28.0597C136.549 28.2358 136.653 28.3807 136.727 28.4943H136.812V25.2727H137.818V34H136.846V32.9943H136.727C136.653 33.1136 136.548 33.2642 136.412 33.446C136.275 33.625 136.081 33.7855 135.828 33.9276C135.575 34.0668 135.238 34.1364 134.818 34.1364ZM134.954 33.233C135.358 33.233 135.699 33.1278 135.977 32.9176C136.255 32.7045 136.467 32.4105 136.612 32.0355C136.757 31.6577 136.829 31.2216 136.829 30.7273C136.829 30.2386 136.758 29.8111 136.616 29.4446C136.474 29.0753 136.264 28.7884 135.985 28.5838C135.707 28.3764 135.363 28.2727 134.954 28.2727C134.528 28.2727 134.173 28.3821 133.889 28.6009C133.608 28.8168 133.396 29.1108 133.254 29.483C133.115 29.8523 133.045 30.267 133.045 30.7273C133.045 31.1932 133.116 31.6165 133.258 31.9972C133.403 32.375 133.616 32.6761 133.897 32.9006C134.181 33.1222 134.534 33.233 134.954 33.233ZM86.4034 49L84.4091 42.4545H85.4659L86.8807 47.4659H86.9489L88.3466 42.4545H89.4205L90.8011 47.4489H90.8693L92.2841 42.4545H93.3409L91.3466 49H90.358L88.9261 43.9716H88.8239L87.392 49H86.4034ZM97.1921 49.1364C96.5614 49.1364 96.0174 48.9972 95.56 48.7188C95.1055 48.4375 94.7546 48.0455 94.5075 47.5426C94.2631 47.0369 94.141 46.4489 94.141 45.7784C94.141 45.108 94.2631 44.517 94.5075 44.0057C94.7546 43.4915 95.0984 43.0909 95.5387 42.804C95.9819 42.5142 96.4989 42.3693 97.0898 42.3693C97.4308 42.3693 97.7674 42.4261 98.0998 42.5398C98.4322 42.6534 98.7347 42.8381 99.0075 43.0938C99.2802 43.3466 99.4975 43.6818 99.6594 44.0994C99.8214 44.517 99.9023 45.0312 99.9023 45.642V46.0682H94.8569V45.1989H98.8796C98.8796 44.8295 98.8058 44.5 98.658 44.2102C98.5131 43.9205 98.3058 43.6918 98.0359 43.5241C97.7688 43.3565 97.4535 43.2727 97.0898 43.2727C96.6893 43.2727 96.3427 43.3722 96.0501 43.571C95.7603 43.767 95.5373 44.0227 95.381 44.3381C95.2248 44.6534 95.1467 44.9915 95.1467 45.3523V45.9318C95.1467 46.4261 95.2319 46.8452 95.4023 47.1889C95.5756 47.5298 95.8157 47.7898 96.1225 47.9688C96.4293 48.1449 96.7859 48.233 97.1921 48.233C97.4563 48.233 97.695 48.196 97.908 48.1222C98.1239 48.0455 98.31 47.9318 98.4663 47.7812C98.6225 47.6278 98.7433 47.4375 98.8285 47.2102L99.8001 47.483C99.6978 47.8125 99.5259 48.1023 99.2844 48.3523C99.043 48.5994 98.7447 48.7926 98.3896 48.9318C98.0344 49.0682 97.6353 49.1364 97.1921 49.1364ZM104.176 49.1364C103.546 49.1364 103.002 48.9972 102.544 48.7188C102.09 48.4375 101.739 48.0455 101.492 47.5426C101.248 47.0369 101.125 46.4489 101.125 45.7784C101.125 45.108 101.248 44.517 101.492 44.0057C101.739 43.4915 102.083 43.0909 102.523 42.804C102.966 42.5142 103.483 42.3693 104.074 42.3693C104.415 42.3693 104.752 42.4261 105.084 42.5398C105.417 42.6534 105.719 42.8381 105.992 43.0938C106.265 43.3466 106.482 43.6818 106.644 44.0994C106.806 44.517 106.887 45.0312 106.887 45.642V46.0682H101.841V45.1989H105.864C105.864 44.8295 105.79 44.5 105.642 44.2102C105.498 43.9205 105.29 43.6918 105.02 43.5241C104.753 43.3565 104.438 43.2727 104.074 43.2727C103.674 43.2727 103.327 43.3722 103.034 43.571C102.745 43.767 102.522 44.0227 102.365 44.3381C102.209 44.6534 102.131 44.9915 102.131 45.3523V45.9318C102.131 46.4261 102.216 46.8452 102.387 47.1889C102.56 47.5298 102.8 47.7898 103.107 47.9688C103.414 48.1449 103.77 48.233 104.176 48.233C104.441 48.233 104.679 48.196 104.892 48.1222C105.108 48.0455 105.294 47.9318 105.451 47.7812C105.607 47.6278 105.728 47.4375 105.813 47.2102L106.784 47.483C106.682 47.8125 106.51 48.1023 106.269 48.3523C106.027 48.5994 105.729 48.7926 105.374 48.9318C105.019 49.0682 104.62 49.1364 104.176 49.1364ZM109.354 46.6136L109.337 45.3693H109.542L112.405 42.4545H113.65L110.598 45.5398H110.513L109.354 46.6136ZM108.417 49V40.2727H109.422V49H108.417ZM112.576 49L110.019 45.7614L110.735 45.0625L113.854 49H112.576ZM115.95 40.2727V49H114.944V40.2727H115.95ZM118.439 51.4545C118.269 51.4545 118.117 51.4403 117.983 51.4119C117.85 51.3864 117.757 51.3608 117.706 51.3352L117.962 50.4489C118.206 50.5114 118.422 50.5341 118.61 50.517C118.797 50.5 118.963 50.4162 119.108 50.2656C119.256 50.1179 119.391 49.8778 119.513 49.5455L119.701 49.0341L117.28 42.4545H118.371L120.178 47.6705H120.246L122.053 42.4545H123.144L120.365 49.9545C120.24 50.2926 120.086 50.5724 119.901 50.794C119.716 51.0185 119.502 51.1847 119.257 51.2926C119.016 51.4006 118.743 51.4545 118.439 51.4545Z" fill="#1D2220" fill-opacity="0.4"/>
</g>
<defs>
<filter id="filter0_d_1_140" x="0" y="0" width="173" height="90" filterUnits="userSpaceOnUse" color-interpolation-filters="sRGB">
<feFlood flood-opacity="0" result="BackgroundImageFix"/>
<feColorMatrix in="SourceAlpha" type="matrix" values="0 0 0 0 0 0 0 0 0 0 0 0 0 0 0 0 0 0 127 0" result="hardAlpha"/>
<feOffset dy="8"/>
<feGaussianBlur stdDeviation="9"/>
<feComposite in2="hardAlpha" operator="out"/>
<feColorMatrix type="matrix" values="0 0 0 0 0 0 0 0 0 0 0 0 0 0 0 0 0 0 0.12 0"/>
<feBlend mode="normal" in2="BackgroundImageFix" result="effect1_dropShadow_1_140"/>
<feBlend mode="normal" in="SourceGraphic" in2="effect1_dropShadow_1_140" result="shape"/>
</filter>
</defs>
</svg>
