<svg width="411" height="365" viewBox="0 0 411 365" fill="none" xmlns="http://www.w3.org/2000/svg">
<g clip-path="url(#clip0_1_187)">
<rect width="411" height="365" rx="16" fill="#F6F6F6"/>
<mask id="mask0_1_187" style="mask-type:luminance" maskUnits="userSpaceOnUse" x="-4" y="137" width="417" height="233">
<path d="M412.736 137H-4V370H412.736V137Z" fill="white"/>
</mask>
<g mask="url(#mask0_1_187)">
<path d="M444.32 400.544H-35.584V106.458H444.32L444.32 400.544ZM-34.9637 399.937H443.7V107.065H-34.9637V399.937Z" fill="#1D2220" fill-opacity="0.09"/>
<path d="M444.01 355.914H-35.2738V356.521H444.01V355.914Z" fill="#1D2220" fill-opacity="0.09"/>
<path d="M444.01 341.24H-35.2738V341.847H444.01V341.24Z" fill="#1D2220" fill-opacity="0.09"/>
<path d="M444.01 326.566H-35.2738V327.173H444.01V326.566Z" fill="#1D2220" fill-opacity="0.09"/>
<path d="M444.01 311.892H-35.2738V312.499H444.01V311.892Z" fill="#1D2220" fill-opacity="0.09"/>
<path d="M444.01 297.218H-35.2738V297.825H444.01V297.218Z" fill="#1D2220" fill-opacity="0.09"/>
<path d="M444.01 282.544H-35.2738V283.151H444.01V282.544Z" fill="#1D2220" fill-opacity="0.09"/>
<path d="M444.01 267.87H-35.2738V268.477H444.01V267.87Z" fill="#1D2220" fill-opacity="0.09"/>
<path d="M444.01 253.196H-35.2738V253.803H444.01V253.196Z" fill="#1D2220" fill-opacity="0.09"/>
<path d="M444.01 238.522H-35.2738V239.129H444.01V238.522Z" fill="#1D2220" fill-opacity="0.09"/>
<path d="M444.01 223.85H-35.2738V224.456H444.01V223.85Z" fill="#1D2220" fill-opacity="0.09"/>
<path d="M444.01 209.176H-35.2738V209.782H444.01V209.176Z" fill="#1D2220" fill-opacity="0.09"/>
<path d="M444.01 194.501H-35.2738V195.108H444.01V194.501Z" fill="#1D2220" fill-opacity="0.09"/>
<path d="M444.01 179.828H-35.2738V180.435H444.01V179.828Z" fill="#1D2220" fill-opacity="0.09"/>
<path d="M444.01 165.154H-35.2738V165.76H444.01V165.154Z" fill="#1D2220" fill-opacity="0.09"/>
<path d="M444.01 150.479H-35.2738V151.086H444.01V150.479Z" fill="#1D2220" fill-opacity="0.09"/>
<path d="M400.748 106.762H400.128V400.24H400.748V106.762Z" fill="#1D2220" fill-opacity="0.09"/>
<path d="M386.225 106.762H385.605V400.24H386.225V106.762Z" fill="#1D2220" fill-opacity="0.09"/>
<path d="M371.701 106.762H371.081V400.24H371.701V106.762Z" fill="#1D2220" fill-opacity="0.09"/>
<path d="M357.177 106.762H356.557V400.24H357.177V106.762Z" fill="#1D2220" fill-opacity="0.09"/>
<path d="M342.654 106.762H342.034V400.24H342.654V106.762Z" fill="#1D2220" fill-opacity="0.09"/>
<path d="M328.13 106.762H327.51V400.24H328.13V106.762Z" fill="#1D2220" fill-opacity="0.09"/>
<path d="M313.606 106.762H312.986V400.24H313.606V106.762Z" fill="#1D2220" fill-opacity="0.09"/>
<path d="M299.083 106.762H298.462V400.24H299.083V106.762Z" fill="#1D2220" fill-opacity="0.09"/>
<path d="M284.559 106.762H283.939V400.24H284.559V106.762Z" fill="#1D2220" fill-opacity="0.09"/>
<path d="M270.035 106.762H269.415V400.24H270.035V106.762Z" fill="#1D2220" fill-opacity="0.09"/>
<path d="M255.511 106.762H254.891V400.24H255.511V106.762Z" fill="#1D2220" fill-opacity="0.09"/>
<path d="M240.987 106.762H240.367V400.24H240.987V106.762Z" fill="#1D2220" fill-opacity="0.09"/>
<path d="M226.464 106.762H225.844V400.24H226.464V106.762Z" fill="#1D2220" fill-opacity="0.09"/>
<path d="M211.94 106.762H211.32V400.24H211.94V106.762Z" fill="#1D2220" fill-opacity="0.09"/>
<path d="M197.416 106.762H196.796V400.24H197.416V106.762Z" fill="#1D2220" fill-opacity="0.09"/>
<path d="M182.893 106.762H182.272V400.24H182.893V106.762Z" fill="#1D2220" fill-opacity="0.09"/>
<path d="M168.369 106.762H167.749V400.24H168.369V106.762Z" fill="#1D2220" fill-opacity="0.09"/>
<path d="M153.845 106.762H153.225V400.24H153.845V106.762Z" fill="#1D2220" fill-opacity="0.09"/>
<path d="M139.321 106.762H138.701V400.24H139.321V106.762Z" fill="#1D2220" fill-opacity="0.09"/>
<path d="M124.797 106.762H124.177V400.24H124.797V106.762Z" fill="#1D2220" fill-opacity="0.09"/>
<path d="M110.274 106.762H109.654V400.24H110.274V106.762Z" fill="#1D2220" fill-opacity="0.09"/>
<path d="M95.75 106.762H95.1299V400.24H95.75V106.762Z" fill="#1D2220" fill-opacity="0.09"/>
<path d="M81.2263 106.762H80.6062V400.24H81.2263V106.762Z" fill="#1D2220" fill-opacity="0.09"/>
<path d="M66.7026 106.762H66.0824V400.24H66.7026V106.762Z" fill="#1D2220" fill-opacity="0.09"/>
<path d="M52.1787 106.762H51.5586V400.24H52.1787V106.762Z" fill="#1D2220" fill-opacity="0.09"/>
<path d="M37.6552 106.762H37.035V400.24H37.6552V106.762Z" fill="#1D2220" fill-opacity="0.09"/>
<path d="M23.1315 106.762H22.5114V400.24H23.1315V106.762Z" fill="#1D2220" fill-opacity="0.09"/>
<path d="M8.60733 106.762H7.98718V400.24H8.60733V106.762Z" fill="#1D2220" fill-opacity="0.09"/>
</g>
<rect width="411" height="365" fill="url(#paint0_linear_1_187)"/>
<path d="M26.324 55V34.14H29.068V55H26.324ZM33.9588 55V39.908H36.5068V42.848L36.0868 42.596C36.4601 41.644 37.0575 40.9067 37.8788 40.384C38.7188 39.8427 39.6988 39.572 40.8188 39.572C41.9015 39.572 42.8628 39.8147 43.7028 40.3C44.5615 40.7853 45.2335 41.4573 45.7188 42.316C46.2228 43.1747 46.4748 44.1453 46.4748 45.228V55H43.8428V46.068C43.8428 45.228 43.6935 44.5187 43.3948 43.94C43.0961 43.3613 42.6668 42.9133 42.1068 42.596C41.5655 42.26 40.9401 42.092 40.2308 42.092C39.5215 42.092 38.8868 42.26 38.3268 42.596C37.7855 42.9133 37.3561 43.3707 37.0388 43.968C36.7215 44.5467 36.5628 45.2467 36.5628 46.068V55H33.9588ZM56.165 55.336C54.653 55.336 53.337 54.9627 52.217 54.216C51.097 53.4693 50.3037 52.4613 49.837 51.192L51.909 50.184C52.3383 51.08 52.9263 51.7893 53.673 52.312C54.4197 52.8347 55.2503 53.096 56.165 53.096C56.9863 53.096 57.6677 52.9 58.209 52.508C58.7503 52.116 59.021 51.6027 59.021 50.968C59.021 50.52 58.8903 50.1653 58.629 49.904C58.3863 49.624 58.0877 49.4093 57.733 49.26C57.3783 49.092 57.0517 48.9707 56.753 48.896L54.485 48.252C53.1223 47.86 52.1237 47.3 51.489 46.572C50.873 45.844 50.565 44.9947 50.565 44.024C50.565 43.128 50.789 42.3533 51.237 41.7C51.7037 41.028 52.329 40.5053 53.113 40.132C53.9157 39.7587 54.8117 39.572 55.801 39.572C57.1263 39.572 58.3117 39.908 59.357 40.58C60.421 41.252 61.177 42.1947 61.625 43.408L59.497 44.388C59.161 43.604 58.657 42.988 57.985 42.54C57.313 42.0733 56.557 41.84 55.717 41.84C54.9517 41.84 54.345 42.036 53.897 42.428C53.449 42.8013 53.225 43.2773 53.225 43.856C53.225 44.2853 53.337 44.64 53.561 44.92C53.785 45.1813 54.0557 45.3867 54.373 45.536C54.6903 45.6667 54.9983 45.7787 55.297 45.872L57.761 46.6C58.993 46.9547 59.945 47.5053 60.617 48.252C61.3077 48.9987 61.653 49.8947 61.653 50.94C61.653 51.78 61.4197 52.536 60.953 53.208C60.4863 53.88 59.8423 54.4027 59.021 54.776C58.1997 55.1493 57.2477 55.336 56.165 55.336ZM71.7538 55.168C70.2791 55.168 69.1404 54.748 68.3378 53.908C67.5538 53.068 67.1618 51.8827 67.1618 50.352V42.4H64.4178V39.908H64.9778C65.6498 39.908 66.1818 39.7027 66.5738 39.292C66.9658 38.8813 67.1618 38.34 67.1618 37.668V36.436H69.7658V39.908H73.1538V42.4H69.7658V50.268C69.7658 50.772 69.8404 51.2107 69.9898 51.584C70.1578 51.9573 70.4284 52.256 70.8018 52.48C71.1751 52.6853 71.6698 52.788 72.2858 52.788C72.4164 52.788 72.5751 52.7787 72.7618 52.76C72.9671 52.7413 73.1538 52.7227 73.3218 52.704V55C73.0791 55.056 72.8084 55.0933 72.5098 55.112C72.2111 55.1493 71.9591 55.168 71.7538 55.168ZM81.5159 55.336C80.5266 55.336 79.6493 55.1587 78.8839 54.804C78.1373 54.4307 77.5493 53.9267 77.1199 53.292C76.6906 52.6387 76.4759 51.892 76.4759 51.052C76.4759 50.2493 76.6439 49.5307 76.9799 48.896C77.3346 48.2427 77.8759 47.692 78.6039 47.244C79.3506 46.796 80.2839 46.4787 81.4039 46.292L87.0039 45.368V47.552L81.9919 48.392C81.0213 48.56 80.3119 48.868 79.8639 49.316C79.4346 49.764 79.2199 50.3147 79.2199 50.968C79.2199 51.584 79.4626 52.0973 79.9479 52.508C80.4519 52.9187 81.0773 53.124 81.8239 53.124C82.7759 53.124 83.5973 52.928 84.2879 52.536C84.9973 52.1253 85.5479 51.5747 85.9399 50.884C86.3506 50.1933 86.5559 49.428 86.5559 48.588V44.752C86.5559 43.9307 86.2479 43.268 85.6319 42.764C85.0346 42.2413 84.2413 41.98 83.2519 41.98C82.3933 41.98 81.6279 42.204 80.9559 42.652C80.3026 43.0813 79.8173 43.66 79.4999 44.388L77.2319 43.212C77.5119 42.5213 77.9599 41.9053 78.5759 41.364C79.1919 40.804 79.9106 40.3653 80.7319 40.048C81.5533 39.7307 82.4119 39.572 83.3079 39.572C84.4653 39.572 85.4826 39.796 86.3599 40.244C87.2373 40.6733 87.9186 41.28 88.4039 42.064C88.9079 42.8293 89.1599 43.7253 89.1599 44.752V55H86.6119V52.144L87.0879 52.312C86.7706 52.9093 86.3413 53.432 85.7999 53.88C85.2586 54.328 84.6239 54.6827 83.8959 54.944C83.1679 55.2053 82.3746 55.336 81.5159 55.336ZM93.7574 55V39.908H96.3054V42.848L95.8854 42.596C96.2587 41.644 96.8561 40.9067 97.6774 40.384C98.5174 39.8427 99.4974 39.572 100.617 39.572C101.7 39.572 102.661 39.8147 103.501 40.3C104.36 40.7853 105.032 41.4573 105.517 42.316C106.021 43.1747 106.273 44.1453 106.273 45.228V55H103.641V46.068C103.641 45.228 103.492 44.5187 103.193 43.94C102.895 43.3613 102.465 42.9133 101.905 42.596C101.364 42.26 100.739 42.092 100.029 42.092C99.3201 42.092 98.6854 42.26 98.1254 42.596C97.5841 42.9133 97.1547 43.3707 96.8374 43.968C96.5201 44.5467 96.3614 45.2467 96.3614 46.068V55H93.7574ZM116.692 55.168C115.217 55.168 114.078 54.748 113.276 53.908C112.492 53.068 112.1 51.8827 112.1 50.352V42.4H109.356V39.908H109.916C110.588 39.908 111.12 39.7027 111.512 39.292C111.904 38.8813 112.1 38.34 112.1 37.668V36.436H114.704V39.908H118.092V42.4H114.704V50.268C114.704 50.772 114.778 51.2107 114.928 51.584C115.096 51.9573 115.366 52.256 115.74 52.48C116.113 52.6853 116.608 52.788 117.224 52.788C117.354 52.788 117.513 52.7787 117.7 52.76C117.905 52.7413 118.092 52.7227 118.26 52.704V55C118.017 55.056 117.746 55.0933 117.448 55.112C117.149 55.1493 116.897 55.168 116.692 55.168ZM122.221 55V33.804H124.825V55H122.221ZM130.238 61.16C129.902 61.16 129.566 61.132 129.23 61.076C128.894 61.02 128.576 60.9267 128.278 60.796V58.472C128.483 58.5093 128.735 58.5467 129.034 58.584C129.351 58.64 129.659 58.668 129.958 58.668C130.835 58.668 131.498 58.472 131.946 58.08C132.412 57.7067 132.851 57.0533 133.262 56.12L134.214 53.852L134.158 56.12L127.718 39.908H130.546L135.558 52.788H134.718L139.702 39.908H142.586L135.782 56.792C135.464 57.5947 135.054 58.3227 134.55 58.976C134.064 59.648 133.467 60.18 132.758 60.572C132.048 60.964 131.208 61.16 130.238 61.16ZM26.016 94V78.908H28.564V81.988L28.2 81.512C28.5733 80.56 29.1707 79.832 29.992 79.328C30.8133 78.824 31.7373 78.572 32.764 78.572C33.94 78.572 34.9947 78.8987 35.928 79.552C36.88 80.2053 37.5333 81.064 37.888 82.128L37.16 82.156C37.552 80.98 38.2147 80.0933 39.148 79.496C40.0813 78.88 41.1173 78.572 42.256 78.572C43.3013 78.572 44.244 78.8147 45.084 79.3C45.9427 79.7853 46.624 80.4573 47.128 81.316C47.632 82.1747 47.884 83.1453 47.884 84.228V94H45.252V85.068C45.252 84.228 45.1027 83.5187 44.804 82.94C44.5053 82.3613 44.0947 81.9133 43.572 81.596C43.068 81.26 42.4707 81.092 41.78 81.092C41.108 81.092 40.5013 81.26 39.96 81.596C39.4373 81.9133 39.0173 82.3707 38.7 82.968C38.4013 83.5467 38.252 84.2467 38.252 85.068V94H35.62V85.068C35.62 84.228 35.4707 83.5187 35.172 82.94C34.8733 82.3613 34.4627 81.9133 33.94 81.596C33.436 81.26 32.8387 81.092 32.148 81.092C31.476 81.092 30.8693 81.26 30.328 81.596C29.8053 81.9133 29.3853 82.3707 29.068 82.968C28.7693 83.5467 28.62 84.2467 28.62 85.068V94H26.016ZM59.0864 94.336C57.6304 94.336 56.3331 93.9907 55.1944 93.3C54.0557 92.6093 53.1597 91.6667 52.5064 90.472C51.8531 89.2587 51.5264 87.9053 51.5264 86.412C51.5264 84.9 51.8437 83.556 52.4784 82.38C53.1317 81.204 54.0091 80.28 55.1104 79.608C56.2304 78.9173 57.4811 78.572 58.8624 78.572C59.9824 78.572 60.9717 78.7773 61.8304 79.188C62.7077 79.58 63.4451 80.1213 64.0424 80.812C64.6584 81.484 65.1251 82.2587 65.4424 83.136C65.7784 83.9947 65.9464 84.8907 65.9464 85.824C65.9464 86.0293 65.9277 86.2627 65.8904 86.524C65.8717 86.7667 65.8437 87 65.8064 87.224H53.4304V84.984H64.2944L63.0624 85.992C63.2304 85.0213 63.1371 84.1533 62.7824 83.388C62.4277 82.6227 61.9051 82.016 61.2144 81.568C60.5237 81.12 59.7397 80.896 58.8624 80.896C57.9851 80.896 57.1824 81.12 56.4544 81.568C55.7264 82.016 55.1571 82.66 54.7464 83.5C54.3544 84.3213 54.1957 85.3013 54.2704 86.44C54.1957 87.5413 54.3637 88.512 54.7744 89.352C55.2037 90.1733 55.8011 90.8173 56.5664 91.284C57.3504 91.732 58.1997 91.956 59.1144 91.956C60.1224 91.956 60.9717 91.7227 61.6624 91.256C62.3531 90.7893 62.9131 90.192 63.3424 89.464L65.5264 90.584C65.2277 91.2747 64.7611 91.9093 64.1264 92.488C63.5104 93.048 62.7731 93.496 61.9144 93.832C61.0744 94.168 60.1317 94.336 59.0864 94.336ZM75.3056 94.336C73.7936 94.336 72.4776 93.9627 71.3576 93.216C70.2376 92.4693 69.4443 91.4613 68.9776 90.192L71.0496 89.184C71.479 90.08 72.067 90.7893 72.8136 91.312C73.5603 91.8347 74.391 92.096 75.3056 92.096C76.127 92.096 76.8083 91.9 77.3496 91.508C77.891 91.116 78.1616 90.6027 78.1616 89.968C78.1616 89.52 78.031 89.1653 77.7696 88.904C77.527 88.624 77.2283 88.4093 76.8736 88.26C76.519 88.092 76.1923 87.9707 75.8936 87.896L73.6256 87.252C72.263 86.86 71.2643 86.3 70.6296 85.572C70.0136 84.844 69.7056 83.9947 69.7056 83.024C69.7056 82.128 69.9296 81.3533 70.3776 80.7C70.8443 80.028 71.4696 79.5053 72.2536 79.132C73.0563 78.7587 73.9523 78.572 74.9416 78.572C76.267 78.572 77.4523 78.908 78.4976 79.58C79.5616 80.252 80.3176 81.1947 80.7656 82.408L78.6376 83.388C78.3016 82.604 77.7976 81.988 77.1256 81.54C76.4536 81.0733 75.6976 80.84 74.8576 80.84C74.0923 80.84 73.4856 81.036 73.0376 81.428C72.5896 81.8013 72.3656 82.2773 72.3656 82.856C72.3656 83.2853 72.4776 83.64 72.7016 83.92C72.9256 84.1813 73.1963 84.3867 73.5136 84.536C73.831 84.6667 74.139 84.7787 74.4376 84.872L76.9016 85.6C78.1336 85.9547 79.0856 86.5053 79.7576 87.252C80.4483 87.9987 80.7936 88.8947 80.7936 89.94C80.7936 90.78 80.5603 91.536 80.0936 92.208C79.627 92.88 78.983 93.4027 78.1616 93.776C77.3403 94.1493 76.3883 94.336 75.3056 94.336ZM90.1664 94.336C88.6544 94.336 87.3384 93.9627 86.2184 93.216C85.0984 92.4693 84.3051 91.4613 83.8384 90.192L85.9104 89.184C86.3397 90.08 86.9277 90.7893 87.6744 91.312C88.4211 91.8347 89.2517 92.096 90.1664 92.096C90.9877 92.096 91.6691 91.9 92.2104 91.508C92.7517 91.116 93.0224 90.6027 93.0224 89.968C93.0224 89.52 92.8917 89.1653 92.6304 88.904C92.3877 88.624 92.0891 88.4093 91.7344 88.26C91.3797 88.092 91.0531 87.9707 90.7544 87.896L88.4864 87.252C87.1237 86.86 86.1251 86.3 85.4904 85.572C84.8744 84.844 84.5664 83.9947 84.5664 83.024C84.5664 82.128 84.7904 81.3533 85.2384 80.7C85.7051 80.028 86.3304 79.5053 87.1144 79.132C87.9171 78.7587 88.8131 78.572 89.8024 78.572C91.1277 78.572 92.3131 78.908 93.3584 79.58C94.4224 80.252 95.1784 81.1947 95.6264 82.408L93.4984 83.388C93.1624 82.604 92.6584 81.988 91.9864 81.54C91.3144 81.0733 90.5584 80.84 89.7184 80.84C88.9531 80.84 88.3464 81.036 87.8984 81.428C87.4504 81.8013 87.2264 82.2773 87.2264 82.856C87.2264 83.2853 87.3384 83.64 87.5624 83.92C87.7864 84.1813 88.0571 84.3867 88.3744 84.536C88.6917 84.6667 88.9997 84.7787 89.2984 84.872L91.7624 85.6C92.9944 85.9547 93.9464 86.5053 94.6184 87.252C95.3091 87.9987 95.6544 88.8947 95.6544 89.94C95.6544 90.78 95.4211 91.536 94.9544 92.208C94.4877 92.88 93.8437 93.4027 93.0224 93.776C92.2011 94.1493 91.2491 94.336 90.1664 94.336ZM104.047 94.336C103.058 94.336 102.181 94.1587 101.415 93.804C100.669 93.4307 100.081 92.9267 99.6512 92.292C99.2219 91.6387 99.0072 90.892 99.0072 90.052C99.0072 89.2493 99.1752 88.5307 99.5112 87.896C99.8659 87.2427 100.407 86.692 101.135 86.244C101.882 85.796 102.815 85.4787 103.935 85.292L109.535 84.368V86.552L104.523 87.392C103.553 87.56 102.843 87.868 102.395 88.316C101.966 88.764 101.751 89.3147 101.751 89.968C101.751 90.584 101.994 91.0973 102.479 91.508C102.983 91.9187 103.609 92.124 104.355 92.124C105.307 92.124 106.129 91.928 106.819 91.536C107.529 91.1253 108.079 90.5747 108.471 89.884C108.882 89.1933 109.087 88.428 109.087 87.588V83.752C109.087 82.9307 108.779 82.268 108.163 81.764C107.566 81.2413 106.773 80.98 105.783 80.98C104.925 80.98 104.159 81.204 103.487 81.652C102.834 82.0813 102.349 82.66 102.031 83.388L99.7632 82.212C100.043 81.5213 100.491 80.9053 101.107 80.364C101.723 79.804 102.442 79.3653 103.263 79.048C104.085 78.7307 104.943 78.572 105.839 78.572C106.997 78.572 108.014 78.796 108.891 79.244C109.769 79.6733 110.45 80.28 110.935 81.064C111.439 81.8293 111.691 82.7253 111.691 83.752V94H109.143V91.144L109.619 91.312C109.302 91.9093 108.873 92.432 108.331 92.88C107.79 93.328 107.155 93.6827 106.427 93.944C105.699 94.2053 104.906 94.336 104.047 94.336ZM123.485 100.16C122.421 100.16 121.431 99.992 120.517 99.656C119.621 99.32 118.846 98.8533 118.193 98.256C117.558 97.6773 117.073 96.996 116.737 96.212L119.173 95.092C119.434 95.8013 119.929 96.3987 120.657 96.884C121.403 97.388 122.337 97.64 123.457 97.64C124.315 97.64 125.09 97.472 125.781 97.136C126.49 96.8187 127.05 96.3333 127.461 95.68C127.871 95.0453 128.077 94.2707 128.077 93.356V89.968L128.553 90.472C128.03 91.4987 127.274 92.2827 126.285 92.824C125.314 93.3653 124.241 93.636 123.065 93.636C121.646 93.636 120.377 93.3093 119.257 92.656C118.137 91.984 117.259 91.0787 116.625 89.94C115.99 88.7827 115.673 87.504 115.673 86.104C115.673 84.6853 115.99 83.4067 116.625 82.268C117.259 81.1293 118.127 80.2333 119.229 79.58C120.349 78.908 121.618 78.572 123.037 78.572C124.213 78.572 125.277 78.8427 126.229 79.384C127.199 79.9067 127.974 80.6347 128.553 81.568L128.161 82.268V78.908H130.709V93.356C130.709 94.6627 130.401 95.8293 129.785 96.856C129.169 97.8827 128.31 98.6853 127.209 99.264C126.126 99.8613 124.885 100.16 123.485 100.16ZM123.289 91.116C124.185 91.116 124.987 90.892 125.697 90.444C126.425 89.996 127.003 89.3987 127.433 88.652C127.862 87.8867 128.077 87.0373 128.077 86.104C128.077 85.1893 127.862 84.3493 127.433 83.584C127.003 82.8187 126.425 82.212 125.697 81.764C124.987 81.316 124.185 81.092 123.289 81.092C122.374 81.092 121.543 81.316 120.797 81.764C120.05 82.212 119.462 82.8187 119.033 83.584C118.622 84.3307 118.417 85.1707 118.417 86.104C118.417 87.0373 118.622 87.8867 119.033 88.652C119.462 89.3987 120.041 89.996 120.769 90.444C121.515 90.892 122.355 91.116 123.289 91.116ZM142.25 94.336C140.794 94.336 139.496 93.9907 138.358 93.3C137.219 92.6093 136.323 91.6667 135.67 90.472C135.016 89.2587 134.69 87.9053 134.69 86.412C134.69 84.9 135.007 83.556 135.642 82.38C136.295 81.204 137.172 80.28 138.274 79.608C139.394 78.9173 140.644 78.572 142.026 78.572C143.146 78.572 144.135 78.7773 144.994 79.188C145.871 79.58 146.608 80.1213 147.206 80.812C147.822 81.484 148.288 82.2587 148.606 83.136C148.942 83.9947 149.11 84.8907 149.11 85.824C149.11 86.0293 149.091 86.2627 149.054 86.524C149.035 86.7667 149.007 87 148.97 87.224H136.594V84.984H147.458L146.226 85.992C146.394 85.0213 146.3 84.1533 145.946 83.388C145.591 82.6227 145.068 82.016 144.378 81.568C143.687 81.12 142.903 80.896 142.026 80.896C141.148 80.896 140.346 81.12 139.618 81.568C138.89 82.016 138.32 82.66 137.91 83.5C137.518 84.3213 137.359 85.3013 137.434 86.44C137.359 87.5413 137.527 88.512 137.938 89.352C138.367 90.1733 138.964 90.8173 139.73 91.284C140.514 91.732 141.363 91.956 142.278 91.956C143.286 91.956 144.135 91.7227 144.826 91.256C145.516 90.7893 146.076 90.192 146.506 89.464L148.69 90.584C148.391 91.2747 147.924 91.9093 147.29 92.488C146.674 93.048 145.936 93.496 145.078 93.832C144.238 94.168 143.295 94.336 142.25 94.336ZM153.513 97.892V96.632C154.092 96.4827 154.53 96.1933 154.829 95.764C155.128 95.3347 155.296 94.7467 155.333 94H154.073V90.64H156.789V93.02C156.789 94.364 156.509 95.4467 155.949 96.268C155.408 97.0893 154.596 97.6307 153.513 97.892ZM170.864 94L165.684 78.908H168.568L172.684 91.536L171.676 91.508L175.708 78.908H178.172L182.204 91.508L181.196 91.536L185.34 78.908H188.196L183.016 94H180.524L176.548 81.4H177.332L173.356 94H170.864ZM191.085 94V78.908H193.689V94H191.085ZM191.085 76.5V73.14H193.689V76.5H191.085ZM204.421 94.168C202.947 94.168 201.808 93.748 201.005 92.908C200.221 92.068 199.829 90.8827 199.829 89.352V81.4H197.085V78.908H197.645C198.317 78.908 198.849 78.7027 199.241 78.292C199.633 77.8813 199.829 77.34 199.829 76.668V75.436H202.433V78.908H205.821V81.4H202.433V89.268C202.433 89.772 202.508 90.2107 202.657 90.584C202.825 90.9573 203.096 91.256 203.469 91.48C203.843 91.6853 204.337 91.788 204.953 91.788C205.084 91.788 205.243 91.7787 205.429 91.76C205.635 91.7413 205.821 91.7227 205.989 91.704V94C205.747 94.056 205.476 94.0933 205.177 94.112C204.879 94.1493 204.627 94.168 204.421 94.168ZM209.951 94V72.804H212.555V81.848L212.079 81.596C212.452 80.644 213.05 79.9067 213.871 79.384C214.711 78.8427 215.691 78.572 216.811 78.572C217.894 78.572 218.855 78.8147 219.695 79.3C220.554 79.7853 221.226 80.4573 221.711 81.316C222.215 82.1747 222.467 83.1453 222.467 84.228V94H219.835V85.068C219.835 84.228 219.676 83.5187 219.359 82.94C219.06 82.3613 218.64 81.9133 218.099 81.596C217.558 81.26 216.932 81.092 216.223 81.092C215.532 81.092 214.907 81.26 214.347 81.596C213.787 81.9133 213.348 82.3707 213.031 82.968C212.714 83.5467 212.555 84.2467 212.555 85.068V94H209.951ZM233.921 94.336C232.465 94.336 231.149 94 229.973 93.328C228.797 92.6373 227.864 91.6947 227.173 90.5C226.482 89.3053 226.137 87.952 226.137 86.44C226.137 84.928 226.473 83.584 227.145 82.408C227.836 81.232 228.769 80.2987 229.945 79.608C231.121 78.9173 232.446 78.572 233.921 78.572C235.377 78.572 236.693 78.9173 237.869 79.608C239.045 80.28 239.969 81.204 240.641 82.38C241.332 83.556 241.677 84.9093 241.677 86.44C241.677 87.9707 241.322 89.3333 240.613 90.528C239.904 91.704 238.961 92.6373 237.785 93.328C236.628 94 235.34 94.336 233.921 94.336ZM233.921 91.816C234.854 91.816 235.694 91.5827 236.441 91.116C237.206 90.6493 237.804 90.0053 238.233 89.184C238.681 88.3627 238.905 87.448 238.905 86.44C238.905 85.4133 238.681 84.508 238.233 83.724C237.804 82.9213 237.206 82.2867 236.441 81.82C235.694 81.3347 234.854 81.092 233.921 81.092C232.969 81.092 232.11 81.3347 231.345 81.82C230.598 82.2867 230.001 82.9213 229.553 83.724C229.105 84.508 228.881 85.4133 228.881 86.44C228.881 87.448 229.105 88.3627 229.553 89.184C230.001 90.0053 230.598 90.6493 231.345 91.116C232.11 91.5827 232.969 91.816 233.921 91.816ZM250.981 94.336C249.899 94.336 248.919 94.084 248.041 93.58C247.183 93.076 246.511 92.376 246.025 91.48C245.559 90.5653 245.325 89.52 245.325 88.344V78.908H247.929V88.064C247.929 88.8107 248.079 89.464 248.377 90.024C248.695 90.584 249.124 91.0227 249.665 91.34C250.225 91.6573 250.86 91.816 251.569 91.816C252.279 91.816 252.904 91.6573 253.445 91.34C254.005 91.0227 254.435 90.5653 254.733 89.968C255.051 89.3707 255.209 88.6613 255.209 87.84V78.908H257.841V94H255.293V91.06L255.713 91.312C255.359 92.264 254.752 93.0107 253.893 93.552C253.053 94.0747 252.083 94.336 250.981 94.336ZM268.568 94.168C267.093 94.168 265.954 93.748 265.152 92.908C264.368 92.068 263.976 90.8827 263.976 89.352V81.4H261.232V78.908H261.792C262.464 78.908 262.996 78.7027 263.388 78.292C263.78 77.8813 263.976 77.34 263.976 76.668V75.436H266.58V78.908H269.968V81.4H266.58V89.268C266.58 89.772 266.654 90.2107 266.804 90.584C266.972 90.9573 267.242 91.256 267.616 91.48C267.989 91.6853 268.484 91.788 269.1 91.788C269.23 91.788 269.389 91.7787 269.576 91.76C269.781 91.7413 269.968 91.7227 270.136 91.704V94C269.893 94.056 269.622 94.0933 269.324 94.112C269.025 94.1493 268.773 94.168 268.568 94.168ZM283.921 94.336C282.932 94.336 282.054 94.1587 281.289 93.804C280.542 93.4307 279.954 92.9267 279.525 92.292C279.096 91.6387 278.881 90.892 278.881 90.052C278.881 89.2493 279.049 88.5307 279.385 87.896C279.74 87.2427 280.281 86.692 281.009 86.244C281.756 85.796 282.689 85.4787 283.809 85.292L289.409 84.368V86.552L284.397 87.392C283.426 87.56 282.717 87.868 282.269 88.316C281.84 88.764 281.625 89.3147 281.625 89.968C281.625 90.584 281.868 91.0973 282.353 91.508C282.857 91.9187 283.482 92.124 284.229 92.124C285.181 92.124 286.002 91.928 286.693 91.536C287.402 91.1253 287.953 90.5747 288.345 89.884C288.756 89.1933 288.961 88.428 288.961 87.588V83.752C288.961 82.9307 288.653 82.268 288.037 81.764C287.44 81.2413 286.646 80.98 285.657 80.98C284.798 80.98 284.033 81.204 283.361 81.652C282.708 82.0813 282.222 82.66 281.905 83.388L279.637 82.212C279.917 81.5213 280.365 80.9053 280.981 80.364C281.597 79.804 282.316 79.3653 283.137 79.048C283.958 78.7307 284.817 78.572 285.713 78.572C286.87 78.572 287.888 78.796 288.765 79.244C289.642 79.6733 290.324 80.28 290.809 81.064C291.313 81.8293 291.565 82.7253 291.565 83.752V94H289.017V91.144L289.493 91.312C289.176 91.9093 288.746 92.432 288.205 92.88C287.664 93.328 287.029 93.6827 286.301 93.944C285.573 94.2053 284.78 94.336 283.921 94.336ZM296.162 94V78.908H298.71V81.848L298.29 81.596C298.664 80.644 299.261 79.9067 300.082 79.384C300.922 78.8427 301.902 78.572 303.022 78.572C304.105 78.572 305.066 78.8147 305.906 79.3C306.765 79.7853 307.437 80.4573 307.922 81.316C308.426 82.1747 308.678 83.1453 308.678 84.228V94H306.046V85.068C306.046 84.228 305.897 83.5187 305.598 82.94C305.3 82.3613 304.87 81.9133 304.31 81.596C303.769 81.26 303.144 81.092 302.434 81.092C301.725 81.092 301.09 81.26 300.53 81.596C299.989 81.9133 299.56 82.3707 299.242 82.968C298.925 83.5467 298.766 84.2467 298.766 85.068V94H296.162ZM313.503 100.16C313.167 100.16 312.831 100.132 312.495 100.076C312.159 100.02 311.842 99.9267 311.543 99.796V97.472C311.749 97.5093 312.001 97.5467 312.299 97.584C312.617 97.64 312.925 97.668 313.223 97.668C314.101 97.668 314.763 97.472 315.211 97.08C315.678 96.7067 316.117 96.0533 316.527 95.12L317.479 92.852L317.423 95.12L310.983 78.908H313.811L318.823 91.788H317.983L322.967 78.908H325.851L319.047 95.792C318.73 96.5947 318.319 97.3227 317.815 97.976C317.33 98.648 316.733 99.18 316.023 99.572C315.314 99.964 314.474 100.16 313.503 100.16Z" fill="#B2B4B3"/>
<path d="M157.722 55.336C156.303 55.336 155.025 54.9907 153.886 54.3C152.766 53.6093 151.879 52.6667 151.226 51.472C150.573 50.2773 150.246 48.9427 150.246 47.468C150.246 45.956 150.573 44.612 151.226 43.436C151.879 42.2413 152.766 41.2987 153.886 40.608C155.025 39.9173 156.303 39.572 157.722 39.572C158.973 39.572 160.083 39.8427 161.054 40.384C162.025 40.9067 162.79 41.616 163.35 42.512L162.93 43.156V33.804H165.562V55H163.014V51.78L163.35 52.228C162.827 53.2173 162.062 53.9827 161.054 54.524C160.065 55.0653 158.954 55.336 157.722 55.336ZM157.946 52.816C158.898 52.816 159.747 52.5827 160.494 52.116C161.241 51.6493 161.829 51.0147 162.258 50.212C162.706 49.3907 162.93 48.476 162.93 47.468C162.93 46.4413 162.706 45.5267 162.258 44.724C161.829 43.9027 161.241 43.2587 160.494 42.792C159.747 42.3253 158.898 42.092 157.946 42.092C157.013 42.092 156.163 42.3347 155.398 42.82C154.651 43.2867 154.063 43.9213 153.634 44.724C153.205 45.508 152.99 46.4227 152.99 47.468C152.99 48.476 153.205 49.3907 153.634 50.212C154.063 51.0147 154.651 51.6493 155.398 52.116C156.145 52.5827 156.994 52.816 157.946 52.816ZM177.097 55.336C175.641 55.336 174.343 54.9907 173.205 54.3C172.066 53.6093 171.17 52.6667 170.517 51.472C169.863 50.2587 169.537 48.9053 169.537 47.412C169.537 45.9 169.854 44.556 170.489 43.38C171.142 42.204 172.019 41.28 173.121 40.608C174.241 39.9173 175.491 39.572 176.873 39.572C177.993 39.572 178.982 39.7773 179.841 40.188C180.718 40.58 181.455 41.1213 182.053 41.812C182.669 42.484 183.135 43.2587 183.453 44.136C183.789 44.9947 183.957 45.8907 183.957 46.824C183.957 47.0293 183.938 47.2627 183.901 47.524C183.882 47.7667 183.854 48 183.817 48.224H171.441V45.984H182.305L181.073 46.992C181.241 46.0213 181.147 45.1533 180.793 44.388C180.438 43.6227 179.915 43.016 179.225 42.568C178.534 42.12 177.75 41.896 176.873 41.896C175.995 41.896 175.193 42.12 174.465 42.568C173.737 43.016 173.167 43.66 172.757 44.5C172.365 45.3213 172.206 46.3013 172.281 47.44C172.206 48.5413 172.374 49.512 172.785 50.352C173.214 51.1733 173.811 51.8173 174.577 52.284C175.361 52.732 176.21 52.956 177.125 52.956C178.133 52.956 178.982 52.7227 179.673 52.256C180.363 51.7893 180.923 51.192 181.353 50.464L183.537 51.584C183.238 52.2747 182.771 52.9093 182.137 53.488C181.521 54.048 180.783 54.496 179.925 54.832C179.085 55.168 178.142 55.336 177.097 55.336ZM187.912 55V33.804H190.516V55H187.912ZM195.116 55V39.908H197.72V55H195.116ZM195.116 37.5V34.14H197.72V37.5H195.116ZM206.521 55L200.613 39.908H203.525L208.257 52.676H207.249L212.009 39.908H214.921L208.985 55H206.521ZM224.481 55.336C223.025 55.336 221.728 54.9907 220.589 54.3C219.45 53.6093 218.554 52.6667 217.901 51.472C217.248 50.2587 216.921 48.9053 216.921 47.412C216.921 45.9 217.238 44.556 217.873 43.38C218.526 42.204 219.404 41.28 220.505 40.608C221.625 39.9173 222.876 39.572 224.257 39.572C225.377 39.572 226.366 39.7773 227.225 40.188C228.102 40.58 228.84 41.1213 229.437 41.812C230.053 42.484 230.52 43.2587 230.837 44.136C231.173 44.9947 231.341 45.8907 231.341 46.824C231.341 47.0293 231.322 47.2627 231.285 47.524C231.266 47.7667 231.238 48 231.201 48.224H218.825V45.984H229.689L228.457 46.992C228.625 46.0213 228.532 45.1533 228.177 44.388C227.822 43.6227 227.3 43.016 226.609 42.568C225.918 42.12 225.134 41.896 224.257 41.896C223.38 41.896 222.577 42.12 221.849 42.568C221.121 43.016 220.552 43.66 220.141 44.5C219.749 45.3213 219.59 46.3013 219.665 47.44C219.59 48.5413 219.758 49.512 220.169 50.352C220.598 51.1733 221.196 51.8173 221.961 52.284C222.745 52.732 223.594 52.956 224.509 52.956C225.517 52.956 226.366 52.7227 227.057 52.256C227.748 51.7893 228.308 51.192 228.737 50.464L230.921 51.584C230.622 52.2747 230.156 52.9093 229.521 53.488C228.905 54.048 228.168 54.496 227.309 54.832C226.469 55.168 225.526 55.336 224.481 55.336ZM235.296 55V39.908H237.844V42.68L237.564 42.288C237.919 41.4293 238.46 40.7947 239.188 40.384C239.916 39.9547 240.803 39.74 241.848 39.74H242.772V42.204H241.456C240.392 42.204 239.534 42.54 238.88 43.212C238.227 43.8653 237.9 44.7987 237.9 46.012V55H235.296ZM26.016 133V117.908H28.564V120.848L28.144 120.596C28.5173 119.644 29.1147 118.907 29.936 118.384C30.776 117.843 31.756 117.572 32.876 117.572C33.9587 117.572 34.92 117.815 35.76 118.3C36.6187 118.785 37.2907 119.457 37.776 120.316C38.28 121.175 38.532 122.145 38.532 123.228V133H35.9V124.068C35.9 123.228 35.7507 122.519 35.452 121.94C35.1533 121.361 34.724 120.913 34.164 120.596C33.6227 120.26 32.9973 120.092 32.288 120.092C31.5787 120.092 30.944 120.26 30.384 120.596C29.8427 120.913 29.4133 121.371 29.096 121.968C28.7787 122.547 28.62 123.247 28.62 124.068V133H26.016ZM48.1662 133.336C47.0835 133.336 46.1035 133.084 45.2262 132.58C44.3675 132.076 43.6955 131.376 43.2102 130.48C42.7435 129.565 42.5102 128.52 42.5102 127.344V117.908H45.1142V127.064C45.1142 127.811 45.2635 128.464 45.5622 129.024C45.8795 129.584 46.3089 130.023 46.8502 130.34C47.4102 130.657 48.0449 130.816 48.7542 130.816C49.4635 130.816 50.0889 130.657 50.6302 130.34C51.1902 130.023 51.6195 129.565 51.9182 128.968C52.2355 128.371 52.3942 127.661 52.3942 126.84V117.908H55.0262V133H52.4782V130.06L52.8982 130.312C52.5435 131.264 51.9369 132.011 51.0782 132.552C50.2382 133.075 49.2675 133.336 48.1662 133.336ZM59.6204 133V117.908H62.1684V120.988L61.8044 120.512C62.1777 119.56 62.775 118.832 63.5964 118.328C64.4177 117.824 65.3417 117.572 66.3684 117.572C67.5444 117.572 68.599 117.899 69.5324 118.552C70.4844 119.205 71.1377 120.064 71.4924 121.128L70.7644 121.156C71.1564 119.98 71.819 119.093 72.7524 118.496C73.6857 117.88 74.7217 117.572 75.8604 117.572C76.9057 117.572 77.8484 117.815 78.6884 118.3C79.547 118.785 80.2284 119.457 80.7324 120.316C81.2364 121.175 81.4884 122.145 81.4884 123.228V133H78.8564V124.068C78.8564 123.228 78.707 122.519 78.4084 121.94C78.1097 121.361 77.699 120.913 77.1764 120.596C76.6724 120.26 76.075 120.092 75.3844 120.092C74.7124 120.092 74.1057 120.26 73.5644 120.596C73.0417 120.913 72.6217 121.371 72.3044 121.968C72.0057 122.547 71.8564 123.247 71.8564 124.068V133H69.2244V124.068C69.2244 123.228 69.075 122.519 68.7764 121.94C68.4777 121.361 68.067 120.913 67.5444 120.596C67.0404 120.26 66.443 120.092 65.7524 120.092C65.0804 120.092 64.4737 120.26 63.9324 120.596C63.4097 120.913 62.9897 121.371 62.6724 121.968C62.3737 122.547 62.2244 123.247 62.2244 124.068V133H59.6204ZM93.5588 133.336C92.3454 133.336 91.2348 133.065 90.2268 132.524C89.2374 131.983 88.4721 131.217 87.9308 130.228L88.2948 129.78V133H85.7468V111.804H88.3508V121.156L87.9588 120.512C88.5188 119.616 89.2841 118.907 90.2548 118.384C91.2254 117.843 92.3361 117.572 93.5868 117.572C95.0054 117.572 96.2748 117.917 97.3948 118.608C98.5334 119.299 99.4294 120.241 100.083 121.436C100.736 122.612 101.063 123.956 101.063 125.468C101.063 126.943 100.736 128.277 100.083 129.472C99.4294 130.667 98.5334 131.609 97.3948 132.3C96.2748 132.991 94.9961 133.336 93.5588 133.336ZM93.3628 130.816C94.3148 130.816 95.1641 130.583 95.9108 130.116C96.6574 129.649 97.2361 129.015 97.6468 128.212C98.0761 127.391 98.2908 126.476 98.2908 125.468C98.2908 124.423 98.0761 123.508 97.6468 122.724C97.2361 121.921 96.6574 121.287 95.9108 120.82C95.1641 120.335 94.3148 120.092 93.3628 120.092C92.4108 120.092 91.5521 120.325 90.7868 120.792C90.0401 121.259 89.4428 121.903 88.9948 122.724C88.5654 123.527 88.3508 124.441 88.3508 125.468C88.3508 126.476 88.5654 127.391 88.9948 128.212C89.4428 129.015 90.0401 129.649 90.7868 130.116C91.5521 130.583 92.4108 130.816 93.3628 130.816ZM111.981 133.336C110.525 133.336 109.228 132.991 108.089 132.3C106.951 131.609 106.055 130.667 105.401 129.472C104.748 128.259 104.421 126.905 104.421 125.412C104.421 123.9 104.739 122.556 105.373 121.38C106.027 120.204 106.904 119.28 108.005 118.608C109.125 117.917 110.376 117.572 111.757 117.572C112.877 117.572 113.867 117.777 114.725 118.188C115.603 118.58 116.34 119.121 116.937 119.812C117.553 120.484 118.02 121.259 118.337 122.136C118.673 122.995 118.841 123.891 118.841 124.824C118.841 125.029 118.823 125.263 118.785 125.524C118.767 125.767 118.739 126 118.701 126.224H106.325V123.984H117.189L115.957 124.992C116.125 124.021 116.032 123.153 115.677 122.388C115.323 121.623 114.8 121.016 114.109 120.568C113.419 120.12 112.635 119.896 111.757 119.896C110.88 119.896 110.077 120.12 109.349 120.568C108.621 121.016 108.052 121.66 107.641 122.5C107.249 123.321 107.091 124.301 107.165 125.44C107.091 126.541 107.259 127.512 107.669 128.352C108.099 129.173 108.696 129.817 109.461 130.284C110.245 130.732 111.095 130.956 112.009 130.956C113.017 130.956 113.867 130.723 114.557 130.256C115.248 129.789 115.808 129.192 116.237 128.464L118.421 129.584C118.123 130.275 117.656 130.909 117.021 131.488C116.405 132.048 115.668 132.496 114.809 132.832C113.969 133.168 113.027 133.336 111.981 133.336ZM122.796 133V117.908H125.344V120.68L125.064 120.288C125.419 119.429 125.96 118.795 126.688 118.384C127.416 117.955 128.303 117.74 129.348 117.74H130.272V120.204H128.956C127.892 120.204 127.034 120.54 126.38 121.212C125.727 121.865 125.4 122.799 125.4 124.012V133H122.796ZM146.357 133.336C145.144 133.336 144.033 133.065 143.025 132.524C142.036 131.983 141.271 131.217 140.729 130.228L141.093 129.78V133H138.545V111.804H141.149V121.156L140.757 120.512C141.317 119.616 142.083 118.907 143.053 118.384C144.024 117.843 145.135 117.572 146.385 117.572C147.804 117.572 149.073 117.917 150.193 118.608C151.332 119.299 152.228 120.241 152.881 121.436C153.535 122.612 153.861 123.956 153.861 125.468C153.861 126.943 153.535 128.277 152.881 129.472C152.228 130.667 151.332 131.609 150.193 132.3C149.073 132.991 147.795 133.336 146.357 133.336ZM146.161 130.816C147.113 130.816 147.963 130.583 148.709 130.116C149.456 129.649 150.035 129.015 150.445 128.212C150.875 127.391 151.089 126.476 151.089 125.468C151.089 124.423 150.875 123.508 150.445 122.724C150.035 121.921 149.456 121.287 148.709 120.82C147.963 120.335 147.113 120.092 146.161 120.092C145.209 120.092 144.351 120.325 143.585 120.792C142.839 121.259 142.241 121.903 141.793 122.724C141.364 123.527 141.149 124.441 141.149 125.468C141.149 126.476 141.364 127.391 141.793 128.212C142.241 129.015 142.839 129.649 143.585 130.116C144.351 130.583 145.209 130.816 146.161 130.816ZM162.26 133.336C161.271 133.336 160.393 133.159 159.628 132.804C158.881 132.431 158.293 131.927 157.864 131.292C157.435 130.639 157.22 129.892 157.22 129.052C157.22 128.249 157.388 127.531 157.724 126.896C158.079 126.243 158.62 125.692 159.348 125.244C160.095 124.796 161.028 124.479 162.148 124.292L167.748 123.368V125.552L162.736 126.392C161.765 126.56 161.056 126.868 160.608 127.316C160.179 127.764 159.964 128.315 159.964 128.968C159.964 129.584 160.207 130.097 160.692 130.508C161.196 130.919 161.821 131.124 162.568 131.124C163.52 131.124 164.341 130.928 165.032 130.536C165.741 130.125 166.292 129.575 166.684 128.884C167.095 128.193 167.3 127.428 167.3 126.588V122.752C167.3 121.931 166.992 121.268 166.376 120.764C165.779 120.241 164.985 119.98 163.996 119.98C163.137 119.98 162.372 120.204 161.7 120.652C161.047 121.081 160.561 121.66 160.244 122.388L157.976 121.212C158.256 120.521 158.704 119.905 159.32 119.364C159.936 118.804 160.655 118.365 161.476 118.048C162.297 117.731 163.156 117.572 164.052 117.572C165.209 117.572 166.227 117.796 167.104 118.244C167.981 118.673 168.663 119.28 169.148 120.064C169.652 120.829 169.904 121.725 169.904 122.752V133H167.356V130.144L167.832 130.312C167.515 130.909 167.085 131.432 166.544 131.88C166.003 132.328 165.368 132.683 164.64 132.944C163.912 133.205 163.119 133.336 162.26 133.336ZM174.501 133V117.908H177.049V120.848L176.629 120.596C177.003 119.644 177.6 118.907 178.421 118.384C179.261 117.843 180.241 117.572 181.361 117.572C182.444 117.572 183.405 117.815 184.245 118.3C185.104 118.785 185.776 119.457 186.261 120.316C186.765 121.175 187.017 122.145 187.017 123.228V133H184.385V124.068C184.385 123.228 184.236 122.519 183.937 121.94C183.639 121.361 183.209 120.913 182.649 120.596C182.108 120.26 181.483 120.092 180.773 120.092C180.064 120.092 179.429 120.26 178.869 120.596C178.328 120.913 177.899 121.371 177.581 121.968C177.264 122.547 177.105 123.247 177.105 124.068V133H174.501Z" fill="#1D2220"/>
<g filter="url(#filter0_d_1_187)">
<g clip-path="url(#clip1_1_187)">
<path d="M49 179.044C49 167.974 57.9742 159 69.0443 159H341.956C353.026 159 362 167.974 362 179.044V389.686H69.0443C57.9742 389.686 49 380.711 49 369.641V179.044Z" fill="white"/>
<rect x="59.0222" y="169.022" width="292.956" height="118" rx="11.1786" fill="#F1F2F2"/>
<path fill-rule="evenodd" clip-rule="evenodd" d="M196.684 214.344C202.551 213.834 208.451 213.834 214.318 214.344L217.131 214.59C218.439 214.704 219.67 215.255 220.627 216.154C221.584 217.053 222.21 218.248 222.406 219.546C223.251 225.165 223.251 230.88 222.406 236.5C222.33 236.993 222.198 237.461 222.011 237.905C221.888 238.197 221.508 238.242 221.292 238.007L213.055 228.945C212.873 228.745 212.636 228.601 212.375 228.533C212.113 228.465 211.836 228.474 211.579 228.559L206.864 230.132L200.025 222.437C199.898 222.295 199.744 222.18 199.571 222.099C199.399 222.019 199.211 221.974 199.021 221.969C198.831 221.963 198.641 221.996 198.464 222.067C198.287 222.137 198.127 222.243 197.992 222.377L188.837 231.533C188.774 231.597 188.695 231.641 188.608 231.66C188.521 231.68 188.43 231.673 188.347 231.642C188.263 231.611 188.191 231.555 188.138 231.483C188.085 231.411 188.055 231.326 188.05 231.236C187.83 227.331 188.012 223.412 188.594 219.544C188.79 218.246 189.417 217.051 190.373 216.152C191.33 215.253 192.561 214.702 193.869 214.588L196.684 214.344ZM209.226 222.433C209.226 221.692 209.521 220.981 210.045 220.457C210.569 219.933 211.28 219.639 212.021 219.639C212.762 219.639 213.473 219.933 213.997 220.457C214.521 220.981 214.816 221.692 214.816 222.433C214.816 223.175 214.521 223.885 213.997 224.409C213.473 224.934 212.762 225.228 212.021 225.228C211.28 225.228 210.569 224.934 210.045 224.409C209.521 223.885 209.226 223.175 209.226 222.433Z" fill="#1D2220" fill-opacity="0.12"/>
<path d="M188.66 235.66C188.609 235.711 188.571 235.773 188.549 235.841C188.526 235.909 188.519 235.981 188.529 236.052L188.594 236.499C188.79 237.797 189.417 238.991 190.373 239.89C191.33 240.789 192.561 241.34 193.869 241.455L196.682 241.699C202.551 242.209 208.449 242.209 214.318 241.699L217.131 241.455C217.903 241.389 218.654 241.17 219.339 240.808C219.595 240.676 219.637 240.339 219.444 240.126L211.805 231.724C211.744 231.656 211.665 231.608 211.578 231.585C211.49 231.562 211.397 231.565 211.311 231.593L206.873 233.073C206.614 233.159 206.335 233.168 206.07 233.097C205.806 233.027 205.568 232.88 205.387 232.676L199.248 225.769C199.205 225.722 199.154 225.684 199.096 225.657C199.039 225.63 198.976 225.615 198.913 225.613C198.849 225.612 198.786 225.623 198.727 225.647C198.668 225.67 198.614 225.706 198.569 225.751L188.66 235.66Z" fill="#1D2220" fill-opacity="0.12"/>
<rect x="65.7679" y="299.55" width="279.464" height="10.0222" rx="5.01108" fill="#1D2220" fill-opacity="0.06"/>
<rect x="136.221" y="317.089" width="129.164" height="10.0222" rx="5.01108" fill="#1D2220" fill-opacity="0.06"/>
<rect x="65.7679" y="317.089" width="65.7563" height="10.0222" rx="5.01108" fill="#1D2220" fill-opacity="0.06"/>
<rect x="65.7679" y="334.629" width="255.98" height="10.0222" rx="5.01108" fill="#1D2220" fill-opacity="0.06"/>
<rect x="65.7679" y="352.164" width="164.391" height="10.0222" rx="5.01108" fill="#1D2220" fill-opacity="0.06"/>
</g>
<path d="M69.0439 159.5H341.956C352.75 159.5 361.5 168.25 361.5 179.044V389.186H69.0439C58.2502 389.185 49.5002 380.435 49.5 369.642V179.044C49.5002 168.25 58.2502 159.5 69.0439 159.5Z" stroke="#1D2220" stroke-opacity="0.1"/>
</g>
<rect y="293" width="411" height="72" fill="url(#paint1_linear_1_187)"/>
<g filter="url(#filter1_d_1_187)">
<rect x="297" y="300" width="96" height="28" rx="14" fill="white" shape-rendering="crispEdges"/>
<rect x="297.5" y="300.5" width="95" height="27" rx="13.5" stroke="#019F53" stroke-opacity="0.3" shape-rendering="crispEdges"/>
<path d="M306.75 315.75L309.25 318.25M312.75 314.25L315.25 311.75M310.75 315.75L313.25 318.25L319.25 311.75" stroke="#019F53" stroke-width="1.2" stroke-linecap="round" stroke-linejoin="round"/>
<path d="M325.996 319V310.06H328.924C329.828 310.06 330.616 310.244 331.288 310.612C331.96 310.98 332.48 311.5 332.848 312.172C333.216 312.836 333.4 313.62 333.4 314.524C333.4 315.42 333.216 316.204 332.848 316.876C332.48 317.548 331.96 318.072 331.288 318.448C330.616 318.816 329.828 319 328.924 319H325.996ZM327.172 317.92H328.936C329.6 317.92 330.172 317.78 330.652 317.5C331.14 317.22 331.516 316.828 331.78 316.324C332.044 315.812 332.176 315.212 332.176 314.524C332.176 313.828 332.04 313.228 331.768 312.724C331.504 312.22 331.128 311.832 330.64 311.56C330.16 311.28 329.592 311.14 328.936 311.14H327.172V317.92ZM337.975 319.144C337.351 319.144 336.795 318.996 336.307 318.7C335.819 318.404 335.435 318 335.155 317.488C334.875 316.968 334.735 316.388 334.735 315.748C334.735 315.1 334.871 314.524 335.143 314.02C335.423 313.516 335.799 313.12 336.271 312.832C336.751 312.536 337.287 312.388 337.879 312.388C338.359 312.388 338.783 312.476 339.151 312.652C339.527 312.82 339.843 313.052 340.099 313.348C340.363 313.636 340.563 313.968 340.699 314.344C340.843 314.712 340.915 315.096 340.915 315.496C340.915 315.584 340.907 315.684 340.891 315.796C340.883 315.9 340.871 316 340.855 316.096H335.551V315.136H340.207L339.679 315.568C339.751 315.152 339.711 314.78 339.559 314.452C339.407 314.124 339.183 313.864 338.887 313.672C338.591 313.48 338.255 313.384 337.879 313.384C337.503 313.384 337.159 313.48 336.847 313.672C336.535 313.864 336.291 314.14 336.115 314.5C335.947 314.852 335.879 315.272 335.911 315.76C335.879 316.232 335.951 316.648 336.127 317.008C336.311 317.36 336.567 317.636 336.895 317.836C337.231 318.028 337.595 318.124 337.987 318.124C338.419 318.124 338.783 318.024 339.079 317.824C339.375 317.624 339.615 317.368 339.799 317.056L340.735 317.536C340.607 317.832 340.407 318.104 340.135 318.352C339.871 318.592 339.555 318.784 339.187 318.928C338.827 319.072 338.423 319.144 337.975 319.144ZM342.61 319V309.916H343.726V319H342.61ZM345.697 319V312.532H346.813V319H345.697ZM345.697 311.5V310.06H346.813V311.5H345.697ZM350.585 319L348.053 312.532H349.301L351.329 318.004H350.897L352.937 312.532H354.185L351.641 319H350.585ZM358.282 319.144C357.658 319.144 357.102 318.996 356.614 318.7C356.126 318.404 355.742 318 355.462 317.488C355.182 316.968 355.042 316.388 355.042 315.748C355.042 315.1 355.178 314.524 355.45 314.02C355.73 313.516 356.106 313.12 356.578 312.832C357.058 312.536 357.594 312.388 358.186 312.388C358.666 312.388 359.09 312.476 359.458 312.652C359.834 312.82 360.15 313.052 360.406 313.348C360.67 313.636 360.87 313.968 361.006 314.344C361.15 314.712 361.222 315.096 361.222 315.496C361.222 315.584 361.214 315.684 361.198 315.796C361.19 315.9 361.178 316 361.162 316.096H355.858V315.136H360.514L359.986 315.568C360.058 315.152 360.018 314.78 359.866 314.452C359.714 314.124 359.49 313.864 359.194 313.672C358.898 313.48 358.562 313.384 358.186 313.384C357.81 313.384 357.466 313.48 357.154 313.672C356.842 313.864 356.598 314.14 356.422 314.5C356.254 314.852 356.186 315.272 356.218 315.76C356.186 316.232 356.258 316.648 356.434 317.008C356.618 317.36 356.874 317.636 357.202 317.836C357.538 318.028 357.902 318.124 358.294 318.124C358.726 318.124 359.09 318.024 359.386 317.824C359.682 317.624 359.922 317.368 360.106 317.056L361.042 317.536C360.914 317.832 360.714 318.104 360.442 318.352C360.178 318.592 359.862 318.784 359.494 318.928C359.134 319.072 358.73 319.144 358.282 319.144ZM362.917 319V312.532H364.009V313.72L363.889 313.552C364.041 313.184 364.273 312.912 364.585 312.736C364.897 312.552 365.277 312.46 365.725 312.46H366.121V313.516H365.557C365.101 313.516 364.733 313.66 364.453 313.948C364.173 314.228 364.033 314.628 364.033 315.148V319H362.917ZM370.329 319.144C369.705 319.144 369.149 318.996 368.661 318.7C368.173 318.404 367.789 318 367.509 317.488C367.229 316.968 367.089 316.388 367.089 315.748C367.089 315.1 367.225 314.524 367.497 314.02C367.777 313.516 368.153 313.12 368.625 312.832C369.105 312.536 369.641 312.388 370.233 312.388C370.713 312.388 371.137 312.476 371.505 312.652C371.881 312.82 372.197 313.052 372.453 313.348C372.717 313.636 372.917 313.968 373.053 314.344C373.197 314.712 373.269 315.096 373.269 315.496C373.269 315.584 373.261 315.684 373.245 315.796C373.237 315.9 373.225 316 373.209 316.096H367.905V315.136H372.561L372.033 315.568C372.105 315.152 372.065 314.78 371.913 314.452C371.761 314.124 371.537 313.864 371.241 313.672C370.945 313.48 370.609 313.384 370.233 313.384C369.857 313.384 369.513 313.48 369.201 313.672C368.889 313.864 368.645 314.14 368.469 314.5C368.301 314.852 368.233 315.272 368.265 315.76C368.233 316.232 368.305 316.648 368.481 317.008C368.665 317.36 368.921 317.636 369.249 317.836C369.585 318.028 369.949 318.124 370.341 318.124C370.773 318.124 371.137 318.024 371.433 317.824C371.729 317.624 371.969 317.368 372.153 317.056L373.089 317.536C372.961 317.832 372.761 318.104 372.489 318.352C372.225 318.592 371.909 318.784 371.541 318.928C371.181 319.072 370.777 319.144 370.329 319.144ZM377.904 319.144C377.296 319.144 376.748 318.996 376.26 318.7C375.78 318.404 375.4 318 375.12 317.488C374.84 316.976 374.7 316.404 374.7 315.772C374.7 315.124 374.84 314.548 375.12 314.044C375.4 313.532 375.78 313.128 376.26 312.832C376.748 312.536 377.296 312.388 377.904 312.388C378.44 312.388 378.916 312.504 379.332 312.736C379.748 312.96 380.076 313.264 380.316 313.648L380.136 313.924V309.916H381.264V319H380.172V317.62L380.316 317.812C380.092 318.236 379.764 318.564 379.332 318.796C378.908 319.028 378.432 319.144 377.904 319.144ZM378 318.064C378.408 318.064 378.772 317.964 379.092 317.764C379.412 317.564 379.664 317.292 379.848 316.948C380.04 316.596 380.136 316.204 380.136 315.772C380.136 315.332 380.04 314.94 379.848 314.596C379.664 314.244 379.412 313.968 379.092 313.768C378.772 313.568 378.408 313.468 378 313.468C377.6 313.468 377.236 313.572 376.908 313.78C376.588 313.98 376.336 314.252 376.152 314.596C375.968 314.932 375.876 315.324 375.876 315.772C375.876 316.204 375.968 316.596 376.152 316.948C376.336 317.292 376.588 317.564 376.908 317.764C377.228 317.964 377.592 318.064 378 318.064Z" fill="#019F53"/>
</g>
<g filter="url(#filter2_d_1_187)">
<path d="M17 236C17 228.268 23.268 222 31 222H84C91.732 222 98 228.268 98 236C98 243.732 91.732 250 84 250H31C23.268 250 17 243.732 17 236Z" fill="white" shape-rendering="crispEdges"/>
<path d="M31 222.5H84C91.4558 222.5 97.5 228.544 97.5 236C97.5 243.456 91.4558 249.5 84 249.5H31C23.5442 249.5 17.5 243.456 17.5 236C17.5 228.544 23.5442 222.5 31 222.5Z" stroke="#019F53" stroke-opacity="0.3" shape-rendering="crispEdges"/>
<path d="M33 242.667C31.4555 242.278 30.1804 241.392 29.1746 240.008C28.1688 238.624 27.6662 237.088 27.6666 235.4V231.333L33 229.333L38.3333 231.333V235.4C38.3333 237.089 37.8306 238.625 36.8253 240.009C35.82 241.392 34.5448 242.278 33 242.667Z" fill="#019F53"/>
<path d="M45.996 241V232.06H46.98L52.116 239.284L51.672 239.332V232.06H52.86V241H51.876L46.764 233.728L47.172 233.68V241H45.996ZM58.0354 241.144C57.4114 241.144 56.8474 241 56.3434 240.712C55.8394 240.416 55.4394 240.012 55.1434 239.5C54.8474 238.988 54.6994 238.408 54.6994 237.76C54.6994 237.112 54.8434 236.536 55.1314 236.032C55.4274 235.528 55.8274 235.128 56.3314 234.832C56.8354 234.536 57.4034 234.388 58.0354 234.388C58.6594 234.388 59.2234 234.536 59.7274 234.832C60.2314 235.12 60.6274 235.516 60.9154 236.02C61.2114 236.524 61.3594 237.104 61.3594 237.76C61.3594 238.416 61.2074 239 60.9034 239.512C60.5994 240.016 60.1954 240.416 59.6914 240.712C59.1954 241 58.6434 241.144 58.0354 241.144ZM58.0354 240.064C58.4354 240.064 58.7954 239.964 59.1154 239.764C59.4434 239.564 59.6994 239.288 59.8834 238.936C60.0754 238.584 60.1714 238.192 60.1714 237.76C60.1714 237.32 60.0754 236.932 59.8834 236.596C59.6994 236.252 59.4434 235.98 59.1154 235.78C58.7954 235.572 58.4354 235.468 58.0354 235.468C57.6274 235.468 57.2594 235.572 56.9314 235.78C56.6114 235.98 56.3554 236.252 56.1634 236.596C55.9714 236.932 55.8754 237.32 55.8754 237.76C55.8754 238.192 55.9714 238.584 56.1634 238.936C56.3554 239.288 56.6114 239.564 56.9314 239.764C57.2594 239.964 57.6274 240.064 58.0354 240.064ZM65.5012 241V232.06H69.2572C69.7932 232.06 70.2532 232.156 70.6372 232.348C71.0292 232.54 71.3292 232.812 71.5372 233.164C71.7532 233.508 71.8612 233.92 71.8612 234.4C71.8612 234.84 71.7452 235.24 71.5132 235.6C71.2892 235.952 70.9572 236.228 70.5172 236.428L70.5052 235.984C70.8892 236.128 71.2052 236.32 71.4532 236.56C71.7092 236.792 71.9012 237.064 72.0292 237.376C72.1572 237.68 72.2212 238.004 72.2212 238.348C72.2212 239.172 71.9572 239.82 71.4292 240.292C70.9012 240.764 70.1812 241 69.2692 241H65.5012ZM66.6772 239.92H69.3172C69.8372 239.92 70.2532 239.78 70.5652 239.5C70.8772 239.22 71.0332 238.84 71.0332 238.36C71.0332 237.88 70.8772 237.5 70.5652 237.22C70.2532 236.932 69.8372 236.788 69.3172 236.788H66.6772V239.92ZM66.6772 235.732H69.2332C69.6652 235.732 70.0132 235.608 70.2772 235.36C70.5412 235.104 70.6732 234.78 70.6732 234.388C70.6732 233.98 70.5412 233.668 70.2772 233.452C70.0132 233.236 69.6652 233.128 69.2332 233.128H66.6772V235.732ZM75.8137 241.144C75.3897 241.144 75.0137 241.068 74.6857 240.916C74.3657 240.756 74.1137 240.54 73.9297 240.268C73.7457 239.988 73.6537 239.668 73.6537 239.308C73.6537 238.964 73.7257 238.656 73.8697 238.384C74.0217 238.104 74.2537 237.868 74.5657 237.676C74.8857 237.484 75.2857 237.348 75.7657 237.268L78.1657 236.872V237.808L76.0177 238.168C75.6017 238.24 75.2977 238.372 75.1057 238.564C74.9217 238.756 74.8297 238.992 74.8297 239.272C74.8297 239.536 74.9337 239.756 75.1417 239.932C75.3577 240.108 75.6257 240.196 75.9457 240.196C76.3537 240.196 76.7057 240.112 77.0017 239.944C77.3057 239.768 77.5417 239.532 77.7097 239.236C77.8857 238.94 77.9737 238.612 77.9737 238.252V236.608C77.9737 236.256 77.8417 235.972 77.5777 235.756C77.3217 235.532 76.9817 235.42 76.5577 235.42C76.1897 235.42 75.8617 235.516 75.5737 235.708C75.2937 235.892 75.0857 236.14 74.9497 236.452L73.9777 235.948C74.0977 235.652 74.2897 235.388 74.5537 235.156C74.8177 234.916 75.1257 234.728 75.4777 234.592C75.8297 234.456 76.1977 234.388 76.5817 234.388C77.0777 234.388 77.5137 234.484 77.8897 234.676C78.2657 234.86 78.5577 235.12 78.7657 235.456C78.9817 235.784 79.0897 236.168 79.0897 236.608V241H77.9977V239.776L78.2017 239.848C78.0657 240.104 77.8817 240.328 77.6497 240.52C77.4177 240.712 77.1457 240.864 76.8337 240.976C76.5217 241.088 76.1817 241.144 75.8137 241.144ZM81.0601 241V234.532H82.1521V235.792L81.9721 235.684C82.1321 235.276 82.3881 234.96 82.7401 234.736C83.1001 234.504 83.5201 234.388 84.0001 234.388C84.4641 234.388 84.8761 234.492 85.2361 234.7C85.6041 234.908 85.8921 235.196 86.1001 235.564C86.3161 235.932 86.4241 236.348 86.4241 236.812V241H85.2961V237.172C85.2961 236.812 85.2321 236.508 85.1041 236.26C84.9761 236.012 84.7921 235.82 84.5521 235.684C84.3201 235.54 84.0521 235.468 83.7481 235.468C83.4441 235.468 83.1721 235.54 82.9321 235.684C82.7001 235.82 82.5161 236.016 82.3801 236.272C82.2441 236.52 82.1761 236.82 82.1761 237.172V241H81.0601Z" fill="#019F53"/>
</g>
</g>
<defs>
<filter id="filter0_d_1_187" x="29" y="151" width="353" height="270.686" filterUnits="userSpaceOnUse" color-interpolation-filters="sRGB">
<feFlood flood-opacity="0" result="BackgroundImageFix"/>
<feColorMatrix in="SourceAlpha" type="matrix" values="0 0 0 0 0 0 0 0 0 0 0 0 0 0 0 0 0 0 127 0" result="hardAlpha"/>
<feOffset dy="12"/>
<feGaussianBlur stdDeviation="10"/>
<feComposite in2="hardAlpha" operator="out"/>
<feColorMatrix type="matrix" values="0 0 0 0 0.113725 0 0 0 0 0.133333 0 0 0 0 0.12549 0 0 0 0.1 0"/>
<feBlend mode="normal" in2="BackgroundImageFix" result="effect1_dropShadow_1_187"/>
<feBlend mode="normal" in="SourceGraphic" in2="effect1_dropShadow_1_187" result="shape"/>
</filter>
<filter id="filter1_d_1_187" x="287" y="294" width="116" height="48" filterUnits="userSpaceOnUse" color-interpolation-filters="sRGB">
<feFlood flood-opacity="0" result="BackgroundImageFix"/>
<feColorMatrix in="SourceAlpha" type="matrix" values="0 0 0 0 0 0 0 0 0 0 0 0 0 0 0 0 0 0 127 0" result="hardAlpha"/>
<feOffset dy="4"/>
<feGaussianBlur stdDeviation="5"/>
<feComposite in2="hardAlpha" operator="out"/>
<feColorMatrix type="matrix" values="0 0 0 0 0.00392157 0 0 0 0 0.623529 0 0 0 0 0.32549 0 0 0 0.16 0"/>
<feBlend mode="normal" in2="BackgroundImageFix" result="effect1_dropShadow_1_187"/>
<feBlend mode="normal" in="SourceGraphic" in2="effect1_dropShadow_1_187" result="shape"/>
</filter>
<filter id="filter2_d_1_187" x="7" y="216" width="101" height="48" filterUnits="userSpaceOnUse" color-interpolation-filters="sRGB">
<feFlood flood-opacity="0" result="BackgroundImageFix"/>
<feColorMatrix in="SourceAlpha" type="matrix" values="0 0 0 0 0 0 0 0 0 0 0 0 0 0 0 0 0 0 127 0" result="hardAlpha"/>
<feOffset dy="4"/>
<feGaussianBlur stdDeviation="5"/>
<feComposite in2="hardAlpha" operator="out"/>
<feColorMatrix type="matrix" values="0 0 0 0 0.00392157 0 0 0 0 0.623529 0 0 0 0 0.32549 0 0 0 0.16 0"/>
<feBlend mode="normal" in2="BackgroundImageFix" result="effect1_dropShadow_1_187"/>
<feBlend mode="normal" in="SourceGraphic" in2="effect1_dropShadow_1_187" result="shape"/>
</filter>
<linearGradient id="paint0_linear_1_187" x1="205.5" y1="0" x2="205.5" y2="365" gradientUnits="userSpaceOnUse">
<stop offset="0.269231" stop-color="#F6F6F6"/>
<stop offset="1" stop-color="#F6F6F6" stop-opacity="0"/>
</linearGradient>
<linearGradient id="paint1_linear_1_187" x1="205.5" y1="293" x2="205.5" y2="365" gradientUnits="userSpaceOnUse">
<stop stop-color="#F6F6F6" stop-opacity="0"/>
<stop offset="0.850567" stop-color="#F6F6F6"/>
</linearGradient>
<clipPath id="clip0_1_187">
<rect width="411" height="365" rx="16" fill="white"/>
</clipPath>
<clipPath id="clip1_1_187">
<path d="M49 179.044C49 167.974 57.9742 159 69.0443 159H341.956C353.026 159 362 167.974 362 179.044V389.686H69.0443C57.9742 389.686 49 380.711 49 369.641V179.044Z" fill="white"/>
</clipPath>
</defs>
</svg>
