<svg width="411" height="365" viewBox="0 0 411 365" fill="none" xmlns="http://www.w3.org/2000/svg">
<g clip-path="url(#clip0_1_321)">
<rect width="411" height="365" rx="16" fill="#F6F6F6"/>
<mask id="mask0_1_321" style="mask-type:luminance" maskUnits="userSpaceOnUse" x="-4" y="0" width="417" height="233">
<path d="M412.736 0H-4V233H412.736V0Z" fill="white"/>
</mask>
<g mask="url(#mask0_1_321)">
<path d="M444.32 263.544H-35.584V-30.542H444.32L444.32 263.544ZM-34.9637 262.937H443.7V-29.9352H-34.9637V262.937Z" fill="#1D2220" fill-opacity="0.09"/>
<path d="M444.01 218.914H-35.2738V219.521H444.01V218.914Z" fill="#1D2220" fill-opacity="0.09"/>
<path d="M444.01 204.24H-35.2738V204.847H444.01V204.24Z" fill="#1D2220" fill-opacity="0.09"/>
<path d="M444.01 189.566H-35.2738V190.173H444.01V189.566Z" fill="#1D2220" fill-opacity="0.09"/>
<path d="M444.01 174.892H-35.2738V175.499H444.01V174.892Z" fill="#1D2220" fill-opacity="0.09"/>
<path d="M444.01 160.218H-35.2738V160.825H444.01V160.218Z" fill="#1D2220" fill-opacity="0.09"/>
<path d="M444.01 145.544H-35.2738V146.151H444.01V145.544Z" fill="#1D2220" fill-opacity="0.09"/>
<path d="M444.01 130.87H-35.2738V131.477H444.01V130.87Z" fill="#1D2220" fill-opacity="0.09"/>
<path d="M444.01 116.196H-35.2738V116.803H444.01V116.196Z" fill="#1D2220" fill-opacity="0.09"/>
<path d="M444.01 101.522H-35.2738V102.129H444.01V101.522Z" fill="#1D2220" fill-opacity="0.09"/>
<path d="M444.01 86.8496H-35.2738V87.4564H444.01V86.8496Z" fill="#1D2220" fill-opacity="0.09"/>
<path d="M444.01 72.1755H-35.2738V72.7823H444.01V72.1755Z" fill="#1D2220" fill-opacity="0.09"/>
<path d="M444.01 57.5015H-35.2738V58.1082H444.01V57.5015Z" fill="#1D2220" fill-opacity="0.09"/>
<path d="M444.01 42.8279H-35.2738V43.4347H444.01V42.8279Z" fill="#1D2220" fill-opacity="0.09"/>
<path d="M444.01 28.1537H-35.2738V28.7605H444.01V28.1537Z" fill="#1D2220" fill-opacity="0.09"/>
<path d="M444.01 13.4795H-35.2738V14.0863H444.01V13.4795Z" fill="#1D2220" fill-opacity="0.09"/>
<path d="M400.749 -30.2383H400.128V263.24H400.749V-30.2383Z" fill="#1D2220" fill-opacity="0.09"/>
<path d="M386.225 -30.2383H385.605V263.24H386.225V-30.2383Z" fill="#1D2220" fill-opacity="0.09"/>
<path d="M371.701 -30.2383H371.081V263.24H371.701V-30.2383Z" fill="#1D2220" fill-opacity="0.09"/>
<path d="M357.177 -30.2383H356.557V263.24H357.177V-30.2383Z" fill="#1D2220" fill-opacity="0.09"/>
<path d="M342.654 -30.2383H342.034V263.24H342.654V-30.2383Z" fill="#1D2220" fill-opacity="0.09"/>
<path d="M328.13 -30.2383H327.51V263.24H328.13V-30.2383Z" fill="#1D2220" fill-opacity="0.09"/>
<path d="M313.606 -30.2383H312.986V263.24H313.606V-30.2383Z" fill="#1D2220" fill-opacity="0.09"/>
<path d="M299.083 -30.2383H298.462V263.24H299.083V-30.2383Z" fill="#1D2220" fill-opacity="0.09"/>
<path d="M284.559 -30.2383H283.939V263.24H284.559V-30.2383Z" fill="#1D2220" fill-opacity="0.09"/>
<path d="M270.035 -30.2383H269.415V263.24H270.035V-30.2383Z" fill="#1D2220" fill-opacity="0.09"/>
<path d="M255.511 -30.2383H254.891V263.24H255.511V-30.2383Z" fill="#1D2220" fill-opacity="0.09"/>
<path d="M240.987 -30.2383H240.367V263.24H240.987V-30.2383Z" fill="#1D2220" fill-opacity="0.09"/>
<path d="M226.464 -30.2383H225.844V263.24H226.464V-30.2383Z" fill="#1D2220" fill-opacity="0.09"/>
<path d="M211.94 -30.2383H211.32V263.24H211.94V-30.2383Z" fill="#1D2220" fill-opacity="0.09"/>
<path d="M197.416 -30.2383H196.796V263.24H197.416V-30.2383Z" fill="#1D2220" fill-opacity="0.09"/>
<path d="M182.893 -30.2383H182.272V263.24H182.893V-30.2383Z" fill="#1D2220" fill-opacity="0.09"/>
<path d="M168.369 -30.2383H167.749V263.24H168.369V-30.2383Z" fill="#1D2220" fill-opacity="0.09"/>
<path d="M153.845 -30.2383H153.225V263.24H153.845V-30.2383Z" fill="#1D2220" fill-opacity="0.09"/>
<path d="M139.321 -30.2383H138.701V263.24H139.321V-30.2383Z" fill="#1D2220" fill-opacity="0.09"/>
<path d="M124.797 -30.2383H124.177V263.24H124.797V-30.2383Z" fill="#1D2220" fill-opacity="0.09"/>
<path d="M110.274 -30.2383H109.654V263.24H110.274V-30.2383Z" fill="#1D2220" fill-opacity="0.09"/>
<path d="M95.75 -30.2383H95.1299V263.24H95.75V-30.2383Z" fill="#1D2220" fill-opacity="0.09"/>
<path d="M81.2263 -30.2383H80.6062V263.24H81.2263V-30.2383Z" fill="#1D2220" fill-opacity="0.09"/>
<path d="M66.7027 -30.2383H66.0825V263.24H66.7027V-30.2383Z" fill="#1D2220" fill-opacity="0.09"/>
<path d="M52.1787 -30.2383H51.5586V263.24H52.1787V-30.2383Z" fill="#1D2220" fill-opacity="0.09"/>
<path d="M37.6552 -30.2383H37.035V263.24H37.6552V-30.2383Z" fill="#1D2220" fill-opacity="0.09"/>
<path d="M23.1315 -30.2383H22.5114V263.24H23.1315V-30.2383Z" fill="#1D2220" fill-opacity="0.09"/>
<path d="M8.60733 -30.2383H7.98718V263.24H8.60733V-30.2383Z" fill="#1D2220" fill-opacity="0.09"/>
</g>
<rect width="411" height="365" fill="url(#paint0_linear_1_321)"/>
<g filter="url(#filter0_d_1_321)">
<g clip-path="url(#clip1_1_321)">
<path d="M49 -44.9557C49 -56.0258 57.9742 -65 69.0443 -65H341.956C353.026 -65 362 -56.0258 362 -44.9557V210.96C362 222.028 353.028 231 341.96 231H69.0443C57.9742 231 49 222.026 49 210.956V-44.9557Z" fill="white"/>
<rect x="61" y="-49" width="289" height="114" rx="15.0333" fill="#1D2220" fill-opacity="0.06"/>
<rect x="61" y="73" width="251" height="10" rx="5" fill="#1D2220" fill-opacity="0.06"/>
<rect x="61" y="91" width="129.164" height="10.0222" rx="5.01108" fill="#1D2220" fill-opacity="0.06"/>
<rect x="203.164" y="91" width="65.7563" height="10.0222" rx="5.01108" fill="#1D2220" fill-opacity="0.06"/>
<rect x="61" y="109.022" width="255.98" height="10.0222" rx="5.01108" fill="#1D2220" fill-opacity="0.06"/>
<rect x="61" y="127.044" width="164.391" height="10.0222" rx="5.01108" fill="#1D2220" fill-opacity="0.06"/>
<mask id="path-56-inside-1_1_321" fill="white">
<path d="M49 153.066H362V192.066H49V153.066Z"/>
</mask>
<path d="M49 153.066V154.066H362V153.066V152.066H49V153.066Z" fill="#E8E9E9" mask="url(#path-56-inside-1_1_321)"/>
<path d="M164.333 170.566C164.333 169.309 164.333 168.681 164.724 168.29C165.115 167.9 165.743 167.9 167 167.9H175C176.257 167.9 176.885 167.9 177.276 168.29C177.667 168.681 177.667 169.309 177.667 170.566C177.667 170.88 177.667 171.038 177.569 171.136C177.471 171.233 177.313 171.233 177 171.233H165C164.686 171.233 164.529 171.233 164.431 171.136C164.333 171.038 164.333 170.88 164.333 170.566ZM164.333 176.566C164.333 177.824 164.333 178.452 164.724 178.842C165.115 179.233 165.743 179.233 167 179.233H175C176.257 179.233 176.885 179.233 177.276 178.842C177.667 178.452 177.667 177.824 177.667 176.566V173.233C177.667 172.919 177.667 172.762 177.569 172.664C177.471 172.566 177.313 172.566 177 172.566H165C164.686 172.566 164.529 172.566 164.431 172.664C164.333 172.762 164.333 172.92 164.333 173.233V176.566Z" fill="#A5A7A6"/>
<path d="M167.667 166.566V168.566M174.333 166.566V168.566" stroke="#A5A7A6" stroke-width="2" stroke-linecap="round"/>
<path d="M187.996 177.066V168.126H191.752C192.288 168.126 192.748 168.222 193.132 168.414C193.524 168.606 193.824 168.878 194.032 169.23C194.248 169.574 194.356 169.986 194.356 170.466C194.356 170.906 194.24 171.306 194.008 171.666C193.784 172.018 193.452 172.294 193.012 172.494L193 172.05C193.384 172.194 193.7 172.386 193.948 172.626C194.204 172.858 194.396 173.13 194.524 173.442C194.652 173.746 194.716 174.07 194.716 174.414C194.716 175.238 194.452 175.886 193.924 176.358C193.396 176.83 192.676 177.066 191.764 177.066H187.996ZM189.172 175.986H191.812C192.332 175.986 192.748 175.846 193.06 175.566C193.372 175.286 193.528 174.906 193.528 174.426C193.528 173.946 193.372 173.566 193.06 173.286C192.748 172.998 192.332 172.854 191.812 172.854H189.172V175.986ZM189.172 171.798H191.728C192.16 171.798 192.508 171.674 192.772 171.426C193.036 171.17 193.168 170.846 193.168 170.454C193.168 170.046 193.036 169.734 192.772 169.518C192.508 169.302 192.16 169.194 191.728 169.194H189.172V171.798ZM199.485 177.21C198.861 177.21 198.297 177.066 197.793 176.778C197.289 176.482 196.889 176.078 196.593 175.566C196.297 175.054 196.149 174.474 196.149 173.826C196.149 173.178 196.293 172.602 196.581 172.098C196.877 171.594 197.277 171.194 197.781 170.898C198.285 170.602 198.853 170.454 199.485 170.454C200.109 170.454 200.673 170.602 201.177 170.898C201.681 171.186 202.077 171.582 202.365 172.086C202.661 172.59 202.809 173.17 202.809 173.826C202.809 174.482 202.657 175.066 202.353 175.578C202.049 176.082 201.645 176.482 201.141 176.778C200.645 177.066 200.093 177.21 199.485 177.21ZM199.485 176.13C199.885 176.13 200.245 176.03 200.565 175.83C200.893 175.63 201.149 175.354 201.333 175.002C201.525 174.65 201.621 174.258 201.621 173.826C201.621 173.386 201.525 172.998 201.333 172.662C201.149 172.318 200.893 172.046 200.565 171.846C200.245 171.638 199.885 171.534 199.485 171.534C199.077 171.534 198.709 171.638 198.381 171.846C198.061 172.046 197.805 172.318 197.613 172.662C197.421 172.998 197.325 173.386 197.325 173.826C197.325 174.258 197.421 174.65 197.613 175.002C197.805 175.354 198.061 175.63 198.381 175.83C198.709 176.03 199.077 176.13 199.485 176.13ZM207.576 177.21C206.952 177.21 206.388 177.066 205.884 176.778C205.38 176.482 204.98 176.078 204.684 175.566C204.388 175.054 204.24 174.474 204.24 173.826C204.24 173.178 204.384 172.602 204.672 172.098C204.968 171.594 205.368 171.194 205.872 170.898C206.376 170.602 206.944 170.454 207.576 170.454C208.2 170.454 208.764 170.602 209.268 170.898C209.772 171.186 210.168 171.582 210.456 172.086C210.752 172.59 210.9 173.17 210.9 173.826C210.9 174.482 210.748 175.066 210.444 175.578C210.14 176.082 209.736 176.482 209.232 176.778C208.736 177.066 208.184 177.21 207.576 177.21ZM207.576 176.13C207.976 176.13 208.336 176.03 208.656 175.83C208.984 175.63 209.24 175.354 209.424 175.002C209.616 174.65 209.712 174.258 209.712 173.826C209.712 173.386 209.616 172.998 209.424 172.662C209.24 172.318 208.984 172.046 208.656 171.846C208.336 171.638 207.976 171.534 207.576 171.534C207.168 171.534 206.8 171.638 206.472 171.846C206.152 172.046 205.896 172.318 205.704 172.662C205.512 172.998 205.416 173.386 205.416 173.826C205.416 174.258 205.512 174.65 205.704 175.002C205.896 175.354 206.152 175.63 206.472 175.83C206.8 176.03 207.168 176.13 207.576 176.13ZM212.596 177.066V167.982H213.712V174.21L213.256 174.102L216.688 170.598H218.116L215.632 173.202L218.284 177.066H216.964L214.54 173.562L215.236 173.526L213.352 175.494L213.712 174.678V177.066H212.596ZM221.973 177.066V168.126H222.957L228.093 175.35L227.649 175.398V168.126H228.837V177.066H227.853L222.741 169.794L223.149 169.746V177.066H221.973ZM234.013 177.21C233.389 177.21 232.825 177.066 232.321 176.778C231.817 176.482 231.417 176.078 231.121 175.566C230.825 175.054 230.677 174.474 230.677 173.826C230.677 173.178 230.821 172.602 231.109 172.098C231.405 171.594 231.805 171.194 232.309 170.898C232.813 170.602 233.381 170.454 234.013 170.454C234.637 170.454 235.201 170.602 235.705 170.898C236.209 171.186 236.605 171.582 236.893 172.086C237.189 172.59 237.337 173.17 237.337 173.826C237.337 174.482 237.185 175.066 236.881 175.578C236.577 176.082 236.173 176.482 235.669 176.778C235.173 177.066 234.621 177.21 234.013 177.21ZM234.013 176.13C234.413 176.13 234.773 176.03 235.093 175.83C235.421 175.63 235.677 175.354 235.861 175.002C236.053 174.65 236.149 174.258 236.149 173.826C236.149 173.386 236.053 172.998 235.861 172.662C235.677 172.318 235.421 172.046 235.093 171.846C234.773 171.638 234.413 171.534 234.013 171.534C233.605 171.534 233.237 171.638 232.909 171.846C232.589 172.046 232.333 172.318 232.141 172.662C231.949 172.998 231.853 173.386 231.853 173.826C231.853 174.258 231.949 174.65 232.141 175.002C232.333 175.354 232.589 175.63 232.909 175.83C233.237 176.03 233.605 176.13 234.013 176.13ZM240.403 177.066L238.183 170.598H239.419L241.183 176.01L240.751 175.998L242.479 170.598H243.535L245.263 175.998L244.831 176.01L246.607 170.598H247.831L245.611 177.066H244.543L242.839 171.666H243.175L241.471 177.066H240.403Z" fill="#A5A7A6"/>
<mask id="path-61-inside-2_1_321" fill="white">
<path d="M49 192.066H362V231.066H49V192.066Z"/>
</mask>
<path d="M49 192.066V193.066H362V192.066V191.066H49V192.066Z" fill="#E8E9E9" mask="url(#path-61-inside-2_1_321)"/>
<path d="M164.32 213.74L162.627 213.546C162.428 213.523 162.226 213.545 162.036 213.611C161.847 213.677 161.675 213.785 161.533 213.926L160.307 215.153C158.414 214.19 156.876 212.652 155.913 210.76L157.147 209.526C157.433 209.24 157.573 208.84 157.527 208.433L157.333 206.753C157.296 206.428 157.14 206.128 156.895 205.91C156.65 205.693 156.334 205.573 156.007 205.573H154.853C154.1 205.573 153.473 206.2 153.52 206.953C153.873 212.646 158.427 217.193 164.113 217.546C164.867 217.593 165.493 216.966 165.493 216.213V215.06C165.5 214.386 164.993 213.82 164.32 213.74Z" fill="#A5A7A6"/>
<path d="M180.612 216.21C179.98 216.21 179.396 216.098 178.86 215.874C178.332 215.642 177.868 215.318 177.468 214.902C177.076 214.486 176.772 213.998 176.556 213.438C176.34 212.878 176.232 212.266 176.232 211.602C176.232 210.93 176.34 210.314 176.556 209.754C176.772 209.194 177.076 208.706 177.468 208.29C177.86 207.874 178.324 207.554 178.86 207.33C179.396 207.098 179.98 206.982 180.612 206.982C181.228 206.982 181.78 207.09 182.268 207.306C182.764 207.522 183.18 207.802 183.516 208.146C183.86 208.49 184.104 208.858 184.248 209.25L183.168 209.742C182.96 209.246 182.636 208.846 182.196 208.542C181.756 208.23 181.228 208.074 180.612 208.074C179.988 208.074 179.432 208.222 178.944 208.518C178.464 208.814 178.088 209.226 177.816 209.754C177.544 210.282 177.408 210.898 177.408 211.602C177.408 212.298 177.544 212.91 177.816 213.438C178.088 213.966 178.464 214.378 178.944 214.674C179.432 214.97 179.988 215.118 180.612 215.118C181.228 215.118 181.756 214.966 182.196 214.662C182.636 214.35 182.96 213.946 183.168 213.45L184.248 213.942C184.104 214.334 183.86 214.702 183.516 215.046C183.18 215.39 182.764 215.67 182.268 215.886C181.78 216.102 181.228 216.21 180.612 216.21ZM188.91 216.21C188.286 216.21 187.722 216.066 187.218 215.778C186.714 215.482 186.314 215.078 186.018 214.566C185.722 214.054 185.574 213.474 185.574 212.826C185.574 212.178 185.718 211.602 186.006 211.098C186.302 210.594 186.702 210.194 187.206 209.898C187.71 209.602 188.278 209.454 188.91 209.454C189.534 209.454 190.098 209.602 190.602 209.898C191.106 210.186 191.502 210.582 191.79 211.086C192.086 211.59 192.234 212.17 192.234 212.826C192.234 213.482 192.082 214.066 191.778 214.578C191.474 215.082 191.07 215.482 190.566 215.778C190.07 216.066 189.518 216.21 188.91 216.21ZM188.91 215.13C189.31 215.13 189.67 215.03 189.99 214.83C190.318 214.63 190.574 214.354 190.758 214.002C190.95 213.65 191.046 213.258 191.046 212.826C191.046 212.386 190.95 211.998 190.758 211.662C190.574 211.318 190.318 211.046 189.99 210.846C189.67 210.638 189.31 210.534 188.91 210.534C188.502 210.534 188.134 210.638 187.806 210.846C187.486 211.046 187.23 211.318 187.038 211.662C186.846 211.998 186.75 212.386 186.75 212.826C186.75 213.258 186.846 213.65 187.038 214.002C187.23 214.354 187.486 214.63 187.806 214.83C188.134 215.03 188.502 215.13 188.91 215.13ZM193.93 216.066V209.598H195.022V210.858L194.842 210.75C195.002 210.342 195.258 210.026 195.61 209.802C195.97 209.57 196.39 209.454 196.87 209.454C197.334 209.454 197.746 209.558 198.106 209.766C198.474 209.974 198.762 210.262 198.97 210.63C199.186 210.998 199.294 211.414 199.294 211.878V216.066H198.166V212.238C198.166 211.878 198.102 211.574 197.974 211.326C197.846 211.078 197.662 210.886 197.422 210.75C197.19 210.606 196.922 210.534 196.618 210.534C196.314 210.534 196.042 210.606 195.802 210.75C195.57 210.886 195.386 211.082 195.25 211.338C195.114 211.586 195.046 211.886 195.046 212.238V216.066H193.93ZM203.759 216.138C203.127 216.138 202.639 215.958 202.295 215.598C201.959 215.238 201.791 214.73 201.791 214.074V210.666H200.615V209.598H200.855C201.143 209.598 201.371 209.51 201.539 209.334C201.707 209.158 201.791 208.926 201.791 208.638V208.11H202.907V209.598H204.359V210.666H202.907V214.038C202.907 214.254 202.939 214.442 203.003 214.602C203.075 214.762 203.191 214.89 203.351 214.986C203.511 215.074 203.723 215.118 203.987 215.118C204.043 215.118 204.111 215.114 204.191 215.106C204.279 215.098 204.359 215.09 204.431 215.082V216.066C204.327 216.09 204.211 216.106 204.083 216.114C203.955 216.13 203.847 216.138 203.759 216.138ZM207.943 216.21C207.519 216.21 207.143 216.134 206.815 215.982C206.495 215.822 206.243 215.606 206.059 215.334C205.875 215.054 205.783 214.734 205.783 214.374C205.783 214.03 205.855 213.722 205.999 213.45C206.151 213.17 206.383 212.934 206.695 212.742C207.015 212.55 207.415 212.414 207.895 212.334L210.295 211.938V212.874L208.147 213.234C207.731 213.306 207.427 213.438 207.235 213.63C207.051 213.822 206.959 214.058 206.959 214.338C206.959 214.602 207.063 214.822 207.271 214.998C207.487 215.174 207.755 215.262 208.075 215.262C208.483 215.262 208.835 215.178 209.131 215.01C209.435 214.834 209.671 214.598 209.839 214.302C210.015 214.006 210.103 213.678 210.103 213.318V211.674C210.103 211.322 209.971 211.038 209.707 210.822C209.451 210.598 209.111 210.486 208.687 210.486C208.319 210.486 207.991 210.582 207.703 210.774C207.423 210.958 207.215 211.206 207.079 211.518L206.107 211.014C206.227 210.718 206.419 210.454 206.683 210.222C206.947 209.982 207.255 209.794 207.607 209.658C207.959 209.522 208.327 209.454 208.711 209.454C209.207 209.454 209.643 209.55 210.019 209.742C210.395 209.926 210.687 210.186 210.895 210.522C211.111 210.85 211.219 211.234 211.219 211.674V216.066H210.127V214.842L210.331 214.914C210.195 215.17 210.011 215.394 209.779 215.586C209.547 215.778 209.275 215.93 208.963 216.042C208.651 216.154 208.311 216.21 207.943 216.21ZM216.189 216.21C215.557 216.21 214.993 216.062 214.497 215.766C214.009 215.47 213.625 215.066 213.345 214.554C213.065 214.042 212.925 213.466 212.925 212.826C212.925 212.178 213.065 211.602 213.345 211.098C213.625 210.594 214.009 210.194 214.497 209.898C214.993 209.602 215.557 209.454 216.189 209.454C216.613 209.454 217.009 209.53 217.377 209.682C217.745 209.834 218.069 210.038 218.349 210.294C218.629 210.55 218.833 210.85 218.961 211.194L217.965 211.674C217.813 211.338 217.581 211.066 217.269 210.858C216.957 210.642 216.597 210.534 216.189 210.534C215.797 210.534 215.441 210.634 215.121 210.834C214.809 211.034 214.561 211.306 214.377 211.65C214.193 211.994 214.101 212.39 214.101 212.838C214.101 213.27 214.193 213.662 214.377 214.014C214.561 214.358 214.809 214.63 215.121 214.83C215.441 215.03 215.797 215.13 216.189 215.13C216.597 215.13 216.957 215.026 217.269 214.818C217.581 214.602 217.813 214.318 217.965 213.966L218.961 214.47C218.833 214.806 218.629 215.106 218.349 215.37C218.069 215.626 217.745 215.83 217.377 215.982C217.009 216.134 216.613 216.21 216.189 216.21ZM223.287 216.138C222.655 216.138 222.167 215.958 221.823 215.598C221.487 215.238 221.319 214.73 221.319 214.074V210.666H220.143V209.598H220.383C220.671 209.598 220.899 209.51 221.067 209.334C221.235 209.158 221.319 208.926 221.319 208.638V208.11H222.435V209.598H223.887V210.666H222.435V214.038C222.435 214.254 222.467 214.442 222.531 214.602C222.603 214.762 222.719 214.89 222.879 214.986C223.039 215.074 223.251 215.118 223.515 215.118C223.571 215.118 223.639 215.114 223.719 215.106C223.807 215.098 223.887 215.09 223.959 215.082V216.066C223.855 216.09 223.739 216.106 223.611 216.114C223.483 216.13 223.375 216.138 223.287 216.138ZM231.175 216.21C230.607 216.21 230.087 216.106 229.615 215.898C229.143 215.682 228.743 215.39 228.415 215.022C228.087 214.654 227.851 214.242 227.707 213.786L228.727 213.366C228.943 213.942 229.263 214.386 229.687 214.698C230.119 215.002 230.623 215.154 231.199 215.154C231.551 215.154 231.859 215.098 232.123 214.986C232.387 214.874 232.591 214.718 232.735 214.518C232.887 214.31 232.963 214.07 232.963 213.798C232.963 213.422 232.855 213.126 232.639 212.91C232.431 212.686 232.123 212.518 231.715 212.406L230.071 211.902C229.423 211.702 228.927 211.386 228.583 210.954C228.239 210.522 228.067 210.026 228.067 209.466C228.067 208.978 228.183 208.55 228.415 208.182C228.655 207.806 228.983 207.514 229.399 207.306C229.823 207.09 230.303 206.982 230.839 206.982C231.375 206.982 231.859 207.078 232.291 207.27C232.731 207.462 233.103 207.722 233.407 208.05C233.711 208.37 233.935 208.738 234.079 209.154L233.071 209.574C232.879 209.07 232.591 208.69 232.207 208.434C231.823 208.17 231.371 208.038 230.851 208.038C230.531 208.038 230.247 208.094 229.999 208.206C229.759 208.31 229.571 208.466 229.435 208.674C229.307 208.874 229.243 209.114 229.243 209.394C229.243 209.722 229.347 210.014 229.555 210.27C229.763 210.526 230.079 210.722 230.503 210.858L232.003 211.302C232.707 211.518 233.239 211.826 233.599 212.226C233.959 212.626 234.139 213.122 234.139 213.714C234.139 214.202 234.011 214.634 233.755 215.01C233.507 215.386 233.159 215.682 232.711 215.898C232.271 216.106 231.759 216.21 231.175 216.21ZM237.69 216.21C237.266 216.21 236.89 216.134 236.562 215.982C236.242 215.822 235.99 215.606 235.806 215.334C235.622 215.054 235.53 214.734 235.53 214.374C235.53 214.03 235.602 213.722 235.746 213.45C235.898 213.17 236.13 212.934 236.442 212.742C236.762 212.55 237.162 212.414 237.642 212.334L240.042 211.938V212.874L237.894 213.234C237.478 213.306 237.174 213.438 236.982 213.63C236.798 213.822 236.706 214.058 236.706 214.338C236.706 214.602 236.81 214.822 237.018 214.998C237.234 215.174 237.502 215.262 237.822 215.262C238.23 215.262 238.582 215.178 238.878 215.01C239.182 214.834 239.418 214.598 239.586 214.302C239.762 214.006 239.85 213.678 239.85 213.318V211.674C239.85 211.322 239.718 211.038 239.454 210.822C239.198 210.598 238.858 210.486 238.434 210.486C238.066 210.486 237.738 210.582 237.45 210.774C237.17 210.958 236.962 211.206 236.826 211.518L235.854 211.014C235.974 210.718 236.166 210.454 236.43 210.222C236.694 209.982 237.002 209.794 237.354 209.658C237.706 209.522 238.074 209.454 238.458 209.454C238.954 209.454 239.39 209.55 239.766 209.742C240.142 209.926 240.434 210.186 240.642 210.522C240.858 210.85 240.966 211.234 240.966 211.674V216.066H239.874V214.842L240.078 214.914C239.942 215.17 239.758 215.394 239.526 215.586C239.294 215.778 239.022 215.93 238.71 216.042C238.398 216.154 238.058 216.21 237.69 216.21ZM242.936 216.066V206.982H244.052V216.066H242.936ZM249 216.21C248.376 216.21 247.82 216.062 247.332 215.766C246.844 215.47 246.46 215.066 246.18 214.554C245.9 214.034 245.76 213.454 245.76 212.814C245.76 212.166 245.896 211.59 246.168 211.086C246.448 210.582 246.824 210.186 247.296 209.898C247.776 209.602 248.312 209.454 248.904 209.454C249.384 209.454 249.808 209.542 250.176 209.718C250.552 209.886 250.868 210.118 251.124 210.414C251.388 210.702 251.588 211.034 251.724 211.41C251.868 211.778 251.94 212.162 251.94 212.562C251.94 212.65 251.932 212.75 251.916 212.862C251.908 212.966 251.896 213.066 251.88 213.162H246.576V212.202H251.232L250.704 212.634C250.776 212.218 250.736 211.846 250.584 211.518C250.432 211.19 250.208 210.93 249.912 210.738C249.616 210.546 249.28 210.45 248.904 210.45C248.528 210.45 248.184 210.546 247.872 210.738C247.56 210.93 247.316 211.206 247.14 211.566C246.972 211.918 246.904 212.338 246.936 212.826C246.904 213.298 246.976 213.714 247.152 214.074C247.336 214.426 247.592 214.702 247.92 214.902C248.256 215.094 248.62 215.19 249.012 215.19C249.444 215.19 249.808 215.09 250.104 214.89C250.4 214.69 250.64 214.434 250.824 214.122L251.76 214.602C251.632 214.898 251.432 215.17 251.16 215.418C250.896 215.658 250.58 215.85 250.212 215.994C249.852 216.138 249.448 216.21 249 216.21ZM255.951 216.21C255.303 216.21 254.739 216.05 254.259 215.73C253.779 215.41 253.439 214.978 253.239 214.434L254.127 214.002C254.311 214.386 254.563 214.69 254.883 214.914C255.203 215.138 255.559 215.25 255.951 215.25C256.303 215.25 256.595 215.166 256.827 214.998C257.059 214.83 257.175 214.61 257.175 214.338C257.175 214.146 257.119 213.994 257.007 213.882C256.903 213.762 256.775 213.67 256.623 213.606C256.471 213.534 256.331 213.482 256.203 213.45L255.231 213.174C254.647 213.006 254.219 212.766 253.947 212.454C253.683 212.142 253.551 211.778 253.551 211.362C253.551 210.978 253.647 210.646 253.839 210.366C254.039 210.078 254.307 209.854 254.643 209.694C254.987 209.534 255.371 209.454 255.795 209.454C256.363 209.454 256.871 209.598 257.319 209.886C257.775 210.174 258.099 210.578 258.291 211.098L257.379 211.518C257.235 211.182 257.019 210.918 256.731 210.726C256.443 210.526 256.119 210.426 255.759 210.426C255.431 210.426 255.171 210.51 254.979 210.678C254.787 210.838 254.691 211.042 254.691 211.29C254.691 211.474 254.739 211.626 254.835 211.746C254.931 211.858 255.047 211.946 255.183 212.01C255.319 212.066 255.451 212.114 255.579 212.154L256.635 212.466C257.163 212.618 257.571 212.854 257.859 213.174C258.155 213.494 258.303 213.878 258.303 214.326C258.303 214.686 258.203 215.01 258.003 215.298C257.803 215.586 257.527 215.81 257.175 215.97C256.823 216.13 256.415 216.21 255.951 216.21Z" fill="#A5A7A6"/>
</g>
<path d="M69.0439 -64.5H341.956C352.75 -64.4998 361.5 -55.7498 361.5 -44.9561V210.96C361.5 221.752 352.752 230.5 341.96 230.5H69.0439C58.2502 230.5 49.5002 221.75 49.5 210.956V-44.9561C49.5002 -55.7498 58.2502 -64.4998 69.0439 -64.5Z" stroke="#1D2220" stroke-opacity="0.1"/>
</g>
<rect width="411" height="83" fill="url(#paint1_linear_1_321)"/>
<path d="M35.956 294.336C34.4813 294.336 33.1187 294.075 31.868 293.552C30.6173 293.011 29.5347 292.255 28.62 291.284C27.7053 290.313 26.9867 289.175 26.464 287.868C25.96 286.561 25.708 285.133 25.708 283.584C25.708 282.016 25.96 280.579 26.464 279.272C26.968 277.965 27.6773 276.827 28.592 275.856C29.5067 274.885 30.5893 274.139 31.84 273.616C33.0907 273.075 34.4533 272.804 35.928 272.804C37.3653 272.804 38.6533 273.056 39.792 273.56C40.9493 274.064 41.92 274.717 42.704 275.52C43.5067 276.323 44.076 277.181 44.412 278.096L41.948 279.3C41.4627 278.087 40.7067 277.125 39.68 276.416C38.6533 275.707 37.4027 275.352 35.928 275.352C34.472 275.352 33.1747 275.697 32.036 276.388C30.916 277.079 30.0387 278.04 29.404 279.272C28.7693 280.504 28.452 281.941 28.452 283.584C28.452 285.208 28.7693 286.636 29.404 287.868C30.0573 289.1 30.944 290.061 32.064 290.752C33.2027 291.443 34.5 291.788 35.956 291.788C37.2253 291.788 38.3733 291.517 39.4 290.976C40.4267 290.435 41.2387 289.688 41.836 288.736C42.4333 287.784 42.732 286.683 42.732 285.432V284.144L43.992 285.32H35.928V282.94H45.504V284.788C45.504 286.244 45.252 287.56 44.748 288.736C44.244 289.912 43.5533 290.92 42.676 291.76C41.7987 292.581 40.7813 293.216 39.624 293.664C38.4667 294.112 37.244 294.336 35.956 294.336ZM56.4067 294.336C54.9507 294.336 53.6534 293.991 52.5147 293.3C51.3761 292.609 50.4801 291.667 49.8267 290.472C49.1734 289.259 48.8467 287.905 48.8467 286.412C48.8467 284.9 49.1641 283.556 49.7987 282.38C50.4521 281.204 51.3294 280.28 52.4307 279.608C53.5507 278.917 54.8014 278.572 56.1827 278.572C57.3027 278.572 58.2921 278.777 59.1507 279.188C60.0281 279.58 60.7654 280.121 61.3627 280.812C61.9787 281.484 62.4454 282.259 62.7627 283.136C63.0987 283.995 63.2667 284.891 63.2667 285.824C63.2667 286.029 63.2481 286.263 63.2107 286.524C63.1921 286.767 63.1641 287 63.1267 287.224H50.7507V284.984H61.6147L60.3827 285.992C60.5507 285.021 60.4574 284.153 60.1027 283.388C59.7481 282.623 59.2254 282.016 58.5347 281.568C57.8441 281.12 57.0601 280.896 56.1827 280.896C55.3054 280.896 54.5027 281.12 53.7747 281.568C53.0467 282.016 52.4774 282.66 52.0667 283.5C51.6747 284.321 51.5161 285.301 51.5907 286.44C51.5161 287.541 51.6841 288.512 52.0947 289.352C52.5241 290.173 53.1214 290.817 53.8867 291.284C54.6707 291.732 55.5201 291.956 56.4347 291.956C57.4427 291.956 58.2921 291.723 58.9827 291.256C59.6734 290.789 60.2334 290.192 60.6627 289.464L62.8467 290.584C62.5481 291.275 62.0814 291.909 61.4467 292.488C60.8307 293.048 60.0934 293.496 59.2347 293.832C58.3947 294.168 57.4521 294.336 56.4067 294.336ZM73.3539 294.168C71.8793 294.168 70.7406 293.748 69.9379 292.908C69.1539 292.068 68.7619 290.883 68.7619 289.352V281.4H66.0179V278.908H66.5779C67.2499 278.908 67.7819 278.703 68.1739 278.292C68.5659 277.881 68.7619 277.34 68.7619 276.668V275.436H71.3659V278.908H74.7539V281.4H71.3659V289.268C71.3659 289.772 71.4406 290.211 71.5899 290.584C71.7579 290.957 72.0286 291.256 72.4019 291.48C72.7753 291.685 73.2699 291.788 73.8859 291.788C74.0166 291.788 74.1753 291.779 74.3619 291.76C74.5673 291.741 74.7539 291.723 74.9219 291.704V294C74.6793 294.056 74.4086 294.093 74.1099 294.112C73.8113 294.149 73.5593 294.168 73.3539 294.168ZM84.2833 294V278.908H86.8313V281.988L86.4673 281.512C86.8407 280.56 87.438 279.832 88.2593 279.328C89.0807 278.824 90.0047 278.572 91.0313 278.572C92.2073 278.572 93.262 278.899 94.1953 279.552C95.1473 280.205 95.8007 281.064 96.1553 282.128L95.4273 282.156C95.8193 280.98 96.482 280.093 97.4153 279.496C98.3487 278.88 99.3847 278.572 100.523 278.572C101.569 278.572 102.511 278.815 103.351 279.3C104.21 279.785 104.891 280.457 105.395 281.316C105.899 282.175 106.151 283.145 106.151 284.228V294H103.519V285.068C103.519 284.228 103.37 283.519 103.071 282.94C102.773 282.361 102.362 281.913 101.839 281.596C101.335 281.26 100.738 281.092 100.047 281.092C99.3753 281.092 98.7687 281.26 98.2273 281.596C97.7047 281.913 97.2847 282.371 96.9673 282.968C96.6687 283.547 96.5193 284.247 96.5193 285.068V294H93.8873V285.068C93.8873 284.228 93.738 283.519 93.4393 282.94C93.1407 282.361 92.73 281.913 92.2073 281.596C91.7033 281.26 91.106 281.092 90.4153 281.092C89.7433 281.092 89.1367 281.26 88.5953 281.596C88.0727 281.913 87.6527 282.371 87.3353 282.968C87.0367 283.547 86.8873 284.247 86.8873 285.068V294H84.2833ZM117.578 294.336C116.122 294.336 114.806 294 113.63 293.328C112.454 292.637 111.52 291.695 110.83 290.5C110.139 289.305 109.794 287.952 109.794 286.44C109.794 284.928 110.13 283.584 110.802 282.408C111.492 281.232 112.426 280.299 113.602 279.608C114.778 278.917 116.103 278.572 117.578 278.572C119.034 278.572 120.35 278.917 121.526 279.608C122.702 280.28 123.626 281.204 124.298 282.38C124.988 283.556 125.334 284.909 125.334 286.44C125.334 287.971 124.979 289.333 124.27 290.528C123.56 291.704 122.618 292.637 121.442 293.328C120.284 294 118.996 294.336 117.578 294.336ZM117.578 291.816C118.511 291.816 119.351 291.583 120.098 291.116C120.863 290.649 121.46 290.005 121.89 289.184C122.338 288.363 122.562 287.448 122.562 286.44C122.562 285.413 122.338 284.508 121.89 283.724C121.46 282.921 120.863 282.287 120.098 281.82C119.351 281.335 118.511 281.092 117.578 281.092C116.626 281.092 115.767 281.335 115.002 281.82C114.255 282.287 113.658 282.921 113.21 283.724C112.762 284.508 112.538 285.413 112.538 286.44C112.538 287.448 112.762 288.363 113.21 289.184C113.658 290.005 114.255 290.649 115.002 291.116C115.767 291.583 116.626 291.816 117.578 291.816ZM129.29 294V278.908H131.838V281.68L131.558 281.288C131.913 280.429 132.454 279.795 133.182 279.384C133.91 278.955 134.797 278.74 135.842 278.74H136.766V281.204H135.45C134.386 281.204 133.527 281.54 132.874 282.212C132.221 282.865 131.894 283.799 131.894 285.012V294H129.29ZM146.583 294.336C145.127 294.336 143.83 293.991 142.691 293.3C141.552 292.609 140.656 291.667 140.003 290.472C139.35 289.259 139.023 287.905 139.023 286.412C139.023 284.9 139.34 283.556 139.975 282.38C140.628 281.204 141.506 280.28 142.607 279.608C143.727 278.917 144.978 278.572 146.359 278.572C147.479 278.572 148.468 278.777 149.327 279.188C150.204 279.58 150.942 280.121 151.539 280.812C152.155 281.484 152.622 282.259 152.939 283.136C153.275 283.995 153.443 284.891 153.443 285.824C153.443 286.029 153.424 286.263 153.387 286.524C153.368 286.767 153.34 287 153.303 287.224H140.927V284.984H151.791L150.559 285.992C150.727 285.021 150.634 284.153 150.279 283.388C149.924 282.623 149.402 282.016 148.711 281.568C148.02 281.12 147.236 280.896 146.359 280.896C145.482 280.896 144.679 281.12 143.951 281.568C143.223 282.016 142.654 282.66 142.243 283.5C141.851 284.321 141.692 285.301 141.767 286.44C141.692 287.541 141.86 288.512 142.271 289.352C142.7 290.173 143.298 290.817 144.063 291.284C144.847 291.732 145.696 291.956 146.611 291.956C147.619 291.956 148.468 291.723 149.159 291.256C149.85 290.789 150.41 290.192 150.839 289.464L153.023 290.584C152.724 291.275 152.258 291.909 151.623 292.488C151.007 293.048 150.27 293.496 149.411 293.832C148.571 294.168 147.628 294.336 146.583 294.336ZM266.098 294L260.918 278.908H263.802L267.918 291.536L266.91 291.508L270.942 278.908H273.406L277.438 291.508L276.43 291.536L280.574 278.908H283.43L278.25 294H275.758L271.782 281.4H272.566L268.59 294H266.098ZM286.319 294V278.908H288.923V294H286.319ZM286.319 276.5V273.14H288.923V276.5H286.319ZM299.655 294.168C298.181 294.168 297.042 293.748 296.239 292.908C295.455 292.068 295.063 290.883 295.063 289.352V281.4H292.319V278.908H292.879C293.551 278.908 294.083 278.703 294.475 278.292C294.867 277.881 295.063 277.34 295.063 276.668V275.436H297.667V278.908H301.055V281.4H297.667V289.268C297.667 289.772 297.742 290.211 297.891 290.584C298.059 290.957 298.33 291.256 298.703 291.48C299.077 291.685 299.571 291.788 300.187 291.788C300.318 291.788 300.477 291.779 300.663 291.76C300.869 291.741 301.055 291.723 301.223 291.704V294C300.981 294.056 300.71 294.093 300.411 294.112C300.113 294.149 299.861 294.168 299.655 294.168ZM305.185 294V272.804H307.789V281.848L307.313 281.596C307.686 280.644 308.283 279.907 309.105 279.384C309.945 278.843 310.925 278.572 312.045 278.572C313.127 278.572 314.089 278.815 314.929 279.3C315.787 279.785 316.459 280.457 316.945 281.316C317.449 282.175 317.701 283.145 317.701 284.228V294H315.069V285.068C315.069 284.228 314.91 283.519 314.593 282.94C314.294 282.361 313.874 281.913 313.333 281.596C312.791 281.26 312.166 281.092 311.457 281.092C310.766 281.092 310.141 281.26 309.581 281.596C309.021 281.913 308.582 282.371 308.265 282.968C307.947 283.547 307.789 284.247 307.789 285.068V294H305.185Z" fill="#B2B4B3"/>
<path d="M162.798 294V278.908H165.346V281.68L165.066 281.288C165.421 280.429 165.962 279.795 166.69 279.384C167.418 278.955 168.305 278.74 169.35 278.74H170.274V281.204H168.958C167.894 281.204 167.036 281.54 166.382 282.212C165.729 282.865 165.402 283.799 165.402 285.012V294H162.798ZM180.091 294.336C178.635 294.336 177.338 293.991 176.199 293.3C175.061 292.609 174.165 291.667 173.511 290.472C172.858 289.259 172.531 287.905 172.531 286.412C172.531 284.9 172.849 283.556 173.483 282.38C174.137 281.204 175.014 280.28 176.115 279.608C177.235 278.917 178.486 278.572 179.867 278.572C180.987 278.572 181.977 278.777 182.835 279.188C183.713 279.58 184.45 280.121 185.047 280.812C185.663 281.484 186.13 282.259 186.447 283.136C186.783 283.995 186.951 284.891 186.951 285.824C186.951 286.029 186.933 286.263 186.895 286.524C186.877 286.767 186.849 287 186.811 287.224H174.435V284.984H185.299L184.067 285.992C184.235 285.021 184.142 284.153 183.787 283.388C183.433 282.623 182.91 282.016 182.219 281.568C181.529 281.12 180.745 280.896 179.867 280.896C178.99 280.896 178.187 281.12 177.459 281.568C176.731 282.016 176.162 282.66 175.751 283.5C175.359 284.321 175.201 285.301 175.275 286.44C175.201 287.541 175.369 288.512 175.779 289.352C176.209 290.173 176.806 290.817 177.571 291.284C178.355 291.732 179.205 291.956 180.119 291.956C181.127 291.956 181.977 291.723 182.667 291.256C183.358 290.789 183.918 290.192 184.347 289.464L186.531 290.584C186.233 291.275 185.766 291.909 185.131 292.488C184.515 293.048 183.778 293.496 182.919 293.832C182.079 294.168 181.137 294.336 180.091 294.336ZM190.906 299.6V278.908H193.454V282.156L193.118 281.512C193.678 280.616 194.444 279.907 195.414 279.384C196.385 278.843 197.496 278.572 198.746 278.572C200.165 278.572 201.434 278.917 202.554 279.608C203.693 280.299 204.589 281.241 205.242 282.436C205.896 283.612 206.222 284.956 206.222 286.468C206.222 287.943 205.896 289.277 205.242 290.472C204.589 291.667 203.693 292.609 202.554 293.3C201.434 293.991 200.156 294.336 198.718 294.336C197.505 294.336 196.394 294.065 195.386 293.524C194.397 292.983 193.632 292.217 193.09 291.228L193.51 290.78V299.6H190.906ZM198.522 291.816C199.474 291.816 200.324 291.583 201.07 291.116C201.817 290.649 202.396 290.015 202.806 289.212C203.236 288.391 203.45 287.476 203.45 286.468C203.45 285.423 203.236 284.508 202.806 283.724C202.396 282.921 201.817 282.287 201.07 281.82C200.324 281.335 199.474 281.092 198.522 281.092C197.57 281.092 196.712 281.325 195.946 281.792C195.2 282.259 194.602 282.903 194.154 283.724C193.725 284.527 193.51 285.441 193.51 286.468C193.51 287.476 193.725 288.391 194.154 289.212C194.602 290.015 195.2 290.649 195.946 291.116C196.712 291.583 197.57 291.816 198.522 291.816ZM210.197 294V272.804H212.801V294H210.197ZM217.401 294V278.908H220.005V294H217.401ZM217.401 276.5V273.14H220.005V276.5H217.401ZM231.55 294.336C230.094 294.336 228.797 293.991 227.658 293.3C226.519 292.609 225.623 291.667 224.97 290.472C224.317 289.259 223.99 287.905 223.99 286.412C223.99 284.9 224.307 283.556 224.942 282.38C225.595 281.204 226.473 280.28 227.574 279.608C228.694 278.917 229.945 278.572 231.326 278.572C232.446 278.572 233.435 278.777 234.294 279.188C235.171 279.58 235.909 280.121 236.506 280.812C237.122 281.484 237.589 282.259 237.906 283.136C238.242 283.995 238.41 284.891 238.41 285.824C238.41 286.029 238.391 286.263 238.354 286.524C238.335 286.767 238.307 287 238.27 287.224H225.894V284.984H236.758L235.526 285.992C235.694 285.021 235.601 284.153 235.246 283.388C234.891 282.623 234.369 282.016 233.678 281.568C232.987 281.12 232.203 280.896 231.326 280.896C230.449 280.896 229.646 281.12 228.918 281.568C228.19 282.016 227.621 282.66 227.21 283.5C226.818 284.321 226.659 285.301 226.734 286.44C226.659 287.541 226.827 288.512 227.238 289.352C227.667 290.173 228.265 290.817 229.03 291.284C229.814 291.732 230.663 291.956 231.578 291.956C232.586 291.956 233.435 291.723 234.126 291.256C234.817 290.789 235.377 290.192 235.806 289.464L237.99 290.584C237.691 291.275 237.225 291.909 236.59 292.488C235.974 293.048 235.237 293.496 234.378 293.832C233.538 294.168 232.595 294.336 231.55 294.336ZM247.769 294.336C246.257 294.336 244.941 293.963 243.821 293.216C242.701 292.469 241.908 291.461 241.441 290.192L243.513 289.184C243.943 290.08 244.531 290.789 245.277 291.312C246.024 291.835 246.855 292.096 247.769 292.096C248.591 292.096 249.272 291.9 249.813 291.508C250.355 291.116 250.625 290.603 250.625 289.968C250.625 289.52 250.495 289.165 250.233 288.904C249.991 288.624 249.692 288.409 249.337 288.26C248.983 288.092 248.656 287.971 248.357 287.896L246.089 287.252C244.727 286.86 243.728 286.3 243.093 285.572C242.477 284.844 242.169 283.995 242.169 283.024C242.169 282.128 242.393 281.353 242.841 280.7C243.308 280.028 243.933 279.505 244.717 279.132C245.52 278.759 246.416 278.572 247.405 278.572C248.731 278.572 249.916 278.908 250.961 279.58C252.025 280.252 252.781 281.195 253.229 282.408L251.101 283.388C250.765 282.604 250.261 281.988 249.589 281.54C248.917 281.073 248.161 280.84 247.321 280.84C246.556 280.84 245.949 281.036 245.501 281.428C245.053 281.801 244.829 282.277 244.829 282.856C244.829 283.285 244.941 283.64 245.165 283.92C245.389 284.181 245.66 284.387 245.977 284.536C246.295 284.667 246.603 284.779 246.901 284.872L249.365 285.6C250.597 285.955 251.549 286.505 252.221 287.252C252.912 287.999 253.257 288.895 253.257 289.94C253.257 290.78 253.024 291.536 252.557 292.208C252.091 292.88 251.447 293.403 250.625 293.776C249.804 294.149 248.852 294.336 247.769 294.336ZM35.928 333.336C34.4533 333.336 33.0907 333.075 31.84 332.552C30.608 332.011 29.5253 331.255 28.592 330.284C27.6773 329.313 26.968 328.175 26.464 326.868C25.96 325.561 25.708 324.133 25.708 322.584C25.708 321.016 25.96 319.579 26.464 318.272C26.968 316.965 27.6773 315.827 28.592 314.856C29.5067 313.885 30.5893 313.139 31.84 312.616C33.0907 312.075 34.4533 311.804 35.928 311.804C37.3653 311.804 38.6533 312.056 39.792 312.56C40.9493 313.064 41.92 313.717 42.704 314.52C43.5067 315.323 44.076 316.181 44.412 317.096L41.892 318.244C41.4067 317.087 40.6507 316.153 39.624 315.444C38.5973 314.716 37.3653 314.352 35.928 314.352C34.472 314.352 33.1747 314.697 32.036 315.388C30.916 316.079 30.0387 317.04 29.404 318.272C28.7693 319.504 28.452 320.941 28.452 322.584C28.452 324.208 28.7693 325.636 29.404 326.868C30.0387 328.1 30.916 329.061 32.036 329.752C33.1747 330.443 34.472 330.788 35.928 330.788C37.3653 330.788 38.5973 330.433 39.624 329.724C40.6507 328.996 41.4067 328.053 41.892 326.896L44.412 328.044C44.076 328.959 43.5067 329.817 42.704 330.62C41.92 331.423 40.9493 332.076 39.792 332.58C38.6533 333.084 37.3653 333.336 35.928 333.336ZM52.3443 333V314.66H46.6883V312.14H60.6883V314.66H55.1163V333H52.3443ZM60.4827 333L67.9587 312.14H71.2067L78.6827 333H75.7427L74.0347 328.1H65.1307L63.4227 333H60.4827ZM65.9987 325.58H73.1667L69.1907 314.128H69.9747L65.9987 325.58ZM94.775 333.336C93.5617 333.336 92.451 333.065 91.443 332.524C90.4537 331.983 89.6884 331.217 89.147 330.228L89.511 329.78V333H86.963V311.804H89.567V321.156L89.175 320.512C89.735 319.616 90.5004 318.907 91.471 318.384C92.4417 317.843 93.5524 317.572 94.803 317.572C96.2217 317.572 97.491 317.917 98.611 318.608C99.7497 319.299 100.646 320.241 101.299 321.436C101.952 322.612 102.279 323.956 102.279 325.468C102.279 326.943 101.952 328.277 101.299 329.472C100.646 330.667 99.7497 331.609 98.611 332.3C97.491 332.991 96.2124 333.336 94.775 333.336ZM94.579 330.816C95.531 330.816 96.3804 330.583 97.127 330.116C97.8737 329.649 98.4524 329.015 98.863 328.212C99.2924 327.391 99.507 326.476 99.507 325.468C99.507 324.423 99.2924 323.508 98.863 322.724C98.4524 321.921 97.8737 321.287 97.127 320.82C96.3804 320.335 95.531 320.092 94.579 320.092C93.627 320.092 92.7684 320.325 92.003 320.792C91.2564 321.259 90.659 321.903 90.211 322.724C89.7817 323.527 89.567 324.441 89.567 325.468C89.567 326.476 89.7817 327.391 90.211 328.212C90.659 329.015 91.2564 329.649 92.003 330.116C92.7684 330.583 93.627 330.816 94.579 330.816ZM111.602 333.336C110.519 333.336 109.539 333.084 108.662 332.58C107.803 332.076 107.131 331.376 106.646 330.48C106.179 329.565 105.946 328.52 105.946 327.344V317.908H108.55V327.064C108.55 327.811 108.699 328.464 108.998 329.024C109.315 329.584 109.744 330.023 110.286 330.34C110.846 330.657 111.48 330.816 112.19 330.816C112.899 330.816 113.524 330.657 114.066 330.34C114.626 330.023 115.055 329.565 115.354 328.968C115.671 328.371 115.83 327.661 115.83 326.84V317.908H118.462V333H115.914V330.06L116.334 330.312C115.979 331.264 115.372 332.011 114.514 332.552C113.674 333.075 112.703 333.336 111.602 333.336ZM129.188 333.168C127.713 333.168 126.574 332.748 125.772 331.908C124.988 331.068 124.596 329.883 124.596 328.352V320.4H121.852V317.908H122.412C123.084 317.908 123.616 317.703 124.008 317.292C124.4 316.881 124.596 316.34 124.596 315.668V314.436H127.2V317.908H130.588V320.4H127.2V328.268C127.2 328.772 127.274 329.211 127.424 329.584C127.592 329.957 127.862 330.256 128.236 330.48C128.609 330.685 129.104 330.788 129.72 330.788C129.85 330.788 130.009 330.779 130.196 330.76C130.401 330.741 130.588 330.723 130.756 330.704V333C130.513 333.056 130.242 333.093 129.944 333.112C129.645 333.149 129.393 333.168 129.188 333.168ZM140.849 333.168C139.375 333.168 138.236 332.748 137.433 331.908C136.649 331.068 136.257 329.883 136.257 328.352V320.4H133.513V317.908H134.073C134.745 317.908 135.277 317.703 135.669 317.292C136.061 316.881 136.257 316.34 136.257 315.668V314.436H138.861V317.908H142.249V320.4H138.861V328.268C138.861 328.772 138.936 329.211 139.085 329.584C139.253 329.957 139.524 330.256 139.897 330.48C140.271 330.685 140.765 330.788 141.381 330.788C141.512 330.788 141.671 330.779 141.857 330.76C142.063 330.741 142.249 330.723 142.417 330.704V333C142.175 333.056 141.904 333.093 141.605 333.112C141.307 333.149 141.055 333.168 140.849 333.168ZM153.137 333.336C151.681 333.336 150.365 333 149.189 332.328C148.013 331.637 147.079 330.695 146.389 329.5C145.698 328.305 145.353 326.952 145.353 325.44C145.353 323.928 145.689 322.584 146.361 321.408C147.051 320.232 147.985 319.299 149.161 318.608C150.337 317.917 151.662 317.572 153.137 317.572C154.593 317.572 155.909 317.917 157.085 318.608C158.261 319.28 159.185 320.204 159.857 321.38C160.547 322.556 160.893 323.909 160.893 325.44C160.893 326.971 160.538 328.333 159.829 329.528C159.119 330.704 158.177 331.637 157.001 332.328C155.843 333 154.555 333.336 153.137 333.336ZM153.137 330.816C154.07 330.816 154.91 330.583 155.657 330.116C156.422 329.649 157.019 329.005 157.449 328.184C157.897 327.363 158.121 326.448 158.121 325.44C158.121 324.413 157.897 323.508 157.449 322.724C157.019 321.921 156.422 321.287 155.657 320.82C154.91 320.335 154.07 320.092 153.137 320.092C152.185 320.092 151.326 320.335 150.561 320.82C149.814 321.287 149.217 321.921 148.769 322.724C148.321 323.508 148.097 324.413 148.097 325.44C148.097 326.448 148.321 327.363 148.769 328.184C149.217 329.005 149.814 329.649 150.561 330.116C151.326 330.583 152.185 330.816 153.137 330.816ZM164.849 333V317.908H167.397V320.848L166.977 320.596C167.35 319.644 167.948 318.907 168.769 318.384C169.609 317.843 170.589 317.572 171.709 317.572C172.792 317.572 173.753 317.815 174.593 318.3C175.452 318.785 176.124 319.457 176.609 320.316C177.113 321.175 177.365 322.145 177.365 323.228V333H174.733V324.068C174.733 323.228 174.584 322.519 174.285 321.94C173.986 321.361 173.557 320.913 172.997 320.596C172.456 320.26 171.83 320.092 171.121 320.092C170.412 320.092 169.777 320.26 169.217 320.596C168.676 320.913 168.246 321.371 167.929 321.968C167.612 322.547 167.453 323.247 167.453 324.068V333H164.849ZM187.055 333.336C185.543 333.336 184.227 332.963 183.107 332.216C181.987 331.469 181.194 330.461 180.727 329.192L182.799 328.184C183.228 329.08 183.816 329.789 184.563 330.312C185.31 330.835 186.14 331.096 187.055 331.096C187.876 331.096 188.558 330.9 189.099 330.508C189.64 330.116 189.911 329.603 189.911 328.968C189.911 328.52 189.78 328.165 189.519 327.904C189.276 327.624 188.978 327.409 188.623 327.26C188.268 327.092 187.942 326.971 187.643 326.896L185.375 326.252C184.012 325.86 183.014 325.3 182.379 324.572C181.763 323.844 181.455 322.995 181.455 322.024C181.455 321.128 181.679 320.353 182.127 319.7C182.594 319.028 183.219 318.505 184.003 318.132C184.806 317.759 185.702 317.572 186.691 317.572C188.016 317.572 189.202 317.908 190.247 318.58C191.311 319.252 192.067 320.195 192.515 321.408L190.387 322.388C190.051 321.604 189.547 320.988 188.875 320.54C188.203 320.073 187.447 319.84 186.607 319.84C185.842 319.84 185.235 320.036 184.787 320.428C184.339 320.801 184.115 321.277 184.115 321.856C184.115 322.285 184.227 322.64 184.451 322.92C184.675 323.181 184.946 323.387 185.263 323.536C185.58 323.667 185.888 323.779 186.187 323.872L188.651 324.6C189.883 324.955 190.835 325.505 191.507 326.252C192.198 326.999 192.543 327.895 192.543 328.94C192.543 329.78 192.31 330.536 191.843 331.208C191.376 331.88 190.732 332.403 189.911 332.776C189.09 333.149 188.138 333.336 187.055 333.336Z" fill="#1D2220"/>
<g filter="url(#filter1_d_1_321)">
<rect x="24" y="175" width="110" height="28" rx="14" fill="white" shape-rendering="crispEdges"/>
<rect x="24.5" y="175.5" width="109" height="27" rx="13.5" stroke="#019F53" stroke-opacity="0.3" shape-rendering="crispEdges"/>
<path d="M34.996 194V185.06H36.172V194H34.996ZM38.2681 194V187.532H39.3601V188.792L39.1801 188.684C39.3401 188.276 39.5961 187.96 39.9481 187.736C40.3081 187.504 40.7281 187.388 41.2081 187.388C41.6721 187.388 42.0841 187.492 42.4441 187.7C42.8121 187.908 43.1001 188.196 43.3081 188.564C43.5241 188.932 43.6321 189.348 43.6321 189.812V194H42.5041V190.172C42.5041 189.812 42.4401 189.508 42.3121 189.26C42.1841 189.012 42.0001 188.82 41.7601 188.684C41.5281 188.54 41.2601 188.468 40.9561 188.468C40.6521 188.468 40.3801 188.54 40.1401 188.684C39.9081 188.82 39.7241 189.016 39.5881 189.272C39.4521 189.52 39.3841 189.82 39.3841 190.172V194H38.2681ZM48.469 194.144C47.837 194.144 47.273 193.996 46.777 193.7C46.289 193.404 45.905 193 45.625 192.488C45.345 191.976 45.205 191.4 45.205 190.76C45.205 190.112 45.345 189.536 45.625 189.032C45.905 188.528 46.289 188.128 46.777 187.832C47.273 187.536 47.837 187.388 48.469 187.388C48.893 187.388 49.289 187.464 49.657 187.616C50.025 187.768 50.349 187.972 50.629 188.228C50.909 188.484 51.113 188.784 51.241 189.128L50.245 189.608C50.093 189.272 49.861 189 49.549 188.792C49.237 188.576 48.877 188.468 48.469 188.468C48.077 188.468 47.721 188.568 47.401 188.768C47.089 188.968 46.841 189.24 46.657 189.584C46.473 189.928 46.381 190.324 46.381 190.772C46.381 191.204 46.473 191.596 46.657 191.948C46.841 192.292 47.089 192.564 47.401 192.764C47.721 192.964 48.077 193.064 48.469 193.064C48.877 193.064 49.237 192.96 49.549 192.752C49.861 192.536 50.093 192.252 50.245 191.9L51.241 192.404C51.113 192.74 50.909 193.04 50.629 193.304C50.349 193.56 50.025 193.764 49.657 193.916C49.289 194.068 48.893 194.144 48.469 194.144ZM52.9395 194V187.532H54.0315V188.72L53.9115 188.552C54.0635 188.184 54.2955 187.912 54.6075 187.736C54.9195 187.552 55.2995 187.46 55.7475 187.46H56.1435V188.516H55.5795C55.1235 188.516 54.7555 188.66 54.4755 188.948C54.1955 189.228 54.0555 189.628 54.0555 190.148V194H52.9395ZM60.3508 194.144C59.7268 194.144 59.1708 193.996 58.6828 193.7C58.1948 193.404 57.8108 193 57.5308 192.488C57.2508 191.968 57.1108 191.388 57.1108 190.748C57.1108 190.1 57.2468 189.524 57.5188 189.02C57.7988 188.516 58.1748 188.12 58.6468 187.832C59.1268 187.536 59.6628 187.388 60.2548 187.388C60.7348 187.388 61.1588 187.476 61.5268 187.652C61.9028 187.82 62.2188 188.052 62.4748 188.348C62.7388 188.636 62.9388 188.968 63.0748 189.344C63.2188 189.712 63.2908 190.096 63.2908 190.496C63.2908 190.584 63.2828 190.684 63.2668 190.796C63.2588 190.9 63.2468 191 63.2308 191.096H57.9268V190.136H62.5828L62.0548 190.568C62.1268 190.152 62.0868 189.78 61.9348 189.452C61.7828 189.124 61.5588 188.864 61.2628 188.672C60.9668 188.48 60.6308 188.384 60.2548 188.384C59.8788 188.384 59.5348 188.48 59.2228 188.672C58.9108 188.864 58.6668 189.14 58.4908 189.5C58.3228 189.852 58.2548 190.272 58.2868 190.76C58.2548 191.232 58.3268 191.648 58.5028 192.008C58.6868 192.36 58.9428 192.636 59.2708 192.836C59.6068 193.028 59.9708 193.124 60.3628 193.124C60.7948 193.124 61.1588 193.024 61.4548 192.824C61.7508 192.624 61.9908 192.368 62.1748 192.056L63.1108 192.536C62.9828 192.832 62.7828 193.104 62.5108 193.352C62.2468 193.592 61.9308 193.784 61.5628 193.928C61.2028 194.072 60.7988 194.144 60.3508 194.144ZM66.7998 194.144C66.3758 194.144 65.9998 194.068 65.6718 193.916C65.3518 193.756 65.0998 193.54 64.9158 193.268C64.7318 192.988 64.6398 192.668 64.6398 192.308C64.6398 191.964 64.7118 191.656 64.8558 191.384C65.0078 191.104 65.2398 190.868 65.5518 190.676C65.8718 190.484 66.2718 190.348 66.7518 190.268L69.1518 189.872V190.808L67.0038 191.168C66.5878 191.24 66.2838 191.372 66.0918 191.564C65.9078 191.756 65.8158 191.992 65.8158 192.272C65.8158 192.536 65.9198 192.756 66.1278 192.932C66.3438 193.108 66.6118 193.196 66.9318 193.196C67.3398 193.196 67.6918 193.112 67.9878 192.944C68.2918 192.768 68.5278 192.532 68.6958 192.236C68.8718 191.94 68.9598 191.612 68.9598 191.252V189.608C68.9598 189.256 68.8278 188.972 68.5638 188.756C68.3078 188.532 67.9678 188.42 67.5438 188.42C67.1758 188.42 66.8478 188.516 66.5598 188.708C66.2798 188.892 66.0718 189.14 65.9358 189.452L64.9638 188.948C65.0838 188.652 65.2758 188.388 65.5398 188.156C65.8038 187.916 66.1118 187.728 66.4638 187.592C66.8158 187.456 67.1838 187.388 67.5678 187.388C68.0638 187.388 68.4998 187.484 68.8758 187.676C69.2518 187.86 69.5438 188.12 69.7518 188.456C69.9678 188.784 70.0758 189.168 70.0758 189.608V194H68.9838V192.776L69.1878 192.848C69.0518 193.104 68.8678 193.328 68.6358 193.52C68.4038 193.712 68.1318 193.864 67.8198 193.976C67.5078 194.088 67.1678 194.144 66.7998 194.144ZM74.3622 194.144C73.7142 194.144 73.1502 193.984 72.6702 193.664C72.1902 193.344 71.8502 192.912 71.6502 192.368L72.5382 191.936C72.7222 192.32 72.9742 192.624 73.2942 192.848C73.6142 193.072 73.9702 193.184 74.3622 193.184C74.7142 193.184 75.0062 193.1 75.2382 192.932C75.4702 192.764 75.5862 192.544 75.5862 192.272C75.5862 192.08 75.5302 191.928 75.4182 191.816C75.3142 191.696 75.1862 191.604 75.0342 191.54C74.8822 191.468 74.7422 191.416 74.6142 191.384L73.6422 191.108C73.0582 190.94 72.6302 190.7 72.3582 190.388C72.0942 190.076 71.9622 189.712 71.9622 189.296C71.9622 188.912 72.0582 188.58 72.2502 188.3C72.4502 188.012 72.7182 187.788 73.0542 187.628C73.3982 187.468 73.7822 187.388 74.2062 187.388C74.7742 187.388 75.2822 187.532 75.7302 187.82C76.1862 188.108 76.5102 188.512 76.7022 189.032L75.7902 189.452C75.6462 189.116 75.4302 188.852 75.1422 188.66C74.8542 188.46 74.5302 188.36 74.1702 188.36C73.8422 188.36 73.5822 188.444 73.3902 188.612C73.1982 188.772 73.1022 188.976 73.1022 189.224C73.1022 189.408 73.1502 189.56 73.2462 189.68C73.3422 189.792 73.4582 189.88 73.5942 189.944C73.7302 190 73.8622 190.048 73.9902 190.088L75.0462 190.4C75.5742 190.552 75.9822 190.788 76.2702 191.108C76.5662 191.428 76.7142 191.812 76.7142 192.26C76.7142 192.62 76.6142 192.944 76.4142 193.232C76.2142 193.52 75.9382 193.744 75.5862 193.904C75.2342 194.064 74.8262 194.144 74.3622 194.144ZM81.3911 194.144C80.7671 194.144 80.2111 193.996 79.7231 193.7C79.2351 193.404 78.8511 193 78.5711 192.488C78.2911 191.968 78.1511 191.388 78.1511 190.748C78.1511 190.1 78.2871 189.524 78.5591 189.02C78.8391 188.516 79.2151 188.12 79.6871 187.832C80.1671 187.536 80.7031 187.388 81.2951 187.388C81.7751 187.388 82.1991 187.476 82.5671 187.652C82.9431 187.82 83.2591 188.052 83.5151 188.348C83.7791 188.636 83.9791 188.968 84.1151 189.344C84.2591 189.712 84.3311 190.096 84.3311 190.496C84.3311 190.584 84.3231 190.684 84.3071 190.796C84.2991 190.9 84.2871 191 84.2711 191.096H78.9671V190.136H83.6231L83.0951 190.568C83.1671 190.152 83.1271 189.78 82.9751 189.452C82.8231 189.124 82.5991 188.864 82.3031 188.672C82.0071 188.48 81.6711 188.384 81.2951 188.384C80.9191 188.384 80.5751 188.48 80.2631 188.672C79.9511 188.864 79.7071 189.14 79.5311 189.5C79.3631 189.852 79.2951 190.272 79.3271 190.76C79.2951 191.232 79.3671 191.648 79.5431 192.008C79.7271 192.36 79.9831 192.636 80.3111 192.836C80.6471 193.028 81.0111 193.124 81.4031 193.124C81.8351 193.124 82.1991 193.024 82.4951 192.824C82.7911 192.624 83.0311 192.368 83.2151 192.056L84.1511 192.536C84.0231 192.832 83.8231 193.104 83.5511 193.352C83.2871 193.592 82.9711 193.784 82.6031 193.928C82.2431 194.072 81.8391 194.144 81.3911 194.144ZM88.4724 194V185.06H89.6484V192.92H93.5724V194H88.4724ZM97.9783 194.144C97.3543 194.144 96.7983 193.996 96.3103 193.7C95.8223 193.404 95.4383 193 95.1583 192.488C94.8783 191.968 94.7383 191.388 94.7383 190.748C94.7383 190.1 94.8743 189.524 95.1463 189.02C95.4263 188.516 95.8023 188.12 96.2743 187.832C96.7543 187.536 97.2903 187.388 97.8823 187.388C98.3623 187.388 98.7863 187.476 99.1543 187.652C99.5303 187.82 99.8463 188.052 100.102 188.348C100.366 188.636 100.566 188.968 100.702 189.344C100.846 189.712 100.918 190.096 100.918 190.496C100.918 190.584 100.91 190.684 100.894 190.796C100.886 190.9 100.874 191 100.858 191.096H95.5543V190.136H100.21L99.6823 190.568C99.7543 190.152 99.7143 189.78 99.5623 189.452C99.4103 189.124 99.1863 188.864 98.8903 188.672C98.5943 188.48 98.2583 188.384 97.8823 188.384C97.5063 188.384 97.1623 188.48 96.8503 188.672C96.5383 188.864 96.2943 189.14 96.1183 189.5C95.9503 189.852 95.8823 190.272 95.9143 190.76C95.8823 191.232 95.9543 191.648 96.1303 192.008C96.3143 192.36 96.5703 192.636 96.8983 192.836C97.2343 193.028 97.5983 193.124 97.9903 193.124C98.4223 193.124 98.7863 193.024 99.0823 192.824C99.3783 192.624 99.6183 192.368 99.8023 192.056L100.738 192.536C100.61 192.832 100.41 193.104 100.138 193.352C99.8743 193.592 99.5583 193.784 99.1903 193.928C98.8303 194.072 98.4263 194.144 97.9783 194.144ZM104.427 194.144C104.003 194.144 103.627 194.068 103.299 193.916C102.979 193.756 102.727 193.54 102.543 193.268C102.359 192.988 102.267 192.668 102.267 192.308C102.267 191.964 102.339 191.656 102.483 191.384C102.635 191.104 102.867 190.868 103.179 190.676C103.499 190.484 103.899 190.348 104.379 190.268L106.779 189.872V190.808L104.631 191.168C104.215 191.24 103.911 191.372 103.719 191.564C103.535 191.756 103.443 191.992 103.443 192.272C103.443 192.536 103.547 192.756 103.755 192.932C103.971 193.108 104.239 193.196 104.559 193.196C104.967 193.196 105.319 193.112 105.615 192.944C105.919 192.768 106.155 192.532 106.323 192.236C106.499 191.94 106.587 191.612 106.587 191.252V189.608C106.587 189.256 106.455 188.972 106.191 188.756C105.935 188.532 105.595 188.42 105.171 188.42C104.803 188.42 104.475 188.516 104.187 188.708C103.907 188.892 103.699 189.14 103.563 189.452L102.591 188.948C102.711 188.652 102.903 188.388 103.167 188.156C103.431 187.916 103.739 187.728 104.091 187.592C104.443 187.456 104.811 187.388 105.195 187.388C105.691 187.388 106.127 187.484 106.503 187.676C106.879 187.86 107.171 188.12 107.379 188.456C107.595 188.784 107.703 189.168 107.703 189.608V194H106.611V192.776L106.815 192.848C106.679 193.104 106.495 193.328 106.263 193.52C106.031 193.712 105.759 193.864 105.447 193.976C105.135 194.088 104.795 194.144 104.427 194.144ZM112.614 194.144C112.006 194.144 111.458 193.996 110.97 193.7C110.49 193.404 110.11 193 109.83 192.488C109.55 191.976 109.41 191.404 109.41 190.772C109.41 190.124 109.55 189.548 109.83 189.044C110.11 188.532 110.49 188.128 110.97 187.832C111.458 187.536 112.006 187.388 112.614 187.388C113.15 187.388 113.626 187.504 114.042 187.736C114.458 187.96 114.786 188.264 115.026 188.648L114.846 188.924V184.916H115.974V194H114.882V192.62L115.026 192.812C114.802 193.236 114.474 193.564 114.042 193.796C113.618 194.028 113.142 194.144 112.614 194.144ZM112.71 193.064C113.118 193.064 113.482 192.964 113.802 192.764C114.122 192.564 114.374 192.292 114.558 191.948C114.75 191.596 114.846 191.204 114.846 190.772C114.846 190.332 114.75 189.94 114.558 189.596C114.374 189.244 114.122 188.968 113.802 188.768C113.482 188.568 113.118 188.468 112.71 188.468C112.31 188.468 111.946 188.572 111.618 188.78C111.298 188.98 111.046 189.252 110.862 189.596C110.678 189.932 110.586 190.324 110.586 190.772C110.586 191.204 110.678 191.596 110.862 191.948C111.046 192.292 111.298 192.564 111.618 192.764C111.938 192.964 112.302 193.064 112.71 193.064ZM120.257 194.144C119.609 194.144 119.045 193.984 118.565 193.664C118.085 193.344 117.745 192.912 117.545 192.368L118.433 191.936C118.617 192.32 118.869 192.624 119.189 192.848C119.509 193.072 119.865 193.184 120.257 193.184C120.609 193.184 120.901 193.1 121.133 192.932C121.365 192.764 121.481 192.544 121.481 192.272C121.481 192.08 121.425 191.928 121.313 191.816C121.209 191.696 121.081 191.604 120.929 191.54C120.777 191.468 120.637 191.416 120.509 191.384L119.537 191.108C118.953 190.94 118.525 190.7 118.253 190.388C117.989 190.076 117.857 189.712 117.857 189.296C117.857 188.912 117.953 188.58 118.145 188.3C118.345 188.012 118.613 187.788 118.949 187.628C119.293 187.468 119.677 187.388 120.101 187.388C120.669 187.388 121.177 187.532 121.625 187.82C122.081 188.108 122.405 188.512 122.597 189.032L121.685 189.452C121.541 189.116 121.325 188.852 121.037 188.66C120.749 188.46 120.425 188.36 120.065 188.36C119.737 188.36 119.477 188.444 119.285 188.612C119.093 188.772 118.997 188.976 118.997 189.224C118.997 189.408 119.045 189.56 119.141 189.68C119.237 189.792 119.353 189.88 119.489 189.944C119.625 190 119.757 190.048 119.885 190.088L120.941 190.4C121.469 190.552 121.877 190.788 122.165 191.108C122.461 191.428 122.609 191.812 122.609 192.26C122.609 192.62 122.509 192.944 122.309 193.232C122.109 193.52 121.833 193.744 121.481 193.904C121.129 194.064 120.721 194.144 120.257 194.144Z" fill="#019F53"/>
</g>
<path d="M290.072 116.495C290.345 116.455 290.534 116.201 290.495 115.928C290.455 115.655 290.201 115.466 289.928 115.505L290.072 116.495ZM275.802 121.933L275.524 121.518L275.516 121.523L275.509 121.529L275.802 121.933ZM268.749 128.034L268.427 127.651L268.749 128.034ZM264.35 133.86L263.887 133.669L263.886 133.672L264.35 133.86ZM263.671 148.075L264.114 147.843L263.671 148.075ZM271.133 153.245L271.054 153.738L271.133 153.245ZM280.63 151.306L280.245 150.986L280.63 151.306ZM282.665 142.26L283.146 142.124L282.665 142.26ZM278.595 137.09L278.304 137.497L278.595 137.09ZM261.636 135.799L261.788 136.276L261.636 135.799ZM253.497 140.322L253.841 140.684L253.497 140.322ZM248.748 146.138L248.338 145.852L248.748 146.138ZM245.357 153.892L244.875 153.758L244.871 153.773L244.867 153.789L245.357 153.892ZM244.678 157.123L244.189 157.02L244.187 157.028L244.186 157.037L244.678 157.123ZM243.591 161.287C243.749 161.513 244.061 161.568 244.287 161.409L247.97 158.823C248.196 158.664 248.251 158.353 248.092 158.127C247.933 157.901 247.621 157.846 247.395 158.005L244.122 160.303L241.823 157.03C241.664 156.804 241.353 156.749 241.127 156.908C240.901 157.067 240.846 157.379 241.005 157.605L243.591 161.287ZM244.662 160.117C244.71 159.845 244.528 159.586 244.256 159.538C243.984 159.491 243.725 159.672 243.677 159.945L244.662 160.117ZM244.016 158.006C243.969 158.278 244.151 158.537 244.423 158.585C244.695 158.632 244.954 158.45 245.001 158.178L244.016 158.006ZM245.337 156.418C245.394 156.147 245.221 155.882 244.951 155.826C244.68 155.769 244.415 155.942 244.359 156.212L245.337 156.418ZM244.698 154.597C244.641 154.867 244.814 155.132 245.084 155.189C245.355 155.246 245.62 155.073 245.676 154.802L244.698 154.597ZM246.478 152.038C246.57 151.778 246.434 151.492 246.174 151.4C245.913 151.308 245.628 151.445 245.536 151.705L246.478 152.038ZM247.22 147.733C247.093 147.978 247.189 148.28 247.434 148.407C247.68 148.533 247.981 148.437 248.108 148.192L247.22 147.733ZM250.242 144.903C250.406 144.68 250.358 144.367 250.135 144.204C249.913 144.04 249.6 144.088 249.436 144.311L250.242 144.903ZM251.82 141.343C251.636 141.549 251.653 141.865 251.859 142.049C252.065 142.233 252.381 142.215 252.565 142.009L251.82 141.343ZM255.604 139.257C255.831 139.099 255.886 138.787 255.728 138.561C255.57 138.334 255.259 138.279 255.032 138.437L255.604 139.257ZM259.241 136.149C258.987 136.256 258.867 136.55 258.974 136.804C259.081 137.059 259.375 137.178 259.629 137.071L259.241 136.149ZM263.872 135.703C264.141 135.64 264.308 135.371 264.245 135.102C264.182 134.834 263.913 134.667 263.645 134.729L263.872 135.703ZM268.073 134.058C267.798 134.076 267.589 134.314 267.607 134.59C267.625 134.866 267.863 135.074 268.139 135.056L268.073 134.058ZM272.423 135.21C272.696 135.251 272.951 135.063 272.992 134.79C273.034 134.517 272.846 134.262 272.573 134.221L272.423 135.21ZM276.916 135.523C276.666 135.404 276.368 135.509 276.249 135.758C276.13 136.007 276.235 136.306 276.484 136.425L276.916 135.523ZM279.522 138.522C279.72 138.714 280.036 138.71 280.229 138.511C280.421 138.313 280.416 137.997 280.218 137.804L279.522 138.522ZM282.385 140.494C282.241 140.258 281.934 140.184 281.698 140.327C281.462 140.471 281.388 140.779 281.531 141.015L282.385 140.494ZM282.502 144.644C282.505 144.921 282.732 145.141 283.008 145.138C283.284 145.134 283.505 144.907 283.502 144.631L282.502 144.644ZM282.389 149.513C282.511 149.265 282.409 148.966 282.162 148.843C281.914 148.721 281.615 148.822 281.492 149.07L282.389 149.513ZM278.408 152.333C278.156 152.444 278.041 152.739 278.152 152.992C278.264 153.244 278.559 153.359 278.811 153.248L278.408 152.333ZM273.624 154.011C273.9 154.024 274.133 153.811 274.146 153.535C274.159 153.259 273.946 153.025 273.67 153.012L273.624 154.011ZM269.059 152.159C268.802 152.057 268.511 152.182 268.409 152.438C268.306 152.695 268.431 152.985 268.688 153.088L269.059 152.159ZM264.676 150.31C264.863 150.514 265.179 150.527 265.382 150.34C265.586 150.152 265.599 149.836 265.412 149.633L264.676 150.31ZM263.483 146.243C263.407 145.977 263.131 145.823 262.865 145.898C262.599 145.974 262.445 146.251 262.521 146.516L263.483 146.243ZM262.051 142.764C262.05 143.04 262.273 143.265 262.549 143.266C262.825 143.267 263.05 143.044 263.051 142.767L262.051 142.764ZM263.388 139.219C263.435 138.947 263.254 138.687 262.982 138.64C262.71 138.592 262.451 138.774 262.403 139.046L263.388 139.219ZM263.277 135.436C263.196 135.7 263.344 135.98 263.608 136.061C263.872 136.142 264.152 135.994 264.233 135.73L263.277 135.436ZM265.631 132.491C265.774 132.254 265.698 131.947 265.461 131.805C265.224 131.662 264.917 131.738 264.775 131.975L265.631 132.491ZM267.05 128.958C266.862 129.159 266.872 129.475 267.073 129.664C267.275 129.853 267.591 129.843 267.78 129.642L267.05 128.958ZM270.84 126.86C271.043 126.673 271.056 126.357 270.869 126.154C270.682 125.951 270.366 125.937 270.163 126.124L270.84 126.86ZM273.635 122.967C273.421 123.142 273.39 123.457 273.565 123.671C273.74 123.885 274.055 123.916 274.268 123.741L273.635 122.967ZM277.696 121.323C277.933 121.18 278.009 120.873 277.867 120.636C277.724 120.4 277.417 120.323 277.181 120.466L277.696 121.323ZM280.63 118.607C280.381 118.726 280.276 119.025 280.396 119.274C280.515 119.523 280.814 119.628 281.063 119.508L280.63 118.607ZM284.585 118.02C284.845 117.925 284.977 117.637 284.882 117.378C284.787 117.119 284.5 116.986 284.24 117.081L284.585 118.02ZM287.987 115.917C287.719 115.984 287.557 116.256 287.624 116.524C287.692 116.791 287.964 116.954 288.231 116.886L287.987 115.917ZM244 161L244.493 161.086L244.662 160.117L244.17 160.031L243.677 159.945L243.507 160.914L244 161ZM244.509 158.092L245.001 158.178L245.171 157.209L244.678 157.123L244.186 157.037L244.016 158.006L244.509 158.092ZM244.678 157.123L245.168 157.225L245.337 156.418L244.848 156.315L244.359 156.212L244.189 157.02L244.678 157.123ZM245.187 154.7L245.676 154.802L245.846 153.995L245.357 153.892L244.867 153.789L244.698 154.597L245.187 154.7ZM245.357 153.892C245.838 154.026 245.838 154.026 245.838 154.026C245.838 154.026 245.838 154.026 245.838 154.026C245.838 154.026 245.838 154.026 245.838 154.026C245.838 154.026 245.838 154.026 245.838 154.025C245.839 154.025 245.839 154.025 245.839 154.024C245.839 154.023 245.84 154.02 245.841 154.018C245.842 154.012 245.845 154.003 245.848 153.991C245.855 153.967 245.866 153.93 245.879 153.883C245.907 153.789 245.948 153.65 246.002 153.474C246.111 153.123 246.272 152.624 246.478 152.038L246.007 151.872L245.536 151.705C245.324 152.306 245.159 152.817 245.047 153.179C244.991 153.36 244.948 153.504 244.919 153.603C244.905 153.652 244.894 153.691 244.887 153.717C244.883 153.73 244.88 153.74 244.878 153.747C244.877 153.75 244.876 153.753 244.876 153.755C244.876 153.756 244.875 153.757 244.875 153.757C244.875 153.757 244.875 153.758 244.875 153.758C244.875 153.758 244.875 153.758 244.875 153.758C244.875 153.758 244.875 153.758 244.875 153.758C244.875 153.758 244.875 153.758 245.357 153.892ZM247.664 147.962L248.108 148.192C248.434 147.561 248.786 146.958 249.158 146.424L248.748 146.138L248.338 145.852C247.934 146.431 247.56 147.074 247.22 147.733L247.664 147.962ZM248.748 146.138L249.158 146.424C249.44 146.021 249.808 145.495 250.242 144.903L249.839 144.607L249.436 144.311C248.994 144.913 248.62 145.447 248.338 145.852L248.748 146.138ZM252.192 141.676L252.565 142.009C252.977 141.548 253.405 141.1 253.841 140.684L253.497 140.322L253.152 139.96C252.692 140.398 252.246 140.866 251.82 141.343L252.192 141.676ZM253.497 140.322L253.841 140.684C254.368 140.183 254.961 139.705 255.604 139.257L255.318 138.847L255.032 138.437C254.353 138.91 253.72 139.419 253.152 139.96L253.497 140.322ZM259.435 136.61L259.629 137.071C260.342 136.771 261.067 136.505 261.788 136.276L261.636 135.799L261.485 135.323C260.736 135.561 259.983 135.837 259.241 136.149L259.435 136.61ZM261.636 135.799L261.788 136.276C262.408 136.079 263.11 135.881 263.872 135.703L263.758 135.216L263.645 134.729C262.856 134.914 262.129 135.118 261.485 135.323L261.636 135.799ZM268.106 134.557L268.139 135.056C269.534 134.964 270.986 134.993 272.423 135.21L272.498 134.716L272.573 134.221C271.052 133.992 269.526 133.962 268.073 134.058L268.106 134.557ZM276.7 135.974L276.484 136.425C277.111 136.725 277.72 137.08 278.304 137.497L278.595 137.09L278.885 136.684C278.252 136.231 277.593 135.847 276.916 135.523L276.7 135.974ZM278.595 137.09L278.304 137.497C278.722 137.796 279.132 138.144 279.522 138.522L279.87 138.163L280.218 137.804C279.798 137.397 279.35 137.015 278.885 136.684L278.595 137.09ZM281.958 140.754L281.531 141.015C281.859 141.551 282.08 142.029 282.183 142.395L282.665 142.26L283.146 142.124C283.009 141.637 282.738 141.073 282.385 140.494L281.958 140.754ZM282.665 142.26L282.183 142.395C282.383 143.104 282.491 143.863 282.502 144.644L283.002 144.638L283.502 144.631C283.49 143.766 283.37 142.921 283.146 142.124L282.665 142.26ZM281.94 149.291L281.492 149.07C281.162 149.739 280.747 150.384 280.245 150.986L280.63 151.306L281.014 151.626C281.567 150.962 282.024 150.251 282.389 149.513L281.94 149.291ZM280.63 151.306L280.245 150.986C279.756 151.574 279.133 152.014 278.408 152.333L278.61 152.79L278.811 153.248C279.654 152.877 280.411 152.35 281.014 151.626L280.63 151.306ZM273.647 153.512L273.67 153.012C272.844 152.974 272.013 152.879 271.212 152.751L271.133 153.245L271.054 153.738C271.885 153.871 272.753 153.971 273.624 154.011L273.647 153.512ZM271.133 153.245L271.212 152.751C270.424 152.625 269.708 152.419 269.059 152.159L268.873 152.624L268.688 153.088C269.403 153.374 270.191 153.6 271.054 153.738L271.133 153.245ZM265.044 149.972L265.412 149.633C264.761 148.926 264.336 148.265 264.114 147.843L263.671 148.075L263.229 148.308C263.49 148.805 263.965 149.538 264.676 150.31L265.044 149.972ZM263.671 148.075L264.114 147.843C263.85 147.339 263.642 146.803 263.483 146.243L263.002 146.379L262.521 146.516C262.697 147.135 262.929 147.736 263.229 148.308L263.671 148.075ZM262.551 142.766L263.051 142.767C263.055 141.552 263.191 140.34 263.388 139.219L262.895 139.132L262.403 139.046C262.199 140.208 262.055 141.479 262.051 142.764L262.551 142.766ZM263.755 135.583L264.233 135.73C264.394 135.205 264.54 134.782 264.646 134.491C264.698 134.346 264.741 134.234 264.77 134.158C264.784 134.121 264.795 134.092 264.803 134.074C264.806 134.064 264.809 134.058 264.811 134.053C264.812 134.051 264.812 134.049 264.813 134.048C264.813 134.048 264.813 134.048 264.813 134.048C264.813 134.047 264.813 134.047 264.813 134.047C264.813 134.047 264.813 134.047 264.813 134.047C264.813 134.047 264.813 134.048 264.813 134.048C264.813 134.048 264.813 134.048 264.35 133.86C263.886 133.672 263.886 133.672 263.886 133.672C263.886 133.672 263.886 133.672 263.886 133.672C263.886 133.672 263.886 133.672 263.886 133.672C263.886 133.672 263.886 133.672 263.886 133.673C263.886 133.673 263.886 133.674 263.885 133.674C263.885 133.676 263.884 133.678 263.883 133.681C263.88 133.687 263.877 133.695 263.873 133.706C263.864 133.727 263.852 133.759 263.836 133.799C263.805 133.881 263.76 133.999 263.705 134.151C263.595 134.455 263.444 134.894 263.277 135.436L263.755 135.583ZM264.35 133.86C264.812 134.05 264.812 134.05 264.812 134.05C264.812 134.05 264.812 134.05 264.812 134.05C264.812 134.05 264.812 134.05 264.812 134.05C264.812 134.05 264.812 134.05 264.812 134.05C264.812 134.05 264.812 134.05 264.812 134.049C264.813 134.049 264.813 134.047 264.814 134.045C264.816 134.042 264.818 134.035 264.822 134.026C264.83 134.009 264.841 133.982 264.858 133.946C264.89 133.873 264.94 133.766 265.007 133.628C265.143 133.353 265.349 132.959 265.631 132.491L265.203 132.233L264.775 131.975C264.476 132.47 264.256 132.89 264.11 133.187C264.037 133.336 263.982 133.454 263.945 133.536C263.927 133.577 263.913 133.61 263.903 133.632C263.898 133.643 263.895 133.652 263.892 133.658C263.891 133.661 263.89 133.664 263.889 133.666C263.888 133.667 263.888 133.667 263.888 133.668C263.888 133.668 263.888 133.669 263.888 133.669C263.888 133.669 263.887 133.669 263.887 133.669C263.887 133.669 263.887 133.669 263.887 133.669C263.887 133.669 263.887 133.669 264.35 133.86ZM267.415 129.3L267.78 129.642C268.17 129.226 268.599 128.813 269.071 128.416L268.749 128.034L268.427 127.651C267.923 128.075 267.465 128.516 267.05 128.958L267.415 129.3ZM268.749 128.034L269.071 128.416C269.767 127.831 270.336 127.324 270.84 126.86L270.501 126.492L270.163 126.124C269.669 126.579 269.11 127.077 268.427 127.651L268.749 128.034ZM273.951 123.354L274.268 123.741C274.782 123.32 275.374 122.862 276.096 122.338L275.802 121.933L275.509 121.529C274.773 122.063 274.165 122.533 273.635 122.967L273.951 123.354ZM275.802 121.933L276.081 122.349C276.623 121.986 277.162 121.644 277.696 121.323L277.438 120.894L277.181 120.466C276.633 120.795 276.08 121.146 275.524 121.518L275.802 121.933ZM280.847 119.058L281.063 119.508C282.322 118.904 283.51 118.415 284.585 118.02L284.413 117.551L284.24 117.081C283.138 117.486 281.921 117.988 280.63 118.607L280.847 119.058ZM288.109 116.402L288.231 116.886C288.818 116.739 289.282 116.64 289.597 116.579C289.755 116.548 289.875 116.527 289.955 116.514C289.996 116.507 290.026 116.502 290.045 116.499C290.055 116.497 290.062 116.496 290.066 116.496C290.069 116.495 290.07 116.495 290.071 116.495C290.072 116.495 290.072 116.495 290.072 116.495C290.072 116.495 290.072 116.495 290.072 116.495C290.072 116.495 290.072 116.495 290.072 116.495C290.072 116.495 290.072 116.495 290.072 116.495C290.072 116.495 290.072 116.495 290 116C289.928 115.505 289.928 115.505 289.928 115.505C289.928 115.505 289.928 115.505 289.928 115.505C289.928 115.505 289.928 115.505 289.928 115.505C289.928 115.505 289.927 115.505 289.927 115.505C289.926 115.505 289.926 115.506 289.925 115.506C289.923 115.506 289.92 115.506 289.917 115.507C289.911 115.508 289.902 115.509 289.89 115.511C289.867 115.515 289.833 115.52 289.789 115.528C289.701 115.542 289.572 115.565 289.406 115.597C289.074 115.662 288.593 115.764 287.987 115.917L288.109 116.402Z" fill="#1D2220"/>
<g filter="url(#filter2_d_1_321)">
<path d="M297 101C297 93.268 303.268 87 311 87H375C382.732 87 389 93.268 389 101C389 108.732 382.732 115 375 115H311C303.268 115 297 108.732 297 101Z" fill="white" shape-rendering="crispEdges"/>
<path d="M311 87.5H375C382.456 87.5 388.5 93.5442 388.5 101C388.5 108.456 382.456 114.5 375 114.5H311C303.544 114.5 297.5 108.456 297.5 101C297.5 93.5442 303.544 87.5 311 87.5Z" stroke="#019F53" stroke-opacity="0.3" shape-rendering="crispEdges"/>
<path d="M307.996 106V97.06H311.752C312.288 97.06 312.748 97.156 313.132 97.348C313.524 97.54 313.824 97.812 314.032 98.164C314.248 98.508 314.356 98.92 314.356 99.4C314.356 99.84 314.24 100.24 314.008 100.6C313.784 100.952 313.452 101.228 313.012 101.428L313 100.984C313.384 101.128 313.7 101.32 313.948 101.56C314.204 101.792 314.396 102.064 314.524 102.376C314.652 102.68 314.716 103.004 314.716 103.348C314.716 104.172 314.452 104.82 313.924 105.292C313.396 105.764 312.676 106 311.764 106H307.996ZM309.172 104.92H311.812C312.332 104.92 312.748 104.78 313.06 104.5C313.372 104.22 313.528 103.84 313.528 103.36C313.528 102.88 313.372 102.5 313.06 102.22C312.748 101.932 312.332 101.788 311.812 101.788H309.172V104.92ZM309.172 100.732H311.728C312.16 100.732 312.508 100.608 312.772 100.36C313.036 100.104 313.168 99.78 313.168 99.388C313.168 98.98 313.036 98.668 312.772 98.452C312.508 98.236 312.16 98.128 311.728 98.128H309.172V100.732ZM319.485 106.144C318.861 106.144 318.297 106 317.793 105.712C317.289 105.416 316.889 105.012 316.593 104.5C316.297 103.988 316.149 103.408 316.149 102.76C316.149 102.112 316.293 101.536 316.581 101.032C316.877 100.528 317.277 100.128 317.781 99.832C318.285 99.536 318.853 99.388 319.485 99.388C320.109 99.388 320.673 99.536 321.177 99.832C321.681 100.12 322.077 100.516 322.365 101.02C322.661 101.524 322.809 102.104 322.809 102.76C322.809 103.416 322.657 104 322.353 104.512C322.049 105.016 321.645 105.416 321.141 105.712C320.645 106 320.093 106.144 319.485 106.144ZM319.485 105.064C319.885 105.064 320.245 104.964 320.565 104.764C320.893 104.564 321.149 104.288 321.333 103.936C321.525 103.584 321.621 103.192 321.621 102.76C321.621 102.32 321.525 101.932 321.333 101.596C321.149 101.252 320.893 100.98 320.565 100.78C320.245 100.572 319.885 100.468 319.485 100.468C319.077 100.468 318.709 100.572 318.381 100.78C318.061 100.98 317.805 101.252 317.613 101.596C317.421 101.932 317.325 102.32 317.325 102.76C317.325 103.192 317.421 103.584 317.613 103.936C317.805 104.288 318.061 104.564 318.381 104.764C318.709 104.964 319.077 105.064 319.485 105.064ZM327.576 106.144C326.952 106.144 326.388 106 325.884 105.712C325.38 105.416 324.98 105.012 324.684 104.5C324.388 103.988 324.24 103.408 324.24 102.76C324.24 102.112 324.384 101.536 324.672 101.032C324.968 100.528 325.368 100.128 325.872 99.832C326.376 99.536 326.944 99.388 327.576 99.388C328.2 99.388 328.764 99.536 329.268 99.832C329.772 100.12 330.168 100.516 330.456 101.02C330.752 101.524 330.9 102.104 330.9 102.76C330.9 103.416 330.748 104 330.444 104.512C330.14 105.016 329.736 105.416 329.232 105.712C328.736 106 328.184 106.144 327.576 106.144ZM327.576 105.064C327.976 105.064 328.336 104.964 328.656 104.764C328.984 104.564 329.24 104.288 329.424 103.936C329.616 103.584 329.712 103.192 329.712 102.76C329.712 102.32 329.616 101.932 329.424 101.596C329.24 101.252 328.984 100.98 328.656 100.78C328.336 100.572 327.976 100.468 327.576 100.468C327.168 100.468 326.8 100.572 326.472 100.78C326.152 100.98 325.896 101.252 325.704 101.596C325.512 101.932 325.416 102.32 325.416 102.76C325.416 103.192 325.512 103.584 325.704 103.936C325.896 104.288 326.152 104.564 326.472 104.764C326.8 104.964 327.168 105.064 327.576 105.064ZM334.912 106.144C334.264 106.144 333.7 105.984 333.22 105.664C332.74 105.344 332.4 104.912 332.2 104.368L333.088 103.936C333.272 104.32 333.524 104.624 333.844 104.848C334.164 105.072 334.52 105.184 334.912 105.184C335.264 105.184 335.556 105.1 335.788 104.932C336.02 104.764 336.136 104.544 336.136 104.272C336.136 104.08 336.08 103.928 335.968 103.816C335.864 103.696 335.736 103.604 335.584 103.54C335.432 103.468 335.292 103.416 335.164 103.384L334.192 103.108C333.608 102.94 333.18 102.7 332.908 102.388C332.644 102.076 332.512 101.712 332.512 101.296C332.512 100.912 332.608 100.58 332.8 100.3C333 100.012 333.268 99.788 333.604 99.628C333.948 99.468 334.332 99.388 334.756 99.388C335.324 99.388 335.832 99.532 336.28 99.82C336.736 100.108 337.06 100.512 337.252 101.032L336.34 101.452C336.196 101.116 335.98 100.852 335.692 100.66C335.404 100.46 335.08 100.36 334.72 100.36C334.392 100.36 334.132 100.444 333.94 100.612C333.748 100.772 333.652 100.976 333.652 101.224C333.652 101.408 333.7 101.56 333.796 101.68C333.892 101.792 334.008 101.88 334.144 101.944C334.28 102 334.412 102.048 334.54 102.088L335.596 102.4C336.124 102.552 336.532 102.788 336.82 103.108C337.116 103.428 337.264 103.812 337.264 104.26C337.264 104.62 337.164 104.944 336.964 105.232C336.764 105.52 336.488 105.744 336.136 105.904C335.784 106.064 335.376 106.144 334.912 106.144ZM341.593 106.072C340.961 106.072 340.473 105.892 340.129 105.532C339.793 105.172 339.625 104.664 339.625 104.008V100.6H338.449V99.532H338.689C338.977 99.532 339.205 99.444 339.373 99.268C339.541 99.092 339.625 98.86 339.625 98.572V98.044H340.741V99.532H342.193V100.6H340.741V103.972C340.741 104.188 340.773 104.376 340.837 104.536C340.909 104.696 341.025 104.824 341.185 104.92C341.345 105.008 341.557 105.052 341.821 105.052C341.877 105.052 341.945 105.048 342.025 105.04C342.113 105.032 342.193 105.024 342.265 105.016V106C342.161 106.024 342.045 106.04 341.917 106.048C341.789 106.064 341.681 106.072 341.593 106.072ZM346.409 106V97.06H349.337C350.241 97.06 351.029 97.244 351.701 97.612C352.373 97.98 352.893 98.5 353.261 99.172C353.629 99.836 353.813 100.62 353.813 101.524C353.813 102.42 353.629 103.204 353.261 103.876C352.893 104.548 352.373 105.072 351.701 105.448C351.029 105.816 350.241 106 349.337 106H346.409ZM347.585 104.92H349.349C350.013 104.92 350.585 104.78 351.065 104.5C351.553 104.22 351.929 103.828 352.193 103.324C352.457 102.812 352.589 102.212 352.589 101.524C352.589 100.828 352.453 100.228 352.181 99.724C351.917 99.22 351.541 98.832 351.053 98.56C350.573 98.28 350.005 98.14 349.349 98.14H347.585V104.92ZM358.387 106.144C357.763 106.144 357.207 105.996 356.719 105.7C356.231 105.404 355.847 105 355.567 104.488C355.287 103.968 355.147 103.388 355.147 102.748C355.147 102.1 355.283 101.524 355.555 101.02C355.835 100.516 356.211 100.12 356.683 99.832C357.163 99.536 357.699 99.388 358.291 99.388C358.771 99.388 359.195 99.476 359.563 99.652C359.939 99.82 360.255 100.052 360.511 100.348C360.775 100.636 360.975 100.968 361.111 101.344C361.255 101.712 361.327 102.096 361.327 102.496C361.327 102.584 361.319 102.684 361.303 102.796C361.295 102.9 361.283 103 361.267 103.096H355.963V102.136H360.619L360.091 102.568C360.163 102.152 360.123 101.78 359.971 101.452C359.819 101.124 359.595 100.864 359.299 100.672C359.003 100.48 358.667 100.384 358.291 100.384C357.915 100.384 357.571 100.48 357.259 100.672C356.947 100.864 356.703 101.14 356.527 101.5C356.359 101.852 356.291 102.272 356.323 102.76C356.291 103.232 356.363 103.648 356.539 104.008C356.723 104.36 356.979 104.636 357.307 104.836C357.643 105.028 358.007 105.124 358.399 105.124C358.831 105.124 359.195 105.024 359.491 104.824C359.787 104.624 360.027 104.368 360.211 104.056L361.147 104.536C361.019 104.832 360.819 105.104 360.547 105.352C360.283 105.592 359.967 105.784 359.599 105.928C359.239 106.072 358.835 106.144 358.387 106.144ZM364.836 106.144C364.412 106.144 364.036 106.068 363.708 105.916C363.388 105.756 363.136 105.54 362.952 105.268C362.768 104.988 362.676 104.668 362.676 104.308C362.676 103.964 362.748 103.656 362.892 103.384C363.044 103.104 363.276 102.868 363.588 102.676C363.908 102.484 364.308 102.348 364.788 102.268L367.188 101.872V102.808L365.04 103.168C364.624 103.24 364.32 103.372 364.128 103.564C363.944 103.756 363.852 103.992 363.852 104.272C363.852 104.536 363.956 104.756 364.164 104.932C364.38 105.108 364.648 105.196 364.968 105.196C365.376 105.196 365.728 105.112 366.024 104.944C366.328 104.768 366.564 104.532 366.732 104.236C366.908 103.94 366.996 103.612 366.996 103.252V101.608C366.996 101.256 366.864 100.972 366.6 100.756C366.344 100.532 366.004 100.42 365.58 100.42C365.212 100.42 364.884 100.516 364.596 100.708C364.316 100.892 364.108 101.14 363.972 101.452L363 100.948C363.12 100.652 363.312 100.388 363.576 100.156C363.84 99.916 364.148 99.728 364.5 99.592C364.852 99.456 365.22 99.388 365.604 99.388C366.1 99.388 366.536 99.484 366.912 99.676C367.288 99.86 367.58 100.12 367.788 100.456C368.004 100.784 368.112 101.168 368.112 101.608V106H367.02V104.776L367.224 104.848C367.088 105.104 366.904 105.328 366.672 105.52C366.44 105.712 366.168 105.864 365.856 105.976C365.544 106.088 365.204 106.144 364.836 106.144ZM370.083 106V96.916H371.199V106H370.083ZM375.486 106.144C374.838 106.144 374.274 105.984 373.794 105.664C373.314 105.344 372.974 104.912 372.774 104.368L373.662 103.936C373.846 104.32 374.098 104.624 374.418 104.848C374.738 105.072 375.094 105.184 375.486 105.184C375.838 105.184 376.13 105.1 376.362 104.932C376.594 104.764 376.71 104.544 376.71 104.272C376.71 104.08 376.654 103.928 376.542 103.816C376.438 103.696 376.31 103.604 376.158 103.54C376.006 103.468 375.866 103.416 375.738 103.384L374.766 103.108C374.182 102.94 373.754 102.7 373.482 102.388C373.218 102.076 373.086 101.712 373.086 101.296C373.086 100.912 373.182 100.58 373.374 100.3C373.574 100.012 373.842 99.788 374.178 99.628C374.522 99.468 374.906 99.388 375.33 99.388C375.898 99.388 376.406 99.532 376.854 99.82C377.31 100.108 377.634 100.512 377.826 101.032L376.914 101.452C376.77 101.116 376.554 100.852 376.266 100.66C375.978 100.46 375.654 100.36 375.294 100.36C374.966 100.36 374.706 100.444 374.514 100.612C374.322 100.772 374.226 100.976 374.226 101.224C374.226 101.408 374.274 101.56 374.37 101.68C374.466 101.792 374.582 101.88 374.718 101.944C374.854 102 374.986 102.048 375.114 102.088L376.17 102.4C376.698 102.552 377.106 102.788 377.394 103.108C377.69 103.428 377.838 103.812 377.838 104.26C377.838 104.62 377.738 104.944 377.538 105.232C377.338 105.52 377.062 105.744 376.71 105.904C376.358 106.064 375.95 106.144 375.486 106.144Z" fill="#019F53"/>
</g>
</g>
<defs>
<filter id="filter0_d_1_321" x="29" y="-73" width="353" height="336" filterUnits="userSpaceOnUse" color-interpolation-filters="sRGB">
<feFlood flood-opacity="0" result="BackgroundImageFix"/>
<feColorMatrix in="SourceAlpha" type="matrix" values="0 0 0 0 0 0 0 0 0 0 0 0 0 0 0 0 0 0 127 0" result="hardAlpha"/>
<feOffset dy="12"/>
<feGaussianBlur stdDeviation="10"/>
<feComposite in2="hardAlpha" operator="out"/>
<feColorMatrix type="matrix" values="0 0 0 0 0.113725 0 0 0 0 0.133333 0 0 0 0 0.12549 0 0 0 0.1 0"/>
<feBlend mode="normal" in2="BackgroundImageFix" result="effect1_dropShadow_1_321"/>
<feBlend mode="normal" in="SourceGraphic" in2="effect1_dropShadow_1_321" result="shape"/>
</filter>
<filter id="filter1_d_1_321" x="14" y="169" width="130" height="48" filterUnits="userSpaceOnUse" color-interpolation-filters="sRGB">
<feFlood flood-opacity="0" result="BackgroundImageFix"/>
<feColorMatrix in="SourceAlpha" type="matrix" values="0 0 0 0 0 0 0 0 0 0 0 0 0 0 0 0 0 0 127 0" result="hardAlpha"/>
<feOffset dy="4"/>
<feGaussianBlur stdDeviation="5"/>
<feComposite in2="hardAlpha" operator="out"/>
<feColorMatrix type="matrix" values="0 0 0 0 0.00392157 0 0 0 0 0.623529 0 0 0 0 0.32549 0 0 0 0.16 0"/>
<feBlend mode="normal" in2="BackgroundImageFix" result="effect1_dropShadow_1_321"/>
<feBlend mode="normal" in="SourceGraphic" in2="effect1_dropShadow_1_321" result="shape"/>
</filter>
<filter id="filter2_d_1_321" x="287" y="81" width="112" height="48" filterUnits="userSpaceOnUse" color-interpolation-filters="sRGB">
<feFlood flood-opacity="0" result="BackgroundImageFix"/>
<feColorMatrix in="SourceAlpha" type="matrix" values="0 0 0 0 0 0 0 0 0 0 0 0 0 0 0 0 0 0 127 0" result="hardAlpha"/>
<feOffset dy="4"/>
<feGaussianBlur stdDeviation="5"/>
<feComposite in2="hardAlpha" operator="out"/>
<feColorMatrix type="matrix" values="0 0 0 0 0.00392157 0 0 0 0 0.623529 0 0 0 0 0.32549 0 0 0 0.16 0"/>
<feBlend mode="normal" in2="BackgroundImageFix" result="effect1_dropShadow_1_321"/>
<feBlend mode="normal" in="SourceGraphic" in2="effect1_dropShadow_1_321" result="shape"/>
</filter>
<linearGradient id="paint0_linear_1_321" x1="205.5" y1="0" x2="205.5" y2="365" gradientUnits="userSpaceOnUse">
<stop stop-color="#F6F6F6" stop-opacity="0"/>
<stop offset="0.735577" stop-color="#F6F6F6"/>
</linearGradient>
<linearGradient id="paint1_linear_1_321" x1="205.5" y1="0" x2="205.5" y2="83" gradientUnits="userSpaceOnUse">
<stop stop-color="#F6F6F6"/>
<stop offset="1" stop-color="#F6F6F6" stop-opacity="0"/>
</linearGradient>
<clipPath id="clip0_1_321">
<rect width="411" height="365" rx="16" fill="white"/>
</clipPath>
<clipPath id="clip1_1_321">
<path d="M49 -44.9557C49 -56.0258 57.9742 -65 69.0443 -65H341.956C353.026 -65 362 -56.0258 362 -44.9557V210.96C362 222.028 353.028 231 341.96 231H69.0443C57.9742 231 49 222.026 49 210.956V-44.9557Z" fill="white"/>
</clipPath>
</defs>
</svg>
