<svg width="411" height="365" viewBox="0 0 411 365" fill="none" xmlns="http://www.w3.org/2000/svg">
<g clip-path="url(#clip0_1_458)">
<rect width="411" height="365" rx="16" fill="#F6F6F6"/>
<mask id="mask0_1_458" style="mask-type:luminance" maskUnits="userSpaceOnUse" x="-4" y="137" width="417" height="233">
<path d="M412.736 137H-4V370H412.736V137Z" fill="white"/>
</mask>
<g mask="url(#mask0_1_458)">
<path d="M444.32 400.544H-35.584V106.458H444.32L444.32 400.544ZM-34.9637 399.937H443.7V107.065H-34.9637V399.937Z" fill="#1D2220" fill-opacity="0.09"/>
<path d="M444.01 355.914H-35.2739V356.521H444.01V355.914Z" fill="#1D2220" fill-opacity="0.09"/>
<path d="M444.01 341.24H-35.2739V341.847H444.01V341.24Z" fill="#1D2220" fill-opacity="0.09"/>
<path d="M444.01 326.566H-35.2739V327.173H444.01V326.566Z" fill="#1D2220" fill-opacity="0.09"/>
<path d="M444.01 311.892H-35.2739V312.499H444.01V311.892Z" fill="#1D2220" fill-opacity="0.09"/>
<path d="M444.01 297.218H-35.2739V297.825H444.01V297.218Z" fill="#1D2220" fill-opacity="0.09"/>
<path d="M444.01 282.544H-35.2739V283.151H444.01V282.544Z" fill="#1D2220" fill-opacity="0.09"/>
<path d="M444.01 267.87H-35.2739V268.477H444.01V267.87Z" fill="#1D2220" fill-opacity="0.09"/>
<path d="M444.01 253.196H-35.2739V253.803H444.01V253.196Z" fill="#1D2220" fill-opacity="0.09"/>
<path d="M444.01 238.522H-35.2739V239.129H444.01V238.522Z" fill="#1D2220" fill-opacity="0.09"/>
<path d="M444.01 223.85H-35.2739V224.456H444.01V223.85Z" fill="#1D2220" fill-opacity="0.09"/>
<path d="M444.01 209.176H-35.2739V209.782H444.01V209.176Z" fill="#1D2220" fill-opacity="0.09"/>
<path d="M444.01 194.501H-35.2739V195.108H444.01V194.501Z" fill="#1D2220" fill-opacity="0.09"/>
<path d="M444.01 179.828H-35.2739V180.435H444.01V179.828Z" fill="#1D2220" fill-opacity="0.09"/>
<path d="M444.01 165.154H-35.2739V165.76H444.01V165.154Z" fill="#1D2220" fill-opacity="0.09"/>
<path d="M444.01 150.479H-35.2739V151.086H444.01V150.479Z" fill="#1D2220" fill-opacity="0.09"/>
<path d="M400.749 106.762H400.128V400.24H400.749V106.762Z" fill="#1D2220" fill-opacity="0.09"/>
<path d="M386.225 106.762H385.605V400.24H386.225V106.762Z" fill="#1D2220" fill-opacity="0.09"/>
<path d="M371.701 106.762H371.081V400.24H371.701V106.762Z" fill="#1D2220" fill-opacity="0.09"/>
<path d="M357.177 106.762H356.557V400.24H357.177V106.762Z" fill="#1D2220" fill-opacity="0.09"/>
<path d="M342.654 106.762H342.034V400.24H342.654V106.762Z" fill="#1D2220" fill-opacity="0.09"/>
<path d="M328.13 106.762H327.51V400.24H328.13V106.762Z" fill="#1D2220" fill-opacity="0.09"/>
<path d="M313.606 106.762H312.986V400.24H313.606V106.762Z" fill="#1D2220" fill-opacity="0.09"/>
<path d="M299.083 106.762H298.462V400.24H299.083V106.762Z" fill="#1D2220" fill-opacity="0.09"/>
<path d="M284.559 106.762H283.939V400.24H284.559V106.762Z" fill="#1D2220" fill-opacity="0.09"/>
<path d="M270.035 106.762H269.415V400.24H270.035V106.762Z" fill="#1D2220" fill-opacity="0.09"/>
<path d="M255.511 106.762H254.891V400.24H255.511V106.762Z" fill="#1D2220" fill-opacity="0.09"/>
<path d="M240.987 106.762H240.367V400.24H240.987V106.762Z" fill="#1D2220" fill-opacity="0.09"/>
<path d="M226.464 106.762H225.844V400.24H226.464V106.762Z" fill="#1D2220" fill-opacity="0.09"/>
<path d="M211.94 106.762H211.32V400.24H211.94V106.762Z" fill="#1D2220" fill-opacity="0.09"/>
<path d="M197.416 106.762H196.796V400.24H197.416V106.762Z" fill="#1D2220" fill-opacity="0.09"/>
<path d="M182.893 106.762H182.272V400.24H182.893V106.762Z" fill="#1D2220" fill-opacity="0.09"/>
<path d="M168.369 106.762H167.749V400.24H168.369V106.762Z" fill="#1D2220" fill-opacity="0.09"/>
<path d="M153.845 106.762H153.225V400.24H153.845V106.762Z" fill="#1D2220" fill-opacity="0.09"/>
<path d="M139.321 106.762H138.701V400.24H139.321V106.762Z" fill="#1D2220" fill-opacity="0.09"/>
<path d="M124.797 106.762H124.177V400.24H124.797V106.762Z" fill="#1D2220" fill-opacity="0.09"/>
<path d="M110.274 106.762H109.654V400.24H110.274V106.762Z" fill="#1D2220" fill-opacity="0.09"/>
<path d="M95.75 106.762H95.1299V400.24H95.75V106.762Z" fill="#1D2220" fill-opacity="0.09"/>
<path d="M81.2263 106.762H80.6062V400.24H81.2263V106.762Z" fill="#1D2220" fill-opacity="0.09"/>
<path d="M66.7027 106.762H66.0825V400.24H66.7027V106.762Z" fill="#1D2220" fill-opacity="0.09"/>
<path d="M52.1787 106.762H51.5586V400.24H52.1787V106.762Z" fill="#1D2220" fill-opacity="0.09"/>
<path d="M37.6551 106.762H37.0349V400.24H37.6551V106.762Z" fill="#1D2220" fill-opacity="0.09"/>
<path d="M23.1316 106.762H22.5115V400.24H23.1316V106.762Z" fill="#1D2220" fill-opacity="0.09"/>
<path d="M8.60745 106.762H7.9873V400.24H8.60745V106.762Z" fill="#1D2220" fill-opacity="0.09"/>
</g>
<rect width="411" height="365" fill="url(#paint0_linear_1_458)"/>
<path d="M26.324 55V34.14H28.844L36.656 45.256H35.368L43.124 34.14H45.644V55H42.872V37.612L43.852 37.92L36.096 48.84H35.872L28.2 37.92L29.068 37.612V55H26.324ZM54.9531 55.336C53.9638 55.336 53.0865 55.1587 52.3211 54.804C51.5745 54.4307 50.9865 53.9267 50.5571 53.292C50.1278 52.6387 49.9131 51.892 49.9131 51.052C49.9131 50.2493 50.0811 49.5307 50.4171 48.896C50.7718 48.2427 51.3131 47.692 52.0411 47.244C52.7878 46.796 53.7211 46.4787 54.8411 46.292L60.4411 45.368V47.552L55.4291 48.392C54.4585 48.56 53.7491 48.868 53.3011 49.316C52.8718 49.764 52.6571 50.3147 52.6571 50.968C52.6571 51.584 52.8998 52.0973 53.3851 52.508C53.8891 52.9187 54.5145 53.124 55.2611 53.124C56.2131 53.124 57.0345 52.928 57.7251 52.536C58.4345 52.1253 58.9851 51.5747 59.3771 50.884C59.7878 50.1933 59.9931 49.428 59.9931 48.588V44.752C59.9931 43.9307 59.6851 43.268 59.0691 42.764C58.4718 42.2413 57.6785 41.98 56.6891 41.98C55.8305 41.98 55.0651 42.204 54.3931 42.652C53.7398 43.0813 53.2545 43.66 52.9371 44.388L50.6691 43.212C50.9491 42.5213 51.3971 41.9053 52.0131 41.364C52.6291 40.804 53.3478 40.3653 54.1691 40.048C54.9905 39.7307 55.8491 39.572 56.7451 39.572C57.9025 39.572 58.9198 39.796 59.7971 40.244C60.6745 40.6733 61.3558 41.28 61.8411 42.064C62.3451 42.8293 62.5971 43.7253 62.5971 44.752V55H60.0491V52.144L60.5251 52.312C60.2078 52.9093 59.7785 53.432 59.2371 53.88C58.6958 54.328 58.0611 54.6827 57.3331 54.944C56.6051 55.2053 55.8118 55.336 54.9531 55.336ZM67.1946 55V33.804H69.7986V48.336L68.7346 48.084L76.7426 39.908H80.0746L74.2786 45.984L80.4666 55H77.3866L71.7306 46.824L73.3546 46.74L68.9586 51.332L69.7986 49.428V55H67.1946ZM90.0384 55.336C88.5824 55.336 87.2851 54.9907 86.1464 54.3C85.0078 53.6093 84.1118 52.6667 83.4584 51.472C82.8051 50.2587 82.4784 48.9053 82.4784 47.412C82.4784 45.9 82.7958 44.556 83.4304 43.38C84.0838 42.204 84.9611 41.28 86.0624 40.608C87.1824 39.9173 88.4331 39.572 89.8144 39.572C90.9344 39.572 91.9238 39.7773 92.7824 40.188C93.6598 40.58 94.3971 41.1213 94.9944 41.812C95.6104 42.484 96.0771 43.2587 96.3944 44.136C96.7304 44.9947 96.8984 45.8907 96.8984 46.824C96.8984 47.0293 96.8798 47.2627 96.8424 47.524C96.8238 47.7667 96.7958 48 96.7584 48.224H84.3824V45.984H95.2464L94.0144 46.992C94.1824 46.0213 94.0891 45.1533 93.7344 44.388C93.3798 43.6227 92.8571 43.016 92.1664 42.568C91.4758 42.12 90.6918 41.896 89.8144 41.896C88.9371 41.896 88.1344 42.12 87.4064 42.568C86.6784 43.016 86.1091 43.66 85.6984 44.5C85.3064 45.3213 85.1478 46.3013 85.2224 47.44C85.1478 48.5413 85.3158 49.512 85.7264 50.352C86.1558 51.1733 86.7531 51.8173 87.5184 52.284C88.3024 52.732 89.1518 52.956 90.0664 52.956C91.0744 52.956 91.9238 52.7227 92.6144 52.256C93.3051 51.7893 93.8651 51.192 94.2944 50.464L96.4784 51.584C96.1798 52.2747 95.7131 52.9093 95.0784 53.488C94.4624 54.048 93.7251 54.496 92.8664 54.832C92.0264 55.168 91.0838 55.336 90.0384 55.336ZM113.198 55.336C111.742 55.336 110.444 54.9907 109.306 54.3C108.167 53.6093 107.271 52.6667 106.618 51.472C105.964 50.2587 105.638 48.9053 105.638 47.412C105.638 45.9 105.955 44.556 106.59 43.38C107.243 42.204 108.12 41.28 109.222 40.608C110.342 39.9173 111.592 39.572 112.974 39.572C114.094 39.572 115.083 39.7773 115.942 40.188C116.819 40.58 117.556 41.1213 118.154 41.812C118.77 42.484 119.236 43.2587 119.554 44.136C119.89 44.9947 120.058 45.8907 120.058 46.824C120.058 47.0293 120.039 47.2627 120.002 47.524C119.983 47.7667 119.955 48 119.918 48.224H107.542V45.984H118.406L117.174 46.992C117.342 46.0213 117.248 45.1533 116.894 44.388C116.539 43.6227 116.016 43.016 115.326 42.568C114.635 42.12 113.851 41.896 112.974 41.896C112.096 41.896 111.294 42.12 110.566 42.568C109.838 43.016 109.268 43.66 108.858 44.5C108.466 45.3213 108.307 46.3013 108.382 47.44C108.307 48.5413 108.475 49.512 108.886 50.352C109.315 51.1733 109.912 51.8173 110.678 52.284C111.462 52.732 112.311 52.956 113.226 52.956C114.234 52.956 115.083 52.7227 115.774 52.256C116.464 51.7893 117.024 51.192 117.454 50.464L119.638 51.584C119.339 52.2747 118.872 52.9093 118.238 53.488C117.622 54.048 116.884 54.496 116.026 54.832C115.186 55.168 114.243 55.336 113.198 55.336ZM127.939 55L122.031 39.908H124.943L129.675 52.676H128.667L133.427 39.908H136.339L130.403 55H127.939ZM145.9 55.336C144.444 55.336 143.146 54.9907 142.008 54.3C140.869 53.6093 139.973 52.6667 139.32 51.472C138.666 50.2587 138.34 48.9053 138.34 47.412C138.34 45.9 138.657 44.556 139.292 43.38C139.945 42.204 140.822 41.28 141.924 40.608C143.044 39.9173 144.294 39.572 145.676 39.572C146.796 39.572 147.785 39.7773 148.644 40.188C149.521 40.58 150.258 41.1213 150.856 41.812C151.472 42.484 151.938 43.2587 152.256 44.136C152.592 44.9947 152.76 45.8907 152.76 46.824C152.76 47.0293 152.741 47.2627 152.704 47.524C152.685 47.7667 152.657 48 152.62 48.224H140.244V45.984H151.108L149.876 46.992C150.044 46.0213 149.95 45.1533 149.596 44.388C149.241 43.6227 148.718 43.016 148.028 42.568C147.337 42.12 146.553 41.896 145.676 41.896C144.798 41.896 143.996 42.12 143.268 42.568C142.54 43.016 141.97 43.66 141.56 44.5C141.168 45.3213 141.009 46.3013 141.084 47.44C141.009 48.5413 141.177 49.512 141.588 50.352C142.017 51.1733 142.614 51.8173 143.38 52.284C144.164 52.732 145.013 52.956 145.928 52.956C146.936 52.956 147.785 52.7227 148.476 52.256C149.166 51.7893 149.726 51.192 150.156 50.464L152.34 51.584C152.041 52.2747 151.574 52.9093 150.94 53.488C150.324 54.048 149.586 54.496 148.728 54.832C147.888 55.168 146.945 55.336 145.9 55.336ZM156.715 55V39.908H159.263V42.68L158.983 42.288C159.337 41.4293 159.879 40.7947 160.607 40.384C161.335 39.9547 162.221 39.74 163.267 39.74H164.191V42.204H162.875C161.811 42.204 160.952 42.54 160.299 43.212C159.645 43.8653 159.319 44.7987 159.319 46.012V55H156.715ZM167.876 61.16C167.54 61.16 167.204 61.132 166.868 61.076C166.532 61.02 166.214 60.9267 165.916 60.796V58.472C166.121 58.5093 166.373 58.5467 166.672 58.584C166.989 58.64 167.297 58.668 167.596 58.668C168.473 58.668 169.136 58.472 169.584 58.08C170.05 57.7067 170.489 57.0533 170.9 56.12L171.852 53.852L171.796 56.12L165.356 39.908H168.184L173.196 52.788H172.356L177.34 39.908H180.224L173.42 56.792C173.102 57.5947 172.692 58.3227 172.188 58.976C171.702 59.648 171.105 60.18 170.396 60.572C169.686 60.964 168.846 61.16 167.876 61.16ZM188.5 55V39.908H191.048V42.988L190.684 42.512C191.058 41.56 191.655 40.832 192.476 40.328C193.298 39.824 194.222 39.572 195.248 39.572C196.424 39.572 197.479 39.8987 198.412 40.552C199.364 41.2053 200.018 42.064 200.372 43.128L199.644 43.156C200.036 41.98 200.699 41.0933 201.632 40.496C202.566 39.88 203.602 39.572 204.74 39.572C205.786 39.572 206.728 39.8147 207.568 40.3C208.427 40.7853 209.108 41.4573 209.612 42.316C210.116 43.1747 210.368 44.1453 210.368 45.228V55H207.736V46.068C207.736 45.228 207.587 44.5187 207.288 43.94C206.99 43.3613 206.579 42.9133 206.056 42.596C205.552 42.26 204.955 42.092 204.264 42.092C203.592 42.092 202.986 42.26 202.444 42.596C201.922 42.9133 201.502 43.3707 201.184 43.968C200.886 44.5467 200.736 45.2467 200.736 46.068V55H198.104V46.068C198.104 45.228 197.955 44.5187 197.656 43.94C197.358 43.3613 196.947 42.9133 196.424 42.596C195.92 42.26 195.323 42.092 194.632 42.092C193.96 42.092 193.354 42.26 192.812 42.596C192.29 42.9133 191.87 43.3707 191.552 43.968C191.254 44.5467 191.104 45.2467 191.104 46.068V55H188.5ZM221.571 55.336C220.115 55.336 218.817 54.9907 217.679 54.3C216.54 53.6093 215.644 52.6667 214.991 51.472C214.337 50.2587 214.011 48.9053 214.011 47.412C214.011 45.9 214.328 44.556 214.963 43.38C215.616 42.204 216.493 41.28 217.595 40.608C218.715 39.9173 219.965 39.572 221.347 39.572C222.467 39.572 223.456 39.7773 224.315 40.188C225.192 40.58 225.929 41.1213 226.527 41.812C227.143 42.484 227.609 43.2587 227.927 44.136C228.263 44.9947 228.431 45.8907 228.431 46.824C228.431 47.0293 228.412 47.2627 228.375 47.524C228.356 47.7667 228.328 48 228.291 48.224H215.915V45.984H226.779L225.547 46.992C225.715 46.0213 225.621 45.1533 225.267 44.388C224.912 43.6227 224.389 43.016 223.699 42.568C223.008 42.12 222.224 41.896 221.347 41.896C220.469 41.896 219.667 42.12 218.939 42.568C218.211 43.016 217.641 43.66 217.231 44.5C216.839 45.3213 216.68 46.3013 216.755 47.44C216.68 48.5413 216.848 49.512 217.259 50.352C217.688 51.1733 218.285 51.8173 219.051 52.284C219.835 52.732 220.684 52.956 221.599 52.956C222.607 52.956 223.456 52.7227 224.147 52.256C224.837 51.7893 225.397 51.192 225.827 50.464L228.011 51.584C227.712 52.2747 227.245 52.9093 226.611 53.488C225.995 54.048 225.257 54.496 224.399 54.832C223.559 55.168 222.616 55.336 221.571 55.336ZM237.79 55.336C236.278 55.336 234.962 54.9627 233.842 54.216C232.722 53.4693 231.929 52.4613 231.462 51.192L233.534 50.184C233.963 51.08 234.551 51.7893 235.298 52.312C236.045 52.8347 236.875 53.096 237.79 53.096C238.611 53.096 239.293 52.9 239.834 52.508C240.375 52.116 240.646 51.6027 240.646 50.968C240.646 50.52 240.515 50.1653 240.254 49.904C240.011 49.624 239.713 49.4093 239.358 49.26C239.003 49.092 238.677 48.9707 238.378 48.896L236.11 48.252C234.747 47.86 233.749 47.3 233.114 46.572C232.498 45.844 232.19 44.9947 232.19 44.024C232.19 43.128 232.414 42.3533 232.862 41.7C233.329 41.028 233.954 40.5053 234.738 40.132C235.541 39.7587 236.437 39.572 237.426 39.572C238.751 39.572 239.937 39.908 240.982 40.58C242.046 41.252 242.802 42.1947 243.25 43.408L241.122 44.388C240.786 43.604 240.282 42.988 239.61 42.54C238.938 42.0733 238.182 41.84 237.342 41.84C236.577 41.84 235.97 42.036 235.522 42.428C235.074 42.8013 234.85 43.2773 234.85 43.856C234.85 44.2853 234.962 44.64 235.186 44.92C235.41 45.1813 235.681 45.3867 235.998 45.536C236.315 45.6667 236.623 45.7787 236.922 45.872L239.386 46.6C240.618 46.9547 241.57 47.5053 242.242 48.252C242.933 48.9987 243.278 49.8947 243.278 50.94C243.278 51.78 243.045 52.536 242.578 53.208C242.111 53.88 241.467 54.4027 240.646 54.776C239.825 55.1493 238.873 55.336 237.79 55.336ZM252.651 55.336C251.139 55.336 249.823 54.9627 248.703 54.216C247.583 53.4693 246.789 52.4613 246.323 51.192L248.395 50.184C248.824 51.08 249.412 51.7893 250.159 52.312C250.905 52.8347 251.736 53.096 252.651 53.096C253.472 53.096 254.153 52.9 254.695 52.508C255.236 52.116 255.507 51.6027 255.507 50.968C255.507 50.52 255.376 50.1653 255.115 49.904C254.872 49.624 254.573 49.4093 254.219 49.26C253.864 49.092 253.537 48.9707 253.239 48.896L250.971 48.252C249.608 47.86 248.609 47.3 247.975 46.572C247.359 45.844 247.051 44.9947 247.051 44.024C247.051 43.128 247.275 42.3533 247.723 41.7C248.189 41.028 248.815 40.5053 249.599 40.132C250.401 39.7587 251.297 39.572 252.287 39.572C253.612 39.572 254.797 39.908 255.843 40.58C256.907 41.252 257.663 42.1947 258.111 43.408L255.983 44.388C255.647 43.604 255.143 42.988 254.471 42.54C253.799 42.0733 253.043 41.84 252.203 41.84C251.437 41.84 250.831 42.036 250.383 42.428C249.935 42.8013 249.711 43.2773 249.711 43.856C249.711 44.2853 249.823 44.64 250.047 44.92C250.271 45.1813 250.541 45.3867 250.859 45.536C251.176 45.6667 251.484 45.7787 251.783 45.872L254.247 46.6C255.479 46.9547 256.431 47.5053 257.103 48.252C257.793 48.9987 258.139 49.8947 258.139 50.94C258.139 51.78 257.905 52.536 257.439 53.208C256.972 53.88 256.328 54.4027 255.507 54.776C254.685 55.1493 253.733 55.336 252.651 55.336ZM266.531 55.336C265.542 55.336 264.665 55.1587 263.899 54.804C263.153 54.4307 262.565 53.9267 262.135 53.292C261.706 52.6387 261.491 51.892 261.491 51.052C261.491 50.2493 261.659 49.5307 261.995 48.896C262.35 48.2427 262.891 47.692 263.619 47.244C264.366 46.796 265.299 46.4787 266.419 46.292L272.019 45.368V47.552L267.007 48.392C266.037 48.56 265.327 48.868 264.879 49.316C264.45 49.764 264.235 50.3147 264.235 50.968C264.235 51.584 264.478 52.0973 264.963 52.508C265.467 52.9187 266.093 53.124 266.839 53.124C267.791 53.124 268.613 52.928 269.303 52.536C270.013 52.1253 270.563 51.5747 270.955 50.884C271.366 50.1933 271.571 49.428 271.571 48.588V44.752C271.571 43.9307 271.263 43.268 270.647 42.764C270.05 42.2413 269.257 41.98 268.267 41.98C267.409 41.98 266.643 42.204 265.971 42.652C265.318 43.0813 264.833 43.66 264.515 44.388L262.247 43.212C262.527 42.5213 262.975 41.9053 263.591 41.364C264.207 40.804 264.926 40.3653 265.747 40.048C266.569 39.7307 267.427 39.572 268.323 39.572C269.481 39.572 270.498 39.796 271.375 40.244C272.253 40.6733 272.934 41.28 273.419 42.064C273.923 42.8293 274.175 43.7253 274.175 44.752V55H271.627V52.144L272.103 52.312C271.786 52.9093 271.357 53.432 270.815 53.88C270.274 54.328 269.639 54.6827 268.911 54.944C268.183 55.2053 267.39 55.336 266.531 55.336ZM285.969 61.16C284.905 61.16 283.916 60.992 283.001 60.656C282.105 60.32 281.33 59.8533 280.677 59.256C280.042 58.6773 279.557 57.996 279.221 57.212L281.657 56.092C281.918 56.8013 282.413 57.3987 283.141 57.884C283.888 58.388 284.821 58.64 285.941 58.64C286.8 58.64 287.574 58.472 288.265 58.136C288.974 57.8187 289.534 57.3333 289.945 56.68C290.356 56.0453 290.561 55.2707 290.561 54.356V50.968L291.037 51.472C290.514 52.4987 289.758 53.2827 288.769 53.824C287.798 54.3653 286.725 54.636 285.549 54.636C284.13 54.636 282.861 54.3093 281.741 53.656C280.621 52.984 279.744 52.0787 279.109 50.94C278.474 49.7827 278.157 48.504 278.157 47.104C278.157 45.6853 278.474 44.4067 279.109 43.268C279.744 42.1293 280.612 41.2333 281.713 40.58C282.833 39.908 284.102 39.572 285.521 39.572C286.697 39.572 287.761 39.8427 288.713 40.384C289.684 40.9067 290.458 41.6347 291.037 42.568L290.645 43.268V39.908H293.193V54.356C293.193 55.6627 292.885 56.8293 292.269 57.856C291.653 58.8827 290.794 59.6853 289.693 60.264C288.61 60.8613 287.369 61.16 285.969 61.16ZM285.773 52.116C286.669 52.116 287.472 51.892 288.181 51.444C288.909 50.996 289.488 50.3987 289.917 49.652C290.346 48.8867 290.561 48.0373 290.561 47.104C290.561 46.1893 290.346 45.3493 289.917 44.584C289.488 43.8187 288.909 43.212 288.181 42.764C287.472 42.316 286.669 42.092 285.773 42.092C284.858 42.092 284.028 42.316 283.281 42.764C282.534 43.212 281.946 43.8187 281.517 44.584C281.106 45.3307 280.901 46.1707 280.901 47.104C280.901 48.0373 281.106 48.8867 281.517 49.652C281.946 50.3987 282.525 50.996 283.253 51.444C284 51.892 284.84 52.116 285.773 52.116ZM304.734 55.336C303.278 55.336 301.981 54.9907 300.842 54.3C299.703 53.6093 298.807 52.6667 298.154 51.472C297.501 50.2587 297.174 48.9053 297.174 47.412C297.174 45.9 297.491 44.556 298.126 43.38C298.779 42.204 299.657 41.28 300.758 40.608C301.878 39.9173 303.129 39.572 304.51 39.572C305.63 39.572 306.619 39.7773 307.478 40.188C308.355 40.58 309.093 41.1213 309.69 41.812C310.306 42.484 310.773 43.2587 311.09 44.136C311.426 44.9947 311.594 45.8907 311.594 46.824C311.594 47.0293 311.575 47.2627 311.538 47.524C311.519 47.7667 311.491 48 311.454 48.224H299.078V45.984H309.942L308.71 46.992C308.878 46.0213 308.785 45.1533 308.43 44.388C308.075 43.6227 307.553 43.016 306.862 42.568C306.171 42.12 305.387 41.896 304.51 41.896C303.633 41.896 302.83 42.12 302.102 42.568C301.374 43.016 300.805 43.66 300.394 44.5C300.002 45.3213 299.843 46.3013 299.918 47.44C299.843 48.5413 300.011 49.512 300.422 50.352C300.851 51.1733 301.449 51.8173 302.214 52.284C302.998 52.732 303.847 52.956 304.762 52.956C305.77 52.956 306.619 52.7227 307.31 52.256C308.001 51.7893 308.561 51.192 308.99 50.464L311.174 51.584C310.875 52.2747 310.409 52.9093 309.774 53.488C309.158 54.048 308.421 54.496 307.562 54.832C306.722 55.168 305.779 55.336 304.734 55.336ZM107.789 87.644V85.264H129.349V87.644H107.789ZM141.299 100.16C140.235 100.16 139.245 99.992 138.331 99.656C137.435 99.32 136.66 98.8533 136.007 98.256C135.372 97.6773 134.887 96.996 134.551 96.212L136.987 95.092C137.248 95.8013 137.743 96.3987 138.471 96.884C139.217 97.388 140.151 97.64 141.271 97.64C142.129 97.64 142.904 97.472 143.595 97.136C144.304 96.8187 144.864 96.3333 145.275 95.68C145.685 95.0453 145.891 94.2707 145.891 93.356V89.968L146.367 90.472C145.844 91.4987 145.088 92.2827 144.099 92.824C143.128 93.3653 142.055 93.636 140.879 93.636C139.46 93.636 138.191 93.3093 137.071 92.656C135.951 91.984 135.073 91.0787 134.439 89.94C133.804 88.7827 133.487 87.504 133.487 86.104C133.487 84.6853 133.804 83.4067 134.439 82.268C135.073 81.1293 135.941 80.2333 137.043 79.58C138.163 78.908 139.432 78.572 140.851 78.572C142.027 78.572 143.091 78.8427 144.043 79.384C145.013 79.9067 145.788 80.6347 146.367 81.568L145.975 82.268V78.908H148.523V93.356C148.523 94.6627 148.215 95.8293 147.599 96.856C146.983 97.8827 146.124 98.6853 145.023 99.264C143.94 99.8613 142.699 100.16 141.299 100.16ZM141.103 91.116C141.999 91.116 142.801 90.892 143.511 90.444C144.239 89.996 144.817 89.3987 145.247 88.652C145.676 87.8867 145.891 87.0373 145.891 86.104C145.891 85.1893 145.676 84.3493 145.247 83.584C144.817 82.8187 144.239 82.212 143.511 81.764C142.801 81.316 141.999 81.092 141.103 81.092C140.188 81.092 139.357 81.316 138.611 81.764C137.864 82.212 137.276 82.8187 136.847 83.584C136.436 84.3307 136.231 85.1707 136.231 86.104C136.231 87.0373 136.436 87.8867 136.847 88.652C137.276 89.3987 137.855 89.996 138.583 90.444C139.329 90.892 140.169 91.116 141.103 91.116ZM160.064 94.336C158.608 94.336 157.31 93.9907 156.172 93.3C155.033 92.6093 154.137 91.6667 153.484 90.472C152.83 89.2587 152.504 87.9053 152.504 86.412C152.504 84.9 152.821 83.556 153.456 82.38C154.109 81.204 154.986 80.28 156.088 79.608C157.208 78.9173 158.458 78.572 159.84 78.572C160.96 78.572 161.949 78.7773 162.808 79.188C163.685 79.58 164.422 80.1213 165.02 80.812C165.636 81.484 166.102 82.2587 166.42 83.136C166.756 83.9947 166.924 84.8907 166.924 85.824C166.924 86.0293 166.905 86.2627 166.868 86.524C166.849 86.7667 166.821 87 166.784 87.224H154.408V84.984H165.272L164.04 85.992C164.208 85.0213 164.114 84.1533 163.76 83.388C163.405 82.6227 162.882 82.016 162.192 81.568C161.501 81.12 160.717 80.896 159.84 80.896C158.962 80.896 158.16 81.12 157.432 81.568C156.704 82.016 156.134 82.66 155.724 83.5C155.332 84.3213 155.173 85.3013 155.248 86.44C155.173 87.5413 155.341 88.512 155.752 89.352C156.181 90.1733 156.778 90.8173 157.544 91.284C158.328 91.732 159.177 91.956 160.092 91.956C161.1 91.956 161.949 91.7227 162.64 91.256C163.33 90.7893 163.89 90.192 164.32 89.464L166.504 90.584C166.205 91.2747 165.738 91.9093 165.104 92.488C164.488 93.048 163.75 93.496 162.892 93.832C162.052 94.168 161.109 94.336 160.064 94.336ZM177.011 94.168C175.536 94.168 174.397 93.748 173.595 92.908C172.811 92.068 172.419 90.8827 172.419 89.352V81.4H169.675V78.908H170.235C170.907 78.908 171.439 78.7027 171.831 78.292C172.223 77.8813 172.419 77.34 172.419 76.668V75.436H175.023V78.908H178.411V81.4H175.023V89.268C175.023 89.772 175.097 90.2107 175.247 90.584C175.415 90.9573 175.685 91.256 176.059 91.48C176.432 91.6853 176.927 91.788 177.543 91.788C177.673 91.788 177.832 91.7787 178.019 91.76C178.224 91.7413 178.411 91.7227 178.579 91.704V94C178.336 94.056 178.065 94.0933 177.767 94.112C177.468 94.1493 177.216 94.168 177.011 94.168ZM187.94 94V78.908H190.544V94H187.94ZM187.94 76.5V73.14H190.544V76.5H187.94ZM201.277 94.168C199.802 94.168 198.663 93.748 197.861 92.908C197.077 92.068 196.685 90.8827 196.685 89.352V81.4H193.941V78.908H194.501C195.173 78.908 195.705 78.7027 196.097 78.292C196.489 77.8813 196.685 77.34 196.685 76.668V75.436H199.289V78.908H202.677V81.4H199.289V89.268C199.289 89.772 199.363 90.2107 199.513 90.584C199.681 90.9573 199.951 91.256 200.325 91.48C200.698 91.6853 201.193 91.788 201.809 91.788C201.939 91.788 202.098 91.7787 202.285 91.76C202.49 91.7413 202.677 91.7227 202.845 91.704V94C202.602 94.056 202.331 94.0933 202.033 94.112C201.734 94.1493 201.482 94.168 201.277 94.168Z" fill="#B2B4B3"/>
<path d="M33.016 94.336C31.5413 94.336 30.2253 93.9907 29.068 93.3C27.9293 92.6093 27.0333 91.6667 26.38 90.472C25.7267 89.2773 25.4 87.9333 25.4 86.44C25.4 84.928 25.7267 83.584 26.38 82.408C27.0333 81.232 27.9293 80.2987 29.068 79.608C30.2253 78.9173 31.5413 78.572 33.016 78.572C34.0053 78.572 34.9293 78.7493 35.788 79.104C36.6467 79.4587 37.4027 79.9347 38.056 80.532C38.7093 81.1293 39.1853 81.8293 39.484 82.632L37.16 83.752C36.8053 82.968 36.264 82.3333 35.536 81.848C34.808 81.344 33.968 81.092 33.016 81.092C32.1013 81.092 31.2707 81.3253 30.524 81.792C29.796 82.2587 29.2173 82.8933 28.788 83.696C28.3587 84.4987 28.144 85.4227 28.144 86.468C28.144 87.476 28.3587 88.3907 28.788 89.212C29.2173 90.0147 29.796 90.6493 30.524 91.116C31.2707 91.5827 32.1013 91.816 33.016 91.816C33.968 91.816 34.808 91.5733 35.536 91.088C36.264 90.584 36.8053 89.9213 37.16 89.1L39.484 90.276C39.1853 91.06 38.7093 91.76 38.056 92.376C37.4027 92.9733 36.6467 93.4493 35.788 93.804C34.9293 94.1587 34.0053 94.336 33.016 94.336ZM50.6151 94.336C49.1591 94.336 47.8431 94 46.6671 93.328C45.4911 92.6373 44.5578 91.6947 43.8671 90.5C43.1764 89.3053 42.8311 87.952 42.8311 86.44C42.8311 84.928 43.1671 83.584 43.8391 82.408C44.5298 81.232 45.4631 80.2987 46.6391 79.608C47.8151 78.9173 49.1404 78.572 50.6151 78.572C52.0711 78.572 53.3871 78.9173 54.5631 79.608C55.7391 80.28 56.6631 81.204 57.3351 82.38C58.0258 83.556 58.3711 84.9093 58.3711 86.44C58.3711 87.9707 58.0164 89.3333 57.3071 90.528C56.5978 91.704 55.6551 92.6373 54.4791 93.328C53.3218 94 52.0338 94.336 50.6151 94.336ZM50.6151 91.816C51.5484 91.816 52.3884 91.5827 53.1351 91.116C53.9004 90.6493 54.4978 90.0053 54.9271 89.184C55.3751 88.3627 55.5991 87.448 55.5991 86.44C55.5991 85.4133 55.3751 84.508 54.9271 83.724C54.4978 82.9213 53.9004 82.2867 53.1351 81.82C52.3884 81.3347 51.5484 81.092 50.6151 81.092C49.6631 81.092 48.8044 81.3347 48.0391 81.82C47.2924 82.2867 46.6951 82.9213 46.2471 83.724C45.7991 84.508 45.5751 85.4133 45.5751 86.44C45.5751 87.448 45.7991 88.3627 46.2471 89.184C46.6951 90.0053 47.2924 90.6493 48.0391 91.116C48.8044 91.5827 49.6631 91.816 50.6151 91.816ZM67.6754 94.336C66.5927 94.336 65.6127 94.084 64.7354 93.58C63.8767 93.076 63.2047 92.376 62.7194 91.48C62.2527 90.5653 62.0194 89.52 62.0194 88.344V78.908H64.6234V88.064C64.6234 88.8107 64.7727 89.464 65.0714 90.024C65.3887 90.584 65.8181 91.0227 66.3594 91.34C66.9194 91.6573 67.5541 91.816 68.2634 91.816C68.9727 91.816 69.5981 91.6573 70.1394 91.34C70.6994 91.0227 71.1287 90.5653 71.4274 89.968C71.7447 89.3707 71.9034 88.6613 71.9034 87.84V78.908H74.5354V94H71.9874V91.06L72.4074 91.312C72.0527 92.264 71.4461 93.0107 70.5874 93.552C69.7474 94.0747 68.7767 94.336 67.6754 94.336ZM79.1296 94V78.908H81.6776V81.848L81.2576 81.596C81.6309 80.644 82.2283 79.9067 83.0496 79.384C83.8896 78.8427 84.8696 78.572 85.9896 78.572C87.0723 78.572 88.0336 78.8147 88.8736 79.3C89.7323 79.7853 90.4043 80.4573 90.8896 81.316C91.3936 82.1747 91.6456 83.1453 91.6456 84.228V94H89.0136V85.068C89.0136 84.228 88.8643 83.5187 88.5656 82.94C88.2669 82.3613 87.8376 81.9133 87.2776 81.596C86.7363 81.26 86.1109 81.092 85.4016 81.092C84.6923 81.092 84.0576 81.26 83.4976 81.596C82.9563 81.9133 82.5269 82.3707 82.2096 82.968C81.8923 83.5467 81.7336 84.2467 81.7336 85.068V94H79.1296ZM102.064 94.168C100.589 94.168 99.4504 93.748 98.6478 92.908C97.8638 92.068 97.4718 90.8827 97.4718 89.352V81.4H94.7278V78.908H95.2878C95.9598 78.908 96.4918 78.7027 96.8838 78.292C97.2758 77.8813 97.4718 77.34 97.4718 76.668V75.436H100.076V78.908H103.464V81.4H100.076V89.268C100.076 89.772 100.15 90.2107 100.3 90.584C100.468 90.9573 100.738 91.256 101.112 91.48C101.485 91.6853 101.98 91.788 102.596 91.788C102.726 91.788 102.885 91.7787 103.072 91.76C103.277 91.7413 103.464 91.7227 103.632 91.704V94C103.389 94.056 103.118 94.0933 102.82 94.112C102.521 94.1493 102.269 94.168 102.064 94.168ZM217.61 94.336C216.098 94.336 214.782 93.9627 213.662 93.216C212.542 92.4693 211.749 91.4613 211.282 90.192L213.354 89.184C213.783 90.08 214.371 90.7893 215.118 91.312C215.865 91.8347 216.695 92.096 217.61 92.096C218.431 92.096 219.113 91.9 219.654 91.508C220.195 91.116 220.466 90.6027 220.466 89.968C220.466 89.52 220.335 89.1653 220.074 88.904C219.831 88.624 219.533 88.4093 219.178 88.26C218.823 88.092 218.497 87.9707 218.198 87.896L215.93 87.252C214.567 86.86 213.569 86.3 212.934 85.572C212.318 84.844 212.01 83.9947 212.01 83.024C212.01 82.128 212.234 81.3533 212.682 80.7C213.149 80.028 213.774 79.5053 214.558 79.132C215.361 78.7587 216.257 78.572 217.246 78.572C218.571 78.572 219.757 78.908 220.802 79.58C221.866 80.252 222.622 81.1947 223.07 82.408L220.942 83.388C220.606 82.604 220.102 81.988 219.43 81.54C218.758 81.0733 218.002 80.84 217.162 80.84C216.397 80.84 215.79 81.036 215.342 81.428C214.894 81.8013 214.67 82.2773 214.67 82.856C214.67 83.2853 214.782 83.64 215.006 83.92C215.23 84.1813 215.501 84.3867 215.818 84.536C216.135 84.6667 216.443 84.7787 216.742 84.872L219.206 85.6C220.438 85.9547 221.39 86.5053 222.062 87.252C222.753 87.9987 223.098 88.8947 223.098 89.94C223.098 90.78 222.865 91.536 222.398 92.208C221.931 92.88 221.287 93.4027 220.466 93.776C219.645 94.1493 218.693 94.336 217.61 94.336ZM234.011 94.336C232.555 94.336 231.258 93.9907 230.119 93.3C228.98 92.6093 228.084 91.6667 227.431 90.472C226.778 89.2587 226.451 87.9053 226.451 86.412C226.451 84.9 226.768 83.556 227.403 82.38C228.056 81.204 228.934 80.28 230.035 79.608C231.155 78.9173 232.406 78.572 233.787 78.572C234.907 78.572 235.896 78.7773 236.755 79.188C237.632 79.58 238.37 80.1213 238.967 80.812C239.583 81.484 240.05 82.2587 240.367 83.136C240.703 83.9947 240.871 84.8907 240.871 85.824C240.871 86.0293 240.852 86.2627 240.815 86.524C240.796 86.7667 240.768 87 240.731 87.224H228.355V84.984H239.219L237.987 85.992C238.155 85.0213 238.062 84.1533 237.707 83.388C237.352 82.6227 236.83 82.016 236.139 81.568C235.448 81.12 234.664 80.896 233.787 80.896C232.91 80.896 232.107 81.12 231.379 81.568C230.651 82.016 230.082 82.66 229.671 83.5C229.279 84.3213 229.12 85.3013 229.195 86.44C229.12 87.5413 229.288 88.512 229.699 89.352C230.128 90.1733 230.726 90.8173 231.491 91.284C232.275 91.732 233.124 91.956 234.039 91.956C235.047 91.956 235.896 91.7227 236.587 91.256C237.278 90.7893 237.838 90.192 238.267 89.464L240.451 90.584C240.152 91.2747 239.686 91.9093 239.051 92.488C238.435 93.048 237.698 93.496 236.839 93.832C235.999 94.168 235.056 94.336 234.011 94.336ZM251.77 94.336C250.314 94.336 249.017 93.9907 247.878 93.3C246.739 92.6093 245.843 91.6667 245.19 90.472C244.537 89.2587 244.21 87.9053 244.21 86.412C244.21 84.9 244.527 83.556 245.162 82.38C245.815 81.204 246.693 80.28 247.794 79.608C248.914 78.9173 250.165 78.572 251.546 78.572C252.666 78.572 253.655 78.7773 254.514 79.188C255.391 79.58 256.129 80.1213 256.726 80.812C257.342 81.484 257.809 82.2587 258.126 83.136C258.462 83.9947 258.63 84.8907 258.63 85.824C258.63 86.0293 258.611 86.2627 258.574 86.524C258.555 86.7667 258.527 87 258.49 87.224H246.114V84.984H256.978L255.746 85.992C255.914 85.0213 255.821 84.1533 255.466 83.388C255.111 82.6227 254.589 82.016 253.898 81.568C253.207 81.12 252.423 80.896 251.546 80.896C250.669 80.896 249.866 81.12 249.138 81.568C248.41 82.016 247.841 82.66 247.43 83.5C247.038 84.3213 246.879 85.3013 246.954 86.44C246.879 87.5413 247.047 88.512 247.458 89.352C247.887 90.1733 248.485 90.8173 249.25 91.284C250.034 91.732 250.883 91.956 251.798 91.956C252.806 91.956 253.655 91.7227 254.346 91.256C255.037 90.7893 255.597 90.192 256.026 89.464L258.21 90.584C257.911 91.2747 257.445 91.9093 256.81 92.488C256.194 93.048 255.457 93.496 254.598 93.832C253.758 94.168 252.815 94.336 251.77 94.336ZM262.585 94V78.908H265.133V81.848L264.713 81.596C265.087 80.644 265.684 79.9067 266.505 79.384C267.345 78.8427 268.325 78.572 269.445 78.572C270.528 78.572 271.489 78.8147 272.329 79.3C273.188 79.7853 273.86 80.4573 274.345 81.316C274.849 82.1747 275.101 83.1453 275.101 84.228V94H272.469V85.068C272.469 84.228 272.32 83.5187 272.021 82.94C271.723 82.3613 271.293 81.9133 270.733 81.596C270.192 81.26 269.567 81.092 268.857 81.092C268.148 81.092 267.513 81.26 266.953 81.596C266.412 81.9133 265.983 82.3707 265.665 82.968C265.348 83.5467 265.189 84.2467 265.189 85.068V94H262.585Z" fill="#1D2220"/>
<path d="M92 258.021C92 251.394 97.3726 246.021 104 246.021H360C366.627 246.021 372 251.394 372 258.021V290.044H104C97.3726 290.044 92 284.671 92 278.044V258.021Z" fill="white"/>
<path d="M104 246.521H360C366.351 246.521 371.5 251.67 371.5 258.021V289.544H104C97.6488 289.544 92.5002 284.395 92.5 278.044V258.021C92.5 251.67 97.6487 246.521 104 246.521Z" stroke="#1D2220" stroke-opacity="0.1"/>
<rect x="100" y="254.021" width="264" height="10" rx="5" fill="#1D2220" fill-opacity="0.06"/>
<rect x="100" y="272.021" width="129.164" height="10.0222" rx="5.01108" fill="#1D2220" fill-opacity="0.06"/>
<path d="M24 206.012C24 199.384 29.3726 194.012 36 194.012H294C300.627 194.012 306 199.384 306 206.012V226.034C306 232.661 300.627 238.034 294 238.034H24V206.012Z" fill="white"/>
<path d="M36 194.512H294C300.351 194.512 305.5 199.66 305.5 206.012V226.034C305.5 232.385 300.351 237.534 294 237.534H24.5V206.012C24.5 199.66 29.6487 194.512 36 194.512Z" stroke="#1D2220" stroke-opacity="0.1"/>
<rect x="32" y="202.012" width="266" height="10" rx="5" fill="#1D2220" fill-opacity="0.06"/>
<rect x="32" y="220.012" width="129.164" height="10.0222" rx="5.01108" fill="#1D2220" fill-opacity="0.06"/>
<path d="M24 310C24 303.373 29.3726 298 36 298H255C261.627 298 267 303.373 267 310V330.022C267 336.65 261.627 342.022 255 342.022H24V310Z" fill="white"/>
<path d="M36 298.5H255C261.351 298.5 266.5 303.649 266.5 310V330.022C266.5 336.374 261.351 341.522 255 341.522H24.5V310C24.5 303.649 29.6487 298.5 36 298.5Z" stroke="#1D2220" stroke-opacity="0.1"/>
<rect x="32" y="306" width="227" height="10" rx="5" fill="#1D2220" fill-opacity="0.06"/>
<rect x="32" y="324" width="129.164" height="10.0222" rx="5.01108" fill="#1D2220" fill-opacity="0.06"/>
<rect y="349" width="411" height="16" fill="url(#paint1_linear_1_458)"/>
<g filter="url(#filter0_d_1_458)">
<g clip-path="url(#clip1_1_458)">
<path d="M121.256 149.767C121.901 143.171 127.771 138.347 134.367 138.992L362.279 161.284C368.875 161.929 373.699 167.799 373.054 174.395L368.576 220.176L128.721 196.717C122.125 196.072 117.301 190.202 117.946 183.606L121.256 149.767Z" fill="white"/>
<path d="M132.992 164.982L134.008 154.601L135.373 154.735L134.921 159.361L140.118 159.869L140.57 155.243L141.95 155.378L140.935 165.759L139.555 165.624L139.995 161.123L134.798 160.615L134.358 165.115L132.992 164.982ZM143.364 165.996L144.098 158.486L145.394 158.613L144.66 166.123L143.364 165.996ZM144.216 157.288L144.379 155.616L145.675 155.743L145.511 157.415L144.216 157.288ZM152.679 166.992C151.946 166.92 151.399 166.656 151.041 166.199C150.692 165.742 150.554 165.133 150.629 164.372L151.016 160.415L149.65 160.281L149.772 159.041L150.05 159.068C150.385 159.101 150.659 159.025 150.874 158.839C151.089 158.654 151.213 158.394 151.246 158.06L151.306 157.447L152.602 157.574L152.433 159.301L154.119 159.466L153.997 160.706L152.312 160.541L151.929 164.457C151.904 164.708 151.92 164.929 151.976 165.123C152.041 165.316 152.162 165.478 152.336 165.608C152.512 165.728 152.753 165.803 153.06 165.833C153.125 165.84 153.204 165.843 153.298 165.843C153.401 165.843 153.495 165.843 153.58 165.842L153.468 166.985C153.344 167.001 153.208 167.006 153.058 167.001C152.908 167.005 152.782 167.002 152.679 166.992ZM155.439 167.177L156.471 156.63L157.767 156.756L157.326 161.257L157.102 161.108C157.334 160.653 157.667 160.315 158.101 160.095C158.546 159.866 159.046 159.779 159.604 159.834C160.143 159.887 160.609 160.054 161.004 160.337C161.407 160.62 161.709 160.987 161.909 161.438C162.118 161.89 162.196 162.385 162.143 162.924L161.667 167.787L160.358 167.658L160.792 163.214C160.833 162.796 160.789 162.435 160.659 162.132C160.539 161.829 160.352 161.586 160.098 161.401C159.845 161.208 159.542 161.094 159.189 161.059C158.845 161.026 158.526 161.079 158.23 161.219C157.936 161.349 157.696 161.556 157.509 161.837C157.323 162.11 157.21 162.451 157.17 162.859L156.735 167.304L155.439 167.177ZM167.24 168.5C166.515 168.429 165.886 168.194 165.353 167.795C164.82 167.396 164.42 166.884 164.153 166.257C163.887 165.622 163.79 164.932 163.863 164.189C163.937 163.437 164.16 162.783 164.533 162.229C164.916 161.676 165.397 161.259 165.978 160.978C166.569 160.689 167.208 160.578 167.895 160.645C168.453 160.699 168.935 160.85 169.342 161.096C169.76 161.334 170.1 161.639 170.364 162.012C170.638 162.376 170.832 162.784 170.948 163.236C171.073 163.68 171.113 164.134 171.068 164.598C171.058 164.701 171.037 164.816 171.006 164.944C170.985 165.064 170.959 165.179 170.93 165.288L164.771 164.686L164.88 163.571L170.286 164.1L169.624 164.542C169.755 164.067 169.751 163.63 169.612 163.232C169.472 162.834 169.242 162.507 168.92 162.25C168.598 161.994 168.219 161.844 167.782 161.801C167.346 161.759 166.935 161.831 166.551 162.019C166.167 162.206 165.853 162.499 165.607 162.897C165.372 163.286 165.246 163.766 165.227 164.337C165.137 164.881 165.173 165.372 165.336 165.81C165.51 166.24 165.776 166.589 166.134 166.859C166.502 167.12 166.914 167.273 167.369 167.317C167.871 167.366 168.305 167.292 168.671 167.093C169.038 166.894 169.345 166.624 169.595 166.283L170.627 166.947C170.445 167.276 170.182 167.569 169.838 167.826C169.504 168.075 169.115 168.262 168.671 168.387C168.237 168.513 167.76 168.551 167.24 168.5ZM172.638 168.86L173.372 161.349L174.64 161.473L174.505 162.853L174.385 162.644C174.603 162.234 174.904 161.945 175.286 161.776C175.669 161.597 176.121 161.534 176.641 161.585L177.101 161.63L176.981 162.856L176.326 162.792C175.797 162.74 175.353 162.865 174.995 163.168C174.638 163.461 174.43 163.91 174.371 164.514L173.934 168.986L172.638 168.86ZM181.227 169.868C180.502 169.798 179.874 169.563 179.341 169.163C178.808 168.764 178.408 168.252 178.141 167.625C177.875 166.99 177.778 166.3 177.851 165.557C177.924 164.805 178.147 164.151 178.521 163.597C178.903 163.044 179.384 162.627 179.965 162.346C180.556 162.057 181.195 161.946 181.883 162.013C182.44 162.067 182.922 162.218 183.33 162.464C183.747 162.702 184.088 163.007 184.351 163.38C184.625 163.744 184.82 164.152 184.935 164.604C185.06 165.048 185.1 165.502 185.055 165.967C185.045 166.069 185.024 166.184 184.993 166.312C184.972 166.432 184.947 166.547 184.917 166.656L178.759 166.054L178.868 164.939L184.274 165.468L183.612 165.91C183.742 165.435 183.738 164.998 183.599 164.6C183.46 164.202 183.229 163.875 182.907 163.618C182.585 163.362 182.206 163.212 181.77 163.169C181.333 163.127 180.923 163.199 180.539 163.387C180.155 163.574 179.84 163.867 179.595 164.265C179.36 164.655 179.233 165.134 179.215 165.705C179.124 166.249 179.16 166.74 179.324 167.178C179.497 167.608 179.763 167.958 180.121 168.227C180.49 168.488 180.902 168.641 181.357 168.685C181.858 168.734 182.292 168.66 182.659 168.461C183.025 168.262 183.333 167.992 183.582 167.651L184.614 168.315C184.432 168.644 184.169 168.937 183.825 169.194C183.491 169.443 183.102 169.63 182.659 169.755C182.224 169.882 181.747 169.919 181.227 169.868ZM187.494 167.246L188.128 159.895L189.494 160.028L188.678 167.362L187.494 167.246ZM187.113 170.275L187.276 168.603L188.642 168.737L188.478 170.409L187.113 170.275ZM194.085 170.957L195.1 160.577L198.765 160.935C199.452 161.002 200.043 161.191 200.538 161.502C201.033 161.813 201.4 162.225 201.641 162.736C201.891 163.248 201.984 163.829 201.921 164.479C201.849 165.213 201.602 165.817 201.181 166.292C200.759 166.766 200.222 167.084 199.568 167.245L201.567 171.689L199.979 171.534L197.883 166.785L198.737 167.403L195.839 167.12L195.45 171.091L194.085 170.957ZM195.961 165.866L198.302 166.095C198.711 166.135 199.076 166.091 199.398 165.963C199.72 165.835 199.979 165.63 200.176 165.349C200.381 165.069 200.503 164.734 200.541 164.344C200.58 163.945 200.526 163.593 200.377 163.287C200.239 162.974 200.025 162.723 199.734 162.535C199.442 162.347 199.093 162.233 198.684 162.193L196.343 161.964L195.961 165.866ZM206.263 172.317C205.538 172.246 204.909 172.011 204.376 171.612C203.843 171.213 203.443 170.7 203.176 170.074C202.91 169.438 202.814 168.749 202.886 168.006C202.96 167.254 203.183 166.6 203.556 166.046C203.939 165.492 204.42 165.075 205.001 164.795C205.592 164.505 206.231 164.394 206.918 164.462C207.476 164.516 207.958 164.666 208.365 164.913C208.783 165.15 209.123 165.456 209.387 165.828C209.661 166.193 209.855 166.601 209.971 167.053C210.096 167.497 210.136 167.951 210.091 168.415C210.081 168.517 210.06 168.633 210.029 168.761C210.008 168.881 209.982 168.995 209.953 169.105L203.794 168.503L203.903 167.388L209.309 167.917L208.647 168.358C208.778 167.884 208.774 167.447 208.635 167.049C208.495 166.651 208.265 166.324 207.943 166.067C207.621 165.81 207.242 165.661 206.805 165.618C206.369 165.575 205.958 165.648 205.574 165.835C205.19 166.023 204.876 166.316 204.63 166.714C204.395 167.103 204.269 167.583 204.25 168.153C204.16 168.698 204.196 169.189 204.359 169.627C204.533 170.057 204.799 170.406 205.157 170.676C205.526 170.937 205.937 171.09 206.392 171.134C206.894 171.183 207.328 171.108 207.694 170.91C208.061 170.711 208.369 170.441 208.618 170.1L209.65 170.763C209.468 171.093 209.205 171.386 208.861 171.643C208.527 171.891 208.138 172.079 207.694 172.204C207.26 172.33 206.783 172.368 206.263 172.317ZM213.751 173.049C213.258 173.001 212.831 172.87 212.467 172.657C212.114 172.435 211.845 172.155 211.663 171.818C211.481 171.472 211.41 171.09 211.451 170.672C211.49 170.273 211.609 169.923 211.807 169.624C212.015 169.316 212.312 169.068 212.696 168.881C213.089 168.694 213.569 168.582 214.135 168.543L216.967 168.356L216.861 169.443L214.326 169.617C213.834 169.653 213.466 169.772 213.222 169.973C212.986 170.175 212.853 170.439 212.821 170.764C212.791 171.071 212.887 171.338 213.108 171.566C213.339 171.795 213.64 171.927 214.012 171.964C214.485 172.01 214.904 171.952 215.267 171.791C215.639 171.621 215.94 171.374 216.169 171.049C216.407 170.726 216.546 170.355 216.587 169.937L216.774 168.028C216.814 167.619 216.693 167.274 216.411 166.994C216.139 166.704 215.757 166.536 215.265 166.488C214.837 166.446 214.446 166.52 214.089 166.71C213.743 166.892 213.474 167.157 213.28 167.503L212.209 166.808C212.382 166.478 212.635 166.193 212.968 165.954C213.302 165.705 213.681 165.522 214.105 165.404C214.529 165.286 214.964 165.249 215.41 165.292C215.986 165.348 216.481 165.509 216.896 165.775C217.312 166.031 217.621 166.366 217.824 166.78C218.038 167.186 218.12 167.644 218.07 168.155L217.571 173.254L216.303 173.13L216.442 171.709L216.671 171.816C216.484 172.098 216.245 172.337 215.954 172.533C215.662 172.73 215.329 172.876 214.954 172.97C214.579 173.065 214.178 173.091 213.751 173.049ZM223.256 173.979C222.55 173.91 221.931 173.676 221.398 173.277C220.874 172.879 220.479 172.366 220.212 171.74C219.945 171.114 219.847 170.434 219.919 169.7C219.992 168.948 220.22 168.295 220.603 167.741C220.986 167.179 221.473 166.753 222.064 166.463C222.664 166.175 223.317 166.066 224.023 166.135C224.646 166.195 225.185 166.384 225.642 166.701C226.1 167.008 226.446 167.398 226.681 167.872L226.441 168.172L226.896 163.518L228.206 163.646L227.174 174.194L225.906 174.07L226.063 172.467L226.208 172.706C225.9 173.173 225.482 173.517 224.954 173.737C224.435 173.958 223.869 174.039 223.256 173.979ZM223.49 172.736C223.964 172.782 224.398 172.708 224.792 172.512C225.187 172.316 225.51 172.029 225.763 171.65C226.026 171.263 226.182 170.819 226.231 170.317C226.281 169.806 226.214 169.34 226.03 168.919C225.856 168.49 225.595 168.14 225.246 167.872C224.897 167.603 224.486 167.446 224.012 167.4C223.548 167.354 223.113 167.434 222.709 167.638C222.315 167.834 221.991 168.121 221.738 168.499C221.487 168.869 221.335 169.313 221.284 169.834C221.235 170.335 221.298 170.801 221.471 171.23C221.646 171.651 221.908 171.995 222.256 172.264C222.605 172.532 223.017 172.69 223.49 172.736ZM229.563 177.522C229.395 177.506 229.229 177.475 229.065 177.431C228.901 177.387 228.747 177.325 228.605 177.245L228.718 176.089C228.818 176.117 228.942 176.148 229.089 176.181C229.244 176.225 229.396 176.254 229.544 176.268C229.981 176.311 230.32 176.246 230.562 176.072C230.813 175.909 231.063 175.605 231.313 175.161L231.897 174.079L231.759 175.205L229.343 166.824L230.75 166.961L232.617 173.615L232.199 173.574L235.306 167.407L236.742 167.547L232.534 175.618C232.337 176.002 232.097 176.344 231.815 176.645C231.54 176.956 231.217 177.191 230.845 177.352C230.473 177.512 230.046 177.569 229.563 177.522ZM243.169 175.842C242.435 175.771 241.889 175.506 241.53 175.049C241.181 174.593 241.044 173.984 241.118 173.222L241.505 169.265L240.14 169.132L240.261 167.892L240.54 167.919C240.874 167.952 241.149 167.875 241.364 167.69C241.579 167.505 241.703 167.245 241.735 166.91L241.795 166.297L243.091 166.424L242.922 168.152L244.608 168.317L244.487 169.557L242.801 169.392L242.418 173.307C242.394 173.558 242.409 173.78 242.465 173.973C242.531 174.167 242.651 174.329 242.826 174.458C243.002 174.579 243.243 174.654 243.549 174.684C243.614 174.69 243.694 174.693 243.788 174.693C243.891 174.694 243.985 174.694 244.069 174.693L243.957 175.835C243.834 175.851 243.697 175.857 243.548 175.851C243.397 175.855 243.271 175.852 243.169 175.842ZM249.275 176.524C248.551 176.453 247.912 176.222 247.36 175.83C246.808 175.429 246.389 174.915 246.104 174.287C245.818 173.659 245.712 172.968 245.786 172.216C245.86 171.463 246.092 170.811 246.484 170.259C246.885 169.707 247.395 169.288 248.013 169.001C248.632 168.715 249.309 168.608 250.042 168.679C250.767 168.75 251.405 168.986 251.957 169.387C252.509 169.779 252.924 170.284 253.201 170.901C253.488 171.52 253.594 172.211 253.519 172.972C253.445 173.734 253.202 174.395 252.791 174.955C252.38 175.505 251.866 175.924 251.247 176.21C250.638 176.489 249.981 176.593 249.275 176.524ZM249.398 175.27C249.862 175.315 250.292 175.24 250.686 175.044C251.089 174.849 251.418 174.558 251.672 174.17C251.935 173.783 252.091 173.339 252.14 172.837C252.19 172.326 252.122 171.865 251.937 171.453C251.763 171.033 251.497 170.688 251.138 170.418C250.79 170.141 250.384 169.979 249.92 169.933C249.446 169.887 249.007 169.966 248.602 170.17C248.208 170.366 247.88 170.653 247.618 171.031C247.357 171.399 247.201 171.839 247.151 172.349C247.102 172.851 247.169 173.317 247.352 173.748C247.535 174.178 247.801 174.528 248.15 174.796C248.508 175.066 248.924 175.224 249.398 175.27ZM261.678 177.737C261.074 177.678 260.535 177.489 260.06 177.171C259.594 176.853 259.25 176.435 259.029 175.917L259.232 175.711L259.075 177.314L257.807 177.19L258.839 166.642L260.134 166.769L259.679 171.423L259.516 171.083C259.838 170.664 260.253 170.349 260.762 170.136C261.271 169.914 261.837 169.833 262.459 169.894C263.165 169.963 263.78 170.197 264.304 170.595C264.837 170.994 265.237 171.507 265.504 172.133C265.772 172.75 265.869 173.435 265.795 174.187C265.723 174.921 265.496 175.569 265.113 176.132C264.729 176.695 264.238 177.12 263.637 177.408C263.046 177.697 262.393 177.807 261.678 177.737ZM261.703 176.474C262.177 176.52 262.611 176.445 263.005 176.249C263.399 176.053 263.718 175.766 263.962 175.386C264.215 174.998 264.367 174.554 264.416 174.052C264.467 173.532 264.404 173.066 264.229 172.655C264.064 172.236 263.807 171.892 263.458 171.623C263.11 171.345 262.699 171.183 262.225 171.137C261.751 171.091 261.313 171.165 260.909 171.36C260.515 171.556 260.186 171.847 259.923 172.234C259.671 172.613 259.519 173.057 259.469 173.568C259.42 174.07 259.483 174.536 259.656 174.965C259.84 175.386 260.107 175.731 260.455 176C260.814 176.269 261.229 176.427 261.703 176.474ZM270.957 178.645C270.232 178.574 269.594 178.343 269.041 177.951C268.49 177.55 268.071 177.035 267.786 176.407C267.5 175.779 267.394 175.089 267.468 174.337C267.541 173.584 267.774 172.932 268.166 172.379C268.567 171.828 269.076 171.409 269.695 171.122C270.314 170.836 270.99 170.728 271.724 170.8C272.449 170.871 273.087 171.107 273.638 171.508C274.191 171.899 274.606 172.404 274.883 173.022C275.169 173.641 275.275 174.331 275.201 175.093C275.126 175.855 274.884 176.515 274.472 177.075C274.062 177.626 273.548 178.045 272.929 178.331C272.32 178.609 271.663 178.714 270.957 178.645ZM271.08 177.391C271.544 177.436 271.974 177.361 272.368 177.165C272.771 176.97 273.1 176.679 273.354 176.291C273.616 175.904 273.772 175.46 273.822 174.958C273.871 174.447 273.804 173.986 273.619 173.574C273.445 173.153 273.178 172.808 272.82 172.539C272.472 172.261 272.066 172.1 271.602 172.054C271.128 172.008 270.689 172.087 270.284 172.291C269.89 172.487 269.562 172.774 269.3 173.151C269.039 173.52 268.883 173.959 268.833 174.47C268.784 174.972 268.851 175.438 269.034 175.868C269.217 176.299 269.483 176.648 269.832 176.917C270.19 177.186 270.606 177.344 271.08 177.391ZM280.352 179.564C279.628 179.493 278.989 179.261 278.437 178.87C277.885 178.469 277.467 177.954 277.181 177.326C276.896 176.698 276.79 176.008 276.863 175.255C276.937 174.503 277.169 173.851 277.561 173.298C277.962 172.747 278.472 172.327 279.091 172.041C279.709 171.755 280.386 171.647 281.12 171.719C281.844 171.79 282.482 172.026 283.034 172.427C283.586 172.818 284.001 173.323 284.278 173.941C284.565 174.56 284.671 175.25 284.596 176.012C284.522 176.774 284.279 177.434 283.868 177.994C283.458 178.545 282.943 178.964 282.324 179.25C281.716 179.528 281.058 179.633 280.352 179.564ZM280.475 178.31C280.939 178.355 281.369 178.28 281.763 178.084C282.167 177.889 282.495 177.597 282.749 177.21C283.012 176.823 283.168 176.379 283.217 175.877C283.267 175.366 283.199 174.905 283.015 174.493C282.84 174.072 282.574 173.727 282.216 173.458C281.868 173.18 281.461 173.018 280.997 172.973C280.523 172.927 280.084 173.006 279.68 173.21C279.285 173.406 278.957 173.693 278.695 174.07C278.434 174.439 278.279 174.878 278.229 175.389C278.18 175.891 278.247 176.357 278.429 176.787C278.612 177.218 278.878 177.567 279.227 177.836C279.585 178.105 280.001 178.263 280.475 178.31ZM286.197 179.966L287.229 169.419L288.525 169.545L287.817 176.777L287.3 176.6L291.683 172.921L293.341 173.083L290.161 175.825L292.802 180.612L291.269 180.462L288.852 176.119L289.664 176.156L287.253 178.227L287.764 177.32L287.493 180.093L286.197 179.966ZM133.369 182.269C132.877 182.221 132.449 182.09 132.086 181.876C131.732 181.654 131.464 181.374 131.281 181.038C131.1 180.692 131.029 180.31 131.07 179.892C131.109 179.492 131.228 179.143 131.426 178.843C131.634 178.535 131.93 178.288 132.314 178.1C132.708 177.914 133.187 177.801 133.754 177.763L136.586 177.576L136.479 178.662L133.944 178.836C133.453 178.873 133.085 178.991 132.84 179.193C132.605 179.395 132.471 179.658 132.44 179.983C132.41 180.29 132.505 180.557 132.727 180.785C132.958 181.014 133.259 181.147 133.63 181.183C134.104 181.229 134.522 181.172 134.885 181.01C135.258 180.84 135.559 180.593 135.788 180.269C136.026 179.945 136.165 179.574 136.206 179.156L136.393 177.247C136.433 176.838 136.312 176.494 136.03 176.213C135.758 175.924 135.376 175.755 134.883 175.707C134.456 175.665 134.064 175.739 133.708 175.93C133.362 176.111 133.092 176.376 132.899 176.723L131.828 176.027C132.001 175.697 132.254 175.412 132.586 175.173C132.92 174.924 133.299 174.741 133.723 174.623C134.148 174.505 134.583 174.468 135.028 174.511C135.604 174.568 136.1 174.729 136.515 174.994C136.93 175.251 137.24 175.586 137.443 175.999C137.657 176.405 137.738 176.863 137.688 177.374L137.19 182.474L135.922 182.35L136.061 180.928L136.289 181.035C136.102 181.317 135.863 181.556 135.572 181.753C135.281 181.949 134.948 182.095 134.573 182.189C134.198 182.284 133.797 182.311 133.369 182.269ZM145.562 183.461C144.856 183.392 144.236 183.158 143.703 182.759C143.18 182.361 142.784 181.849 142.517 181.222C142.25 180.596 142.153 179.916 142.225 179.182C142.298 178.43 142.526 177.777 142.909 177.223C143.292 176.661 143.779 176.235 144.37 175.946C144.97 175.657 145.623 175.548 146.329 175.617C146.952 175.678 147.491 175.866 147.948 176.183C148.405 176.49 148.752 176.88 148.987 177.354L148.746 177.654L149.202 173L150.511 173.128L149.48 183.676L148.212 183.552L148.368 181.949L148.514 182.189C148.206 182.655 147.788 182.999 147.26 183.219C146.741 183.441 146.175 183.521 145.562 183.461ZM145.796 182.218C146.27 182.264 146.704 182.19 147.098 181.994C147.492 181.798 147.816 181.511 148.069 181.132C148.331 180.745 148.487 180.301 148.537 179.799C148.586 179.289 148.52 178.822 148.336 178.401C148.162 177.972 147.901 177.623 147.552 177.354C147.203 177.085 146.792 176.928 146.318 176.882C145.854 176.836 145.419 176.916 145.015 177.12C144.62 177.316 144.297 177.603 144.044 177.981C143.792 178.351 143.641 178.795 143.59 179.316C143.541 179.817 143.603 180.283 143.777 180.712C143.952 181.133 144.213 181.477 144.562 181.746C144.911 182.014 145.322 182.172 145.796 182.218ZM155.203 184.404C154.479 184.333 153.85 184.098 153.317 183.699C152.784 183.3 152.384 182.787 152.117 182.161C151.851 181.526 151.754 180.836 151.827 180.093C151.9 179.341 152.124 178.687 152.497 178.133C152.879 177.58 153.361 177.162 153.941 176.882C154.532 176.592 155.172 176.482 155.859 176.549C156.416 176.603 156.899 176.754 157.306 177C157.723 177.238 158.064 177.543 158.328 177.916C158.601 178.28 158.796 178.688 158.911 179.14C159.037 179.584 159.077 180.038 159.031 180.502C159.021 180.604 159.001 180.72 158.969 180.848C158.948 180.968 158.923 181.083 158.893 181.192L152.735 180.59L152.844 179.475L158.25 180.004L157.588 180.446C157.719 179.971 157.714 179.534 157.575 179.136C157.436 178.738 157.205 178.411 156.884 178.154C156.562 177.898 156.182 177.748 155.746 177.705C155.309 177.663 154.899 177.735 154.515 177.922C154.131 178.11 153.816 178.403 153.571 178.801C153.336 179.19 153.209 179.67 153.191 180.241C153.1 180.785 153.137 181.276 153.3 181.714C153.474 182.144 153.74 182.493 154.098 182.763C154.466 183.024 154.878 183.177 155.333 183.221C155.835 183.27 156.269 183.196 156.635 182.997C157.001 182.798 157.309 182.528 157.558 182.187L158.59 182.851C158.408 183.18 158.145 183.473 157.801 183.73C157.467 183.979 157.079 184.166 156.635 184.291C156.201 184.417 155.723 184.455 155.203 184.404ZM160.601 184.763L161.336 177.253L162.604 177.377L162.454 178.91L162.296 178.655C162.528 178.2 162.861 177.867 163.294 177.656C163.727 177.445 164.199 177.365 164.71 177.414C165.296 177.472 165.804 177.686 166.237 178.056C166.679 178.428 166.962 178.887 167.087 179.433L166.723 179.412C166.976 178.846 167.349 178.437 167.842 178.185C168.337 177.924 168.867 177.821 169.434 177.876C169.954 177.927 170.411 178.094 170.806 178.376C171.209 178.66 171.516 179.027 171.725 179.479C171.934 179.931 172.012 180.426 171.959 180.965L171.484 185.828L170.174 185.7L170.609 181.255C170.649 180.837 170.61 180.477 170.489 180.174C170.369 179.872 170.186 179.629 169.941 179.445C169.707 179.254 169.418 179.141 169.074 179.107C168.74 179.075 168.43 179.129 168.144 179.27C167.869 179.402 167.637 179.609 167.45 179.891C167.273 180.164 167.165 180.505 167.125 180.914L166.69 185.359L165.381 185.231L165.815 180.786C165.856 180.368 165.816 180.008 165.696 179.705C165.576 179.403 165.393 179.16 165.148 178.977C164.914 178.785 164.625 178.672 164.281 178.639C163.947 178.606 163.637 178.66 163.351 178.801C163.075 178.933 162.844 179.14 162.657 179.422C162.48 179.696 162.372 180.037 162.332 180.445L161.897 184.89L160.601 184.763ZM177.153 186.551C176.429 186.48 175.79 186.249 175.238 185.857C174.686 185.456 174.268 184.942 173.982 184.314C173.696 183.686 173.59 182.995 173.664 182.243C173.738 181.491 173.97 180.838 174.362 180.286C174.763 179.734 175.273 179.315 175.892 179.029C176.51 178.742 177.187 178.635 177.92 178.707C178.645 178.777 179.283 179.013 179.835 179.414C180.387 179.806 180.802 180.311 181.079 180.929C181.366 181.547 181.472 182.238 181.397 182.999C181.323 183.761 181.08 184.422 180.669 184.982C180.258 185.533 179.744 185.951 179.125 186.238C178.517 186.516 177.859 186.62 177.153 186.551ZM177.276 185.297C177.74 185.343 178.17 185.267 178.564 185.071C178.968 184.876 179.296 184.585 179.55 184.197C179.813 183.81 179.969 183.366 180.018 182.864C180.068 182.354 180 181.892 179.816 181.48C179.641 181.06 179.375 180.715 179.016 180.445C178.668 180.168 178.262 180.006 177.798 179.961C177.324 179.914 176.885 179.993 176.481 180.197C176.086 180.393 175.758 180.68 175.496 181.058C175.235 181.426 175.079 181.866 175.03 182.377C174.98 182.878 175.047 183.344 175.23 183.775C175.413 184.205 175.679 184.555 176.028 184.823C176.386 185.093 176.802 185.251 177.276 185.297ZM184.828 184.066L184.845 183.885C184.886 183.467 184.992 183.107 185.162 182.805C185.343 182.494 185.552 182.224 185.79 181.994C186.038 181.756 186.294 181.537 186.558 181.338C186.914 181.044 187.238 180.757 187.528 180.476C187.827 180.196 187.998 179.847 188.038 179.429C188.062 179.187 188.024 178.954 187.924 178.728C187.824 178.503 187.66 178.313 187.431 178.16C187.212 178.007 186.93 177.914 186.586 177.88C186.113 177.834 185.689 177.942 185.316 178.206C184.944 178.47 184.691 178.844 184.56 179.328L183.361 178.929C183.494 178.426 183.719 177.998 184.035 177.645C184.361 177.283 184.753 177.016 185.21 176.845C185.677 176.675 186.18 176.617 186.719 176.669C187.323 176.728 187.83 176.905 188.243 177.198C188.665 177.483 188.978 177.833 189.181 178.246C189.384 178.66 189.464 179.095 189.419 179.55C189.379 179.959 189.26 180.313 189.062 180.612C188.865 180.902 188.624 181.165 188.338 181.399C188.062 181.635 187.786 181.871 187.509 182.106C187.174 182.373 186.874 182.658 186.61 182.961C186.356 183.255 186.208 183.615 186.166 184.043L186.151 184.196L184.828 184.066ZM184.545 187.105L184.708 185.433L186.06 185.565L185.896 187.237L184.545 187.105Z" fill="#1D2220" fill-opacity="0.7"/>
<path d="M304.829 201.634L307.073 204.365M310.946 200.725L313.678 198.48M308.81 202.023L311.054 204.754L317.659 198.869" stroke="#019F53" stroke-width="1.2" stroke-linecap="round" stroke-linejoin="round"/>
<path d="M324.545 205.823L325.187 199.254L323.784 199.117L323.867 198.271L326.255 198.504L325.53 205.919L324.545 205.823ZM327.867 206.148L327.984 204.953L328.949 205.048L328.833 206.242L327.867 206.148ZM328.275 201.978L328.392 200.783L329.357 200.878L329.24 202.072L328.275 201.978ZM333.045 206.775C332.653 206.736 332.295 206.631 331.97 206.459C331.646 206.286 331.373 206.062 331.152 205.786C330.932 205.503 330.779 205.18 330.694 204.816L331.553 204.559C331.656 204.944 331.847 205.254 332.125 205.489C332.404 205.724 332.739 205.86 333.13 205.899C333.435 205.929 333.713 205.896 333.964 205.799C334.214 205.703 334.417 205.549 334.572 205.336C334.733 205.124 334.83 204.859 334.861 204.541C334.892 204.216 334.849 203.937 334.731 203.704C334.621 203.466 334.452 203.275 334.225 203.132C333.998 202.989 333.728 202.903 333.416 202.872C333.317 202.863 333.207 202.858 333.086 202.86C332.972 202.862 332.874 202.873 332.791 202.892L332.626 202.423L334.843 200.198L331.559 199.877L331.642 199.031L336.031 199.461L335.951 200.277L333.832 202.421L333.798 202.156C334.241 202.213 334.622 202.354 334.942 202.579C335.262 202.805 335.501 203.093 335.661 203.443C335.822 203.787 335.881 204.178 335.838 204.616C335.794 205.067 335.644 205.465 335.39 205.808C335.135 206.152 334.805 206.411 334.399 206.586C333.994 206.76 333.542 206.823 333.045 206.775ZM340.474 207.381L340.642 205.669L336.999 205.313L337.078 204.506L341.18 199.964L342.115 200.056L341.636 204.952L342.602 205.047L342.523 205.853L341.557 205.758L341.39 207.47L340.474 207.381ZM337.78 204.927L337.675 204.565L340.721 204.863L341.12 200.782L341.401 200.89L337.78 204.927ZM345.695 207.891L346.42 200.477L349.038 200.733C349.529 200.781 349.951 200.916 350.304 201.138C350.658 201.36 350.92 201.654 351.092 202.019C351.271 202.385 351.337 202.8 351.292 203.264C351.247 203.729 351.101 204.123 350.855 204.447C350.616 204.765 350.301 205.003 349.911 205.159C349.528 205.309 349.088 205.36 348.59 205.311L346.948 205.15L346.67 207.987L345.695 207.891ZM347.035 204.255L348.707 204.418C349.006 204.447 349.27 204.416 349.5 204.325C349.73 204.233 349.915 204.087 350.055 203.887C350.196 203.686 350.279 203.446 350.307 203.168C350.335 202.882 350.299 202.631 350.2 202.414C350.101 202.19 349.948 202.011 349.74 201.876C349.532 201.742 349.278 201.661 348.98 201.631L347.308 201.468L347.035 204.255ZM352.309 208.538L353.034 201.124L353.93 201.211L356.32 205.434L355.862 205.389L359.005 201.708L359.901 201.795L359.176 209.21L358.191 209.113L358.795 202.933L359.133 203.077L355.996 206.688L355.917 206.681L353.569 202.532L353.889 202.453L353.284 208.634L352.309 208.538Z" fill="#1D2220" fill-opacity="0.3"/>
</g>
<path d="M134.318 139.49L362.231 161.781C368.552 162.4 373.175 168.025 372.557 174.346L368.127 219.63L128.77 196.219C122.449 195.601 117.825 189.976 118.444 183.654L121.753 149.816C122.372 143.495 127.997 138.872 134.318 139.49Z" stroke="#1D2220" stroke-opacity="0.1"/>
</g>
<g filter="url(#filter1_d_1_458)">
<rect x="107" y="238" width="125" height="28" rx="14" fill="white" shape-rendering="crispEdges"/>
<rect x="107.5" y="238.5" width="124" height="27" rx="13.5" stroke="#019F53" stroke-opacity="0.3" shape-rendering="crispEdges"/>
<path fill-rule="evenodd" clip-rule="evenodd" d="M115.713 251.757C116.869 248.796 119.589 246.667 123 246.667C126.411 246.667 129.131 248.796 130.288 251.757C130.349 251.913 130.349 252.087 130.288 252.243C129.131 255.204 126.411 257.333 123 257.333C119.589 257.333 116.869 255.204 115.713 252.243C115.652 252.087 115.652 251.913 115.713 251.757ZM123 254C123.53 254 124.039 253.789 124.414 253.414C124.789 253.039 125 252.53 125 252C125 251.47 124.789 250.961 124.414 250.586C124.039 250.211 123.53 250 123 250C122.47 250 121.961 250.211 121.586 250.586C121.211 250.961 121 251.47 121 252C121 252.53 121.211 253.039 121.586 253.414C121.961 253.789 122.47 254 123 254Z" fill="#019F53"/>
<path d="M135.996 257V248.06H139.752C140.288 248.06 140.748 248.156 141.132 248.348C141.524 248.54 141.824 248.812 142.032 249.164C142.248 249.508 142.356 249.92 142.356 250.4C142.356 250.84 142.24 251.24 142.008 251.6C141.784 251.952 141.452 252.228 141.012 252.428L141 251.984C141.384 252.128 141.7 252.32 141.948 252.56C142.204 252.792 142.396 253.064 142.524 253.376C142.652 253.68 142.716 254.004 142.716 254.348C142.716 255.172 142.452 255.82 141.924 256.292C141.396 256.764 140.676 257 139.764 257H135.996ZM137.172 255.92H139.812C140.332 255.92 140.748 255.78 141.06 255.5C141.372 255.22 141.528 254.84 141.528 254.36C141.528 253.88 141.372 253.5 141.06 253.22C140.748 252.932 140.332 252.788 139.812 252.788H137.172V255.92ZM137.172 251.732H139.728C140.16 251.732 140.508 251.608 140.772 251.36C141.036 251.104 141.168 250.78 141.168 250.388C141.168 249.98 141.036 249.668 140.772 249.452C140.508 249.236 140.16 249.128 139.728 249.128H137.172V251.732ZM147.485 257.144C146.861 257.144 146.297 257 145.793 256.712C145.289 256.416 144.889 256.012 144.593 255.5C144.297 254.988 144.149 254.408 144.149 253.76C144.149 253.112 144.293 252.536 144.581 252.032C144.877 251.528 145.277 251.128 145.781 250.832C146.285 250.536 146.853 250.388 147.485 250.388C148.109 250.388 148.673 250.536 149.177 250.832C149.681 251.12 150.077 251.516 150.365 252.02C150.661 252.524 150.809 253.104 150.809 253.76C150.809 254.416 150.657 255 150.353 255.512C150.049 256.016 149.645 256.416 149.141 256.712C148.645 257 148.093 257.144 147.485 257.144ZM147.485 256.064C147.885 256.064 148.245 255.964 148.565 255.764C148.893 255.564 149.149 255.288 149.333 254.936C149.525 254.584 149.621 254.192 149.621 253.76C149.621 253.32 149.525 252.932 149.333 252.596C149.149 252.252 148.893 251.98 148.565 251.78C148.245 251.572 147.885 251.468 147.485 251.468C147.077 251.468 146.709 251.572 146.381 251.78C146.061 251.98 145.805 252.252 145.613 252.596C145.421 252.932 145.325 253.32 145.325 253.76C145.325 254.192 145.421 254.584 145.613 254.936C145.805 255.288 146.061 255.564 146.381 255.764C146.709 255.964 147.077 256.064 147.485 256.064ZM155.576 257.144C154.952 257.144 154.388 257 153.884 256.712C153.38 256.416 152.98 256.012 152.684 255.5C152.388 254.988 152.24 254.408 152.24 253.76C152.24 253.112 152.384 252.536 152.672 252.032C152.968 251.528 153.368 251.128 153.872 250.832C154.376 250.536 154.944 250.388 155.576 250.388C156.2 250.388 156.764 250.536 157.268 250.832C157.772 251.12 158.168 251.516 158.456 252.02C158.752 252.524 158.9 253.104 158.9 253.76C158.9 254.416 158.748 255 158.444 255.512C158.14 256.016 157.736 256.416 157.232 256.712C156.736 257 156.184 257.144 155.576 257.144ZM155.576 256.064C155.976 256.064 156.336 255.964 156.656 255.764C156.984 255.564 157.24 255.288 157.424 254.936C157.616 254.584 157.712 254.192 157.712 253.76C157.712 253.32 157.616 252.932 157.424 252.596C157.24 252.252 156.984 251.98 156.656 251.78C156.336 251.572 155.976 251.468 155.576 251.468C155.168 251.468 154.8 251.572 154.472 251.78C154.152 251.98 153.896 252.252 153.704 252.596C153.512 252.932 153.416 253.32 153.416 253.76C153.416 254.192 153.512 254.584 153.704 254.936C153.896 255.288 154.152 255.564 154.472 255.764C154.8 255.964 155.168 256.064 155.576 256.064ZM162.912 257.144C162.264 257.144 161.7 256.984 161.22 256.664C160.74 256.344 160.4 255.912 160.2 255.368L161.088 254.936C161.272 255.32 161.524 255.624 161.844 255.848C162.164 256.072 162.52 256.184 162.912 256.184C163.264 256.184 163.556 256.1 163.788 255.932C164.02 255.764 164.136 255.544 164.136 255.272C164.136 255.08 164.08 254.928 163.968 254.816C163.864 254.696 163.736 254.604 163.584 254.54C163.432 254.468 163.292 254.416 163.164 254.384L162.192 254.108C161.608 253.94 161.18 253.7 160.908 253.388C160.644 253.076 160.512 252.712 160.512 252.296C160.512 251.912 160.608 251.58 160.8 251.3C161 251.012 161.268 250.788 161.604 250.628C161.948 250.468 162.332 250.388 162.756 250.388C163.324 250.388 163.832 250.532 164.28 250.82C164.736 251.108 165.06 251.512 165.252 252.032L164.34 252.452C164.196 252.116 163.98 251.852 163.692 251.66C163.404 251.46 163.08 251.36 162.72 251.36C162.392 251.36 162.132 251.444 161.94 251.612C161.748 251.772 161.652 251.976 161.652 252.224C161.652 252.408 161.7 252.56 161.796 252.68C161.892 252.792 162.008 252.88 162.144 252.944C162.28 253 162.412 253.048 162.54 253.088L163.596 253.4C164.124 253.552 164.532 253.788 164.82 254.108C165.116 254.428 165.264 254.812 165.264 255.26C165.264 255.62 165.164 255.944 164.964 256.232C164.764 256.52 164.488 256.744 164.136 256.904C163.784 257.064 163.376 257.144 162.912 257.144ZM169.593 257.072C168.961 257.072 168.473 256.892 168.129 256.532C167.793 256.172 167.625 255.664 167.625 255.008V251.6H166.449V250.532H166.689C166.977 250.532 167.205 250.444 167.373 250.268C167.541 250.092 167.625 249.86 167.625 249.572V249.044H168.741V250.532H170.193V251.6H168.741V254.972C168.741 255.188 168.773 255.376 168.837 255.536C168.909 255.696 169.025 255.824 169.185 255.92C169.345 256.008 169.557 256.052 169.821 256.052C169.877 256.052 169.945 256.048 170.025 256.04C170.113 256.032 170.193 256.024 170.265 256.016V257C170.161 257.024 170.045 257.04 169.917 257.048C169.789 257.064 169.681 257.072 169.593 257.072ZM176.077 257L173.545 250.532H174.793L176.821 256.004H176.389L178.429 250.532H179.677L177.133 257H176.077ZM180.915 257V250.532H182.031V257H180.915ZM180.915 249.5V248.06H182.031V249.5H180.915ZM186.319 257.144C185.671 257.144 185.107 256.984 184.627 256.664C184.147 256.344 183.807 255.912 183.607 255.368L184.495 254.936C184.679 255.32 184.931 255.624 185.251 255.848C185.571 256.072 185.927 256.184 186.319 256.184C186.671 256.184 186.963 256.1 187.195 255.932C187.427 255.764 187.543 255.544 187.543 255.272C187.543 255.08 187.487 254.928 187.375 254.816C187.271 254.696 187.143 254.604 186.991 254.54C186.839 254.468 186.699 254.416 186.571 254.384L185.599 254.108C185.015 253.94 184.587 253.7 184.315 253.388C184.051 253.076 183.919 252.712 183.919 252.296C183.919 251.912 184.015 251.58 184.207 251.3C184.407 251.012 184.675 250.788 185.011 250.628C185.355 250.468 185.739 250.388 186.163 250.388C186.731 250.388 187.239 250.532 187.687 250.82C188.143 251.108 188.467 251.512 188.659 252.032L187.747 252.452C187.603 252.116 187.387 251.852 187.099 251.66C186.811 251.46 186.487 251.36 186.127 251.36C185.799 251.36 185.539 251.444 185.347 251.612C185.155 251.772 185.059 251.976 185.059 252.224C185.059 252.408 185.107 252.56 185.203 252.68C185.299 252.792 185.415 252.88 185.551 252.944C185.687 253 185.819 253.048 185.947 253.088L187.003 253.4C187.531 253.552 187.939 253.788 188.227 254.108C188.523 254.428 188.671 254.812 188.671 255.26C188.671 255.62 188.571 255.944 188.371 256.232C188.171 256.52 187.895 256.744 187.543 256.904C187.191 257.064 186.783 257.144 186.319 257.144ZM190.372 257V250.532H191.488V257H190.372ZM190.372 249.5V248.06H191.488V249.5H190.372ZM196.807 257.144C196.287 257.144 195.811 257.028 195.379 256.796C194.955 256.564 194.627 256.236 194.395 255.812L194.551 255.62V257H193.459V247.916H194.575V251.924L194.407 251.648C194.647 251.264 194.975 250.96 195.391 250.736C195.807 250.504 196.283 250.388 196.819 250.388C197.427 250.388 197.971 250.536 198.451 250.832C198.939 251.128 199.323 251.532 199.603 252.044C199.883 252.548 200.023 253.124 200.023 253.772C200.023 254.404 199.883 254.976 199.603 255.488C199.323 256 198.939 256.404 198.451 256.7C197.971 256.996 197.423 257.144 196.807 257.144ZM196.723 256.064C197.131 256.064 197.495 255.964 197.815 255.764C198.135 255.564 198.383 255.292 198.559 254.948C198.743 254.596 198.835 254.204 198.835 253.772C198.835 253.324 198.743 252.932 198.559 252.596C198.383 252.252 198.135 251.98 197.815 251.78C197.495 251.572 197.131 251.468 196.723 251.468C196.315 251.468 195.947 251.568 195.619 251.768C195.299 251.968 195.043 252.244 194.851 252.596C194.667 252.94 194.575 253.332 194.575 253.772C194.575 254.204 194.667 254.596 194.851 254.948C195.043 255.292 195.299 255.564 195.619 255.764C195.947 255.964 196.315 256.064 196.723 256.064ZM201.727 257V250.532H202.843V257H201.727ZM201.727 249.5V248.06H202.843V249.5H201.727ZM204.814 257V247.916H205.93V257H204.814ZM207.902 257V250.532H209.018V257H207.902ZM207.902 249.5V248.06H209.018V249.5H207.902ZM213.618 257.072C212.986 257.072 212.498 256.892 212.154 256.532C211.818 256.172 211.65 255.664 211.65 255.008V251.6H210.474V250.532H210.714C211.002 250.532 211.23 250.444 211.398 250.268C211.566 250.092 211.65 249.86 211.65 249.572V249.044H212.766V250.532H214.218V251.6H212.766V254.972C212.766 255.188 212.798 255.376 212.862 255.536C212.934 255.696 213.05 255.824 213.21 255.92C213.37 256.008 213.582 256.052 213.846 256.052C213.902 256.052 213.97 256.048 214.05 256.04C214.138 256.032 214.218 256.024 214.29 256.016V257C214.186 257.024 214.07 257.04 213.942 257.048C213.814 257.064 213.706 257.072 213.618 257.072ZM216.335 259.64C216.191 259.64 216.047 259.628 215.903 259.604C215.759 259.58 215.623 259.54 215.495 259.484V258.488C215.583 258.504 215.691 258.52 215.819 258.536C215.955 258.56 216.087 258.572 216.215 258.572C216.591 258.572 216.875 258.488 217.067 258.32C217.267 258.16 217.455 257.88 217.631 257.48L218.039 256.508L218.015 257.48L215.255 250.532H216.467L218.615 256.052H218.255L220.391 250.532H221.627L218.711 257.768C218.575 258.112 218.399 258.424 218.183 258.704C217.975 258.992 217.719 259.22 217.415 259.388C217.111 259.556 216.751 259.64 216.335 259.64Z" fill="#019F53"/>
</g>
<path d="M243.996 246.5C243.72 246.502 243.498 246.728 243.5 247.004C243.502 247.28 243.728 247.502 244.004 247.5L243.996 246.5ZM253.421 245.979L253.284 245.498L253.421 245.979ZM257.252 244.669L257.433 245.134L257.44 245.132L257.447 245.129L257.252 244.669ZM261.194 242.707L260.929 242.283L261.194 242.707ZM265.281 239.485L265.618 239.854L265.281 239.485ZM268.483 235.58L268.057 235.318L268.483 235.58ZM270.181 231.755L269.684 231.705L270.181 231.755ZM270.181 230.492L270.661 230.352L270.181 230.492ZM269.026 228.994L269.31 228.582L269.026 228.994ZM265.281 228.494L265.202 228L265.281 228.494ZM261.535 230.992L262.017 231.127L261.535 230.992ZM261.535 233.49L261.959 233.225L261.535 233.49ZM268.029 236.315L267.976 236.812L268.029 236.315ZM274.353 235.756L274.49 236.237L274.353 235.756ZM281.51 232.491L281.822 232.881L281.51 232.491ZM291.995 222.929C291.956 222.656 291.703 222.466 291.429 222.505L286.975 223.141C286.701 223.18 286.511 223.434 286.55 223.707C286.589 223.98 286.843 224.17 287.116 224.131L291.076 223.566L291.641 227.525C291.68 227.799 291.934 227.989 292.207 227.95C292.48 227.911 292.67 227.657 292.631 227.384L291.995 222.929ZM245.196 247.486C245.472 247.481 245.692 247.254 245.688 246.978C245.683 246.701 245.455 246.481 245.179 246.486L245.196 247.486ZM247.532 246.4C247.257 246.417 247.047 246.654 247.064 246.93C247.08 247.205 247.317 247.415 247.593 247.399L247.532 246.4ZM249.993 247.175C250.267 247.14 250.46 246.889 250.425 246.615C250.389 246.341 250.138 246.148 249.864 246.183L249.993 247.175ZM252.159 245.783C251.89 245.843 251.721 246.111 251.781 246.38C251.842 246.65 252.109 246.819 252.379 246.759L252.159 245.783ZM254.543 246.16C254.805 246.076 254.95 245.794 254.865 245.531C254.781 245.268 254.499 245.124 254.236 245.208L254.543 246.16ZM256.133 244.554C255.874 244.648 255.74 244.935 255.835 245.195C255.929 245.454 256.216 245.588 256.476 245.493L256.133 244.554ZM258.467 244.677C258.718 244.562 258.828 244.265 258.714 244.014C258.599 243.763 258.302 243.652 258.051 243.767L258.467 244.677ZM260.003 242.812C259.759 242.942 259.667 243.245 259.797 243.488C259.926 243.732 260.229 243.825 260.473 243.695L260.003 242.812ZM262.565 242.379C262.789 242.217 262.838 241.904 262.675 241.681C262.513 241.457 262.2 241.408 261.977 241.571L262.565 242.379ZM263.98 239.971C263.771 240.151 263.748 240.467 263.928 240.676C264.108 240.885 264.424 240.908 264.633 240.728L263.98 239.971ZM266.557 238.973C266.754 238.78 266.757 238.463 266.564 238.266C266.371 238.069 266.054 238.065 265.857 238.259L266.557 238.973ZM267.391 236.384C267.241 236.616 267.307 236.925 267.538 237.076C267.77 237.226 268.079 237.16 268.23 236.929L267.391 236.384ZM269.469 234.948C269.615 234.713 269.544 234.405 269.31 234.259C269.076 234.112 268.767 234.183 268.621 234.417L269.469 234.948ZM269.501 232.648C269.421 232.912 269.571 233.191 269.836 233.271C270.1 233.35 270.379 233.2 270.459 232.936L269.501 232.648ZM270.715 231.502C270.751 231.228 270.557 230.978 270.283 230.942C270.009 230.907 269.759 231.101 269.723 231.375L270.715 231.502ZM269.749 230.86C269.78 231.135 270.028 231.332 270.302 231.301C270.576 231.27 270.773 231.022 270.742 230.748L269.749 230.86ZM270.46 229.821C270.339 229.573 270.04 229.469 269.791 229.59C269.543 229.711 269.44 230.01 269.561 230.259L270.46 229.821ZM269.087 229.667C269.296 229.846 269.612 229.822 269.792 229.612C269.971 229.402 269.946 229.086 269.736 228.907L269.087 229.667ZM268.327 228.081C268.066 227.99 267.781 228.129 267.691 228.39C267.601 228.651 267.739 228.935 268 229.026L268.327 228.081ZM266.286 228.87C266.561 228.847 266.765 228.605 266.742 228.33C266.719 228.055 266.478 227.85 266.202 227.873L266.286 228.87ZM264.537 228.135C264.27 228.202 264.107 228.473 264.174 228.741C264.241 229.009 264.513 229.172 264.78 229.105L264.537 228.135ZM263.707 229.511C263.951 229.384 264.047 229.082 263.919 228.837C263.791 228.592 263.489 228.497 263.244 228.624L263.707 229.511ZM262.183 229.273C261.955 229.43 261.898 229.742 262.055 229.969C262.212 230.196 262.524 230.253 262.751 230.096L262.183 229.273ZM262.175 230.706C262.3 230.459 262.201 230.158 261.955 230.033C261.709 229.909 261.408 230.007 261.283 230.253L262.175 230.706ZM260.912 231.542C260.873 231.816 261.062 232.069 261.335 232.109C261.609 232.149 261.862 231.959 261.902 231.686L260.912 231.542ZM261.862 232.828C261.833 232.554 261.586 232.355 261.311 232.385C261.037 232.415 260.838 232.662 260.868 232.936L261.862 232.828ZM261.822 234.766C261.997 234.98 262.312 235.011 262.525 234.836C262.739 234.661 262.77 234.346 262.595 234.133L261.822 234.766ZM264.286 235.206C264.021 235.13 263.743 235.282 263.667 235.548C263.59 235.813 263.743 236.09 264.008 236.167L264.286 235.206ZM265.898 236.609C266.172 236.644 266.422 236.45 266.457 236.176C266.492 235.902 266.298 235.652 266.024 235.617L265.898 236.609ZM267.386 235.748C267.111 235.723 266.867 235.925 266.842 236.2C266.816 236.475 267.019 236.719 267.294 236.744L267.386 235.748ZM269.631 236.868C269.908 236.862 270.126 236.633 270.12 236.357C270.114 236.081 269.885 235.862 269.609 235.869L269.631 236.868ZM272.715 235.579C272.442 235.622 272.256 235.878 272.299 236.151C272.341 236.424 272.597 236.61 272.87 236.567L272.715 235.579ZM276.406 235.671C276.669 235.588 276.815 235.307 276.732 235.044C276.649 234.781 276.368 234.635 276.105 234.718L276.406 235.671ZM279.63 233.201C279.393 233.343 279.317 233.651 279.459 233.887C279.602 234.124 279.909 234.2 280.146 234.057L279.63 233.201ZM283.171 231.789C283.385 231.615 283.416 231.3 283.242 231.086C283.067 230.872 282.752 230.841 282.538 231.016L283.171 231.789ZM285.166 228.803C284.958 228.984 284.936 229.3 285.117 229.509C285.298 229.717 285.614 229.739 285.823 229.557L285.166 228.803ZM288.394 227.212C288.592 227.02 288.598 226.703 288.406 226.505C288.214 226.306 287.898 226.301 287.699 226.492L288.394 227.212ZM290.042 224.024C289.863 224.234 289.888 224.549 290.098 224.728C290.308 224.908 290.624 224.883 290.803 224.672L290.042 224.024ZM244 247L244.004 247.5C244.381 247.497 244.78 247.493 245.196 247.486L245.188 246.986L245.179 246.486C244.767 246.493 244.372 246.497 243.996 246.5L244 247ZM247.563 246.9L247.593 247.399C248.366 247.352 249.172 247.282 249.993 247.175L249.929 246.679L249.864 246.183C249.07 246.286 248.288 246.355 247.532 246.4L247.563 246.9ZM252.269 246.271L252.379 246.759C252.772 246.67 253.165 246.571 253.557 246.46L253.421 245.979L253.284 245.498C252.911 245.604 252.536 245.698 252.159 245.783L252.269 246.271ZM253.421 245.979L253.557 246.46C253.878 246.369 254.212 246.266 254.543 246.16L254.389 245.684L254.236 245.208C253.914 245.312 253.592 245.411 253.284 245.498L253.421 245.979ZM256.304 245.023L256.476 245.493C256.762 245.389 257.001 245.299 257.168 245.236C257.252 245.204 257.318 245.179 257.363 245.162C257.385 245.153 257.403 245.146 257.415 245.142C257.421 245.139 257.425 245.138 257.428 245.136C257.43 245.136 257.431 245.135 257.432 245.135C257.432 245.135 257.432 245.135 257.433 245.135C257.433 245.135 257.433 245.135 257.433 245.135C257.433 245.135 257.433 245.135 257.433 245.135C257.433 245.135 257.433 245.134 257.433 245.134C257.433 245.134 257.433 245.134 257.252 244.669C257.071 244.203 257.071 244.203 257.071 244.203C257.071 244.203 257.071 244.203 257.071 244.203C257.071 244.203 257.071 244.203 257.071 244.203C257.07 244.203 257.07 244.203 257.07 244.203C257.07 244.203 257.07 244.203 257.07 244.203C257.069 244.203 257.068 244.204 257.067 244.204C257.064 244.205 257.06 244.207 257.054 244.209C257.043 244.213 257.026 244.22 257.004 244.228C256.96 244.245 256.896 244.27 256.814 244.301C256.649 244.363 256.415 244.451 256.133 244.554L256.304 245.023ZM257.252 244.669C257.447 245.129 257.447 245.129 257.447 245.129C257.447 245.129 257.447 245.129 257.447 245.129C257.447 245.129 257.447 245.129 257.447 245.129C257.447 245.129 257.447 245.129 257.447 245.129C257.448 245.129 257.448 245.128 257.449 245.128C257.449 245.128 257.451 245.127 257.452 245.127C257.456 245.125 257.461 245.123 257.467 245.12C257.48 245.115 257.499 245.107 257.524 245.096C257.573 245.075 257.644 245.044 257.734 245.004C257.914 244.926 258.169 244.813 258.467 244.677L258.259 244.222L258.051 243.767C257.759 243.901 257.509 244.011 257.333 244.088C257.245 244.127 257.176 244.157 257.128 244.177C257.105 244.188 257.087 244.195 257.074 244.201C257.068 244.203 257.064 244.205 257.061 244.206C257.059 244.207 257.058 244.207 257.058 244.208C257.057 244.208 257.057 244.208 257.057 244.208C257.057 244.208 257.057 244.208 257.057 244.208C257.057 244.208 257.057 244.208 257.057 244.208L257.057 244.208C257.057 244.208 257.057 244.208 257.252 244.669ZM260.238 243.254L260.473 243.695C260.822 243.509 261.162 243.318 261.46 243.131L261.194 242.707L260.929 242.283C260.657 242.454 260.34 242.633 260.003 242.812L260.238 243.254ZM261.194 242.707L261.46 243.131C261.828 242.9 262.199 242.646 262.565 242.379L262.271 241.975L261.977 241.571C261.626 241.826 261.274 242.067 260.929 242.283L261.194 242.707ZM264.307 240.349L264.633 240.728C264.987 240.423 265.319 240.127 265.618 239.854L265.281 239.485L264.943 239.116C264.651 239.383 264.326 239.673 263.98 239.971L264.307 240.349ZM265.281 239.485L265.618 239.854C265.985 239.518 266.292 239.232 266.557 238.973L266.207 238.616L265.857 238.259C265.604 238.506 265.308 238.783 264.943 239.116L265.281 239.485ZM267.811 236.657L268.23 236.929C268.431 236.619 268.65 236.265 268.91 235.841L268.483 235.58L268.057 235.318C267.797 235.743 267.585 236.086 267.391 236.384L267.811 236.657ZM268.483 235.58L268.91 235.841C269.107 235.518 269.29 235.233 269.469 234.948L269.045 234.683L268.621 234.417C268.451 234.689 268.257 234.991 268.057 235.318L268.483 235.58ZM269.98 232.792L270.459 232.936C270.563 232.59 270.637 232.219 270.679 231.805L270.181 231.755L269.684 231.705C269.648 232.058 269.586 232.366 269.501 232.648L269.98 232.792ZM270.181 231.755L270.679 231.805C270.69 231.698 270.702 231.603 270.715 231.502L270.219 231.438L269.723 231.375C269.711 231.47 269.696 231.581 269.684 231.705L270.181 231.755ZM270.246 230.804L270.742 230.748C270.728 230.621 270.702 230.491 270.661 230.352L270.181 230.492L269.702 230.633C269.727 230.719 269.741 230.793 269.749 230.86L270.246 230.804ZM270.181 230.492L270.661 230.352C270.606 230.163 270.541 229.987 270.46 229.821L270.01 230.04L269.561 230.259C269.613 230.365 269.659 230.487 269.702 230.633L270.181 230.492ZM269.411 229.287L269.736 228.907C269.607 228.796 269.465 228.689 269.31 228.582L269.026 228.994L268.742 229.405C268.876 229.498 268.989 229.584 269.087 229.667L269.411 229.287ZM269.026 228.994L269.31 228.582C268.99 228.362 268.664 228.197 268.327 228.081L268.163 228.553L268 229.026C268.249 229.112 268.495 229.235 268.742 229.405L269.026 228.994ZM266.244 228.371L266.202 227.873C265.877 227.9 265.544 227.946 265.202 228L265.281 228.494L265.359 228.988C265.688 228.935 265.995 228.894 266.286 228.87L266.244 228.371ZM265.281 228.494L265.202 228C264.965 228.038 264.745 228.083 264.537 228.135L264.659 228.62L264.78 229.105C264.957 229.061 265.148 229.022 265.359 228.988L265.281 228.494ZM263.475 229.068L263.244 228.624C263.047 228.727 262.855 228.84 262.66 228.964L262.927 229.386L263.195 229.809C263.372 229.697 263.54 229.598 263.707 229.511L263.475 229.068ZM262.927 229.386L262.66 228.964C262.494 229.069 262.331 229.171 262.183 229.273L262.467 229.685L262.751 230.096C262.878 230.008 263.02 229.919 263.195 229.809L262.927 229.386ZM261.729 230.479L261.283 230.253C261.192 230.433 261.117 230.632 261.054 230.856L261.535 230.992L262.017 231.127C262.066 230.952 262.119 230.816 262.175 230.706L261.729 230.479ZM261.535 230.992L261.054 230.856C260.995 231.065 260.947 231.3 260.912 231.542L261.407 231.614L261.902 231.686C261.932 231.478 261.972 231.287 262.017 231.127L261.535 230.992ZM261.365 232.882L260.868 232.936C260.898 233.211 260.962 233.516 261.111 233.755L261.535 233.49L261.959 233.225C261.931 233.18 261.887 233.056 261.862 232.828L261.365 232.882ZM261.535 233.49L261.111 233.755C261.362 234.156 261.594 234.488 261.822 234.766L262.209 234.449L262.595 234.133C262.403 233.898 262.196 233.603 261.959 233.225L261.535 233.49ZM264.147 235.687L264.008 236.167C264.339 236.263 264.73 236.358 265.152 236.47L265.281 235.987L265.409 235.504C264.954 235.383 264.606 235.299 264.286 235.206L264.147 235.687ZM265.281 235.987L265.152 236.47C265.385 236.533 265.632 236.575 265.898 236.609L265.961 236.113L266.024 235.617C265.782 235.586 265.583 235.551 265.409 235.504L265.281 235.987ZM267.34 236.246L267.294 236.744C267.505 236.764 267.732 236.786 267.976 236.812L268.029 236.315L268.082 235.817C267.832 235.791 267.601 235.768 267.386 235.748L267.34 236.246ZM268.029 236.315L267.976 236.812C268.489 236.867 269.055 236.881 269.631 236.868L269.62 236.368L269.609 235.869C269.061 235.881 268.54 235.866 268.082 235.817L268.029 236.315ZM272.793 236.073L272.87 236.567C273.537 236.463 274.111 236.345 274.49 236.237L274.353 235.756L274.217 235.275C273.894 235.367 273.363 235.478 272.715 235.579L272.793 236.073ZM274.353 235.756L274.49 236.237C275.178 236.042 275.812 235.859 276.406 235.671L276.256 235.195L276.105 234.718C275.526 234.901 274.904 235.081 274.217 235.275L274.353 235.756ZM279.888 233.629L280.146 234.057C280.698 233.724 281.249 233.339 281.822 232.881L281.51 232.491L281.197 232.1C280.656 232.533 280.141 232.893 279.63 233.201L279.888 233.629ZM281.51 232.491L281.822 232.881C282.294 232.503 282.743 232.14 283.171 231.789L282.855 231.403L282.538 231.016C282.113 231.363 281.666 231.725 281.197 232.1L281.51 232.491ZM285.494 229.18L285.823 229.557C286.827 228.683 287.672 227.909 288.394 227.212L288.046 226.852L287.699 226.492C286.992 227.176 286.16 227.939 285.166 228.803L285.494 229.18ZM290.423 224.348L290.803 224.672C291.223 224.18 291.579 223.728 291.9 223.3L291.5 223L291.1 222.7C290.789 223.114 290.447 223.549 290.042 224.024L290.423 224.348Z" fill="#1D2220"/>
</g>
<defs>
<filter id="filter0_d_1_458" x="96.7781" y="134.824" width="297.444" height="122.352" filterUnits="userSpaceOnUse" color-interpolation-filters="sRGB">
<feFlood flood-opacity="0" result="BackgroundImageFix"/>
<feColorMatrix in="SourceAlpha" type="matrix" values="0 0 0 0 0 0 0 0 0 0 0 0 0 0 0 0 0 0 127 0" result="hardAlpha"/>
<feOffset dy="17"/>
<feGaussianBlur stdDeviation="10"/>
<feComposite in2="hardAlpha" operator="out"/>
<feColorMatrix type="matrix" values="0 0 0 0 0.113725 0 0 0 0 0.133333 0 0 0 0 0.12549 0 0 0 0.15 0"/>
<feBlend mode="normal" in2="BackgroundImageFix" result="effect1_dropShadow_1_458"/>
<feBlend mode="normal" in="SourceGraphic" in2="effect1_dropShadow_1_458" result="shape"/>
</filter>
<filter id="filter1_d_1_458" x="97" y="232" width="145" height="48" filterUnits="userSpaceOnUse" color-interpolation-filters="sRGB">
<feFlood flood-opacity="0" result="BackgroundImageFix"/>
<feColorMatrix in="SourceAlpha" type="matrix" values="0 0 0 0 0 0 0 0 0 0 0 0 0 0 0 0 0 0 127 0" result="hardAlpha"/>
<feOffset dy="4"/>
<feGaussianBlur stdDeviation="5"/>
<feComposite in2="hardAlpha" operator="out"/>
<feColorMatrix type="matrix" values="0 0 0 0 0.00392157 0 0 0 0 0.623529 0 0 0 0 0.32549 0 0 0 0.16 0"/>
<feBlend mode="normal" in2="BackgroundImageFix" result="effect1_dropShadow_1_458"/>
<feBlend mode="normal" in="SourceGraphic" in2="effect1_dropShadow_1_458" result="shape"/>
</filter>
<linearGradient id="paint0_linear_1_458" x1="205.5" y1="0" x2="205.5" y2="365" gradientUnits="userSpaceOnUse">
<stop offset="0.269231" stop-color="#F6F6F6"/>
<stop offset="1" stop-color="#F6F6F6" stop-opacity="0"/>
</linearGradient>
<linearGradient id="paint1_linear_1_458" x1="205.5" y1="349" x2="205.5" y2="365" gradientUnits="userSpaceOnUse">
<stop stop-color="#F6F6F6" stop-opacity="0"/>
<stop offset="0.850567" stop-color="#F6F6F6"/>
</linearGradient>
<clipPath id="clip0_1_458">
<rect width="411" height="365" rx="16" fill="white"/>
</clipPath>
<clipPath id="clip1_1_458">
<path d="M121.256 149.767C121.901 143.171 127.771 138.347 134.367 138.992L362.279 161.284C368.875 161.929 373.699 167.799 373.054 174.395L368.576 220.176L128.721 196.717C122.125 196.072 117.301 190.202 117.946 183.606L121.256 149.767Z" fill="white"/>
</clipPath>
</defs>
</svg>
