<svg width="411" height="365" viewBox="0 0 411 365" fill="none" xmlns="http://www.w3.org/2000/svg">
<g clip-path="url(#clip0_1_728)">
<rect width="411" height="365" rx="16" fill="#F6F6F6"/>
<mask id="mask0_1_728" style="mask-type:luminance" maskUnits="userSpaceOnUse" x="-4" y="137" width="417" height="233">
<path d="M412.736 137H-4V370H412.736V137Z" fill="white"/>
</mask>
<g mask="url(#mask0_1_728)">
<path d="M444.32 400.544H-35.584V106.458H444.32L444.32 400.544ZM-34.9637 399.937H443.7V107.065H-34.9637V399.937Z" fill="#1D2220" fill-opacity="0.09"/>
<path d="M444.01 355.914H-35.2738V356.521H444.01V355.914Z" fill="#1D2220" fill-opacity="0.09"/>
<path d="M444.01 341.24H-35.2738V341.847H444.01V341.24Z" fill="#1D2220" fill-opacity="0.09"/>
<path d="M444.01 326.566H-35.2738V327.173H444.01V326.566Z" fill="#1D2220" fill-opacity="0.09"/>
<path d="M444.01 311.892H-35.2738V312.499H444.01V311.892Z" fill="#1D2220" fill-opacity="0.09"/>
<path d="M444.01 297.218H-35.2738V297.825H444.01V297.218Z" fill="#1D2220" fill-opacity="0.09"/>
<path d="M444.01 282.544H-35.2738V283.151H444.01V282.544Z" fill="#1D2220" fill-opacity="0.09"/>
<path d="M444.01 267.87H-35.2738V268.477H444.01V267.87Z" fill="#1D2220" fill-opacity="0.09"/>
<path d="M444.01 253.196H-35.2738V253.803H444.01V253.196Z" fill="#1D2220" fill-opacity="0.09"/>
<path d="M444.01 238.522H-35.2738V239.129H444.01V238.522Z" fill="#1D2220" fill-opacity="0.09"/>
<path d="M444.01 223.85H-35.2738V224.457H444.01V223.85Z" fill="#1D2220" fill-opacity="0.09"/>
<path d="M444.01 209.176H-35.2738V209.782H444.01V209.176Z" fill="#1D2220" fill-opacity="0.09"/>
<path d="M444.01 194.501H-35.2738V195.108H444.01V194.501Z" fill="#1D2220" fill-opacity="0.09"/>
<path d="M444.01 179.828H-35.2738V180.435H444.01V179.828Z" fill="#1D2220" fill-opacity="0.09"/>
<path d="M444.01 165.154H-35.2738V165.76H444.01V165.154Z" fill="#1D2220" fill-opacity="0.09"/>
<path d="M444.01 150.479H-35.2738V151.086H444.01V150.479Z" fill="#1D2220" fill-opacity="0.09"/>
<path d="M400.749 106.762H400.128V400.24H400.749V106.762Z" fill="#1D2220" fill-opacity="0.09"/>
<path d="M386.225 106.762H385.605V400.24H386.225V106.762Z" fill="#1D2220" fill-opacity="0.09"/>
<path d="M371.701 106.762H371.081V400.24H371.701V106.762Z" fill="#1D2220" fill-opacity="0.09"/>
<path d="M357.177 106.762H356.557V400.24H357.177V106.762Z" fill="#1D2220" fill-opacity="0.09"/>
<path d="M342.654 106.762H342.034V400.24H342.654V106.762Z" fill="#1D2220" fill-opacity="0.09"/>
<path d="M328.13 106.762H327.51V400.24H328.13V106.762Z" fill="#1D2220" fill-opacity="0.09"/>
<path d="M313.606 106.762H312.986V400.24H313.606V106.762Z" fill="#1D2220" fill-opacity="0.09"/>
<path d="M299.083 106.762H298.462V400.24H299.083V106.762Z" fill="#1D2220" fill-opacity="0.09"/>
<path d="M284.559 106.762H283.939V400.24H284.559V106.762Z" fill="#1D2220" fill-opacity="0.09"/>
<path d="M270.035 106.762H269.415V400.24H270.035V106.762Z" fill="#1D2220" fill-opacity="0.09"/>
<path d="M255.511 106.762H254.891V400.24H255.511V106.762Z" fill="#1D2220" fill-opacity="0.09"/>
<path d="M240.987 106.762H240.367V400.24H240.987V106.762Z" fill="#1D2220" fill-opacity="0.09"/>
<path d="M226.464 106.762H225.844V400.24H226.464V106.762Z" fill="#1D2220" fill-opacity="0.09"/>
<path d="M211.94 106.762H211.32V400.24H211.94V106.762Z" fill="#1D2220" fill-opacity="0.09"/>
<path d="M197.416 106.762H196.796V400.24H197.416V106.762Z" fill="#1D2220" fill-opacity="0.09"/>
<path d="M182.893 106.762H182.272V400.24H182.893V106.762Z" fill="#1D2220" fill-opacity="0.09"/>
<path d="M168.369 106.762H167.749V400.24H168.369V106.762Z" fill="#1D2220" fill-opacity="0.09"/>
<path d="M153.845 106.762H153.225V400.24H153.845V106.762Z" fill="#1D2220" fill-opacity="0.09"/>
<path d="M139.321 106.762H138.701V400.24H139.321V106.762Z" fill="#1D2220" fill-opacity="0.09"/>
<path d="M124.797 106.762H124.177V400.24H124.797V106.762Z" fill="#1D2220" fill-opacity="0.09"/>
<path d="M110.274 106.762H109.654V400.24H110.274V106.762Z" fill="#1D2220" fill-opacity="0.09"/>
<path d="M95.75 106.762H95.1299V400.24H95.75V106.762Z" fill="#1D2220" fill-opacity="0.09"/>
<path d="M81.2263 106.762H80.6062V400.24H81.2263V106.762Z" fill="#1D2220" fill-opacity="0.09"/>
<path d="M66.7027 106.762H66.0825V400.24H66.7027V106.762Z" fill="#1D2220" fill-opacity="0.09"/>
<path d="M52.1787 106.762H51.5586V400.24H52.1787V106.762Z" fill="#1D2220" fill-opacity="0.09"/>
<path d="M37.6552 106.762H37.035V400.24H37.6552V106.762Z" fill="#1D2220" fill-opacity="0.09"/>
<path d="M23.1315 106.762H22.5114V400.24H23.1315V106.762Z" fill="#1D2220" fill-opacity="0.09"/>
<path d="M8.60733 106.762H7.98718V400.24H8.60733V106.762Z" fill="#1D2220" fill-opacity="0.09"/>
</g>
<rect width="411" height="365" fill="url(#paint0_linear_1_728)"/>
<path d="M33.492 55.336C32.1667 55.336 30.9533 55.0933 29.852 54.608C28.7507 54.104 27.8173 53.4227 27.052 52.564C26.2867 51.7053 25.736 50.744 25.4 49.68L27.78 48.7C28.284 50.044 29.0307 51.08 30.02 51.808C31.028 52.5173 32.204 52.872 33.548 52.872C34.3693 52.872 35.088 52.7413 35.704 52.48C36.32 52.2187 36.796 51.8547 37.132 51.388C37.4867 50.9027 37.664 50.3427 37.664 49.708C37.664 48.8307 37.412 48.14 36.908 47.636C36.4227 47.1133 35.704 46.7213 34.752 46.46L30.916 45.284C29.404 44.8173 28.2467 44.08 27.444 43.072C26.6413 42.064 26.24 40.9067 26.24 39.6C26.24 38.4613 26.5107 37.4627 27.052 36.604C27.612 35.7267 28.3773 35.0453 29.348 34.56C30.3373 34.056 31.4573 33.804 32.708 33.804C33.9587 33.804 35.088 34.028 36.096 34.476C37.1227 34.924 37.9907 35.5307 38.7 36.296C39.4093 37.0427 39.932 37.9013 40.268 38.872L37.916 39.852C37.468 38.676 36.796 37.7893 35.9 37.192C35.004 36.576 33.9493 36.268 32.736 36.268C31.9893 36.268 31.3267 36.3987 30.748 36.66C30.188 36.9027 29.7493 37.2667 29.432 37.752C29.1333 38.2187 28.984 38.7787 28.984 39.432C28.984 40.1973 29.2267 40.8787 29.712 41.476C30.1973 42.0733 30.9347 42.5307 31.924 42.848L35.424 43.884C37.0667 44.388 38.308 45.1067 39.148 46.04C39.988 46.9733 40.408 48.1307 40.408 49.512C40.408 50.6507 40.1093 51.6587 39.512 52.536C38.9333 53.4133 38.1213 54.104 37.076 54.608C36.0493 55.0933 34.8547 55.336 33.492 55.336ZM51.6216 55.336C50.1656 55.336 48.8682 54.9907 47.7296 54.3C46.5909 53.6093 45.6949 52.6667 45.0416 51.472C44.3882 50.2587 44.0616 48.9053 44.0616 47.412C44.0616 45.9 44.3789 44.556 45.0136 43.38C45.6669 42.204 46.5442 41.28 47.6456 40.608C48.7656 39.9173 50.0162 39.572 51.3976 39.572C52.5176 39.572 53.5069 39.7773 54.3656 40.188C55.2429 40.58 55.9802 41.1213 56.5776 41.812C57.1936 42.484 57.6602 43.2587 57.9776 44.136C58.3136 44.9947 58.4816 45.8907 58.4816 46.824C58.4816 47.0293 58.4629 47.2627 58.4256 47.524C58.4069 47.7667 58.3789 48 58.3416 48.224H45.9656V45.984H56.8296L55.5976 46.992C55.7656 46.0213 55.6722 45.1533 55.3176 44.388C54.9629 43.6227 54.4402 43.016 53.7496 42.568C53.0589 42.12 52.2749 41.896 51.3976 41.896C50.5202 41.896 49.7176 42.12 48.9896 42.568C48.2616 43.016 47.6922 43.66 47.2816 44.5C46.8896 45.3213 46.7309 46.3013 46.8056 47.44C46.7309 48.5413 46.8989 49.512 47.3096 50.352C47.7389 51.1733 48.3362 51.8173 49.1016 52.284C49.8856 52.732 50.7349 52.956 51.6496 52.956C52.6576 52.956 53.5069 52.7227 54.1976 52.256C54.8882 51.7893 55.4482 51.192 55.8776 50.464L58.0616 51.584C57.7629 52.2747 57.2962 52.9093 56.6616 53.488C56.0456 54.048 55.3082 54.496 54.4496 54.832C53.6096 55.168 52.6669 55.336 51.6216 55.336ZM69.3808 55.336C67.9248 55.336 66.6274 54.9907 65.4888 54.3C64.3501 53.6093 63.4541 52.6667 62.8008 51.472C62.1474 50.2587 61.8208 48.9053 61.8208 47.412C61.8208 45.9 62.1381 44.556 62.7728 43.38C63.4261 42.204 64.3034 41.28 65.4048 40.608C66.5248 39.9173 67.7754 39.572 69.1568 39.572C70.2768 39.572 71.2661 39.7773 72.1248 40.188C73.0021 40.58 73.7394 41.1213 74.3368 41.812C74.9528 42.484 75.4194 43.2587 75.7368 44.136C76.0728 44.9947 76.2408 45.8907 76.2408 46.824C76.2408 47.0293 76.2221 47.2627 76.1848 47.524C76.1661 47.7667 76.1381 48 76.1008 48.224H63.7248V45.984H74.5888L73.3568 46.992C73.5248 46.0213 73.4314 45.1533 73.0768 44.388C72.7221 43.6227 72.1994 43.016 71.5088 42.568C70.8181 42.12 70.0341 41.896 69.1568 41.896C68.2794 41.896 67.4768 42.12 66.7488 42.568C66.0208 43.016 65.4514 43.66 65.0408 44.5C64.6488 45.3213 64.4901 46.3013 64.5648 47.44C64.4901 48.5413 64.6581 49.512 65.0688 50.352C65.4981 51.1733 66.0954 51.8173 66.8608 52.284C67.6448 52.732 68.4941 52.956 69.4088 52.956C70.4168 52.956 71.2661 52.7227 71.9568 52.256C72.6474 51.7893 73.2074 51.192 73.6368 50.464L75.8208 51.584C75.5221 52.2747 75.0554 52.9093 74.4208 53.488C73.8048 54.048 73.0674 54.496 72.2088 54.832C71.3688 55.168 70.4261 55.336 69.3808 55.336ZM91.7278 55.168C90.2532 55.168 89.1145 54.748 88.3118 53.908C87.5278 53.068 87.1358 51.8827 87.1358 50.352V42.4H84.3918V39.908H84.9518C85.6238 39.908 86.1558 39.7027 86.5478 39.292C86.9398 38.8813 87.1358 38.34 87.1358 37.668V36.436H89.7398V39.908H93.1278V42.4H89.7398V50.268C89.7398 50.772 89.8145 51.2107 89.9638 51.584C90.1318 51.9573 90.4025 52.256 90.7758 52.48C91.1492 52.6853 91.6438 52.788 92.2598 52.788C92.3905 52.788 92.5492 52.7787 92.7358 52.76C92.9412 52.7413 93.1278 52.7227 93.2958 52.704V55C93.0532 55.056 92.7825 55.0933 92.4838 55.112C92.1852 55.1493 91.9332 55.168 91.7278 55.168ZM97.2574 55V33.804H99.8614V42.848L99.3854 42.596C99.7587 41.644 100.356 40.9067 101.177 40.384C102.017 39.8427 102.997 39.572 104.117 39.572C105.2 39.572 106.161 39.8147 107.001 40.3C107.86 40.7853 108.532 41.4573 109.017 42.316C109.521 43.1747 109.773 44.1453 109.773 45.228V55H107.141V46.068C107.141 45.228 106.983 44.5187 106.665 43.94C106.367 43.3613 105.947 42.9133 105.405 42.596C104.864 42.26 104.239 42.092 103.529 42.092C102.839 42.092 102.213 42.26 101.653 42.596C101.093 42.9133 100.655 43.3707 100.337 43.968C100.02 44.5467 99.8614 45.2467 99.8614 46.068V55H97.2574ZM121.004 55.336C119.548 55.336 118.25 54.9907 117.112 54.3C115.973 53.6093 115.077 52.6667 114.424 51.472C113.77 50.2587 113.444 48.9053 113.444 47.412C113.444 45.9 113.761 44.556 114.396 43.38C115.049 42.204 115.926 41.28 117.028 40.608C118.148 39.9173 119.398 39.572 120.78 39.572C121.9 39.572 122.889 39.7773 123.748 40.188C124.625 40.58 125.362 41.1213 125.96 41.812C126.576 42.484 127.042 43.2587 127.36 44.136C127.696 44.9947 127.864 45.8907 127.864 46.824C127.864 47.0293 127.845 47.2627 127.808 47.524C127.789 47.7667 127.761 48 127.724 48.224H115.348V45.984H126.212L124.98 46.992C125.148 46.0213 125.054 45.1533 124.7 44.388C124.345 43.6227 123.822 43.016 123.132 42.568C122.441 42.12 121.657 41.896 120.78 41.896C119.902 41.896 119.1 42.12 118.372 42.568C117.644 43.016 117.074 43.66 116.664 44.5C116.272 45.3213 116.113 46.3013 116.188 47.44C116.113 48.5413 116.281 49.512 116.692 50.352C117.121 51.1733 117.718 51.8173 118.484 52.284C119.268 52.732 120.117 52.956 121.032 52.956C122.04 52.956 122.889 52.7227 123.58 52.256C124.27 51.7893 124.83 51.192 125.26 50.464L127.444 51.584C127.145 52.2747 126.678 52.9093 126.044 53.488C125.428 54.048 124.69 54.496 123.832 54.832C122.992 55.168 122.049 55.336 121.004 55.336ZM248.166 55.336C246.71 55.336 245.394 55 244.218 54.328C243.042 53.6373 242.109 52.6947 241.418 51.5C240.727 50.3053 240.382 48.952 240.382 47.44C240.382 45.928 240.718 44.584 241.39 43.408C242.081 42.232 243.014 41.2987 244.19 40.608C245.366 39.9173 246.691 39.572 248.166 39.572C249.622 39.572 250.938 39.9173 252.114 40.608C253.29 41.28 254.214 42.204 254.886 43.38C255.577 44.556 255.922 45.9093 255.922 47.44C255.922 48.9707 255.567 50.3333 254.858 51.528C254.149 52.704 253.206 53.6373 252.03 54.328C250.873 55 249.585 55.336 248.166 55.336ZM248.166 52.816C249.099 52.816 249.939 52.5827 250.686 52.116C251.451 51.6493 252.049 51.0053 252.478 50.184C252.926 49.3627 253.15 48.448 253.15 47.44C253.15 46.4133 252.926 45.508 252.478 44.724C252.049 43.9213 251.451 43.2867 250.686 42.82C249.939 42.3347 249.099 42.092 248.166 42.092C247.214 42.092 246.355 42.3347 245.59 42.82C244.843 43.2867 244.246 43.9213 243.798 44.724C243.35 45.508 243.126 46.4133 243.126 47.44C243.126 48.448 243.35 49.3627 243.798 50.184C244.246 51.0053 244.843 51.6493 245.59 52.116C246.355 52.5827 247.214 52.816 248.166 52.816ZM261.01 55V42.4H258.126V39.908H261.01V38.844C261.01 37.7613 261.243 36.8467 261.71 36.1C262.195 35.3533 262.83 34.784 263.614 34.392C264.416 34 265.303 33.804 266.274 33.804C266.479 33.804 266.703 33.8227 266.946 33.86C267.207 33.8787 267.422 33.9067 267.59 33.944V36.268C267.44 36.2307 267.263 36.212 267.058 36.212C266.852 36.1933 266.694 36.184 266.582 36.184C265.723 36.184 265.014 36.3893 264.454 36.8C263.912 37.2107 263.642 37.892 263.642 38.844V39.908H267.226V42.4H263.642V55H261.01ZM283.446 55.336C281.99 55.336 280.693 54.9907 279.554 54.3C278.416 53.6093 277.52 52.6667 276.866 51.472C276.213 50.2587 275.886 48.9053 275.886 47.412C275.886 45.9 276.204 44.556 276.838 43.38C277.492 42.204 278.369 41.28 279.47 40.608C280.59 39.9173 281.841 39.572 283.222 39.572C284.342 39.572 285.332 39.7773 286.19 40.188C287.068 40.58 287.805 41.1213 288.402 41.812C289.018 42.484 289.485 43.2587 289.802 44.136C290.138 44.9947 290.306 45.8907 290.306 46.824C290.306 47.0293 290.288 47.2627 290.25 47.524C290.232 47.7667 290.204 48 290.166 48.224H277.79V45.984H288.654L287.422 46.992C287.59 46.0213 287.497 45.1533 287.142 44.388C286.788 43.6227 286.265 43.016 285.574 42.568C284.884 42.12 284.1 41.896 283.222 41.896C282.345 41.896 281.542 42.12 280.814 42.568C280.086 43.016 279.517 43.66 279.106 44.5C278.714 45.3213 278.556 46.3013 278.63 47.44C278.556 48.5413 278.724 49.512 279.134 50.352C279.564 51.1733 280.161 51.8173 280.926 52.284C281.71 52.732 282.56 52.956 283.474 52.956C284.482 52.956 285.332 52.7227 286.022 52.256C286.713 51.7893 287.273 51.192 287.702 50.464L289.886 51.584C289.588 52.2747 289.121 52.9093 288.486 53.488C287.87 54.048 287.133 54.496 286.274 54.832C285.434 55.168 284.492 55.336 283.446 55.336ZM298.188 55L292.28 39.908H295.192L299.924 52.676H298.916L303.676 39.908H306.588L300.652 55H298.188ZM316.148 55.336C314.692 55.336 313.395 54.9907 312.256 54.3C311.118 53.6093 310.222 52.6667 309.568 51.472C308.915 50.2587 308.588 48.9053 308.588 47.412C308.588 45.9 308.906 44.556 309.54 43.38C310.194 42.204 311.071 41.28 312.172 40.608C313.292 39.9173 314.543 39.572 315.924 39.572C317.044 39.572 318.034 39.7773 318.892 40.188C319.77 40.58 320.507 41.1213 321.104 41.812C321.72 42.484 322.187 43.2587 322.504 44.136C322.84 44.9947 323.008 45.8907 323.008 46.824C323.008 47.0293 322.99 47.2627 322.952 47.524C322.934 47.7667 322.906 48 322.868 48.224H310.492V45.984H321.356L320.124 46.992C320.292 46.0213 320.199 45.1533 319.844 44.388C319.49 43.6227 318.967 43.016 318.276 42.568C317.586 42.12 316.802 41.896 315.924 41.896C315.047 41.896 314.244 42.12 313.516 42.568C312.788 43.016 312.219 43.66 311.808 44.5C311.416 45.3213 311.258 46.3013 311.332 47.44C311.258 48.5413 311.426 49.512 311.836 50.352C312.266 51.1733 312.863 51.8173 313.628 52.284C314.412 52.732 315.262 52.956 316.176 52.956C317.184 52.956 318.034 52.7227 318.724 52.256C319.415 51.7893 319.975 51.192 320.404 50.464L322.588 51.584C322.29 52.2747 321.823 52.9093 321.188 53.488C320.572 54.048 319.835 54.496 318.976 54.832C318.136 55.168 317.194 55.336 316.148 55.336ZM326.964 55V39.908H329.512V42.68L329.232 42.288C329.586 41.4293 330.128 40.7947 330.856 40.384C331.584 39.9547 332.47 39.74 333.516 39.74H334.44V42.204H333.124C332.06 42.204 331.201 42.54 330.548 43.212C329.894 43.8653 329.568 44.7987 329.568 46.012V55H326.964ZM338.125 61.16C337.789 61.16 337.453 61.132 337.117 61.076C336.781 61.02 336.463 60.9267 336.165 60.796V58.472C336.37 58.5093 336.622 58.5467 336.921 58.584C337.238 58.64 337.546 58.668 337.845 58.668C338.722 58.668 339.385 58.472 339.833 58.08C340.299 57.7067 340.738 57.0533 341.149 56.12L342.101 53.852L342.045 56.12L335.605 39.908H338.433L343.445 52.788H342.605L347.589 39.908H350.473L343.669 56.792C343.351 57.5947 342.941 58.3227 342.437 58.976C341.951 59.648 341.354 60.18 340.645 60.572C339.935 60.964 339.095 61.16 338.125 61.16ZM26.016 94V78.908H28.564V81.988L28.2 81.512C28.5733 80.56 29.1707 79.832 29.992 79.328C30.8133 78.824 31.7373 78.572 32.764 78.572C33.94 78.572 34.9947 78.8987 35.928 79.552C36.88 80.2053 37.5333 81.064 37.888 82.128L37.16 82.156C37.552 80.98 38.2147 80.0933 39.148 79.496C40.0813 78.88 41.1173 78.572 42.256 78.572C43.3013 78.572 44.244 78.8147 45.084 79.3C45.9427 79.7853 46.624 80.4573 47.128 81.316C47.632 82.1747 47.884 83.1453 47.884 84.228V94H45.252V85.068C45.252 84.228 45.1027 83.5187 44.804 82.94C44.5053 82.3613 44.0947 81.9133 43.572 81.596C43.068 81.26 42.4707 81.092 41.78 81.092C41.108 81.092 40.5013 81.26 39.96 81.596C39.4373 81.9133 39.0173 82.3707 38.7 82.968C38.4013 83.5467 38.252 84.2467 38.252 85.068V94H35.62V85.068C35.62 84.228 35.4707 83.5187 35.172 82.94C34.8733 82.3613 34.4627 81.9133 33.94 81.596C33.436 81.26 32.8387 81.092 32.148 81.092C31.476 81.092 30.8693 81.26 30.328 81.596C29.8053 81.9133 29.3853 82.3707 29.068 82.968C28.7693 83.5467 28.62 84.2467 28.62 85.068V94H26.016ZM59.0864 94.336C57.6304 94.336 56.3331 93.9907 55.1944 93.3C54.0557 92.6093 53.1597 91.6667 52.5064 90.472C51.8531 89.2587 51.5264 87.9053 51.5264 86.412C51.5264 84.9 51.8437 83.556 52.4784 82.38C53.1317 81.204 54.0091 80.28 55.1104 79.608C56.2304 78.9173 57.4811 78.572 58.8624 78.572C59.9824 78.572 60.9717 78.7773 61.8304 79.188C62.7077 79.58 63.4451 80.1213 64.0424 80.812C64.6584 81.484 65.1251 82.2587 65.4424 83.136C65.7784 83.9947 65.9464 84.8907 65.9464 85.824C65.9464 86.0293 65.9277 86.2627 65.8904 86.524C65.8717 86.7667 65.8437 87 65.8064 87.224H53.4304V84.984H64.2944L63.0624 85.992C63.2304 85.0213 63.1371 84.1533 62.7824 83.388C62.4277 82.6227 61.9051 82.016 61.2144 81.568C60.5237 81.12 59.7397 80.896 58.8624 80.896C57.9851 80.896 57.1824 81.12 56.4544 81.568C55.7264 82.016 55.1571 82.66 54.7464 83.5C54.3544 84.3213 54.1957 85.3013 54.2704 86.44C54.1957 87.5413 54.3637 88.512 54.7744 89.352C55.2037 90.1733 55.8011 90.8173 56.5664 91.284C57.3504 91.732 58.1997 91.956 59.1144 91.956C60.1224 91.956 60.9717 91.7227 61.6624 91.256C62.3531 90.7893 62.9131 90.192 63.3424 89.464L65.5264 90.584C65.2277 91.2747 64.7611 91.9093 64.1264 92.488C63.5104 93.048 62.7731 93.496 61.9144 93.832C61.0744 94.168 60.1317 94.336 59.0864 94.336ZM75.3056 94.336C73.7936 94.336 72.4776 93.9627 71.3576 93.216C70.2376 92.4693 69.4443 91.4613 68.9776 90.192L71.0496 89.184C71.479 90.08 72.067 90.7893 72.8136 91.312C73.5603 91.8347 74.391 92.096 75.3056 92.096C76.127 92.096 76.8083 91.9 77.3496 91.508C77.891 91.116 78.1616 90.6027 78.1616 89.968C78.1616 89.52 78.031 89.1653 77.7696 88.904C77.527 88.624 77.2283 88.4093 76.8736 88.26C76.519 88.092 76.1923 87.9707 75.8936 87.896L73.6256 87.252C72.263 86.86 71.2643 86.3 70.6296 85.572C70.0136 84.844 69.7056 83.9947 69.7056 83.024C69.7056 82.128 69.9296 81.3533 70.3776 80.7C70.8443 80.028 71.4696 79.5053 72.2536 79.132C73.0563 78.7587 73.9523 78.572 74.9416 78.572C76.267 78.572 77.4523 78.908 78.4976 79.58C79.5616 80.252 80.3176 81.1947 80.7656 82.408L78.6376 83.388C78.3016 82.604 77.7976 81.988 77.1256 81.54C76.4536 81.0733 75.6976 80.84 74.8576 80.84C74.0923 80.84 73.4856 81.036 73.0376 81.428C72.5896 81.8013 72.3656 82.2773 72.3656 82.856C72.3656 83.2853 72.4776 83.64 72.7016 83.92C72.9256 84.1813 73.1963 84.3867 73.5136 84.536C73.831 84.6667 74.139 84.7787 74.4376 84.872L76.9016 85.6C78.1336 85.9547 79.0856 86.5053 79.7576 87.252C80.4483 87.9987 80.7936 88.8947 80.7936 89.94C80.7936 90.78 80.5603 91.536 80.0936 92.208C79.627 92.88 78.983 93.4027 78.1616 93.776C77.3403 94.1493 76.3883 94.336 75.3056 94.336ZM90.1664 94.336C88.6544 94.336 87.3384 93.9627 86.2184 93.216C85.0984 92.4693 84.3051 91.4613 83.8384 90.192L85.9104 89.184C86.3397 90.08 86.9277 90.7893 87.6744 91.312C88.4211 91.8347 89.2517 92.096 90.1664 92.096C90.9877 92.096 91.6691 91.9 92.2104 91.508C92.7517 91.116 93.0224 90.6027 93.0224 89.968C93.0224 89.52 92.8917 89.1653 92.6304 88.904C92.3877 88.624 92.0891 88.4093 91.7344 88.26C91.3797 88.092 91.0531 87.9707 90.7544 87.896L88.4864 87.252C87.1237 86.86 86.1251 86.3 85.4904 85.572C84.8744 84.844 84.5664 83.9947 84.5664 83.024C84.5664 82.128 84.7904 81.3533 85.2384 80.7C85.7051 80.028 86.3304 79.5053 87.1144 79.132C87.9171 78.7587 88.8131 78.572 89.8024 78.572C91.1277 78.572 92.3131 78.908 93.3584 79.58C94.4224 80.252 95.1784 81.1947 95.6264 82.408L93.4984 83.388C93.1624 82.604 92.6584 81.988 91.9864 81.54C91.3144 81.0733 90.5584 80.84 89.7184 80.84C88.9531 80.84 88.3464 81.036 87.8984 81.428C87.4504 81.8013 87.2264 82.2773 87.2264 82.856C87.2264 83.2853 87.3384 83.64 87.5624 83.92C87.7864 84.1813 88.0571 84.3867 88.3744 84.536C88.6917 84.6667 88.9997 84.7787 89.2984 84.872L91.7624 85.6C92.9944 85.9547 93.9464 86.5053 94.6184 87.252C95.3091 87.9987 95.6544 88.8947 95.6544 89.94C95.6544 90.78 95.4211 91.536 94.9544 92.208C94.4877 92.88 93.8437 93.4027 93.0224 93.776C92.2011 94.1493 91.2491 94.336 90.1664 94.336ZM104.047 94.336C103.058 94.336 102.181 94.1587 101.415 93.804C100.669 93.4307 100.081 92.9267 99.6512 92.292C99.2219 91.6387 99.0072 90.892 99.0072 90.052C99.0072 89.2493 99.1752 88.5307 99.5112 87.896C99.8659 87.2427 100.407 86.692 101.135 86.244C101.882 85.796 102.815 85.4787 103.935 85.292L109.535 84.368V86.552L104.523 87.392C103.553 87.56 102.843 87.868 102.395 88.316C101.966 88.764 101.751 89.3147 101.751 89.968C101.751 90.584 101.994 91.0973 102.479 91.508C102.983 91.9187 103.609 92.124 104.355 92.124C105.307 92.124 106.129 91.928 106.819 91.536C107.529 91.1253 108.079 90.5747 108.471 89.884C108.882 89.1933 109.087 88.428 109.087 87.588V83.752C109.087 82.9307 108.779 82.268 108.163 81.764C107.566 81.2413 106.773 80.98 105.783 80.98C104.925 80.98 104.159 81.204 103.487 81.652C102.834 82.0813 102.349 82.66 102.031 83.388L99.7632 82.212C100.043 81.5213 100.491 80.9053 101.107 80.364C101.723 79.804 102.442 79.3653 103.263 79.048C104.085 78.7307 104.943 78.572 105.839 78.572C106.997 78.572 108.014 78.796 108.891 79.244C109.769 79.6733 110.45 80.28 110.935 81.064C111.439 81.8293 111.691 82.7253 111.691 83.752V94H109.143V91.144L109.619 91.312C109.302 91.9093 108.873 92.432 108.331 92.88C107.79 93.328 107.155 93.6827 106.427 93.944C105.699 94.2053 104.906 94.336 104.047 94.336ZM123.485 100.16C122.421 100.16 121.431 99.992 120.517 99.656C119.621 99.32 118.846 98.8533 118.193 98.256C117.558 97.6773 117.073 96.996 116.737 96.212L119.173 95.092C119.434 95.8013 119.929 96.3987 120.657 96.884C121.403 97.388 122.337 97.64 123.457 97.64C124.315 97.64 125.09 97.472 125.781 97.136C126.49 96.8187 127.05 96.3333 127.461 95.68C127.871 95.0453 128.077 94.2707 128.077 93.356V89.968L128.553 90.472C128.03 91.4987 127.274 92.2827 126.285 92.824C125.314 93.3653 124.241 93.636 123.065 93.636C121.646 93.636 120.377 93.3093 119.257 92.656C118.137 91.984 117.259 91.0787 116.625 89.94C115.99 88.7827 115.673 87.504 115.673 86.104C115.673 84.6853 115.99 83.4067 116.625 82.268C117.259 81.1293 118.127 80.2333 119.229 79.58C120.349 78.908 121.618 78.572 123.037 78.572C124.213 78.572 125.277 78.8427 126.229 79.384C127.199 79.9067 127.974 80.6347 128.553 81.568L128.161 82.268V78.908H130.709V93.356C130.709 94.6627 130.401 95.8293 129.785 96.856C129.169 97.8827 128.31 98.6853 127.209 99.264C126.126 99.8613 124.885 100.16 123.485 100.16ZM123.289 91.116C124.185 91.116 124.987 90.892 125.697 90.444C126.425 89.996 127.003 89.3987 127.433 88.652C127.862 87.8867 128.077 87.0373 128.077 86.104C128.077 85.1893 127.862 84.3493 127.433 83.584C127.003 82.8187 126.425 82.212 125.697 81.764C124.987 81.316 124.185 81.092 123.289 81.092C122.374 81.092 121.543 81.316 120.797 81.764C120.05 82.212 119.462 82.8187 119.033 83.584C118.622 84.3307 118.417 85.1707 118.417 86.104C118.417 87.0373 118.622 87.8867 119.033 88.652C119.462 89.3987 120.041 89.996 120.769 90.444C121.515 90.892 122.355 91.116 123.289 91.116ZM142.25 94.336C140.794 94.336 139.496 93.9907 138.358 93.3C137.219 92.6093 136.323 91.6667 135.67 90.472C135.016 89.2587 134.69 87.9053 134.69 86.412C134.69 84.9 135.007 83.556 135.642 82.38C136.295 81.204 137.172 80.28 138.274 79.608C139.394 78.9173 140.644 78.572 142.026 78.572C143.146 78.572 144.135 78.7773 144.994 79.188C145.871 79.58 146.608 80.1213 147.206 80.812C147.822 81.484 148.288 82.2587 148.606 83.136C148.942 83.9947 149.11 84.8907 149.11 85.824C149.11 86.0293 149.091 86.2627 149.054 86.524C149.035 86.7667 149.007 87 148.97 87.224H136.594V84.984H147.458L146.226 85.992C146.394 85.0213 146.3 84.1533 145.946 83.388C145.591 82.6227 145.068 82.016 144.378 81.568C143.687 81.12 142.903 80.896 142.026 80.896C141.148 80.896 140.346 81.12 139.618 81.568C138.89 82.016 138.32 82.66 137.91 83.5C137.518 84.3213 137.359 85.3013 137.434 86.44C137.359 87.5413 137.527 88.512 137.938 89.352C138.367 90.1733 138.964 90.8173 139.73 91.284C140.514 91.732 141.363 91.956 142.278 91.956C143.286 91.956 144.135 91.7227 144.826 91.256C145.516 90.7893 146.076 90.192 146.506 89.464L148.69 90.584C148.391 91.2747 147.924 91.9093 147.29 92.488C146.674 93.048 145.936 93.496 145.078 93.832C144.238 94.168 143.295 94.336 142.25 94.336ZM161.937 94L156.757 78.908H159.641L163.757 91.536L162.749 91.508L166.781 78.908H169.245L173.277 91.508L172.269 91.536L176.413 78.908H179.269L174.089 94H171.597L167.621 81.4H168.405L164.429 94H161.937ZM182.158 94V78.908H184.762V94H182.158ZM182.158 76.5V73.14H184.762V76.5H182.158ZM195.494 94.168C194.019 94.168 192.881 93.748 192.078 92.908C191.294 92.068 190.902 90.8827 190.902 89.352V81.4H188.158V78.908H188.718C189.39 78.908 189.922 78.7027 190.314 78.292C190.706 77.8813 190.902 77.34 190.902 76.668V75.436H193.506V78.908H196.894V81.4H193.506V89.268C193.506 89.772 193.581 90.2107 193.73 90.584C193.898 90.9573 194.169 91.256 194.542 91.48C194.915 91.6853 195.41 91.788 196.026 91.788C196.157 91.788 196.315 91.7787 196.502 91.76C196.707 91.7413 196.894 91.7227 197.062 91.704V94C196.819 94.056 196.549 94.0933 196.25 94.112C195.951 94.1493 195.699 94.168 195.494 94.168ZM201.024 94V72.804H203.628V81.848L203.152 81.596C203.525 80.644 204.122 79.9067 204.944 79.384C205.784 78.8427 206.764 78.572 207.884 78.572C208.966 78.572 209.928 78.8147 210.768 79.3C211.626 79.7853 212.298 80.4573 212.784 81.316C213.288 82.1747 213.54 83.1453 213.54 84.228V94H210.908V85.068C210.908 84.228 210.749 83.5187 210.432 82.94C210.133 82.3613 209.713 81.9133 209.172 81.596C208.63 81.26 208.005 81.092 207.296 81.092C206.605 81.092 205.98 81.26 205.42 81.596C204.86 81.9133 204.421 82.3707 204.104 82.968C203.786 83.5467 203.628 84.2467 203.628 85.068V94H201.024Z" fill="#B2B4B3"/>
<path d="M137.219 55V39.908H139.823V55H137.219ZM137.219 37.5V34.14H139.823V37.5H137.219ZM144.423 55V39.908H146.971V42.988L146.607 42.512C146.981 41.56 147.578 40.832 148.399 40.328C149.221 39.824 150.145 39.572 151.171 39.572C152.347 39.572 153.402 39.8987 154.335 40.552C155.287 41.2053 155.941 42.064 156.295 43.128L155.567 43.156C155.959 41.98 156.622 41.0933 157.555 40.496C158.489 39.88 159.525 39.572 160.663 39.572C161.709 39.572 162.651 39.8147 163.491 40.3C164.35 40.7853 165.031 41.4573 165.535 42.316C166.039 43.1747 166.291 44.1453 166.291 45.228V55H163.659V46.068C163.659 45.228 163.51 44.5187 163.211 43.94C162.913 43.3613 162.502 42.9133 161.979 42.596C161.475 42.26 160.878 42.092 160.187 42.092C159.515 42.092 158.909 42.26 158.367 42.596C157.845 42.9133 157.425 43.3707 157.107 43.968C156.809 44.5467 156.659 45.2467 156.659 46.068V55H154.027V46.068C154.027 45.228 153.878 44.5187 153.579 43.94C153.281 43.3613 152.87 42.9133 152.347 42.596C151.843 42.26 151.246 42.092 150.555 42.092C149.883 42.092 149.277 42.26 148.735 42.596C148.213 42.9133 147.793 43.3707 147.475 43.968C147.177 44.5467 147.027 45.2467 147.027 46.068V55H144.423ZM170.55 60.6V39.908H173.098V43.156L172.762 42.512C173.322 41.616 174.087 40.9067 175.058 40.384C176.028 39.8427 177.139 39.572 178.39 39.572C179.808 39.572 181.078 39.9173 182.198 40.608C183.336 41.2987 184.232 42.2413 184.886 43.436C185.539 44.612 185.866 45.956 185.866 47.468C185.866 48.9427 185.539 50.2773 184.886 51.472C184.232 52.6667 183.336 53.6093 182.198 54.3C181.078 54.9907 179.799 55.336 178.362 55.336C177.148 55.336 176.038 55.0653 175.03 54.524C174.04 53.9827 173.275 53.2173 172.734 52.228L173.154 51.78V60.6H170.55ZM178.166 52.816C179.118 52.816 179.967 52.5827 180.714 52.116C181.46 51.6493 182.039 51.0147 182.45 50.212C182.879 49.3907 183.094 48.476 183.094 47.468C183.094 46.4227 182.879 45.508 182.45 44.724C182.039 43.9213 181.46 43.2867 180.714 42.82C179.967 42.3347 179.118 42.092 178.166 42.092C177.214 42.092 176.355 42.3253 175.59 42.792C174.843 43.2587 174.246 43.9027 173.798 44.724C173.368 45.5267 173.154 46.4413 173.154 47.468C173.154 48.476 173.368 49.3907 173.798 50.212C174.246 51.0147 174.843 51.6493 175.59 52.116C176.355 52.5827 177.214 52.816 178.166 52.816ZM194.264 55.336C193.275 55.336 192.397 55.1587 191.632 54.804C190.885 54.4307 190.297 53.9267 189.868 53.292C189.439 52.6387 189.224 51.892 189.224 51.052C189.224 50.2493 189.392 49.5307 189.728 48.896C190.083 48.2427 190.624 47.692 191.352 47.244C192.099 46.796 193.032 46.4787 194.152 46.292L199.752 45.368V47.552L194.74 48.392C193.769 48.56 193.06 48.868 192.612 49.316C192.183 49.764 191.968 50.3147 191.968 50.968C191.968 51.584 192.211 52.0973 192.696 52.508C193.2 52.9187 193.825 53.124 194.572 53.124C195.524 53.124 196.345 52.928 197.036 52.536C197.745 52.1253 198.296 51.5747 198.688 50.884C199.099 50.1933 199.304 49.428 199.304 48.588V44.752C199.304 43.9307 198.996 43.268 198.38 42.764C197.783 42.2413 196.989 41.98 196 41.98C195.141 41.98 194.376 42.204 193.704 42.652C193.051 43.0813 192.565 43.66 192.248 44.388L189.98 43.212C190.26 42.5213 190.708 41.9053 191.324 41.364C191.94 40.804 192.659 40.3653 193.48 40.048C194.301 39.7307 195.16 39.572 196.056 39.572C197.213 39.572 198.231 39.796 199.108 40.244C199.985 40.6733 200.667 41.28 201.152 42.064C201.656 42.8293 201.908 43.7253 201.908 44.752V55H199.36V52.144L199.836 52.312C199.519 52.9093 199.089 53.432 198.548 53.88C198.007 54.328 197.372 54.6827 196.644 54.944C195.916 55.2053 195.123 55.336 194.264 55.336ZM213.506 55.336C212.031 55.336 210.715 54.9907 209.558 54.3C208.419 53.6093 207.523 52.6667 206.87 51.472C206.216 50.2773 205.89 48.9333 205.89 47.44C205.89 45.928 206.216 44.584 206.87 43.408C207.523 42.232 208.419 41.2987 209.558 40.608C210.715 39.9173 212.031 39.572 213.506 39.572C214.495 39.572 215.419 39.7493 216.278 40.104C217.136 40.4587 217.892 40.9347 218.546 41.532C219.199 42.1293 219.675 42.8293 219.974 43.632L217.65 44.752C217.295 43.968 216.754 43.3333 216.026 42.848C215.298 42.344 214.458 42.092 213.506 42.092C212.591 42.092 211.76 42.3253 211.014 42.792C210.286 43.2587 209.707 43.8933 209.278 44.696C208.848 45.4987 208.634 46.4227 208.634 47.468C208.634 48.476 208.848 49.3907 209.278 50.212C209.707 51.0147 210.286 51.6493 211.014 52.116C211.76 52.5827 212.591 52.816 213.506 52.816C214.458 52.816 215.298 52.5733 216.026 52.088C216.754 51.584 217.295 50.9213 217.65 50.1L219.974 51.276C219.675 52.06 219.199 52.76 218.546 53.376C217.892 53.9733 217.136 54.4493 216.278 54.804C215.419 55.1587 214.495 55.336 213.506 55.336ZM230.069 55.168C228.594 55.168 227.455 54.748 226.653 53.908C225.869 53.068 225.477 51.8827 225.477 50.352V42.4H222.733V39.908H223.293C223.965 39.908 224.497 39.7027 224.889 39.292C225.281 38.8813 225.477 38.34 225.477 37.668V36.436H228.081V39.908H231.469V42.4H228.081V50.268C228.081 50.772 228.155 51.2107 228.305 51.584C228.473 51.9573 228.743 52.256 229.117 52.48C229.49 52.6853 229.985 52.788 230.601 52.788C230.731 52.788 230.89 52.7787 231.077 52.76C231.282 52.7413 231.469 52.7227 231.637 52.704V55C231.394 55.056 231.123 55.0933 230.825 55.112C230.526 55.1493 230.274 55.168 230.069 55.168ZM223.226 94V78.908H225.774V81.68L225.494 81.288C225.848 80.4293 226.39 79.7947 227.118 79.384C227.846 78.9547 228.732 78.74 229.778 78.74H230.702V81.204H229.386C228.322 81.204 227.463 81.54 226.81 82.212C226.156 82.8653 225.83 83.7987 225.83 85.012V94H223.226ZM240.519 94.336C239.063 94.336 237.765 93.9907 236.627 93.3C235.488 92.6093 234.592 91.6667 233.939 90.472C233.285 89.2587 232.959 87.9053 232.959 86.412C232.959 84.9 233.276 83.556 233.911 82.38C234.564 81.204 235.441 80.28 236.543 79.608C237.663 78.9173 238.913 78.572 240.295 78.572C241.415 78.572 242.404 78.7773 243.263 79.188C244.14 79.58 244.877 80.1213 245.475 80.812C246.091 81.484 246.557 82.2587 246.875 83.136C247.211 83.9947 247.379 84.8907 247.379 85.824C247.379 86.0293 247.36 86.2627 247.323 86.524C247.304 86.7667 247.276 87 247.239 87.224H234.863V84.984H245.727L244.495 85.992C244.663 85.0213 244.569 84.1533 244.215 83.388C243.86 82.6227 243.337 82.016 242.647 81.568C241.956 81.12 241.172 80.896 240.295 80.896C239.417 80.896 238.615 81.12 237.887 81.568C237.159 82.016 236.589 82.66 236.179 83.5C235.787 84.3213 235.628 85.3013 235.703 86.44C235.628 87.5413 235.796 88.512 236.207 89.352C236.636 90.1733 237.233 90.8173 237.999 91.284C238.783 91.732 239.632 91.956 240.547 91.956C241.555 91.956 242.404 91.7227 243.095 91.256C243.785 90.7893 244.345 90.192 244.775 89.464L246.959 90.584C246.66 91.2747 246.193 91.9093 245.559 92.488C244.943 93.048 244.205 93.496 243.347 93.832C242.507 94.168 241.564 94.336 240.519 94.336ZM251.334 99.6V78.908H253.882V82.156L253.546 81.512C254.106 80.616 254.871 79.9067 255.842 79.384C256.813 78.8427 257.923 78.572 259.174 78.572C260.593 78.572 261.862 78.9173 262.982 79.608C264.121 80.2987 265.017 81.2413 265.67 82.436C266.323 83.612 266.65 84.956 266.65 86.468C266.65 87.9427 266.323 89.2773 265.67 90.472C265.017 91.6667 264.121 92.6093 262.982 93.3C261.862 93.9907 260.583 94.336 259.146 94.336C257.933 94.336 256.822 94.0653 255.814 93.524C254.825 92.9827 254.059 92.2173 253.518 91.228L253.938 90.78V99.6H251.334ZM258.95 91.816C259.902 91.816 260.751 91.5827 261.498 91.116C262.245 90.6493 262.823 90.0147 263.234 89.212C263.663 88.3907 263.878 87.476 263.878 86.468C263.878 85.4227 263.663 84.508 263.234 83.724C262.823 82.9213 262.245 82.2867 261.498 81.82C260.751 81.3347 259.902 81.092 258.95 81.092C257.998 81.092 257.139 81.3253 256.374 81.792C255.627 82.2587 255.03 82.9027 254.582 83.724C254.153 84.5267 253.938 85.4413 253.938 86.468C253.938 87.476 254.153 88.3907 254.582 89.212C255.03 90.0147 255.627 90.6493 256.374 91.116C257.139 91.5827 257.998 91.816 258.95 91.816ZM277.792 94.336C276.336 94.336 275.02 94 273.844 93.328C272.668 92.6373 271.735 91.6947 271.044 90.5C270.354 89.3053 270.008 87.952 270.008 86.44C270.008 84.928 270.344 83.584 271.016 82.408C271.707 81.232 272.64 80.2987 273.816 79.608C274.992 78.9173 276.318 78.572 277.792 78.572C279.248 78.572 280.564 78.9173 281.74 79.608C282.916 80.28 283.84 81.204 284.512 82.38C285.203 83.556 285.548 84.9093 285.548 86.44C285.548 87.9707 285.194 89.3333 284.484 90.528C283.775 91.704 282.832 92.6373 281.656 93.328C280.499 94 279.211 94.336 277.792 94.336ZM277.792 91.816C278.726 91.816 279.566 91.5827 280.312 91.116C281.078 90.6493 281.675 90.0053 282.104 89.184C282.552 88.3627 282.776 87.448 282.776 86.44C282.776 85.4133 282.552 84.508 282.104 83.724C281.675 82.9213 281.078 82.2867 280.312 81.82C279.566 81.3347 278.726 81.092 277.792 81.092C276.84 81.092 275.982 81.3347 275.216 81.82C274.47 82.2867 273.872 82.9213 273.424 83.724C272.976 84.508 272.752 85.4133 272.752 86.44C272.752 87.448 272.976 88.3627 273.424 89.184C273.872 90.0053 274.47 90.6493 275.216 91.116C275.982 91.5827 276.84 91.816 277.792 91.816ZM289.505 94V78.908H292.053V81.68L291.773 81.288C292.127 80.4293 292.669 79.7947 293.397 79.384C294.125 78.9547 295.011 78.74 296.057 78.74H296.981V81.204H295.665C294.601 81.204 293.742 81.54 293.089 82.212C292.435 82.8653 292.109 83.7987 292.109 85.012V94H289.505ZM306.123 94.168C304.648 94.168 303.509 93.748 302.707 92.908C301.923 92.068 301.531 90.8827 301.531 89.352V81.4H298.787V78.908H299.347C300.019 78.908 300.551 78.7027 300.943 78.292C301.335 77.8813 301.531 77.34 301.531 76.668V75.436H304.135V78.908H307.523V81.4H304.135V89.268C304.135 89.772 304.209 90.2107 304.359 90.584C304.527 90.9573 304.797 91.256 305.171 91.48C305.544 91.6853 306.039 91.788 306.655 91.788C306.785 91.788 306.944 91.7787 307.131 91.76C307.336 91.7413 307.523 91.7227 307.691 91.704V94C307.448 94.056 307.177 94.0933 306.879 94.112C306.58 94.1493 306.328 94.168 306.123 94.168ZM317.056 94.336C315.544 94.336 314.228 93.9627 313.108 93.216C311.988 92.4693 311.195 91.4613 310.728 90.192L312.8 89.184C313.229 90.08 313.817 90.7893 314.564 91.312C315.311 91.8347 316.141 92.096 317.056 92.096C317.877 92.096 318.559 91.9 319.1 91.508C319.641 91.116 319.912 90.6027 319.912 89.968C319.912 89.52 319.781 89.1653 319.52 88.904C319.277 88.624 318.979 88.4093 318.624 88.26C318.269 88.092 317.943 87.9707 317.644 87.896L315.376 87.252C314.013 86.86 313.015 86.3 312.38 85.572C311.764 84.844 311.456 83.9947 311.456 83.024C311.456 82.128 311.68 81.3533 312.128 80.7C312.595 80.028 313.22 79.5053 314.004 79.132C314.807 78.7587 315.703 78.572 316.692 78.572C318.017 78.572 319.203 78.908 320.248 79.58C321.312 80.252 322.068 81.1947 322.516 82.408L320.388 83.388C320.052 82.604 319.548 81.988 318.876 81.54C318.204 81.0733 317.448 80.84 316.608 80.84C315.843 80.84 315.236 81.036 314.788 81.428C314.34 81.8013 314.116 82.2773 314.116 82.856C314.116 83.2853 314.228 83.64 314.452 83.92C314.676 84.1813 314.947 84.3867 315.264 84.536C315.581 84.6667 315.889 84.7787 316.188 84.872L318.652 85.6C319.884 85.9547 320.836 86.5053 321.508 87.252C322.199 87.9987 322.544 88.8947 322.544 89.94C322.544 90.78 322.311 91.536 321.844 92.208C321.377 92.88 320.733 93.4027 319.912 93.776C319.091 94.1493 318.139 94.336 317.056 94.336Z" fill="#1D2220"/>
<path d="M39 247C39 240.373 44.3726 235 51 235H188.5C195.127 235 200.5 240.373 200.5 247V288C200.5 294.627 195.127 300 188.5 300H51C44.3726 300 39 294.627 39 288V247Z" fill="white"/>
<path d="M51 235.5H188.5C194.851 235.5 200 240.649 200 247V288C200 294.351 194.851 299.5 188.5 299.5H51C44.6487 299.5 39.5 294.351 39.5 288V247L39.5146 246.408C39.8227 240.332 44.8472 235.5 51 235.5Z" stroke="#1D2220" stroke-opacity="0.1"/>
<rect x="51" y="247" width="32" height="41" rx="6" fill="#1D2220" fill-opacity="0.04"/>
<path d="M72.36 261.049C73.0373 260.812 73.688 261.463 73.4513 262.14L69.5013 273.427C69.2447 274.159 68.2247 274.2 67.91 273.491L66.004 269.203L68.6867 266.52C68.775 266.425 68.8231 266.3 68.8208 266.17C68.8185 266.041 68.766 265.917 68.6744 265.826C68.5828 265.734 68.4592 265.681 68.3297 265.679C68.2001 265.677 68.0748 265.725 67.98 265.813L65.2967 268.496L61.0087 266.59C60.3 266.275 60.342 265.255 61.0733 264.999L72.36 261.049Z" fill="black" fill-opacity="0.6"/>
<path d="M95.068 259.144C94.5 259.144 93.98 259.04 93.508 258.832C93.036 258.616 92.636 258.324 92.308 257.956C91.98 257.588 91.744 257.176 91.6 256.72L92.62 256.3C92.836 256.876 93.156 257.32 93.58 257.632C94.012 257.936 94.516 258.088 95.092 258.088C95.444 258.088 95.752 258.032 96.016 257.92C96.28 257.808 96.484 257.652 96.628 257.452C96.78 257.244 96.856 257.004 96.856 256.732C96.856 256.356 96.748 256.06 96.532 255.844C96.324 255.62 96.016 255.452 95.608 255.34L93.964 254.836C93.316 254.636 92.82 254.32 92.476 253.888C92.132 253.456 91.96 252.96 91.96 252.4C91.96 251.912 92.076 251.484 92.308 251.116C92.548 250.74 92.876 250.448 93.292 250.24C93.716 250.024 94.196 249.916 94.732 249.916C95.268 249.916 95.752 250.012 96.184 250.204C96.624 250.396 96.996 250.656 97.3 250.984C97.604 251.304 97.828 251.672 97.972 252.088L96.964 252.508C96.772 252.004 96.484 251.624 96.1 251.368C95.716 251.104 95.264 250.972 94.744 250.972C94.424 250.972 94.14 251.028 93.892 251.14C93.652 251.244 93.464 251.4 93.328 251.608C93.2 251.808 93.136 252.048 93.136 252.328C93.136 252.656 93.24 252.948 93.448 253.204C93.656 253.46 93.972 253.656 94.396 253.792L95.896 254.236C96.6 254.452 97.132 254.76 97.492 255.16C97.852 255.56 98.032 256.056 98.032 256.648C98.032 257.136 97.904 257.568 97.648 257.944C97.4 258.32 97.052 258.616 96.604 258.832C96.164 259.04 95.652 259.144 95.068 259.144ZM102.838 259.144C102.214 259.144 101.658 258.996 101.17 258.7C100.682 258.404 100.298 258 100.018 257.488C99.7378 256.968 99.5978 256.388 99.5978 255.748C99.5978 255.1 99.7338 254.524 100.006 254.02C100.286 253.516 100.662 253.12 101.134 252.832C101.614 252.536 102.15 252.388 102.742 252.388C103.222 252.388 103.646 252.476 104.014 252.652C104.39 252.82 104.706 253.052 104.962 253.348C105.226 253.636 105.426 253.968 105.562 254.344C105.706 254.712 105.778 255.096 105.778 255.496C105.778 255.584 105.77 255.684 105.754 255.796C105.746 255.9 105.734 256 105.718 256.096H100.414V255.136H105.07L104.542 255.568C104.614 255.152 104.574 254.78 104.422 254.452C104.27 254.124 104.046 253.864 103.75 253.672C103.454 253.48 103.118 253.384 102.742 253.384C102.366 253.384 102.022 253.48 101.71 253.672C101.398 253.864 101.154 254.14 100.978 254.5C100.81 254.852 100.742 255.272 100.774 255.76C100.742 256.232 100.814 256.648 100.99 257.008C101.174 257.36 101.43 257.636 101.758 257.836C102.094 258.028 102.458 258.124 102.85 258.124C103.282 258.124 103.646 258.024 103.942 257.824C104.238 257.624 104.478 257.368 104.662 257.056L105.598 257.536C105.47 257.832 105.27 258.104 104.998 258.352C104.734 258.592 104.418 258.784 104.05 258.928C103.69 259.072 103.286 259.144 102.838 259.144ZM107.473 259V252.532H108.565V253.792L108.385 253.684C108.545 253.276 108.801 252.96 109.153 252.736C109.513 252.504 109.933 252.388 110.413 252.388C110.877 252.388 111.289 252.492 111.649 252.7C112.017 252.908 112.305 253.196 112.513 253.564C112.729 253.932 112.837 254.348 112.837 254.812V259H111.709V255.172C111.709 254.812 111.645 254.508 111.517 254.26C111.389 254.012 111.205 253.82 110.965 253.684C110.733 253.54 110.465 253.468 110.161 253.468C109.857 253.468 109.585 253.54 109.345 253.684C109.113 253.82 108.929 254.016 108.793 254.272C108.657 254.52 108.589 254.82 108.589 255.172V259H107.473ZM117.302 259.072C116.67 259.072 116.182 258.892 115.838 258.532C115.502 258.172 115.334 257.664 115.334 257.008V253.6H114.158V252.532H114.398C114.686 252.532 114.914 252.444 115.082 252.268C115.25 252.092 115.334 251.86 115.334 251.572V251.044H116.45V252.532H117.902V253.6H116.45V256.972C116.45 257.188 116.482 257.376 116.546 257.536C116.618 257.696 116.734 257.824 116.894 257.92C117.054 258.008 117.266 258.052 117.53 258.052C117.586 258.052 117.654 258.048 117.734 258.04C117.822 258.032 117.902 258.024 117.974 258.016V259C117.87 259.024 117.754 259.04 117.626 259.048C117.498 259.064 117.39 259.072 117.302 259.072Z" fill="#1D2220" fill-opacity="0.4"/>
<rect x="91" y="269" width="47" height="19" rx="9.5" fill="#1D2220" fill-opacity="0.06"/>
<path d="M208.5 247C208.5 240.373 213.873 235 220.5 235H358C364.627 235 370 240.373 370 247V288C370 294.627 364.627 300 358 300H220.5C213.873 300 208.5 294.627 208.5 288V247Z" fill="white"/>
<path d="M220.5 235.5H358C364.351 235.5 369.5 240.649 369.5 247V288C369.5 294.351 364.351 299.5 358 299.5H220.5C214.149 299.5 209 294.351 209 288V247L209.015 246.408C209.323 240.332 214.347 235.5 220.5 235.5Z" stroke="#1D2220" stroke-opacity="0.1"/>
<rect x="220.5" y="247" width="32" height="41" rx="6" fill="#1D2220" fill-opacity="0.04"/>
<path d="M230.25 269.25L232.75 271.75M236.25 267.75L238.75 265.25M234.25 269.25L236.75 271.75L242.75 265.25" stroke="black" stroke-opacity="0.4" stroke-width="1.5" stroke-linecap="round" stroke-linejoin="round"/>
<path d="M261.496 259V250.06H264.424C265.328 250.06 266.116 250.244 266.788 250.612C267.46 250.98 267.98 251.5 268.348 252.172C268.716 252.836 268.9 253.62 268.9 254.524C268.9 255.42 268.716 256.204 268.348 256.876C267.98 257.548 267.46 258.072 266.788 258.448C266.116 258.816 265.328 259 264.424 259H261.496ZM262.672 257.92H264.436C265.1 257.92 265.672 257.78 266.152 257.5C266.64 257.22 267.016 256.828 267.28 256.324C267.544 255.812 267.676 255.212 267.676 254.524C267.676 253.828 267.54 253.228 267.268 252.724C267.004 252.22 266.628 251.832 266.14 251.56C265.66 251.28 265.092 251.14 264.436 251.14H262.672V257.92ZM273.475 259.144C272.851 259.144 272.295 258.996 271.807 258.7C271.319 258.404 270.935 258 270.655 257.488C270.375 256.968 270.235 256.388 270.235 255.748C270.235 255.1 270.371 254.524 270.643 254.02C270.923 253.516 271.299 253.12 271.771 252.832C272.251 252.536 272.787 252.388 273.379 252.388C273.859 252.388 274.283 252.476 274.651 252.652C275.027 252.82 275.343 253.052 275.599 253.348C275.863 253.636 276.063 253.968 276.199 254.344C276.343 254.712 276.415 255.096 276.415 255.496C276.415 255.584 276.407 255.684 276.391 255.796C276.383 255.9 276.371 256 276.355 256.096H271.051V255.136H275.707L275.179 255.568C275.251 255.152 275.211 254.78 275.059 254.452C274.907 254.124 274.683 253.864 274.387 253.672C274.091 253.48 273.755 253.384 273.379 253.384C273.003 253.384 272.659 253.48 272.347 253.672C272.035 253.864 271.791 254.14 271.615 254.5C271.447 254.852 271.379 255.272 271.411 255.76C271.379 256.232 271.451 256.648 271.627 257.008C271.811 257.36 272.067 257.636 272.395 257.836C272.731 258.028 273.095 258.124 273.487 258.124C273.919 258.124 274.283 258.024 274.579 257.824C274.875 257.624 275.115 257.368 275.299 257.056L276.235 257.536C276.107 257.832 275.907 258.104 275.635 258.352C275.371 258.592 275.055 258.784 274.687 258.928C274.327 259.072 273.923 259.144 273.475 259.144ZM278.11 259V249.916H279.226V259H278.11ZM281.197 259V252.532H282.313V259H281.197ZM281.197 251.5V250.06H282.313V251.5H281.197ZM286.085 259L283.553 252.532H284.801L286.829 258.004H286.397L288.437 252.532H289.685L287.141 259H286.085ZM293.782 259.144C293.158 259.144 292.602 258.996 292.114 258.7C291.626 258.404 291.242 258 290.962 257.488C290.682 256.968 290.542 256.388 290.542 255.748C290.542 255.1 290.678 254.524 290.95 254.02C291.23 253.516 291.606 253.12 292.078 252.832C292.558 252.536 293.094 252.388 293.686 252.388C294.166 252.388 294.59 252.476 294.958 252.652C295.334 252.82 295.65 253.052 295.906 253.348C296.17 253.636 296.37 253.968 296.506 254.344C296.65 254.712 296.722 255.096 296.722 255.496C296.722 255.584 296.714 255.684 296.698 255.796C296.69 255.9 296.678 256 296.662 256.096H291.358V255.136H296.014L295.486 255.568C295.558 255.152 295.518 254.78 295.366 254.452C295.214 254.124 294.99 253.864 294.694 253.672C294.398 253.48 294.062 253.384 293.686 253.384C293.31 253.384 292.966 253.48 292.654 253.672C292.342 253.864 292.098 254.14 291.922 254.5C291.754 254.852 291.686 255.272 291.718 255.76C291.686 256.232 291.758 256.648 291.934 257.008C292.118 257.36 292.374 257.636 292.702 257.836C293.038 258.028 293.402 258.124 293.794 258.124C294.226 258.124 294.59 258.024 294.886 257.824C295.182 257.624 295.422 257.368 295.606 257.056L296.542 257.536C296.414 257.832 296.214 258.104 295.942 258.352C295.678 258.592 295.362 258.784 294.994 258.928C294.634 259.072 294.23 259.144 293.782 259.144ZM298.417 259V252.532H299.509V253.72L299.389 253.552C299.541 253.184 299.773 252.912 300.085 252.736C300.397 252.552 300.777 252.46 301.225 252.46H301.621V253.516H301.057C300.601 253.516 300.233 253.66 299.953 253.948C299.673 254.228 299.533 254.628 299.533 255.148V259H298.417ZM305.829 259.144C305.205 259.144 304.649 258.996 304.161 258.7C303.673 258.404 303.289 258 303.009 257.488C302.729 256.968 302.589 256.388 302.589 255.748C302.589 255.1 302.725 254.524 302.997 254.02C303.277 253.516 303.653 253.12 304.125 252.832C304.605 252.536 305.141 252.388 305.733 252.388C306.213 252.388 306.637 252.476 307.005 252.652C307.381 252.82 307.697 253.052 307.953 253.348C308.217 253.636 308.417 253.968 308.553 254.344C308.697 254.712 308.769 255.096 308.769 255.496C308.769 255.584 308.761 255.684 308.745 255.796C308.737 255.9 308.725 256 308.709 256.096H303.405V255.136H308.061L307.533 255.568C307.605 255.152 307.565 254.78 307.413 254.452C307.261 254.124 307.037 253.864 306.741 253.672C306.445 253.48 306.109 253.384 305.733 253.384C305.357 253.384 305.013 253.48 304.701 253.672C304.389 253.864 304.145 254.14 303.969 254.5C303.801 254.852 303.733 255.272 303.765 255.76C303.733 256.232 303.805 256.648 303.981 257.008C304.165 257.36 304.421 257.636 304.749 257.836C305.085 258.028 305.449 258.124 305.841 258.124C306.273 258.124 306.637 258.024 306.933 257.824C307.229 257.624 307.469 257.368 307.653 257.056L308.589 257.536C308.461 257.832 308.261 258.104 307.989 258.352C307.725 258.592 307.409 258.784 307.041 258.928C306.681 259.072 306.277 259.144 305.829 259.144ZM313.404 259.144C312.796 259.144 312.248 258.996 311.76 258.7C311.28 258.404 310.9 258 310.62 257.488C310.34 256.976 310.2 256.404 310.2 255.772C310.2 255.124 310.34 254.548 310.62 254.044C310.9 253.532 311.28 253.128 311.76 252.832C312.248 252.536 312.796 252.388 313.404 252.388C313.94 252.388 314.416 252.504 314.832 252.736C315.248 252.96 315.576 253.264 315.816 253.648L315.636 253.924V249.916H316.764V259H315.672V257.62L315.816 257.812C315.592 258.236 315.264 258.564 314.832 258.796C314.408 259.028 313.932 259.144 313.404 259.144ZM313.5 258.064C313.908 258.064 314.272 257.964 314.592 257.764C314.912 257.564 315.164 257.292 315.348 256.948C315.54 256.596 315.636 256.204 315.636 255.772C315.636 255.332 315.54 254.94 315.348 254.596C315.164 254.244 314.912 253.968 314.592 253.768C314.272 253.568 313.908 253.468 313.5 253.468C313.1 253.468 312.736 253.572 312.408 253.78C312.088 253.98 311.836 254.252 311.652 254.596C311.468 254.932 311.376 255.324 311.376 255.772C311.376 256.204 311.468 256.596 311.652 256.948C311.836 257.292 312.088 257.564 312.408 257.764C312.728 257.964 313.092 258.064 313.5 258.064Z" fill="#1D2220" fill-opacity="0.4"/>
<rect x="260.5" y="269" width="47" height="19" rx="9.5" fill="#1D2220" fill-opacity="0.06"/>
<path d="M40 172C40 165.373 45.3726 160 52 160H189.5C196.127 160 201.5 165.373 201.5 172V213C201.5 219.627 196.127 225 189.5 225H52C45.3726 225 40 219.627 40 213V172Z" fill="white"/>
<path d="M52 160.5H189.5C195.851 160.5 201 165.649 201 172V213C201 219.351 195.851 224.5 189.5 224.5H52C45.6487 224.5 40.5 219.351 40.5 213V172L40.5146 171.408C40.8227 165.332 45.8472 160.5 52 160.5Z" stroke="#1D2220" stroke-opacity="0.1"/>
<rect x="52" y="172" width="32" height="41" rx="6" fill="#1D2220" fill-opacity="0.04"/>
<path d="M61.75 194.25L64.25 196.75M67.75 192.75L70.25 190.25M65.75 194.25L68.25 196.75L74.25 190.25" stroke="black" stroke-width="1.5" stroke-linecap="round" stroke-linejoin="round"/>
<path d="M96.068 184.144C95.5 184.144 94.98 184.04 94.508 183.832C94.036 183.616 93.636 183.324 93.308 182.956C92.98 182.588 92.744 182.176 92.6 181.72L93.62 181.3C93.836 181.876 94.156 182.32 94.58 182.632C95.012 182.936 95.516 183.088 96.092 183.088C96.444 183.088 96.752 183.032 97.016 182.92C97.28 182.808 97.484 182.652 97.628 182.452C97.78 182.244 97.856 182.004 97.856 181.732C97.856 181.356 97.748 181.06 97.532 180.844C97.324 180.62 97.016 180.452 96.608 180.34L94.964 179.836C94.316 179.636 93.82 179.32 93.476 178.888C93.132 178.456 92.96 177.96 92.96 177.4C92.96 176.912 93.076 176.484 93.308 176.116C93.548 175.74 93.876 175.448 94.292 175.24C94.716 175.024 95.196 174.916 95.732 174.916C96.268 174.916 96.752 175.012 97.184 175.204C97.624 175.396 97.996 175.656 98.3 175.984C98.604 176.304 98.828 176.672 98.972 177.088L97.964 177.508C97.772 177.004 97.484 176.624 97.1 176.368C96.716 176.104 96.264 175.972 95.744 175.972C95.424 175.972 95.14 176.028 94.892 176.14C94.652 176.244 94.464 176.4 94.328 176.608C94.2 176.808 94.136 177.048 94.136 177.328C94.136 177.656 94.24 177.948 94.448 178.204C94.656 178.46 94.972 178.656 95.396 178.792L96.896 179.236C97.6 179.452 98.132 179.76 98.492 180.16C98.852 180.56 99.032 181.056 99.032 181.648C99.032 182.136 98.904 182.568 98.648 182.944C98.4 183.32 98.052 183.616 97.604 183.832C97.164 184.04 96.652 184.144 96.068 184.144ZM103.838 184.144C103.214 184.144 102.658 183.996 102.17 183.7C101.682 183.404 101.298 183 101.018 182.488C100.738 181.968 100.598 181.388 100.598 180.748C100.598 180.1 100.734 179.524 101.006 179.02C101.286 178.516 101.662 178.12 102.134 177.832C102.614 177.536 103.15 177.388 103.742 177.388C104.222 177.388 104.646 177.476 105.014 177.652C105.39 177.82 105.706 178.052 105.962 178.348C106.226 178.636 106.426 178.968 106.562 179.344C106.706 179.712 106.778 180.096 106.778 180.496C106.778 180.584 106.77 180.684 106.754 180.796C106.746 180.9 106.734 181 106.718 181.096H101.414V180.136H106.07L105.542 180.568C105.614 180.152 105.574 179.78 105.422 179.452C105.27 179.124 105.046 178.864 104.75 178.672C104.454 178.48 104.118 178.384 103.742 178.384C103.366 178.384 103.022 178.48 102.71 178.672C102.398 178.864 102.154 179.14 101.978 179.5C101.81 179.852 101.742 180.272 101.774 180.76C101.742 181.232 101.814 181.648 101.99 182.008C102.174 182.36 102.43 182.636 102.758 182.836C103.094 183.028 103.458 183.124 103.85 183.124C104.282 183.124 104.646 183.024 104.942 182.824C105.238 182.624 105.478 182.368 105.662 182.056L106.598 182.536C106.47 182.832 106.27 183.104 105.998 183.352C105.734 183.592 105.418 183.784 105.05 183.928C104.69 184.072 104.286 184.144 103.838 184.144ZM111.449 184.144C110.825 184.144 110.269 183.996 109.781 183.7C109.293 183.404 108.909 183 108.629 182.488C108.349 181.968 108.209 181.388 108.209 180.748C108.209 180.1 108.345 179.524 108.617 179.02C108.897 178.516 109.273 178.12 109.745 177.832C110.225 177.536 110.761 177.388 111.353 177.388C111.833 177.388 112.257 177.476 112.625 177.652C113.001 177.82 113.317 178.052 113.573 178.348C113.837 178.636 114.037 178.968 114.173 179.344C114.317 179.712 114.389 180.096 114.389 180.496C114.389 180.584 114.381 180.684 114.365 180.796C114.357 180.9 114.345 181 114.329 181.096H109.025V180.136H113.681L113.153 180.568C113.225 180.152 113.185 179.78 113.033 179.452C112.881 179.124 112.657 178.864 112.361 178.672C112.065 178.48 111.729 178.384 111.353 178.384C110.977 178.384 110.633 178.48 110.321 178.672C110.009 178.864 109.765 179.14 109.589 179.5C109.421 179.852 109.353 180.272 109.385 180.76C109.353 181.232 109.425 181.648 109.601 182.008C109.785 182.36 110.041 182.636 110.369 182.836C110.705 183.028 111.069 183.124 111.461 183.124C111.893 183.124 112.257 183.024 112.553 182.824C112.849 182.624 113.089 182.368 113.273 182.056L114.209 182.536C114.081 182.832 113.881 183.104 113.609 183.352C113.345 183.592 113.029 183.784 112.661 183.928C112.301 184.072 111.897 184.144 111.449 184.144ZM116.084 184V177.532H117.176V178.792L116.996 178.684C117.156 178.276 117.412 177.96 117.764 177.736C118.124 177.504 118.544 177.388 119.024 177.388C119.488 177.388 119.9 177.492 120.26 177.7C120.628 177.908 120.916 178.196 121.124 178.564C121.34 178.932 121.448 179.348 121.448 179.812V184H120.32V180.172C120.32 179.812 120.256 179.508 120.128 179.26C120 179.012 119.816 178.82 119.576 178.684C119.344 178.54 119.076 178.468 118.772 178.468C118.468 178.468 118.196 178.54 117.956 178.684C117.724 178.82 117.54 179.016 117.404 179.272C117.268 179.52 117.2 179.82 117.2 180.172V184H116.084Z" fill="#1D2220" fill-opacity="0.7"/>
<path d="M94.816 210V199.68H92.528V198.08H96.688V210H94.816ZM104.33 210.192C103.38 210.192 102.548 209.936 101.834 209.424C101.119 208.901 100.559 208.181 100.154 207.264C99.759 206.336 99.5616 205.259 99.5616 204.032C99.5616 202.795 99.759 201.717 100.154 200.8C100.559 199.883 101.114 199.168 101.818 198.656C102.532 198.144 103.364 197.888 104.314 197.888C105.263 197.888 106.09 198.144 106.794 198.656C107.508 199.168 108.063 199.888 108.458 200.816C108.863 201.733 109.066 202.805 109.066 204.032C109.066 205.259 108.868 206.336 108.474 207.264C108.079 208.181 107.524 208.901 106.81 209.424C106.106 209.936 105.279 210.192 104.33 210.192ZM104.33 208.464C104.916 208.464 105.423 208.283 105.85 207.92C106.276 207.557 106.607 207.045 106.842 206.384C107.076 205.723 107.194 204.939 107.194 204.032C107.194 203.125 107.076 202.341 106.842 201.68C106.607 201.019 106.276 200.507 105.85 200.144C105.423 199.781 104.911 199.6 104.314 199.6C103.727 199.6 103.22 199.781 102.794 200.144C102.367 200.507 102.036 201.019 101.802 201.68C101.567 202.341 101.45 203.125 101.45 204.032C101.45 204.928 101.567 205.712 101.802 206.384C102.036 207.045 102.367 207.557 102.794 207.92C103.231 208.283 103.743 208.464 104.33 208.464ZM116.103 210.192C115.153 210.192 114.321 209.936 113.607 209.424C112.892 208.901 112.332 208.181 111.927 207.264C111.532 206.336 111.335 205.259 111.335 204.032C111.335 202.795 111.532 201.717 111.927 200.8C112.332 199.883 112.887 199.168 113.591 198.656C114.305 198.144 115.137 197.888 116.087 197.888C117.036 197.888 117.863 198.144 118.567 198.656C119.281 199.168 119.836 199.888 120.231 200.816C120.636 201.733 120.839 202.805 120.839 204.032C120.839 205.259 120.641 206.336 120.247 207.264C119.852 208.181 119.297 208.901 118.583 209.424C117.879 209.936 117.052 210.192 116.103 210.192ZM116.103 208.464C116.689 208.464 117.196 208.283 117.623 207.92C118.049 207.557 118.38 207.045 118.615 206.384C118.849 205.723 118.967 204.939 118.967 204.032C118.967 203.125 118.849 202.341 118.615 201.68C118.38 201.019 118.049 200.507 117.623 200.144C117.196 199.781 116.684 199.6 116.087 199.6C115.5 199.6 114.993 199.781 114.567 200.144C114.14 200.507 113.809 201.019 113.575 201.68C113.34 202.341 113.223 203.125 113.223 204.032C113.223 204.928 113.34 205.712 113.575 206.384C113.809 207.045 114.14 207.557 114.567 207.92C115.004 208.283 115.516 208.464 116.103 208.464ZM127.876 210.192C126.927 210.192 126.095 209.936 125.38 209.424C124.665 208.901 124.105 208.181 123.7 207.264C123.305 206.336 123.108 205.259 123.108 204.032C123.108 202.795 123.305 201.717 123.7 200.8C124.105 199.883 124.66 199.168 125.364 198.656C126.079 198.144 126.911 197.888 127.86 197.888C128.809 197.888 129.636 198.144 130.34 198.656C131.055 199.168 131.609 199.888 132.004 200.816C132.409 201.733 132.612 202.805 132.612 204.032C132.612 205.259 132.415 206.336 132.02 207.264C131.625 208.181 131.071 208.901 130.356 209.424C129.652 209.936 128.825 210.192 127.876 210.192ZM127.876 208.464C128.463 208.464 128.969 208.283 129.396 207.92C129.823 207.557 130.153 207.045 130.388 206.384C130.623 205.723 130.74 204.939 130.74 204.032C130.74 203.125 130.623 202.341 130.388 201.68C130.153 201.019 129.823 200.507 129.396 200.144C128.969 199.781 128.457 199.6 127.86 199.6C127.273 199.6 126.767 199.781 126.34 200.144C125.913 200.507 125.583 201.019 125.348 201.68C125.113 202.341 124.996 203.125 124.996 204.032C124.996 204.928 125.113 205.712 125.348 206.384C125.583 207.045 125.913 207.557 126.34 207.92C126.777 208.283 127.289 208.464 127.876 208.464Z" fill="#1D2220" fill-opacity="0.9"/>
<g filter="url(#filter0_d_1_728)">
<g clip-path="url(#clip1_1_728)">
<path d="M211.752 162.021C212.592 154.831 219.102 149.683 226.292 150.524L375.469 167.961C382.659 168.802 387.807 175.312 386.966 182.502L381.656 227.931C380.816 235.121 374.306 240.269 367.115 239.428L217.939 221.991C210.748 221.151 205.601 214.64 206.441 207.45L211.752 162.021Z" fill="white"/>
<rect x="224.771" y="163.543" width="34.9538" height="45.7385" rx="6.55385" transform="rotate(6.66707 224.771 163.543)" fill="#1D2220" fill-opacity="0.04"/>
<path d="M245.998 193.247C246.027 193.333 246.03 193.428 246.007 193.517C245.983 193.607 245.935 193.687 245.868 193.746C245.801 193.805 245.719 193.841 245.633 193.848C245.547 193.856 245.462 193.834 245.389 193.786L243.451 192.524C241.832 191.468 239.993 190.85 238.09 190.721C237.992 191.37 237.883 192.018 237.762 192.663L237.609 193.488C237.587 193.603 237.539 193.71 237.468 193.799C237.397 193.888 237.306 193.957 237.204 193.998C237.102 194.038 236.992 194.05 236.885 194.031C236.779 194.013 236.679 193.965 236.596 193.892C235.016 192.507 233.7 190.808 232.718 188.884L232.406 188.273C232.365 188.192 232.348 188.098 232.359 188.005C232.37 187.912 232.408 187.825 232.467 187.755L232.911 187.232C234.311 185.587 235.983 184.237 237.839 183.253C237.937 183.201 238.045 183.177 238.153 183.184C238.261 183.19 238.365 183.227 238.455 183.29C238.545 183.353 238.618 183.44 238.666 183.544C238.715 183.647 238.737 183.762 238.732 183.878L238.691 184.718C238.664 185.281 238.628 185.843 238.584 186.404L239.114 186.466C240.559 186.635 241.925 187.232 243.06 188.191C244.196 189.15 245.057 190.434 245.547 191.899L245.998 193.247Z" fill="black"/>
<path d="M267.739 181.654L268.873 171.955L272.297 172.355C272.939 172.43 273.489 172.617 273.946 172.917C274.404 173.217 274.741 173.608 274.957 174.091C275.182 174.575 275.259 175.121 275.188 175.728C275.108 176.414 274.867 176.975 274.464 177.412C274.061 177.849 273.552 178.137 272.937 178.276L274.73 182.471L273.246 182.298L271.368 177.815L272.156 178.409L269.448 178.093L269.015 181.803L267.739 181.654ZM269.585 176.921L271.773 177.177C272.154 177.221 272.497 177.186 272.801 177.072C273.105 176.958 273.351 176.772 273.539 176.512C273.737 176.254 273.857 175.942 273.899 175.578C273.943 175.204 273.898 174.874 273.765 174.585C273.641 174.289 273.444 174.051 273.175 173.87C272.906 173.689 272.581 173.576 272.199 173.531L270.011 173.276L269.585 176.921ZM279.114 183.142C278.437 183.063 277.853 182.832 277.361 182.449C276.869 182.066 276.504 181.579 276.265 180.988C276.027 180.388 275.949 179.741 276.03 179.047C276.112 178.344 276.333 177.736 276.692 177.224C277.059 176.712 277.517 176.33 278.066 176.078C278.624 175.818 279.225 175.725 279.867 175.8C280.388 175.861 280.837 176.01 281.213 176.248C281.6 176.478 281.914 176.769 282.154 177.123C282.404 177.469 282.578 177.855 282.678 178.28C282.788 178.697 282.817 179.123 282.767 179.557C282.755 179.652 282.734 179.76 282.703 179.879C282.681 179.991 282.655 180.098 282.625 180.2L276.871 179.528L276.993 178.486L282.044 179.077L281.417 179.478C281.547 179.036 281.551 178.627 281.428 178.252C281.305 177.877 281.094 177.567 280.798 177.321C280.501 177.075 280.149 176.928 279.741 176.881C279.333 176.833 278.947 176.893 278.584 177.062C278.222 177.231 277.922 177.499 277.685 177.868C277.458 178.228 277.331 178.675 277.304 179.209C277.21 179.717 277.235 180.177 277.38 180.59C277.535 180.995 277.778 181.327 278.108 181.586C278.449 181.837 278.831 181.987 279.257 182.037C279.725 182.092 280.133 182.029 280.479 181.85C280.826 181.67 281.119 181.423 281.358 181.108L282.313 181.747C282.136 182.052 281.885 182.322 281.558 182.557C281.241 182.783 280.874 182.952 280.457 183.061C280.048 183.172 279.6 183.199 279.114 183.142ZM283.857 186.177L284.982 176.556L286.166 176.695L285.99 178.205L285.869 177.887C286.178 177.501 286.572 177.213 287.052 177.023C287.532 176.824 288.064 176.758 288.645 176.826C289.305 176.903 289.876 177.133 290.359 177.515C290.851 177.898 291.217 178.385 291.456 178.976C291.695 179.558 291.774 180.201 291.692 180.904C291.612 181.589 291.387 182.192 291.019 182.712C290.65 183.232 290.182 183.622 289.615 183.881C289.057 184.141 288.444 184.232 287.775 184.154C287.211 184.088 286.709 183.902 286.27 183.596C285.84 183.29 285.525 182.893 285.327 182.403L285.547 182.218L285.068 186.319L283.857 186.177ZM287.821 182.972C288.264 183.024 288.671 182.961 289.044 182.785C289.416 182.609 289.72 182.345 289.955 181.994C290.199 181.635 290.348 181.222 290.403 180.753C290.46 180.267 290.41 179.83 290.253 179.442C290.106 179.047 289.871 178.72 289.549 178.463C289.228 178.196 288.847 178.037 288.404 177.986C287.961 177.934 287.549 177.996 287.168 178.171C286.796 178.348 286.483 178.615 286.23 178.972C285.987 179.322 285.837 179.736 285.781 180.213C285.727 180.682 285.777 181.119 285.932 181.524C286.096 181.921 286.34 182.249 286.661 182.506C286.992 182.765 287.379 182.92 287.821 182.972ZM293.131 184.622L294.283 174.767L295.493 174.908L294.341 184.763L293.131 184.622ZM296.481 185.014L297.301 177.996L298.512 178.138L297.691 185.155L296.481 185.014ZM297.432 176.877L297.614 175.314L298.825 175.456L298.642 177.018L297.432 176.877ZM303.041 185.939C302.364 185.86 301.779 185.629 301.288 185.245C300.796 184.862 300.43 184.375 300.191 183.784C299.954 183.185 299.875 182.538 299.956 181.843C300.039 181.14 300.259 180.533 300.618 180.02C300.986 179.509 301.444 179.127 301.993 178.875C302.551 178.614 303.151 178.522 303.794 178.597C304.314 178.658 304.763 178.807 305.14 179.045C305.527 179.274 305.84 179.566 306.08 179.92C306.33 180.266 306.505 180.651 306.605 181.077C306.714 181.494 306.744 181.92 306.693 182.354C306.682 182.449 306.661 182.557 306.629 182.676C306.607 182.788 306.582 182.895 306.552 182.997L300.798 182.324L300.919 181.283L305.971 181.873L305.343 182.275C305.474 181.833 305.478 181.424 305.354 181.049C305.231 180.674 305.021 180.364 304.724 180.118C304.427 179.872 304.075 179.725 303.667 179.677C303.259 179.63 302.874 179.69 302.511 179.859C302.148 180.028 301.848 180.296 301.612 180.664C301.385 181.025 301.258 181.472 301.231 182.006C301.136 182.514 301.162 182.974 301.307 183.387C301.462 183.792 301.705 184.124 302.035 184.383C302.375 184.634 302.758 184.784 303.183 184.834C303.652 184.888 304.06 184.826 304.406 184.647C304.753 184.467 305.045 184.22 305.285 183.905L306.239 184.544C306.063 184.849 305.811 185.119 305.485 185.353C305.168 185.58 304.801 185.749 304.383 185.858C303.974 185.969 303.527 185.996 303.041 185.939ZM310.582 186.82C309.879 186.738 309.288 186.493 308.807 186.085C308.327 185.677 308.013 185.165 307.865 184.549L308.883 184.193C309.034 184.633 309.269 184.995 309.588 185.279C309.907 185.562 310.279 185.729 310.704 185.779C311.086 185.823 311.413 185.769 311.686 185.616C311.959 185.464 312.113 185.24 312.148 184.944C312.172 184.736 312.13 184.564 312.023 184.428C311.926 184.285 311.798 184.169 311.642 184.08C311.486 183.983 311.341 183.909 311.206 183.858L310.186 183.435C309.574 183.179 309.14 182.864 308.884 182.491C308.638 182.119 308.541 181.708 308.593 181.256C308.642 180.84 308.788 180.492 309.032 180.212C309.286 179.925 309.605 179.716 309.99 179.585C310.383 179.455 310.81 179.417 311.27 179.471C311.886 179.543 312.419 179.763 312.868 180.133C313.327 180.503 313.627 180.982 313.769 181.571L312.727 181.911C312.613 181.528 312.412 181.214 312.124 180.969C311.837 180.716 311.498 180.566 311.107 180.521C310.752 180.479 310.459 180.537 310.229 180.695C310.001 180.844 309.871 181.054 309.839 181.323C309.816 181.522 309.849 181.693 309.938 181.836C310.028 181.969 310.142 182.079 310.282 182.166C310.422 182.244 310.559 182.313 310.693 182.373L311.799 182.845C312.353 183.077 312.765 183.385 313.037 183.768C313.318 184.153 313.43 184.588 313.373 185.075C313.327 185.465 313.178 185.804 312.924 186.091C312.671 186.378 312.343 186.586 311.941 186.715C311.538 186.844 311.086 186.879 310.582 186.82Z" fill="#1D2220" fill-opacity="0.7"/>
<path d="M268.406 211.884C267.561 211.785 266.831 211.512 266.215 211.065C265.598 210.617 265.137 210.047 264.831 209.355C264.536 208.663 264.437 207.907 264.533 207.085C264.583 206.657 264.679 206.234 264.822 205.817C264.965 205.399 265.179 204.973 265.464 204.537C265.761 204.103 266.144 203.643 266.611 203.158L270.775 198.841L273.223 199.127L268.127 204.338L267.806 204.072C267.99 203.906 268.18 203.781 268.378 203.699C268.587 203.618 268.798 203.566 269.012 203.544C269.237 203.523 269.471 203.527 269.714 203.556C270.489 203.646 271.163 203.907 271.734 204.337C272.306 204.768 272.729 205.31 273.005 205.964C273.292 206.619 273.388 207.346 273.295 208.145C273.2 208.955 272.924 209.661 272.467 210.265C272.01 210.857 271.431 211.299 270.728 211.592C270.036 211.887 269.263 211.984 268.406 211.884ZM268.619 210.061C269.071 210.114 269.482 210.057 269.854 209.889C270.225 209.721 270.536 209.47 270.786 209.136C271.038 208.79 271.191 208.385 271.245 207.922C271.3 207.448 271.245 207.019 271.078 206.636C270.924 206.254 270.678 205.944 270.343 205.706C270.02 205.457 269.633 205.306 269.181 205.253C268.742 205.202 268.33 205.259 267.947 205.426C267.577 205.582 267.267 205.827 267.016 206.161C266.766 206.496 266.613 206.9 266.558 207.375C266.504 207.838 266.559 208.266 266.724 208.661C266.891 209.044 267.135 209.36 267.458 209.609C267.792 209.859 268.18 210.01 268.619 210.061ZM280.186 213.261C279.156 213.141 278.285 212.757 277.575 212.111C276.866 211.454 276.35 210.601 276.026 209.555C275.716 208.498 275.638 207.304 275.794 205.973C275.951 204.631 276.302 203.487 276.846 202.542C277.402 201.598 278.095 200.893 278.923 200.427C279.764 199.962 280.699 199.79 281.729 199.91C282.759 200.03 283.623 200.413 284.322 201.058C285.032 201.704 285.543 202.555 285.853 203.612C286.177 204.659 286.261 205.848 286.105 207.178C285.949 208.509 285.599 209.653 285.053 210.61C284.508 211.555 283.815 212.266 282.974 212.742C282.145 213.208 281.216 213.381 280.186 213.261ZM280.405 211.386C281.041 211.461 281.614 211.328 282.123 210.989C282.632 210.649 283.055 210.136 283.394 209.448C283.732 208.76 283.959 207.925 284.074 206.941C284.189 205.957 284.161 205.092 283.99 204.345C283.82 203.597 283.526 203 283.109 202.552C282.692 202.105 282.16 201.843 281.512 201.767C280.875 201.693 280.302 201.826 279.793 202.165C279.285 202.504 278.861 203.018 278.522 203.706C278.184 204.393 277.957 205.229 277.842 206.213C277.729 207.185 277.757 208.05 277.926 208.809C278.097 209.556 278.39 210.154 278.807 210.601C279.236 211.05 279.768 211.312 280.405 211.386ZM292.959 214.754C291.929 214.634 291.058 214.25 290.348 213.604C289.639 212.947 289.123 212.094 288.799 211.048C288.489 209.991 288.411 208.797 288.567 207.466C288.724 206.124 289.074 204.98 289.619 204.035C290.175 203.091 290.867 202.386 291.696 201.92C292.536 201.455 293.472 201.283 294.502 201.403C295.531 201.524 296.396 201.906 297.095 202.551C297.805 203.197 298.316 204.048 298.626 205.105C298.95 206.152 299.033 207.341 298.878 208.672C298.722 210.002 298.372 211.146 297.826 212.103C297.281 213.048 296.588 213.759 295.747 214.235C294.918 214.702 293.989 214.874 292.959 214.754ZM293.178 212.879C293.814 212.954 294.387 212.821 294.896 212.482C295.405 212.142 295.828 211.629 296.167 210.941C296.505 210.253 296.732 209.418 296.847 208.434C296.962 207.45 296.934 206.585 296.763 205.838C296.593 205.09 296.299 204.493 295.882 204.045C295.465 203.598 294.932 203.336 294.284 203.261C293.648 203.186 293.075 203.319 292.566 203.658C292.057 203.997 291.634 204.511 291.295 205.199C290.957 205.886 290.73 206.722 290.615 207.706C290.502 208.678 290.529 209.543 290.699 210.302C290.87 211.049 291.163 211.647 291.58 212.094C292.009 212.543 292.541 212.805 293.178 212.879Z" fill="#1D2220" fill-opacity="0.9"/>
<rect x="310.34" y="201.79" width="34.1077" height="14.3692" rx="7.18462" transform="rotate(6.66707 310.34 201.79)" fill="#019F53"/>
<rect x="310.819" y="202.396" width="33.0154" height="13.2769" rx="6.63846" transform="rotate(6.66707 310.819 202.396)" stroke="#4C63DE" stroke-opacity="0.2" stroke-width="1.09231"/>
<path d="M318.081 214.061C317.734 214.021 317.415 213.919 317.123 213.756C316.837 213.593 316.598 213.384 316.405 213.126C316.218 212.87 316.096 212.58 316.04 212.257L316.947 212.028C317.026 212.349 317.175 212.607 317.393 212.802C317.61 212.998 317.876 213.114 318.188 213.15C318.443 213.18 318.668 213.156 318.865 213.08C319.067 213.004 319.231 212.882 319.356 212.715C319.487 212.548 319.567 212.338 319.597 212.083C319.626 211.834 319.596 211.614 319.507 211.422C319.424 211.23 319.293 211.077 319.112 210.962C318.938 210.848 318.724 210.776 318.469 210.746C318.365 210.734 318.257 210.73 318.145 210.734C318.039 210.74 317.943 210.752 317.859 210.771L317.689 210.268L319.625 208.462L316.873 208.14L316.975 207.272L320.872 207.728L320.775 208.552L318.876 210.354L318.888 210.021C319.275 210.072 319.606 210.199 319.882 210.401C320.158 210.597 320.36 210.85 320.488 211.158C320.623 211.461 320.668 211.801 320.624 212.177C320.577 212.582 320.436 212.938 320.2 213.245C319.966 213.546 319.664 213.771 319.294 213.922C318.931 214.067 318.527 214.114 318.081 214.061ZM324.134 214.769C323.619 214.709 323.184 214.517 322.829 214.194C322.474 213.865 322.216 213.439 322.054 212.916C321.899 212.387 321.86 211.79 321.938 211.125C322.016 210.454 322.192 209.882 322.464 209.409C322.742 208.937 323.088 208.585 323.503 208.352C323.923 208.119 324.39 208.033 324.905 208.094C325.42 208.154 325.852 208.345 326.202 208.667C326.557 208.99 326.812 209.416 326.968 209.945C327.129 210.468 327.171 211.062 327.093 211.728C327.016 212.393 326.84 212.965 326.567 213.443C326.295 213.916 325.949 214.271 325.528 214.51C325.113 214.743 324.649 214.829 324.134 214.769ZM324.243 213.832C324.562 213.869 324.848 213.803 325.102 213.633C325.357 213.463 325.569 213.206 325.738 212.863C325.907 212.519 326.021 212.101 326.078 211.609C326.136 211.117 326.122 210.684 326.036 210.311C325.951 209.937 325.804 209.638 325.595 209.415C325.387 209.191 325.121 209.06 324.797 209.022C324.479 208.985 324.192 209.051 323.938 209.221C323.683 209.391 323.471 209.647 323.302 209.991C323.133 210.335 323.02 210.753 322.962 211.245C322.905 211.731 322.919 212.164 323.004 212.543C323.089 212.917 323.236 213.215 323.445 213.439C323.659 213.664 323.925 213.794 324.243 213.832ZM328.701 215.197L334.717 209.346L335.81 209.474L329.795 215.325L328.701 215.197ZM330.063 212.128C329.745 212.09 329.467 211.982 329.23 211.801C328.994 211.615 328.812 211.386 328.686 211.113C328.565 210.841 328.523 210.549 328.56 210.236C328.596 209.924 328.704 209.649 328.885 209.412C329.071 209.17 329.301 208.989 329.573 208.868C329.845 208.747 330.14 208.705 330.459 208.743C330.777 208.78 331.054 208.889 331.291 209.069C331.528 209.249 331.707 209.478 331.827 209.756C331.948 210.028 331.99 210.32 331.953 210.633C331.917 210.945 331.808 211.22 331.628 211.457C331.448 211.694 331.221 211.876 330.949 212.002C330.676 212.123 330.381 212.165 330.063 212.128ZM330.155 211.338C330.335 211.359 330.493 211.333 330.63 211.261C330.774 211.19 330.888 211.089 330.974 210.958C331.059 210.828 331.111 210.687 331.129 210.537C331.147 210.38 331.129 210.232 331.075 210.09C331.022 209.943 330.934 209.819 330.811 209.716C330.694 209.615 330.546 209.553 330.366 209.532C330.193 209.512 330.034 209.538 329.891 209.609C329.748 209.68 329.63 209.781 329.539 209.911C329.454 210.036 329.402 210.176 329.384 210.333C329.367 210.483 329.384 210.632 329.438 210.779C329.497 210.926 329.587 211.051 329.71 211.154C329.833 211.256 329.982 211.317 330.155 211.338ZM334.009 215.923C333.691 215.886 333.411 215.777 333.168 215.596C332.931 215.41 332.753 215.181 332.632 214.909C332.512 214.637 332.47 214.344 332.506 214.032C332.543 213.72 332.651 213.445 332.831 213.208C333.012 212.965 333.239 212.783 333.511 212.663C333.789 212.543 334.087 212.501 334.405 212.538C334.723 212.576 335.001 212.684 335.238 212.864C335.475 213.045 335.653 213.274 335.773 213.552C335.894 213.824 335.936 214.116 335.9 214.429C335.863 214.741 335.755 215.016 335.575 215.253C335.394 215.49 335.168 215.672 334.895 215.798C334.623 215.919 334.328 215.961 334.009 215.923ZM334.102 215.133C334.281 215.154 334.439 215.129 334.577 215.057C334.714 214.985 334.826 214.884 334.912 214.753C335.003 214.623 335.058 214.483 335.075 214.332C335.093 214.176 335.073 214.027 335.013 213.885C334.96 213.738 334.875 213.614 334.758 213.512C334.64 213.41 334.492 213.349 334.313 213.328C334.139 213.308 333.981 213.333 333.837 213.405C333.694 213.476 333.577 213.577 333.485 213.707C333.4 213.832 333.349 213.972 333.331 214.128C333.313 214.279 333.331 214.428 333.384 214.575C333.443 214.722 333.534 214.847 333.657 214.95C333.78 215.052 333.928 215.113 334.102 215.133Z" fill="white"/>
</g>
<path d="M226.229 151.066L375.406 168.503C382.296 169.309 387.229 175.548 386.424 182.438L381.114 227.867C380.308 234.758 374.069 239.691 367.179 238.885L218.002 221.448C211.111 220.642 206.178 214.404 206.984 207.513L212.294 162.084C213.099 155.194 219.338 150.261 226.229 151.066Z" stroke="#1D2220" stroke-opacity="0.1" stroke-width="1.09231"/>
</g>
<path d="M39 325C39 318.373 44.3726 313 51 313H359C365.627 313 371 318.373 371 325V345.022C371 351.65 365.627 357.022 359 357.022H51C44.3726 357.022 39 351.65 39 345.022V325Z" fill="white"/>
<path d="M51 313.5H359C365.351 313.5 370.5 318.649 370.5 325V345.022C370.5 351.374 365.351 356.522 359 356.522H51C44.6488 356.522 39.5002 351.374 39.5 345.022V325C39.5 318.649 44.6487 313.5 51 313.5Z" stroke="#1D2220" stroke-opacity="0.1"/>
<rect x="47" y="321" width="316" height="10" rx="5" fill="#1D2220" fill-opacity="0.06"/>
<rect x="47" y="339" width="129.164" height="10.0222" rx="5.01108" fill="#1D2220" fill-opacity="0.06"/>
<rect y="247" width="411" height="118" fill="url(#paint1_linear_1_728)"/>
</g>
<defs>
<filter id="filter0_d_1_728" x="183.074" y="145.725" width="227.261" height="135.641" filterUnits="userSpaceOnUse" color-interpolation-filters="sRGB">
<feFlood flood-opacity="0" result="BackgroundImageFix"/>
<feColorMatrix in="SourceAlpha" type="matrix" values="0 0 0 0 0 0 0 0 0 0 0 0 0 0 0 0 0 0 127 0" result="hardAlpha"/>
<feOffset dy="18.5692"/>
<feGaussianBlur stdDeviation="10.9231"/>
<feComposite in2="hardAlpha" operator="out"/>
<feColorMatrix type="matrix" values="0 0 0 0 0.113725 0 0 0 0 0.133333 0 0 0 0 0.12549 0 0 0 0.15 0"/>
<feBlend mode="normal" in2="BackgroundImageFix" result="effect1_dropShadow_1_728"/>
<feBlend mode="normal" in="SourceGraphic" in2="effect1_dropShadow_1_728" result="shape"/>
</filter>
<linearGradient id="paint0_linear_1_728" x1="205.5" y1="0" x2="205.5" y2="365" gradientUnits="userSpaceOnUse">
<stop offset="0.269231" stop-color="#F6F6F6"/>
<stop offset="1" stop-color="#F6F6F6" stop-opacity="0"/>
</linearGradient>
<linearGradient id="paint1_linear_1_728" x1="205.5" y1="247" x2="205.5" y2="365" gradientUnits="userSpaceOnUse">
<stop stop-color="#F6F6F6" stop-opacity="0"/>
<stop offset="0.850567" stop-color="#F6F6F6"/>
</linearGradient>
<clipPath id="clip0_1_728">
<rect width="411" height="365" rx="16" fill="white"/>
</clipPath>
<clipPath id="clip1_1_728">
<path d="M211.752 162.021C212.592 154.831 219.102 149.683 226.292 150.524L375.469 167.961C382.659 168.802 387.807 175.312 386.966 182.502L381.656 227.931C380.816 235.121 374.306 240.269 367.115 239.428L217.939 221.991C210.748 221.151 205.601 214.64 206.441 207.45L211.752 162.021Z" fill="white"/>
</clipPath>
</defs>
</svg>
