<svg width="371" height="234" viewBox="0 0 371 234" fill="none" xmlns="http://www.w3.org/2000/svg">
<g clip-path="url(#clip0_1_1213)">
<rect width="371" height="234" rx="8" fill="#FBFBFB"/>
<mask id="mask0_1_1213" style="mask-type:luminance" maskUnits="userSpaceOnUse" x="-28" y="0" width="418" height="233">
<path d="M389.141 0H-27.5951V233H389.141V0Z" fill="white"/>
</mask>
<g mask="url(#mask0_1_1213)">
<path d="M420.725 263.544H-59.1791V-30.5415H420.725L420.725 263.544ZM-58.5588 262.937H420.105V-29.9347H-58.5588V262.937Z" fill="#1D2220" fill-opacity="0.04"/>
<path d="M420.415 218.914H-58.8689V219.52H420.415V218.914Z" fill="#1D2220" fill-opacity="0.04"/>
<path d="M420.415 204.241H-58.8689V204.848H420.415V204.241Z" fill="#1D2220" fill-opacity="0.04"/>
<path d="M420.415 189.566H-58.8689V190.173H420.415V189.566Z" fill="#1D2220" fill-opacity="0.04"/>
<path d="M420.415 174.892H-58.8689V175.499H420.415V174.892Z" fill="#1D2220" fill-opacity="0.04"/>
<path d="M420.415 160.218H-58.8689V160.825H420.415V160.218Z" fill="#1D2220" fill-opacity="0.04"/>
<path d="M420.415 145.544H-58.8689V146.151H420.415V145.544Z" fill="#1D2220" fill-opacity="0.04"/>
<path d="M420.415 130.871H-58.8689V131.477H420.415V130.871Z" fill="#1D2220" fill-opacity="0.04"/>
<path d="M420.415 116.196H-58.8689V116.803H420.415V116.196Z" fill="#1D2220" fill-opacity="0.04"/>
<path d="M420.415 101.523H-58.8689V102.13H420.415V101.523Z" fill="#1D2220" fill-opacity="0.04"/>
<path d="M420.415 86.8501H-58.8689V87.4569H420.415V86.8501Z" fill="#1D2220" fill-opacity="0.04"/>
<path d="M420.415 72.1763H-58.8689V72.783H420.415V72.1763Z" fill="#1D2220" fill-opacity="0.04"/>
<path d="M420.415 57.5015H-58.8689V58.1082H420.415V57.5015Z" fill="#1D2220" fill-opacity="0.04"/>
<path d="M420.415 42.8276H-58.8689V43.4344H420.415V42.8276Z" fill="#1D2220" fill-opacity="0.04"/>
<path d="M420.415 28.1538H-58.8689V28.7606H420.415V28.1538Z" fill="#1D2220" fill-opacity="0.04"/>
<path d="M420.415 13.48H-58.8689V14.0868H420.415V13.48Z" fill="#1D2220" fill-opacity="0.04"/>
<path d="M362.63 -30.2378H362.01V263.241H362.63V-30.2378Z" fill="#1D2220" fill-opacity="0.04"/>
<path d="M348.106 -30.2378H347.486V263.241H348.106V-30.2378Z" fill="#1D2220" fill-opacity="0.04"/>
<path d="M333.582 -30.2378H332.962V263.241H333.582V-30.2378Z" fill="#1D2220" fill-opacity="0.04"/>
<path d="M319.059 -30.2378H318.438V263.241H319.059V-30.2378Z" fill="#1D2220" fill-opacity="0.04"/>
<path d="M304.535 -30.2378H303.915V263.241H304.535V-30.2378Z" fill="#1D2220" fill-opacity="0.04"/>
<path d="M290.011 -30.2378H289.391V263.241H290.011V-30.2378Z" fill="#1D2220" fill-opacity="0.04"/>
<path d="M275.487 -30.2378H274.867V263.241H275.487V-30.2378Z" fill="#1D2220" fill-opacity="0.04"/>
<path d="M260.964 -30.2378H260.344V263.241H260.964V-30.2378Z" fill="#1D2220" fill-opacity="0.04"/>
<path d="M246.44 -30.2378H245.819V263.241H246.44V-30.2378Z" fill="#1D2220" fill-opacity="0.04"/>
<path d="M231.916 -30.2378H231.296V263.241H231.916V-30.2378Z" fill="#1D2220" fill-opacity="0.04"/>
<path d="M217.392 -30.2378H216.772V263.241H217.392V-30.2378Z" fill="#1D2220" fill-opacity="0.04"/>
<path d="M202.869 -30.2378H202.248V263.241H202.869V-30.2378Z" fill="#1D2220" fill-opacity="0.04"/>
<path d="M188.345 -30.2378H187.725V263.241H188.345V-30.2378Z" fill="#1D2220" fill-opacity="0.04"/>
<path d="M173.821 -30.2378H173.201V263.241H173.821V-30.2378Z" fill="#1D2220" fill-opacity="0.04"/>
<path d="M159.298 -30.2378H158.677V263.241H159.298V-30.2378Z" fill="#1D2220" fill-opacity="0.04"/>
<path d="M144.774 -30.2378H144.154V263.241H144.774V-30.2378Z" fill="#1D2220" fill-opacity="0.04"/>
<path d="M130.25 -30.2378H129.63V263.241H130.25V-30.2378Z" fill="#1D2220" fill-opacity="0.04"/>
<path d="M115.726 -30.2378H115.106V263.241H115.726V-30.2378Z" fill="#1D2220" fill-opacity="0.04"/>
<path d="M101.202 -30.2378H100.582V263.241H101.202V-30.2378Z" fill="#1D2220" fill-opacity="0.04"/>
<path d="M86.6786 -30.2378H86.0585V263.241H86.6786V-30.2378Z" fill="#1D2220" fill-opacity="0.04"/>
<path d="M72.1549 -30.2378H71.5348V263.241H72.1549V-30.2378Z" fill="#1D2220" fill-opacity="0.04"/>
<path d="M57.6313 -30.2378H57.0111V263.241H57.6313V-30.2378Z" fill="#1D2220" fill-opacity="0.04"/>
<path d="M43.1075 -30.2378H42.4873V263.241H43.1075V-30.2378Z" fill="#1D2220" fill-opacity="0.04"/>
<path d="M28.5836 -30.2378H27.9635V263.241H28.5836V-30.2378Z" fill="#1D2220" fill-opacity="0.04"/>
<path d="M14.0601 -30.2378H13.4399V263.241H14.0601V-30.2378Z" fill="#1D2220" fill-opacity="0.04"/>
</g>
<rect y="29" width="363" height="205" fill="url(#paint0_linear_1_1213)"/>
<g filter="url(#filter0_d_1_1213)">
<path d="M61 55C61 46.1634 68.1634 39 77 39H291C299.837 39 307 46.1634 307 55V67H61V55Z" fill="white"/>
<path d="M77 39.5H291C299.56 39.5 306.5 46.4396 306.5 55V66.5H61.5V55C61.5 46.4396 68.4396 39.5 77 39.5Z" stroke="#1D2220" stroke-opacity="0.08"/>
<circle cx="77" cy="53" r="4" fill="#EB5959"/>
<circle cx="91" cy="53" r="4" fill="#FFC45D"/>
<circle cx="105" cy="53" r="4" fill="#35BB86"/>
<rect x="122" y="47" width="173" height="12" rx="2" fill="#EFF2F7"/>
<mask id="path-52-inside-1_1_1213" fill="white">
<path d="M61 67H307V241H61V67Z"/>
</mask>
<path d="M61 67H307V241H61V67Z" fill="#F6F6F6"/>
<path d="M307 241V242H308V241H307ZM61 241H60V242H61V241ZM307 67H306V241H307H308V67H307ZM307 241V240H61V241V242H307V241ZM61 241H62V67H61H60V241H61Z" fill="#1D2220" fill-opacity="0.08" mask="url(#path-52-inside-1_1_1213)"/>
</g>
<rect x="73" y="138" width="107" height="26" rx="5" fill="white"/>
<rect x="73.5" y="138.5" width="106" height="25" rx="4.5" stroke="#1D2220" stroke-opacity="0.07"/>
<rect x="189" y="138" width="106" height="26" rx="5" fill="white"/>
<rect x="189.5" y="138.5" width="105" height="25" rx="4.5" stroke="#1D2220" stroke-opacity="0.07"/>
<rect x="73" y="176" width="222" height="26" rx="5" fill="white"/>
<rect x="73.5" y="176.5" width="221" height="25" rx="4.5" stroke="#1D2220" stroke-opacity="0.07"/>
<path d="M73.539 90V84.785H75.737C76.0637 84.785 76.346 84.8433 76.584 84.96C76.822 85.072 77.004 85.2353 77.13 85.45C77.256 85.66 77.319 85.9097 77.319 86.199C77.319 86.451 77.2537 86.682 77.123 86.892C76.997 87.0973 76.7987 87.2607 76.528 87.382V87.032C76.766 87.1253 76.9597 87.2443 77.109 87.389C77.2583 87.529 77.3657 87.6877 77.431 87.865C77.501 88.0423 77.536 88.229 77.536 88.425C77.536 88.915 77.375 89.3 77.053 89.58C76.7357 89.86 76.2993 90 75.744 90H73.539ZM74.365 89.265H75.807C76.0823 89.265 76.3017 89.1903 76.465 89.041C76.6283 88.887 76.71 88.684 76.71 88.432C76.71 88.1753 76.6283 87.9723 76.465 87.823C76.3017 87.669 76.0823 87.592 75.807 87.592H74.365V89.265ZM74.365 86.864H75.758C75.982 86.864 76.1617 86.801 76.297 86.675C76.4323 86.5443 76.5 86.374 76.5 86.164C76.5 85.954 76.4323 85.7907 76.297 85.674C76.1617 85.5573 75.982 85.499 75.758 85.499H74.365V86.864ZM79.5827 90.084C79.326 90.084 79.0997 90.0397 78.9037 89.951C78.7123 89.8577 78.563 89.7317 78.4557 89.573C78.3483 89.4097 78.2947 89.2183 78.2947 88.999C78.2947 88.7937 78.339 88.6093 78.4277 88.446C78.521 88.2827 78.6633 88.145 78.8547 88.033C79.046 87.921 79.2863 87.8417 79.5757 87.795L80.8917 87.578V88.201L79.7297 88.404C79.5197 88.4413 79.3657 88.509 79.2677 88.607C79.1697 88.7003 79.1207 88.8217 79.1207 88.971C79.1207 89.1157 79.1743 89.2347 79.2817 89.328C79.3937 89.4167 79.536 89.461 79.7087 89.461C79.9233 89.461 80.11 89.4143 80.2687 89.321C80.432 89.2277 80.558 89.104 80.6467 88.95C80.7353 88.7913 80.7797 88.6163 80.7797 88.425V87.452C80.7797 87.2653 80.7097 87.1137 80.5697 86.997C80.4343 86.8757 80.2523 86.815 80.0237 86.815C79.8137 86.815 79.6293 86.871 79.4707 86.983C79.3167 87.0903 79.2023 87.2303 79.1277 87.403L78.4697 87.074C78.5397 86.8873 78.654 86.724 78.8127 86.584C78.9713 86.4393 79.1557 86.3273 79.3657 86.248C79.5803 86.1687 79.8067 86.129 80.0447 86.129C80.3433 86.129 80.607 86.185 80.8357 86.297C81.069 86.409 81.2487 86.5653 81.3747 86.766C81.5053 86.962 81.5707 87.1907 81.5707 87.452V90H80.8147V89.314L80.9757 89.335C80.887 89.489 80.7727 89.622 80.6327 89.734C80.4973 89.846 80.341 89.9323 80.1637 89.993C79.991 90.0537 79.7973 90.084 79.5827 90.084ZM84.0356 90.084C83.6482 90.084 83.3076 89.9883 83.0136 89.797C82.7242 89.6057 82.5212 89.349 82.4046 89.027L83.0136 88.74C83.1162 88.9547 83.2562 89.125 83.4336 89.251C83.6156 89.377 83.8162 89.44 84.0356 89.44C84.2222 89.44 84.3739 89.398 84.4906 89.314C84.6072 89.23 84.6656 89.1157 84.6656 88.971C84.6656 88.8777 84.6399 88.803 84.5886 88.747C84.5372 88.6863 84.4719 88.6373 84.3926 88.6C84.3179 88.5627 84.2409 88.5347 84.1616 88.516L83.5666 88.348C83.2399 88.2547 82.9949 88.1147 82.8316 87.928C82.6729 87.7367 82.5936 87.515 82.5936 87.263C82.5936 87.0343 82.6519 86.836 82.7686 86.668C82.8852 86.4953 83.0462 86.3623 83.2516 86.269C83.4569 86.1757 83.6879 86.129 83.9446 86.129C84.2899 86.129 84.5979 86.2153 84.8686 86.388C85.1392 86.556 85.3306 86.7917 85.4426 87.095L84.8336 87.382C84.7589 87.2 84.6399 87.0553 84.4766 86.948C84.3179 86.8407 84.1382 86.787 83.9376 86.787C83.7649 86.787 83.6272 86.829 83.5246 86.913C83.4219 86.9923 83.3706 87.0973 83.3706 87.228C83.3706 87.3167 83.3939 87.3913 83.4406 87.452C83.4872 87.508 83.5479 87.5547 83.6226 87.592C83.6972 87.6247 83.7742 87.6527 83.8536 87.676L84.4696 87.858C84.7822 87.9467 85.0226 88.0867 85.1906 88.278C85.3586 88.4647 85.4426 88.6887 85.4426 88.95C85.4426 89.174 85.3819 89.3723 85.2606 89.545C85.1439 89.713 84.9806 89.846 84.7706 89.944C84.5606 90.0373 84.3156 90.084 84.0356 90.084ZM86.3576 90V86.213H87.1486V90H86.3576ZM86.3576 85.695V84.785H87.1486V85.695H86.3576ZM90.0124 90.084C89.6344 90.084 89.2984 89.9977 89.0044 89.825C88.7151 89.6477 88.4841 89.4097 88.3114 89.111C88.1434 88.8123 88.0594 88.474 88.0594 88.096C88.0594 87.7227 88.1434 87.3867 88.3114 87.088C88.4794 86.7893 88.7104 86.556 89.0044 86.388C89.2984 86.2153 89.6344 86.129 90.0124 86.129C90.2691 86.129 90.5094 86.1757 90.7334 86.269C90.9574 86.3577 91.1511 86.4813 91.3144 86.64C91.4824 86.7987 91.6061 86.983 91.6854 87.193L90.9924 87.515C90.9131 87.319 90.7847 87.1627 90.6074 87.046C90.4347 86.9247 90.2364 86.864 90.0124 86.864C89.7977 86.864 89.6041 86.9177 89.4314 87.025C89.2634 87.1277 89.1304 87.2747 89.0324 87.466C88.9344 87.6527 88.8854 87.865 88.8854 88.103C88.8854 88.341 88.9344 88.5557 89.0324 88.747C89.1304 88.9337 89.2634 89.0807 89.4314 89.188C89.6041 89.2953 89.7977 89.349 90.0124 89.349C90.2411 89.349 90.4394 89.2907 90.6074 89.174C90.7801 89.0527 90.9084 88.8917 90.9924 88.691L91.6854 89.02C91.6107 89.2207 91.4894 89.4027 91.3214 89.566C91.1581 89.7247 90.9644 89.8507 90.7404 89.944C90.5164 90.0373 90.2737 90.084 90.0124 90.084ZM94.0392 90V84.785H95.7472C96.2885 84.785 96.7575 84.8947 97.1542 85.114C97.5555 85.3287 97.8658 85.632 98.0852 86.024C98.3045 86.416 98.4142 86.871 98.4142 87.389C98.4142 87.9023 98.3045 88.3573 98.0852 88.754C97.8658 89.146 97.5555 89.4517 97.1542 89.671C96.7575 89.8903 96.2885 90 95.7472 90H94.0392ZM94.8652 89.265H95.7612C96.1298 89.265 96.4495 89.188 96.7202 89.034C96.9955 88.88 97.2078 88.663 97.3572 88.383C97.5065 88.103 97.5812 87.7717 97.5812 87.389C97.5812 87.0063 97.5042 86.6773 97.3502 86.402C97.2008 86.122 96.9908 85.905 96.7202 85.751C96.4495 85.597 96.1298 85.52 95.7612 85.52H94.8652V89.265ZM101.069 90.084C100.691 90.084 100.355 89.9977 100.061 89.825C99.7713 89.6477 99.545 89.4097 99.3816 89.111C99.2183 88.8077 99.1366 88.4693 99.1366 88.096C99.1366 87.7133 99.2183 87.375 99.3816 87.081C99.5496 86.787 99.7736 86.556 100.054 86.388C100.334 86.2153 100.651 86.129 101.006 86.129C101.29 86.129 101.545 86.178 101.769 86.276C101.993 86.374 102.182 86.5093 102.336 86.682C102.49 86.85 102.606 87.0437 102.686 87.263C102.77 87.4823 102.812 87.7157 102.812 87.963C102.812 88.0237 102.809 88.0867 102.805 88.152C102.8 88.2173 102.791 88.278 102.777 88.334H99.7596V87.704H102.329L101.951 87.991C101.997 87.7623 101.981 87.5593 101.902 87.382C101.827 87.2 101.71 87.0577 101.552 86.955C101.398 86.8477 101.216 86.794 101.006 86.794C100.796 86.794 100.609 86.8477 100.446 86.955C100.282 87.0577 100.156 87.207 100.068 87.403C99.979 87.5943 99.944 87.8277 99.9626 88.103C99.9393 88.3597 99.9743 88.5837 100.068 88.775C100.166 88.9663 100.301 89.1157 100.474 89.223C100.651 89.3303 100.852 89.384 101.076 89.384C101.304 89.384 101.498 89.3327 101.657 89.23C101.82 89.1273 101.948 88.9943 102.042 88.831L102.686 89.146C102.611 89.3233 102.494 89.4843 102.336 89.629C102.182 89.769 101.995 89.881 101.776 89.965C101.561 90.0443 101.325 90.084 101.069 90.084ZM105.362 90.042C104.965 90.042 104.657 89.93 104.438 89.706C104.218 89.482 104.109 89.167 104.109 88.761V86.927H103.444V86.213H103.549C103.726 86.213 103.864 86.1617 103.962 86.059C104.06 85.9563 104.109 85.8163 104.109 85.639V85.345H104.9V86.213H105.761V86.927H104.9V88.726C104.9 88.8567 104.921 88.9687 104.963 89.062C105.005 89.1507 105.072 89.2207 105.166 89.272C105.259 89.3187 105.38 89.342 105.53 89.342C105.567 89.342 105.609 89.3397 105.656 89.335C105.702 89.3303 105.747 89.3257 105.789 89.321V90C105.723 90.0093 105.651 90.0187 105.572 90.028C105.492 90.0373 105.422 90.042 105.362 90.042ZM107.8 90.084C107.544 90.084 107.317 90.0397 107.121 89.951C106.93 89.8577 106.781 89.7317 106.673 89.573C106.566 89.4097 106.512 89.2183 106.512 88.999C106.512 88.7937 106.557 88.6093 106.645 88.446C106.739 88.2827 106.881 88.145 107.072 88.033C107.264 87.921 107.504 87.8417 107.793 87.795L109.109 87.578V88.201L107.947 88.404C107.737 88.4413 107.583 88.509 107.485 88.607C107.387 88.7003 107.338 88.8217 107.338 88.971C107.338 89.1157 107.392 89.2347 107.499 89.328C107.611 89.4167 107.754 89.461 107.926 89.461C108.141 89.461 108.328 89.4143 108.486 89.321C108.65 89.2277 108.776 89.104 108.864 88.95C108.953 88.7913 108.997 88.6163 108.997 88.425V87.452C108.997 87.2653 108.927 87.1137 108.787 86.997C108.652 86.8757 108.47 86.815 108.241 86.815C108.031 86.815 107.847 86.871 107.688 86.983C107.534 87.0903 107.42 87.2303 107.345 87.403L106.687 87.074C106.757 86.8873 106.872 86.724 107.03 86.584C107.189 86.4393 107.373 86.3273 107.583 86.248C107.798 86.1687 108.024 86.129 108.262 86.129C108.561 86.129 108.825 86.185 109.053 86.297C109.287 86.409 109.466 86.5653 109.592 86.766C109.723 86.962 109.788 87.1907 109.788 87.452V90H109.032V89.314L109.193 89.335C109.105 89.489 108.99 89.622 108.85 89.734C108.715 89.846 108.559 89.9323 108.381 89.993C108.209 90.0537 108.015 90.084 107.8 90.084ZM110.853 90V86.213H111.644V90H110.853ZM110.853 85.695V84.785H111.644V85.695H110.853ZM112.709 90V84.701H113.5V90H112.709ZM115.965 90.084C115.578 90.084 115.237 89.9883 114.943 89.797C114.654 89.6057 114.451 89.349 114.334 89.027L114.943 88.74C115.046 88.9547 115.186 89.125 115.363 89.251C115.545 89.377 115.746 89.44 115.965 89.44C116.152 89.44 116.303 89.398 116.42 89.314C116.537 89.23 116.595 89.1157 116.595 88.971C116.595 88.8777 116.569 88.803 116.518 88.747C116.467 88.6863 116.401 88.6373 116.322 88.6C116.247 88.5627 116.17 88.5347 116.091 88.516L115.496 88.348C115.169 88.2547 114.924 88.1147 114.761 87.928C114.602 87.7367 114.523 87.515 114.523 87.263C114.523 87.0343 114.581 86.836 114.698 86.668C114.815 86.4953 114.976 86.3623 115.181 86.269C115.386 86.1757 115.617 86.129 115.874 86.129C116.219 86.129 116.527 86.2153 116.798 86.388C117.069 86.556 117.26 86.7917 117.372 87.095L116.763 87.382C116.688 87.2 116.569 87.0553 116.406 86.948C116.247 86.8407 116.068 86.787 115.867 86.787C115.694 86.787 115.557 86.829 115.454 86.913C115.351 86.9923 115.3 87.0973 115.3 87.228C115.3 87.3167 115.323 87.3913 115.37 87.452C115.417 87.508 115.477 87.5547 115.552 87.592C115.627 87.6247 115.704 87.6527 115.783 87.676L116.399 87.858C116.712 87.9467 116.952 88.0867 117.12 88.278C117.288 88.4647 117.372 88.6887 117.372 88.95C117.372 89.174 117.311 89.3723 117.19 89.545C117.073 89.713 116.91 89.846 116.7 89.944C116.49 90.0373 116.245 90.084 115.965 90.084Z" fill="#1D2220" fill-opacity="0.5"/>
<path d="M81.581 153V147.785H84.976V148.415H82.267V150.067H84.836V150.697H82.267V152.37H84.976V153H81.581ZM85.8891 153V149.227H86.5261V149.997L86.4351 149.878C86.5285 149.64 86.6778 149.458 86.8831 149.332C87.0885 149.206 87.3195 149.143 87.5761 149.143C87.8701 149.143 88.1338 149.225 88.3671 149.388C88.6051 149.551 88.7685 149.766 88.8571 150.032L88.6751 150.039C88.7731 149.745 88.9388 149.523 89.1721 149.374C89.4055 149.22 89.6645 149.143 89.9491 149.143C90.2105 149.143 90.4461 149.204 90.6561 149.325C90.8708 149.446 91.0411 149.614 91.1671 149.829C91.2931 150.044 91.3561 150.286 91.3561 150.557V153H90.6981V150.767C90.6981 150.557 90.6608 150.38 90.5861 150.235C90.5115 150.09 90.4088 149.978 90.2781 149.899C90.1521 149.815 90.0028 149.773 89.8301 149.773C89.6621 149.773 89.5105 149.815 89.3751 149.899C89.2445 149.978 89.1395 150.093 89.0601 150.242C88.9855 150.387 88.9481 150.562 88.9481 150.767V153H88.2901V150.767C88.2901 150.557 88.2528 150.38 88.1781 150.235C88.1035 150.09 88.0008 149.978 87.8701 149.899C87.7441 149.815 87.5948 149.773 87.4221 149.773C87.2541 149.773 87.1025 149.815 86.9671 149.899C86.8365 149.978 86.7315 150.093 86.6521 150.242C86.5775 150.387 86.5401 150.562 86.5401 150.767V153H85.8891ZM93.5267 153.084C93.2794 153.084 93.0601 153.04 92.8687 152.951C92.6821 152.858 92.5351 152.732 92.4277 152.573C92.3204 152.41 92.2667 152.223 92.2667 152.013C92.2667 151.812 92.3087 151.633 92.3927 151.474C92.4814 151.311 92.6167 151.173 92.7987 151.061C92.9854 150.949 93.2187 150.87 93.4987 150.823L94.8987 150.592V151.138L93.6457 151.348C93.4031 151.39 93.2257 151.467 93.1137 151.579C93.0064 151.691 92.9527 151.829 92.9527 151.992C92.9527 152.146 93.0134 152.274 93.1347 152.377C93.2607 152.48 93.4171 152.531 93.6037 152.531C93.8417 152.531 94.0471 152.482 94.2197 152.384C94.3971 152.281 94.5347 152.144 94.6327 151.971C94.7354 151.798 94.7867 151.607 94.7867 151.397V150.438C94.7867 150.233 94.7097 150.067 94.5557 149.941C94.4064 149.81 94.2081 149.745 93.9607 149.745C93.7461 149.745 93.5547 149.801 93.3867 149.913C93.2234 150.02 93.1021 150.165 93.0227 150.347L92.4557 150.053C92.5257 149.88 92.6377 149.726 92.7917 149.591C92.9457 149.451 93.1254 149.341 93.3307 149.262C93.5361 149.183 93.7507 149.143 93.9747 149.143C94.2641 149.143 94.5184 149.199 94.7377 149.311C94.9571 149.418 95.1274 149.57 95.2487 149.766C95.3747 149.957 95.4377 150.181 95.4377 150.438V153H94.8007V152.286L94.9197 152.328C94.8404 152.477 94.7331 152.608 94.5977 152.72C94.4624 152.832 94.3037 152.921 94.1217 152.986C93.9397 153.051 93.7414 153.084 93.5267 153.084ZM96.5871 153V149.227H97.2381V153H96.5871ZM96.5871 148.625V147.785H97.2381V148.625H96.5871ZM98.3882 153V147.701H99.0392V153H98.3882Z" fill="#1D2220" fill-opacity="0.4"/>
<path d="M197.581 153V147.785H199.422C199.767 147.785 200.071 147.85 200.332 147.981C200.593 148.112 200.796 148.298 200.941 148.541C201.09 148.784 201.165 149.068 201.165 149.395C201.165 149.722 201.09 150.006 200.941 150.249C200.796 150.487 200.593 150.674 200.332 150.809C200.075 150.94 199.772 151.005 199.422 151.005H198.267V153H197.581ZM198.267 150.375H199.443C199.653 150.375 199.835 150.335 199.989 150.256C200.143 150.177 200.262 150.062 200.346 149.913C200.43 149.764 200.472 149.591 200.472 149.395C200.472 149.194 200.43 149.022 200.346 148.877C200.262 148.728 200.143 148.613 199.989 148.534C199.835 148.455 199.653 148.415 199.443 148.415H198.267V150.375ZM202.156 153V147.701H202.807V149.962L202.688 149.899C202.781 149.661 202.93 149.477 203.136 149.346C203.346 149.211 203.591 149.143 203.871 149.143C204.141 149.143 204.382 149.204 204.592 149.325C204.806 149.446 204.974 149.614 205.096 149.829C205.222 150.044 205.285 150.286 205.285 150.557V153H204.627V150.767C204.627 150.557 204.587 150.38 204.508 150.235C204.433 150.09 204.328 149.978 204.193 149.899C204.057 149.815 203.901 149.773 203.724 149.773C203.551 149.773 203.395 149.815 203.255 149.899C203.115 149.978 203.005 150.093 202.926 150.242C202.846 150.387 202.807 150.562 202.807 150.767V153H202.156ZM208.148 153.084C207.784 153.084 207.455 153 207.161 152.832C206.867 152.659 206.634 152.424 206.461 152.125C206.289 151.826 206.202 151.488 206.202 151.11C206.202 150.732 206.286 150.396 206.454 150.102C206.627 149.808 206.86 149.575 207.154 149.402C207.448 149.229 207.78 149.143 208.148 149.143C208.512 149.143 208.841 149.229 209.135 149.402C209.429 149.57 209.66 149.801 209.828 150.095C210.001 150.389 210.087 150.727 210.087 151.11C210.087 151.493 209.999 151.833 209.821 152.132C209.644 152.426 209.408 152.659 209.114 152.832C208.825 153 208.503 153.084 208.148 153.084ZM208.148 152.454C208.382 152.454 208.592 152.396 208.778 152.279C208.97 152.162 209.119 152.001 209.226 151.796C209.338 151.591 209.394 151.362 209.394 151.11C209.394 150.853 209.338 150.627 209.226 150.431C209.119 150.23 208.97 150.072 208.778 149.955C208.592 149.834 208.382 149.773 208.148 149.773C207.91 149.773 207.696 149.834 207.504 149.955C207.318 150.072 207.168 150.23 207.056 150.431C206.944 150.627 206.888 150.853 206.888 151.11C206.888 151.362 206.944 151.591 207.056 151.796C207.168 152.001 207.318 152.162 207.504 152.279C207.696 152.396 207.91 152.454 208.148 152.454ZM211.076 153V149.227H211.713V149.962L211.608 149.899C211.702 149.661 211.851 149.477 212.056 149.346C212.266 149.211 212.511 149.143 212.791 149.143C213.062 149.143 213.302 149.204 213.512 149.325C213.727 149.446 213.895 149.614 214.016 149.829C214.142 150.044 214.205 150.286 214.205 150.557V153H213.547V150.767C213.547 150.557 213.51 150.38 213.435 150.235C213.361 150.09 213.253 149.978 213.113 149.899C212.978 149.815 212.822 149.773 212.644 149.773C212.467 149.773 212.308 149.815 212.168 149.899C212.033 149.978 211.926 150.093 211.846 150.242C211.767 150.387 211.727 150.562 211.727 150.767V153H211.076ZM217.013 153.084C216.649 153.084 216.325 152.998 216.04 152.825C215.755 152.652 215.531 152.417 215.368 152.118C215.205 151.815 215.123 151.476 215.123 151.103C215.123 150.725 215.202 150.389 215.361 150.095C215.524 149.801 215.744 149.57 216.019 149.402C216.299 149.229 216.612 149.143 216.957 149.143C217.237 149.143 217.484 149.194 217.699 149.297C217.918 149.395 218.103 149.53 218.252 149.703C218.406 149.871 218.523 150.065 218.602 150.284C218.686 150.499 218.728 150.723 218.728 150.956C218.728 151.007 218.723 151.066 218.714 151.131C218.709 151.192 218.702 151.25 218.693 151.306H215.599V150.746H218.315L218.007 150.998C218.049 150.755 218.026 150.538 217.937 150.347C217.848 150.156 217.718 150.004 217.545 149.892C217.372 149.78 217.176 149.724 216.957 149.724C216.738 149.724 216.537 149.78 216.355 149.892C216.173 150.004 216.031 150.165 215.928 150.375C215.83 150.58 215.79 150.825 215.809 151.11C215.79 151.385 215.832 151.628 215.935 151.838C216.042 152.043 216.192 152.204 216.383 152.321C216.579 152.433 216.791 152.489 217.02 152.489C217.272 152.489 217.484 152.431 217.657 152.314C217.83 152.197 217.97 152.048 218.077 151.866L218.623 152.146C218.548 152.319 218.432 152.477 218.273 152.622C218.119 152.762 217.935 152.874 217.72 152.958C217.51 153.042 217.274 153.084 217.013 153.084Z" fill="#1D2220" fill-opacity="0.4"/>
<path d="M81.581 191V185.785H83.772C84.0847 185.785 84.353 185.841 84.577 185.953C84.8057 186.065 84.9807 186.224 85.102 186.429C85.228 186.63 85.291 186.87 85.291 187.15C85.291 187.407 85.2233 187.64 85.088 187.85C84.9573 188.055 84.7637 188.216 84.507 188.333L84.5 188.074C84.724 188.158 84.9083 188.27 85.053 188.41C85.2023 188.545 85.3143 188.704 85.389 188.886C85.4637 189.063 85.501 189.252 85.501 189.453C85.501 189.934 85.347 190.312 85.039 190.587C84.731 190.862 84.311 191 83.779 191H81.581ZM82.267 190.37H83.807C84.1103 190.37 84.353 190.288 84.535 190.125C84.717 189.962 84.808 189.74 84.808 189.46C84.808 189.18 84.717 188.958 84.535 188.795C84.353 188.627 84.1103 188.543 83.807 188.543H82.267V190.37ZM82.267 187.927H83.758C84.01 187.927 84.213 187.855 84.367 187.71C84.521 187.561 84.598 187.372 84.598 187.143C84.598 186.905 84.521 186.723 84.367 186.597C84.213 186.471 84.01 186.408 83.758 186.408H82.267V187.927ZM87.8277 191.084C87.557 191.084 87.312 191.021 87.0927 190.895C86.878 190.769 86.71 190.594 86.5887 190.37C86.472 190.141 86.4137 189.88 86.4137 189.586V187.227H87.0647V189.516C87.0647 189.703 87.102 189.866 87.1767 190.006C87.256 190.146 87.3633 190.256 87.4987 190.335C87.6387 190.414 87.7973 190.454 87.9747 190.454C88.152 190.454 88.3083 190.414 88.4437 190.335C88.5837 190.256 88.691 190.141 88.7657 189.992C88.845 189.843 88.8847 189.665 88.8847 189.46V187.227H89.5427V191H88.9057V190.265L89.0107 190.328C88.922 190.566 88.7703 190.753 88.5557 190.888C88.3457 191.019 88.103 191.084 87.8277 191.084ZM92.0422 191.084C91.6642 191.084 91.3352 190.991 91.0552 190.804C90.7752 190.617 90.5769 190.365 90.4602 190.048L90.9782 189.796C91.0856 190.02 91.2326 190.197 91.4192 190.328C91.6059 190.459 91.8136 190.524 92.0422 190.524C92.2476 190.524 92.4179 190.475 92.5532 190.377C92.6886 190.279 92.7562 190.151 92.7562 189.992C92.7562 189.88 92.7236 189.791 92.6582 189.726C92.5976 189.656 92.5229 189.602 92.4342 189.565C92.3456 189.523 92.2639 189.493 92.1892 189.474L91.6222 189.313C91.2816 189.215 91.0319 189.075 90.8732 188.893C90.7192 188.711 90.6422 188.499 90.6422 188.256C90.6422 188.032 90.6982 187.838 90.8102 187.675C90.9269 187.507 91.0832 187.376 91.2792 187.283C91.4799 187.19 91.7039 187.143 91.9512 187.143C92.2826 187.143 92.5789 187.227 92.8402 187.395C93.1062 187.563 93.2952 187.799 93.4072 188.102L92.8752 188.347C92.7912 188.151 92.6652 187.997 92.4972 187.885C92.3292 187.768 92.1402 187.71 91.9302 187.71C91.7389 187.71 91.5872 187.759 91.4752 187.857C91.3632 187.95 91.3072 188.069 91.3072 188.214C91.3072 188.321 91.3352 188.41 91.3912 188.48C91.4472 188.545 91.5149 188.597 91.5942 188.634C91.6736 188.667 91.7506 188.695 91.8252 188.718L92.4412 188.9C92.7492 188.989 92.9872 189.126 93.1552 189.313C93.3279 189.5 93.4142 189.724 93.4142 189.985C93.4142 190.195 93.3559 190.384 93.2392 190.552C93.1226 190.72 92.9616 190.851 92.7562 190.944C92.5509 191.037 92.3129 191.084 92.0422 191.084ZM94.4064 191V187.227H95.0574V191H94.4064ZM94.4064 186.625V185.785H95.0574V186.625H94.4064ZM96.2076 191V187.227H96.8446V187.962L96.7396 187.899C96.8329 187.661 96.9822 187.477 97.1876 187.346C97.3976 187.211 97.6426 187.143 97.9226 187.143C98.1932 187.143 98.4336 187.204 98.6436 187.325C98.8582 187.446 99.0262 187.614 99.1476 187.829C99.2736 188.044 99.3366 188.286 99.3366 188.557V191H98.6786V188.767C98.6786 188.557 98.6412 188.38 98.5666 188.235C98.4919 188.09 98.3846 187.978 98.2446 187.899C98.1092 187.815 97.9529 187.773 97.7756 187.773C97.5982 187.773 97.4396 187.815 97.2996 187.899C97.1642 187.978 97.0569 188.093 96.9776 188.242C96.8982 188.387 96.8586 188.562 96.8586 188.767V191H96.2076ZM102.144 191.084C101.78 191.084 101.456 190.998 101.171 190.825C100.886 190.652 100.662 190.417 100.499 190.118C100.336 189.815 100.254 189.476 100.254 189.103C100.254 188.725 100.333 188.389 100.492 188.095C100.655 187.801 100.875 187.57 101.15 187.402C101.43 187.229 101.743 187.143 102.088 187.143C102.368 187.143 102.615 187.194 102.83 187.297C103.049 187.395 103.234 187.53 103.383 187.703C103.537 187.871 103.654 188.065 103.733 188.284C103.817 188.499 103.859 188.723 103.859 188.956C103.859 189.007 103.854 189.066 103.845 189.131C103.84 189.192 103.833 189.25 103.824 189.306H100.73V188.746H103.446L103.138 188.998C103.18 188.755 103.157 188.538 103.068 188.347C102.979 188.156 102.849 188.004 102.676 187.892C102.503 187.78 102.307 187.724 102.088 187.724C101.869 187.724 101.668 187.78 101.486 187.892C101.304 188.004 101.162 188.165 101.059 188.375C100.961 188.58 100.921 188.825 100.94 189.11C100.921 189.385 100.963 189.628 101.066 189.838C101.173 190.043 101.323 190.204 101.514 190.321C101.71 190.433 101.922 190.489 102.151 190.489C102.403 190.489 102.615 190.431 102.788 190.314C102.961 190.197 103.101 190.048 103.208 189.866L103.754 190.146C103.679 190.319 103.563 190.477 103.404 190.622C103.25 190.762 103.066 190.874 102.851 190.958C102.641 191.042 102.405 191.084 102.144 191.084ZM106.199 191.084C105.821 191.084 105.492 190.991 105.212 190.804C104.932 190.617 104.734 190.365 104.617 190.048L105.135 189.796C105.242 190.02 105.389 190.197 105.576 190.328C105.763 190.459 105.97 190.524 106.199 190.524C106.404 190.524 106.575 190.475 106.71 190.377C106.845 190.279 106.913 190.151 106.913 189.992C106.913 189.88 106.88 189.791 106.815 189.726C106.754 189.656 106.68 189.602 106.591 189.565C106.502 189.523 106.421 189.493 106.346 189.474L105.779 189.313C105.438 189.215 105.189 189.075 105.03 188.893C104.876 188.711 104.799 188.499 104.799 188.256C104.799 188.032 104.855 187.838 104.967 187.675C105.084 187.507 105.24 187.376 105.436 187.283C105.637 187.19 105.861 187.143 106.108 187.143C106.439 187.143 106.736 187.227 106.997 187.395C107.263 187.563 107.452 187.799 107.564 188.102L107.032 188.347C106.948 188.151 106.822 187.997 106.654 187.885C106.486 187.768 106.297 187.71 106.087 187.71C105.896 187.71 105.744 187.759 105.632 187.857C105.52 187.95 105.464 188.069 105.464 188.214C105.464 188.321 105.492 188.41 105.548 188.48C105.604 188.545 105.672 188.597 105.751 188.634C105.83 188.667 105.907 188.695 105.982 188.718L106.598 188.9C106.906 188.989 107.144 189.126 107.312 189.313C107.485 189.5 107.571 189.724 107.571 189.985C107.571 190.195 107.513 190.384 107.396 190.552C107.279 190.72 107.118 190.851 106.913 190.944C106.708 191.037 106.47 191.084 106.199 191.084ZM109.914 191.084C109.536 191.084 109.207 190.991 108.927 190.804C108.647 190.617 108.449 190.365 108.332 190.048L108.85 189.796C108.957 190.02 109.104 190.197 109.291 190.328C109.478 190.459 109.685 190.524 109.914 190.524C110.119 190.524 110.29 190.475 110.425 190.377C110.56 190.279 110.628 190.151 110.628 189.992C110.628 189.88 110.595 189.791 110.53 189.726C110.469 189.656 110.395 189.602 110.306 189.565C110.217 189.523 110.136 189.493 110.061 189.474L109.494 189.313C109.153 189.215 108.904 189.075 108.745 188.893C108.591 188.711 108.514 188.499 108.514 188.256C108.514 188.032 108.57 187.838 108.682 187.675C108.799 187.507 108.955 187.376 109.151 187.283C109.352 187.19 109.576 187.143 109.823 187.143C110.154 187.143 110.451 187.227 110.712 187.395C110.978 187.563 111.167 187.799 111.279 188.102L110.747 188.347C110.663 188.151 110.537 187.997 110.369 187.885C110.201 187.768 110.012 187.71 109.802 187.71C109.611 187.71 109.459 187.759 109.347 187.857C109.235 187.95 109.179 188.069 109.179 188.214C109.179 188.321 109.207 188.41 109.263 188.48C109.319 188.545 109.387 188.597 109.466 188.634C109.545 188.667 109.622 188.695 109.697 188.718L110.313 188.9C110.621 188.989 110.859 189.126 111.027 189.313C111.2 189.5 111.286 189.724 111.286 189.985C111.286 190.195 111.228 190.384 111.111 190.552C110.994 190.72 110.833 190.851 110.628 190.944C110.423 191.037 110.185 191.084 109.914 191.084ZM113.705 191V185.785H114.279L117.275 189.999L117.016 190.027V185.785H117.709V191H117.135L114.153 186.758L114.391 186.73V191H113.705ZM120.042 191.084C119.795 191.084 119.576 191.04 119.384 190.951C119.198 190.858 119.051 190.732 118.943 190.573C118.836 190.41 118.782 190.223 118.782 190.013C118.782 189.812 118.824 189.633 118.908 189.474C118.997 189.311 119.132 189.173 119.314 189.061C119.501 188.949 119.734 188.87 120.014 188.823L121.414 188.592V189.138L120.161 189.348C119.919 189.39 119.741 189.467 119.629 189.579C119.522 189.691 119.468 189.829 119.468 189.992C119.468 190.146 119.529 190.274 119.65 190.377C119.776 190.48 119.933 190.531 120.119 190.531C120.357 190.531 120.563 190.482 120.735 190.384C120.913 190.281 121.05 190.144 121.148 189.971C121.251 189.798 121.302 189.607 121.302 189.397V188.438C121.302 188.233 121.225 188.067 121.071 187.941C120.922 187.81 120.724 187.745 120.476 187.745C120.262 187.745 120.07 187.801 119.902 187.913C119.739 188.02 119.618 188.165 119.538 188.347L118.971 188.053C119.041 187.88 119.153 187.726 119.307 187.591C119.461 187.451 119.641 187.341 119.846 187.262C120.052 187.183 120.266 187.143 120.49 187.143C120.78 187.143 121.034 187.199 121.253 187.311C121.473 187.418 121.643 187.57 121.764 187.766C121.89 187.957 121.953 188.181 121.953 188.438V191H121.316V190.286L121.435 190.328C121.356 190.477 121.249 190.608 121.113 190.72C120.978 190.832 120.819 190.921 120.637 190.986C120.455 191.051 120.257 191.084 120.042 191.084ZM123.103 191V187.227H123.74V187.997L123.649 187.878C123.742 187.64 123.891 187.458 124.097 187.332C124.302 187.206 124.533 187.143 124.79 187.143C125.084 187.143 125.347 187.225 125.581 187.388C125.819 187.551 125.982 187.766 126.071 188.032L125.889 188.039C125.987 187.745 126.152 187.523 126.386 187.374C126.619 187.22 126.878 187.143 127.163 187.143C127.424 187.143 127.66 187.204 127.87 187.325C128.084 187.446 128.255 187.614 128.381 187.829C128.507 188.044 128.57 188.286 128.57 188.557V191H127.912V188.767C127.912 188.557 127.874 188.38 127.8 188.235C127.725 188.09 127.622 187.978 127.492 187.899C127.366 187.815 127.216 187.773 127.044 187.773C126.876 187.773 126.724 187.815 126.589 187.899C126.458 187.978 126.353 188.093 126.274 188.242C126.199 188.387 126.162 188.562 126.162 188.767V191H125.504V188.767C125.504 188.557 125.466 188.38 125.392 188.235C125.317 188.09 125.214 187.978 125.084 187.899C124.958 187.815 124.808 187.773 124.636 187.773C124.468 187.773 124.316 187.815 124.181 187.899C124.05 187.978 123.945 188.093 123.866 188.242C123.791 188.387 123.754 188.562 123.754 188.767V191H123.103ZM131.37 191.084C131.006 191.084 130.682 190.998 130.397 190.825C130.113 190.652 129.889 190.417 129.725 190.118C129.562 189.815 129.48 189.476 129.48 189.103C129.48 188.725 129.56 188.389 129.718 188.095C129.882 187.801 130.101 187.57 130.376 187.402C130.656 187.229 130.969 187.143 131.314 187.143C131.594 187.143 131.842 187.194 132.056 187.297C132.276 187.395 132.46 187.53 132.609 187.703C132.763 187.871 132.88 188.065 132.959 188.284C133.043 188.499 133.085 188.723 133.085 188.956C133.085 189.007 133.081 189.066 133.071 189.131C133.067 189.192 133.06 189.25 133.05 189.306H129.956V188.746H132.672L132.364 188.998C132.406 188.755 132.383 188.538 132.294 188.347C132.206 188.156 132.075 188.004 131.902 187.892C131.73 187.78 131.534 187.724 131.314 187.724C131.095 187.724 130.894 187.78 130.712 187.892C130.53 188.004 130.388 188.165 130.285 188.375C130.187 188.58 130.148 188.825 130.166 189.11C130.148 189.385 130.19 189.628 130.292 189.838C130.4 190.043 130.549 190.204 130.74 190.321C130.936 190.433 131.149 190.489 131.377 190.489C131.629 190.489 131.842 190.431 132.014 190.314C132.187 190.197 132.327 190.048 132.434 189.866L132.98 190.146C132.906 190.319 132.789 190.477 132.63 190.622C132.476 190.762 132.292 190.874 132.077 190.958C131.867 191.042 131.632 191.084 131.37 191.084Z" fill="#1D2220" fill-opacity="0.4"/>
<rect y="125" width="371" height="109" fill="url(#paint1_linear_1_1213)"/>
<g filter="url(#filter1_dd_1_1213)">
<rect x="40" y="93" width="290" height="44" rx="8" fill="white"/>
<rect x="41" y="94" width="288" height="42" rx="7" stroke="#019F53" stroke-opacity="0.5" stroke-width="2"/>
</g>
<path d="M52.132 119L55.336 110.06H56.728L59.932 119H58.672L57.94 116.9H54.124L53.392 119H52.132ZM54.496 115.82H57.568L55.864 110.912H56.2L54.496 115.82ZM61.1665 119V112.532H62.2585V113.852L62.1025 113.648C62.2625 113.24 62.5185 112.928 62.8705 112.712C63.2225 112.496 63.6185 112.388 64.0585 112.388C64.5625 112.388 65.0145 112.528 65.4145 112.808C65.8225 113.088 66.1025 113.456 66.2545 113.912L65.9425 113.924C66.1105 113.42 66.3945 113.04 66.7945 112.784C67.1945 112.52 67.6385 112.388 68.1265 112.388C68.5745 112.388 68.9785 112.492 69.3385 112.7C69.7065 112.908 69.9985 113.196 70.2145 113.564C70.4305 113.932 70.5385 114.348 70.5385 114.812V119H69.4105V115.172C69.4105 114.812 69.3465 114.508 69.2185 114.26C69.0905 114.012 68.9145 113.82 68.6905 113.684C68.4745 113.54 68.2185 113.468 67.9225 113.468C67.6345 113.468 67.3745 113.54 67.1425 113.684C66.9185 113.82 66.7385 114.016 66.6025 114.272C66.4745 114.52 66.4105 114.82 66.4105 115.172V119H65.2825V115.172C65.2825 114.812 65.2185 114.508 65.0905 114.26C64.9625 114.012 64.7865 113.82 64.5625 113.684C64.3465 113.54 64.0905 113.468 63.7945 113.468C63.5065 113.468 63.2465 113.54 63.0145 113.684C62.7905 113.82 62.6105 114.016 62.4745 114.272C62.3465 114.52 62.2825 114.82 62.2825 115.172V119H61.1665ZM72.3635 119V112.532H73.4555V113.72L73.3355 113.552C73.4875 113.184 73.7195 112.912 74.0315 112.736C74.3435 112.552 74.7235 112.46 75.1715 112.46H75.5675V113.516H75.0035C74.5475 113.516 74.1795 113.66 73.8995 113.948C73.6195 114.228 73.4795 114.628 73.4795 115.148V119H72.3635ZM76.7988 119V112.532H77.9148V119H76.7988ZM76.7988 111.5V110.06H77.9148V111.5H76.7988ZM82.5145 119.072C81.8825 119.072 81.3945 118.892 81.0505 118.532C80.7145 118.172 80.5465 117.664 80.5465 117.008V113.6H79.3705V112.532H79.6105C79.8985 112.532 80.1265 112.444 80.2945 112.268C80.4625 112.092 80.5465 111.86 80.5465 111.572V111.044H81.6625V112.532H83.1145V113.6H81.6625V116.972C81.6625 117.188 81.6945 117.376 81.7585 117.536C81.8305 117.696 81.9465 117.824 82.1065 117.92C82.2665 118.008 82.4785 118.052 82.7425 118.052C82.7985 118.052 82.8665 118.048 82.9465 118.04C83.0345 118.032 83.1145 118.024 83.1865 118.016V119C83.0825 119.024 82.9665 119.04 82.8385 119.048C82.7105 119.064 82.6025 119.072 82.5145 119.072ZM90.4025 119.144C89.8345 119.144 89.3145 119.04 88.8425 118.832C88.3705 118.616 87.9705 118.324 87.6425 117.956C87.3145 117.588 87.0785 117.176 86.9345 116.72L87.9545 116.3C88.1705 116.876 88.4905 117.32 88.9145 117.632C89.3465 117.936 89.8505 118.088 90.4265 118.088C90.7785 118.088 91.0865 118.032 91.3505 117.92C91.6145 117.808 91.8185 117.652 91.9625 117.452C92.1145 117.244 92.1905 117.004 92.1905 116.732C92.1905 116.356 92.0825 116.06 91.8665 115.844C91.6585 115.62 91.3505 115.452 90.9425 115.34L89.2985 114.836C88.6505 114.636 88.1545 114.32 87.8105 113.888C87.4665 113.456 87.2945 112.96 87.2945 112.4C87.2945 111.912 87.4105 111.484 87.6425 111.116C87.8825 110.74 88.2105 110.448 88.6265 110.24C89.0505 110.024 89.5305 109.916 90.0665 109.916C90.6025 109.916 91.0865 110.012 91.5185 110.204C91.9585 110.396 92.3305 110.656 92.6345 110.984C92.9385 111.304 93.1625 111.672 93.3065 112.088L92.2985 112.508C92.1065 112.004 91.8185 111.624 91.4345 111.368C91.0505 111.104 90.5985 110.972 90.0785 110.972C89.7585 110.972 89.4745 111.028 89.2265 111.14C88.9865 111.244 88.7985 111.4 88.6625 111.608C88.5345 111.808 88.4705 112.048 88.4705 112.328C88.4705 112.656 88.5745 112.948 88.7825 113.204C88.9905 113.46 89.3065 113.656 89.7305 113.792L91.2305 114.236C91.9345 114.452 92.4665 114.76 92.8265 115.16C93.1865 115.56 93.3665 116.056 93.3665 116.648C93.3665 117.136 93.2385 117.568 92.9825 117.944C92.7345 118.32 92.3865 118.616 91.9385 118.832C91.4985 119.04 90.9865 119.144 90.4025 119.144ZM97.4883 119.144C97.0243 119.144 96.6043 119.036 96.2283 118.82C95.8603 118.604 95.5723 118.304 95.3643 117.92C95.1643 117.528 95.0643 117.08 95.0643 116.576V112.532H96.1803V116.456C96.1803 116.776 96.2443 117.056 96.3723 117.296C96.5083 117.536 96.6923 117.724 96.9243 117.86C97.1643 117.996 97.4363 118.064 97.7403 118.064C98.0443 118.064 98.3123 117.996 98.5443 117.86C98.7843 117.724 98.9683 117.528 99.0963 117.272C99.2323 117.016 99.3003 116.712 99.3003 116.36V112.532H100.428V119H99.3363V117.74L99.5163 117.848C99.3643 118.256 99.1043 118.576 98.7363 118.808C98.3763 119.032 97.9603 119.144 97.4883 119.144ZM102.397 119V112.532H103.489V113.792L103.309 113.684C103.469 113.276 103.725 112.96 104.077 112.736C104.437 112.504 104.857 112.388 105.337 112.388C105.801 112.388 106.213 112.492 106.573 112.7C106.941 112.908 107.229 113.196 107.437 113.564C107.653 113.932 107.761 114.348 107.761 114.812V119H106.633V115.172C106.633 114.812 106.569 114.508 106.441 114.26C106.313 114.012 106.129 113.82 105.889 113.684C105.657 113.54 105.389 113.468 105.085 113.468C104.781 113.468 104.509 113.54 104.269 113.684C104.037 113.82 103.853 114.016 103.717 114.272C103.581 114.52 103.513 114.82 103.513 115.172V119H102.397ZM111.494 119.144C111.07 119.144 110.694 119.068 110.366 118.916C110.046 118.756 109.794 118.54 109.61 118.268C109.426 117.988 109.334 117.668 109.334 117.308C109.334 116.964 109.406 116.656 109.55 116.384C109.702 116.104 109.934 115.868 110.246 115.676C110.566 115.484 110.966 115.348 111.446 115.268L113.846 114.872V115.808L111.698 116.168C111.282 116.24 110.978 116.372 110.786 116.564C110.602 116.756 110.51 116.992 110.51 117.272C110.51 117.536 110.614 117.756 110.822 117.932C111.038 118.108 111.306 118.196 111.626 118.196C112.034 118.196 112.386 118.112 112.682 117.944C112.986 117.768 113.222 117.532 113.39 117.236C113.566 116.94 113.654 116.612 113.654 116.252V114.608C113.654 114.256 113.522 113.972 113.258 113.756C113.002 113.532 112.662 113.42 112.238 113.42C111.87 113.42 111.542 113.516 111.254 113.708C110.974 113.892 110.766 114.14 110.63 114.452L109.658 113.948C109.778 113.652 109.97 113.388 110.234 113.156C110.498 112.916 110.806 112.728 111.158 112.592C111.51 112.456 111.878 112.388 112.262 112.388C112.758 112.388 113.194 112.484 113.57 112.676C113.946 112.86 114.238 113.12 114.446 113.456C114.662 113.784 114.77 114.168 114.77 114.608V119H113.678V117.776L113.882 117.848C113.746 118.104 113.562 118.328 113.33 118.52C113.098 118.712 112.826 118.864 112.514 118.976C112.202 119.088 111.862 119.144 111.494 119.144ZM116.741 119V112.532H117.833V113.72L117.713 113.552C117.865 113.184 118.097 112.912 118.409 112.736C118.721 112.552 119.101 112.46 119.549 112.46H119.945V113.516H119.381C118.925 113.516 118.557 113.66 118.277 113.948C117.997 114.228 117.857 114.628 117.857 115.148V119H116.741ZM121.176 119V112.532H122.292V119H121.176ZM121.176 111.5V110.06H122.292V111.5H121.176Z" fill="#1D2220" fill-opacity="0.8"/>
<rect x="291" y="105" width="20" height="20" rx="10" fill="#019F53"/>
<path d="M305 112.5L300 117.5L297.5 115" stroke="white" stroke-width="1.2" stroke-linecap="round" stroke-linejoin="round"/>
</g>
<rect x="0.5" y="0.5" width="370" height="233" rx="7.5" stroke="#1D2220" stroke-opacity="0.03"/>
<defs>
<filter id="filter0_d_1_1213" x="41" y="27" width="286" height="242" filterUnits="userSpaceOnUse" color-interpolation-filters="sRGB">
<feFlood flood-opacity="0" result="BackgroundImageFix"/>
<feColorMatrix in="SourceAlpha" type="matrix" values="0 0 0 0 0 0 0 0 0 0 0 0 0 0 0 0 0 0 127 0" result="hardAlpha"/>
<feOffset dy="8"/>
<feGaussianBlur stdDeviation="10"/>
<feComposite in2="hardAlpha" operator="out"/>
<feColorMatrix type="matrix" values="0 0 0 0 0 0 0 0 0 0 0 0 0 0 0 0 0 0 0.1 0"/>
<feBlend mode="normal" in2="BackgroundImageFix" result="effect1_dropShadow_1_1213"/>
<feBlend mode="normal" in="SourceGraphic" in2="effect1_dropShadow_1_1213" result="shape"/>
</filter>
<filter id="filter1_dd_1_1213" x="31" y="89" width="308" height="65" filterUnits="userSpaceOnUse" color-interpolation-filters="sRGB">
<feFlood flood-opacity="0" result="BackgroundImageFix"/>
<feColorMatrix in="SourceAlpha" type="matrix" values="0 0 0 0 0 0 0 0 0 0 0 0 0 0 0 0 0 0 127 0" result="hardAlpha"/>
<feMorphology radius="4" operator="dilate" in="SourceAlpha" result="effect1_dropShadow_1_1213"/>
<feOffset/>
<feComposite in2="hardAlpha" operator="out"/>
<feColorMatrix type="matrix" values="0 0 0 0 0.00392157 0 0 0 0 0.623529 0 0 0 0 0.32549 0 0 0 0.1 0"/>
<feBlend mode="normal" in2="BackgroundImageFix" result="effect1_dropShadow_1_1213"/>
<feColorMatrix in="SourceAlpha" type="matrix" values="0 0 0 0 0 0 0 0 0 0 0 0 0 0 0 0 0 0 127 0" result="hardAlpha"/>
<feOffset dy="8"/>
<feGaussianBlur stdDeviation="4.5"/>
<feComposite in2="hardAlpha" operator="out"/>
<feColorMatrix type="matrix" values="0 0 0 0 0.00392157 0 0 0 0 0.623529 0 0 0 0 0.32549 0 0 0 0.12 0"/>
<feBlend mode="normal" in2="effect1_dropShadow_1_1213" result="effect2_dropShadow_1_1213"/>
<feBlend mode="normal" in="SourceGraphic" in2="effect2_dropShadow_1_1213" result="shape"/>
</filter>
<linearGradient id="paint0_linear_1_1213" x1="182" y1="29" x2="182" y2="234" gradientUnits="userSpaceOnUse">
<stop stop-color="white" stop-opacity="0"/>
<stop offset="1" stop-color="white"/>
</linearGradient>
<linearGradient id="paint1_linear_1_1213" x1="185.5" y1="125" x2="185.5" y2="234" gradientUnits="userSpaceOnUse">
<stop stop-color="white" stop-opacity="0"/>
<stop offset="0.887102" stop-color="#FAFBFC"/>
</linearGradient>
<clipPath id="clip0_1_1213">
<rect width="371" height="234" rx="8" fill="white"/>
</clipPath>
</defs>
</svg>
