<svg width="371" height="234" viewBox="0 0 371 234" fill="none" xmlns="http://www.w3.org/2000/svg">
<g clip-path="url(#clip0_1_1476)">
<rect width="371" height="234" rx="8" fill="#FBFBFB"/>
<mask id="mask0_1_1476" style="mask-type:luminance" maskUnits="userSpaceOnUse" x="-28" y="0" width="418" height="233">
<path d="M389.141 0H-27.595V233H389.141V0Z" fill="white"/>
</mask>
<g mask="url(#mask0_1_1476)">
<path d="M420.725 263.544H-59.179V-30.5415H420.725L420.725 263.544ZM-58.5587 262.937H420.105V-29.9347H-58.5587V262.937Z" fill="#1D2220" fill-opacity="0.04"/>
<path d="M420.415 218.914H-58.8689V219.52H420.415V218.914Z" fill="#1D2220" fill-opacity="0.04"/>
<path d="M420.415 204.241H-58.8689V204.848H420.415V204.241Z" fill="#1D2220" fill-opacity="0.04"/>
<path d="M420.415 189.566H-58.8689V190.173H420.415V189.566Z" fill="#1D2220" fill-opacity="0.04"/>
<path d="M420.415 174.892H-58.8689V175.499H420.415V174.892Z" fill="#1D2220" fill-opacity="0.04"/>
<path d="M420.415 160.218H-58.8689V160.825H420.415V160.218Z" fill="#1D2220" fill-opacity="0.04"/>
<path d="M420.415 145.544H-58.8689V146.151H420.415V145.544Z" fill="#1D2220" fill-opacity="0.04"/>
<path d="M420.415 130.871H-58.8689V131.477H420.415V130.871Z" fill="#1D2220" fill-opacity="0.04"/>
<path d="M420.415 116.196H-58.8689V116.803H420.415V116.196Z" fill="#1D2220" fill-opacity="0.04"/>
<path d="M420.415 101.523H-58.8689V102.13H420.415V101.523Z" fill="#1D2220" fill-opacity="0.04"/>
<path d="M420.415 86.8501H-58.8689V87.4569H420.415V86.8501Z" fill="#1D2220" fill-opacity="0.04"/>
<path d="M420.415 72.1763H-58.8689V72.783H420.415V72.1763Z" fill="#1D2220" fill-opacity="0.04"/>
<path d="M420.415 57.5015H-58.8689V58.1082H420.415V57.5015Z" fill="#1D2220" fill-opacity="0.04"/>
<path d="M420.415 42.8276H-58.8689V43.4344H420.415V42.8276Z" fill="#1D2220" fill-opacity="0.04"/>
<path d="M420.415 28.1538H-58.8689V28.7606H420.415V28.1538Z" fill="#1D2220" fill-opacity="0.04"/>
<path d="M420.415 13.48H-58.8689V14.0868H420.415V13.48Z" fill="#1D2220" fill-opacity="0.04"/>
<path d="M362.63 -30.2378H362.01V263.241H362.63V-30.2378Z" fill="#1D2220" fill-opacity="0.04"/>
<path d="M348.106 -30.2378H347.486V263.241H348.106V-30.2378Z" fill="#1D2220" fill-opacity="0.04"/>
<path d="M333.582 -30.2378H332.962V263.241H333.582V-30.2378Z" fill="#1D2220" fill-opacity="0.04"/>
<path d="M319.059 -30.2378H318.439V263.241H319.059V-30.2378Z" fill="#1D2220" fill-opacity="0.04"/>
<path d="M304.535 -30.2378H303.915V263.241H304.535V-30.2378Z" fill="#1D2220" fill-opacity="0.04"/>
<path d="M290.011 -30.2378H289.391V263.241H290.011V-30.2378Z" fill="#1D2220" fill-opacity="0.04"/>
<path d="M275.488 -30.2378H274.867V263.241H275.488V-30.2378Z" fill="#1D2220" fill-opacity="0.04"/>
<path d="M260.964 -30.2378H260.344V263.241H260.964V-30.2378Z" fill="#1D2220" fill-opacity="0.04"/>
<path d="M246.44 -30.2378H245.82V263.241H246.44V-30.2378Z" fill="#1D2220" fill-opacity="0.04"/>
<path d="M231.916 -30.2378H231.296V263.241H231.916V-30.2378Z" fill="#1D2220" fill-opacity="0.04"/>
<path d="M217.392 -30.2378H216.772V263.241H217.392V-30.2378Z" fill="#1D2220" fill-opacity="0.04"/>
<path d="M202.869 -30.2378H202.249V263.241H202.869V-30.2378Z" fill="#1D2220" fill-opacity="0.04"/>
<path d="M188.345 -30.2378H187.725V263.241H188.345V-30.2378Z" fill="#1D2220" fill-opacity="0.04"/>
<path d="M173.821 -30.2378H173.201V263.241H173.821V-30.2378Z" fill="#1D2220" fill-opacity="0.04"/>
<path d="M159.298 -30.2378H158.677V263.241H159.298V-30.2378Z" fill="#1D2220" fill-opacity="0.04"/>
<path d="M144.774 -30.2378H144.154V263.241H144.774V-30.2378Z" fill="#1D2220" fill-opacity="0.04"/>
<path d="M130.25 -30.2378H129.63V263.241H130.25V-30.2378Z" fill="#1D2220" fill-opacity="0.04"/>
<path d="M115.726 -30.2378H115.106V263.241H115.726V-30.2378Z" fill="#1D2220" fill-opacity="0.04"/>
<path d="M101.202 -30.2378H100.582V263.241H101.202V-30.2378Z" fill="#1D2220" fill-opacity="0.04"/>
<path d="M86.6787 -30.2378H86.0586V263.241H86.6787V-30.2378Z" fill="#1D2220" fill-opacity="0.04"/>
<path d="M72.1551 -30.2378H71.5349V263.241H72.1551V-30.2378Z" fill="#1D2220" fill-opacity="0.04"/>
<path d="M57.6314 -30.2378H57.0112V263.241H57.6314V-30.2378Z" fill="#1D2220" fill-opacity="0.04"/>
<path d="M43.1077 -30.2378H42.4875V263.241H43.1077V-30.2378Z" fill="#1D2220" fill-opacity="0.04"/>
<path d="M28.5838 -30.2378H27.9636V263.241H28.5838V-30.2378Z" fill="#1D2220" fill-opacity="0.04"/>
<path d="M14.0601 -30.2378H13.4399V263.241H14.0601V-30.2378Z" fill="#1D2220" fill-opacity="0.04"/>
</g>
<rect y="29" width="363" height="205" fill="url(#paint0_linear_1_1476)"/>
<g filter="url(#filter0_d_1_1476)">
<rect x="119.379" y="46.2217" width="208" height="154" rx="8" transform="rotate(3.83203 119.379 46.2217)" fill="white"/>
<rect x="119.844" y="46.754" width="207" height="153" rx="7.5" transform="rotate(3.83203 119.844 46.754)" stroke="#1D2220" stroke-opacity="0.08"/>
<rect opacity="0.8" x="275.277" y="69.2842" width="38" height="38" rx="19" transform="rotate(3.83203 275.277 69.2842)" fill="#DBDFE7"/>
<rect opacity="0.8" x="167.499" y="122.2" width="142" height="8" rx="4" transform="rotate(3.83203 167.499 122.2)" fill="#DBDFE7"/>
<rect opacity="0.8" x="225.297" y="142.106" width="83" height="8" rx="4" transform="rotate(3.83203 225.297 142.106)" fill="#DBDFE7"/>
<rect opacity="0.8" x="203.275" y="156.671" width="104" height="8" rx="4" transform="rotate(3.83203 203.275 156.671)" fill="#DBDFE7"/>
<rect opacity="0.8" x="186.304" y="185.599" width="119" height="8" rx="4" transform="rotate(3.83203 186.304 185.599)" fill="#DBDFE7"/>
</g>
<g filter="url(#filter1_d_1_1476)">
<rect x="46.9448" y="58.3672" width="208" height="152" rx="8" transform="rotate(-2.37098 46.9448 58.3672)" fill="white"/>
<rect x="47.4651" y="58.8461" width="207" height="151" rx="7.5" transform="rotate(-2.37098 47.4651 58.8461)" stroke="#1D2220" stroke-opacity="0.08"/>
<rect opacity="0.8" x="61.8721" y="128.812" width="12" height="12" rx="4" transform="rotate(-2.37098 61.8721 128.812)" fill="#DBDFE7"/>
<rect opacity="0.8" x="59.6284" y="72.4453" width="38" height="38" rx="4" transform="rotate(-2.37098 59.6284 72.4453)" fill="#DBDFE7"/>
<rect opacity="0.8" x="62.6992" y="148.795" width="12" height="12" rx="4" transform="rotate(-2.37098 62.6992 148.795)" fill="#DBDFE7"/>
<rect opacity="0.8" x="63.5266" y="168.777" width="12" height="12" rx="4" transform="rotate(-2.37098 63.5266 168.777)" fill="#DBDFE7"/>
<rect opacity="0.8" x="79.9392" y="130.066" width="142" height="8" rx="4" transform="rotate(-2.37098 79.9392 130.066)" fill="#DBDFE7"/>
<rect opacity="0.8" x="81.7659" y="150.006" width="83" height="8" rx="4" transform="rotate(-2.37098 81.7659 150.006)" fill="#DBDFE7"/>
<rect opacity="0.8" x="82.5928" y="169.988" width="127" height="8" rx="4" transform="rotate(-2.37098 82.5928 169.988)" fill="#DBDFE7"/>
</g>
<rect y="82" width="371" height="152" fill="url(#paint1_linear_1_1476)"/>
<g filter="url(#filter2_dd_1_1476)">
<rect x="82" y="47" width="208" height="147" rx="8" fill="white"/>
<rect x="83" y="48" width="206" height="145" rx="7" stroke="#019F53" stroke-width="2"/>
<path opacity="0.8" d="M90 183C90 180.791 91.7909 179 94 179H110C112.209 179 114 180.791 114 183V194H90V183Z" fill="#DBDFE7"/>
<path opacity="0.8" d="M118 176C118 173.791 119.791 172 122 172H138C140.209 172 142 173.791 142 176V194H118V176Z" fill="#DBDFE7"/>
<path opacity="0.8" d="M146 166C146 163.791 147.791 162 150 162H166C168.209 162 170 163.791 170 166V194H146V166Z" fill="#DBDFE7"/>
<path opacity="0.8" d="M174 154C174 151.791 175.791 150 178 150H194C196.209 150 198 151.791 198 154V194H174V154Z" fill="#DBDFE7"/>
<path opacity="0.8" d="M202 143C202 140.791 203.791 139 206 139H222C224.209 139 226 140.791 226 143V194H202V143Z" fill="#DBDFE7"/>
<path opacity="0.8" d="M230 123C230 120.791 231.791 119 234 119H250C252.209 119 254 120.791 254 123V194H230V123Z" fill="#DBDFE7"/>
<path opacity="0.8" d="M258 102C258 99.7909 259.791 98 262 98H278C280.209 98 282 99.7909 282 102V194H258V102Z" fill="#DBDFE7"/>
<path d="M98.05 113L102.502 103.97H97.49V102.57H104.224V103.97L99.842 113H98.05ZM108.945 113.168C108.394 113.168 107.876 113.07 107.391 112.874C106.905 112.669 106.485 112.384 106.131 112.02C105.776 111.656 105.524 111.217 105.375 110.704L106.761 110.172C106.938 110.667 107.227 111.045 107.629 111.306C108.03 111.567 108.469 111.698 108.945 111.698C109.337 111.698 109.682 111.609 109.981 111.432C110.279 111.255 110.513 111.012 110.681 110.704C110.858 110.396 110.947 110.046 110.947 109.654C110.947 109.253 110.858 108.903 110.681 108.604C110.513 108.296 110.279 108.058 109.981 107.89C109.682 107.713 109.337 107.624 108.945 107.624C108.553 107.624 108.193 107.713 107.867 107.89C107.54 108.067 107.302 108.305 107.153 108.604L105.823 108.31L106.635 102.57H112.193V103.97H107.279L107.909 103.284L107.307 107.68L106.789 107.33C107.069 106.938 107.409 106.653 107.811 106.476C108.212 106.299 108.669 106.21 109.183 106.21C109.864 106.21 110.457 106.364 110.961 106.672C111.474 106.971 111.871 107.381 112.151 107.904C112.44 108.417 112.585 109.001 112.585 109.654C112.585 110.317 112.426 110.914 112.109 111.446C111.791 111.978 111.357 112.398 110.807 112.706C110.265 113.014 109.645 113.168 108.945 113.168ZM115.276 113V111.18H116.886V113H115.276ZM122.999 113.168C122.318 113.168 121.711 113.019 121.179 112.72C120.647 112.421 120.227 112.011 119.919 111.488C119.621 110.965 119.471 110.373 119.471 109.71C119.471 109.365 119.509 109.019 119.583 108.674C119.658 108.329 119.789 107.969 119.975 107.596C120.171 107.223 120.433 106.821 120.759 106.392L123.671 102.57H125.645L122.075 107.19L121.795 107.008C121.926 106.859 122.066 106.742 122.215 106.658C122.374 106.574 122.537 106.513 122.705 106.476C122.883 106.439 123.069 106.42 123.265 106.42C123.891 106.42 124.451 106.565 124.945 106.854C125.44 107.143 125.827 107.535 126.107 108.03C126.397 108.525 126.541 109.094 126.541 109.738C126.541 110.391 126.387 110.979 126.079 111.502C125.771 112.015 125.351 112.421 124.819 112.72C124.297 113.019 123.69 113.168 122.999 113.168ZM122.999 111.698C123.363 111.698 123.685 111.614 123.965 111.446C124.245 111.278 124.469 111.049 124.637 110.76C124.805 110.461 124.889 110.125 124.889 109.752C124.889 109.369 124.805 109.033 124.637 108.744C124.479 108.455 124.255 108.231 123.965 108.072C123.685 107.904 123.363 107.82 122.999 107.82C122.645 107.82 122.323 107.904 122.033 108.072C121.753 108.231 121.529 108.455 121.361 108.744C121.193 109.033 121.109 109.369 121.109 109.752C121.109 110.125 121.193 110.461 121.361 110.76C121.529 111.049 121.753 111.278 122.033 111.446C122.323 111.614 122.645 111.698 122.999 111.698ZM132.99 113V110.648H128.02V109.276L132.92 102.57H134.558V109.276H136V110.648H134.558V113H132.99ZM129.238 109.878L128.972 109.276H132.99V103.886L133.438 104.026L129.238 109.878ZM137.882 113V102.57H139.534V108.226L139.1 108.058L143.818 102.57H145.876L141.704 107.456L141.788 106.28L146.044 113H144.098L141.046 108.226L139.534 109.99V113H137.882Z" fill="#1D2220"/>
<path d="M101.39 129.12C100.863 129.12 100.37 129.027 99.91 128.84C99.45 128.647 99.0467 128.377 98.7 128.03C98.36 127.683 98.0933 127.277 97.9 126.81C97.7067 126.337 97.61 125.823 97.61 125.27C97.61 124.71 97.7067 124.197 97.9 123.73C98.0933 123.263 98.36 122.857 98.7 122.51C99.0467 122.163 99.4467 121.897 99.9 121.71C100.36 121.523 100.857 121.43 101.39 121.43C101.923 121.43 102.417 121.527 102.87 121.72C103.33 121.907 103.73 122.173 104.07 122.52C104.417 122.86 104.687 123.263 104.88 123.73C105.08 124.197 105.18 124.71 105.18 125.27C105.18 125.823 105.08 126.337 104.88 126.81C104.687 127.277 104.417 127.683 104.07 128.03C103.73 128.377 103.33 128.647 102.87 128.84C102.417 129.027 101.923 129.12 101.39 129.12ZM101.39 128.21C101.803 128.21 102.18 128.137 102.52 127.99C102.86 127.837 103.153 127.627 103.4 127.36C103.653 127.087 103.847 126.773 103.98 126.42C104.12 126.06 104.19 125.677 104.19 125.27C104.19 124.863 104.12 124.483 103.98 124.13C103.847 123.777 103.653 123.467 103.4 123.2C103.153 122.927 102.86 122.717 102.52 122.57C102.18 122.417 101.803 122.34 101.39 122.34C100.983 122.34 100.61 122.417 100.27 122.57C99.93 122.717 99.6333 122.927 99.38 123.2C99.1333 123.467 98.94 123.777 98.8 124.13C98.66 124.483 98.59 124.863 98.59 125.27C98.59 125.677 98.66 126.06 98.8 126.42C98.94 126.773 99.1333 127.087 99.38 127.36C99.6333 127.627 99.93 127.837 100.27 127.99C100.61 128.137 100.983 128.21 101.39 128.21ZM103.4 129.9L100.86 126.02H101.94L104.49 129.9H103.4ZM108.609 129.12C108.223 129.12 107.873 129.03 107.559 128.85C107.253 128.67 107.013 128.42 106.839 128.1C106.673 127.773 106.589 127.4 106.589 126.98V123.61H107.519V126.88C107.519 127.147 107.573 127.38 107.679 127.58C107.793 127.78 107.946 127.937 108.139 128.05C108.339 128.163 108.566 128.22 108.819 128.22C109.073 128.22 109.296 128.163 109.489 128.05C109.689 127.937 109.843 127.773 109.949 127.56C110.063 127.347 110.119 127.093 110.119 126.8V123.61H111.059V129H110.149V127.95L110.299 128.04C110.173 128.38 109.956 128.647 109.649 128.84C109.349 129.027 109.003 129.12 108.609 129.12ZM115.18 129.12C114.66 129.12 114.197 128.997 113.79 128.75C113.383 128.503 113.063 128.167 112.83 127.74C112.597 127.307 112.48 126.823 112.48 126.29C112.48 125.75 112.593 125.27 112.82 124.85C113.053 124.43 113.367 124.1 113.76 123.86C114.16 123.613 114.607 123.49 115.1 123.49C115.5 123.49 115.853 123.563 116.16 123.71C116.473 123.85 116.737 124.043 116.95 124.29C117.17 124.53 117.337 124.807 117.45 125.12C117.57 125.427 117.63 125.747 117.63 126.08C117.63 126.153 117.623 126.237 117.61 126.33C117.603 126.417 117.593 126.5 117.58 126.58H113.16V125.78H117.04L116.6 126.14C116.66 125.793 116.627 125.483 116.5 125.21C116.373 124.937 116.187 124.72 115.94 124.56C115.693 124.4 115.413 124.32 115.1 124.32C114.787 124.32 114.5 124.4 114.24 124.56C113.98 124.72 113.777 124.95 113.63 125.25C113.49 125.543 113.433 125.893 113.46 126.3C113.433 126.693 113.493 127.04 113.64 127.34C113.793 127.633 114.007 127.863 114.28 128.03C114.56 128.19 114.863 128.27 115.19 128.27C115.55 128.27 115.853 128.187 116.1 128.02C116.347 127.853 116.547 127.64 116.7 127.38L117.48 127.78C117.373 128.027 117.207 128.253 116.98 128.46C116.76 128.66 116.497 128.82 116.19 128.94C115.89 129.06 115.553 129.12 115.18 129.12ZM119.043 129V123.61H119.953V124.6L119.853 124.46C119.979 124.153 120.173 123.927 120.433 123.78C120.693 123.627 121.009 123.55 121.383 123.55H121.713V124.43H121.243C120.863 124.43 120.556 124.55 120.323 124.79C120.089 125.023 119.973 125.357 119.973 125.79V129H119.043ZM123.029 131.2C122.909 131.2 122.789 131.19 122.669 131.17C122.549 131.15 122.435 131.117 122.329 131.07V130.24C122.402 130.253 122.492 130.267 122.599 130.28C122.712 130.3 122.822 130.31 122.929 130.31C123.242 130.31 123.479 130.24 123.639 130.1C123.805 129.967 123.962 129.733 124.109 129.4L124.449 128.59L124.429 129.4L122.129 123.61H123.139L124.929 128.21H124.629L126.409 123.61H127.439L125.009 129.64C124.895 129.927 124.749 130.187 124.569 130.42C124.395 130.66 124.182 130.85 123.929 130.99C123.675 131.13 123.375 131.2 123.029 131.2ZM130.505 129V121.55H133.135C133.628 121.55 134.061 121.643 134.435 121.83C134.808 122.017 135.098 122.283 135.305 122.63C135.518 122.977 135.625 123.383 135.625 123.85C135.625 124.377 135.491 124.823 135.225 125.19C134.958 125.557 134.598 125.82 134.145 125.98L135.875 129H134.735L132.915 125.77L133.565 126.15H131.485V129H130.505ZM131.485 125.25H133.165C133.458 125.25 133.715 125.193 133.935 125.08C134.155 124.967 134.325 124.803 134.445 124.59C134.571 124.377 134.635 124.13 134.635 123.85C134.635 123.563 134.571 123.317 134.445 123.11C134.325 122.897 134.155 122.733 133.935 122.62C133.715 122.507 133.458 122.45 133.165 122.45H131.485V125.25ZM139.256 129.12C138.736 129.12 138.273 128.997 137.866 128.75C137.46 128.503 137.14 128.167 136.906 127.74C136.673 127.307 136.556 126.823 136.556 126.29C136.556 125.75 136.67 125.27 136.896 124.85C137.13 124.43 137.443 124.1 137.836 123.86C138.236 123.613 138.683 123.49 139.176 123.49C139.576 123.49 139.93 123.563 140.236 123.71C140.55 123.85 140.813 124.043 141.026 124.29C141.246 124.53 141.413 124.807 141.526 125.12C141.646 125.427 141.706 125.747 141.706 126.08C141.706 126.153 141.7 126.237 141.686 126.33C141.68 126.417 141.67 126.5 141.656 126.58H137.236V125.78H141.116L140.676 126.14C140.736 125.793 140.703 125.483 140.576 125.21C140.45 124.937 140.263 124.72 140.016 124.56C139.77 124.4 139.49 124.32 139.176 124.32C138.863 124.32 138.576 124.4 138.316 124.56C138.056 124.72 137.853 124.95 137.706 125.25C137.566 125.543 137.51 125.893 137.536 126.3C137.51 126.693 137.57 127.04 137.716 127.34C137.87 127.633 138.083 127.863 138.356 128.03C138.636 128.19 138.94 128.27 139.266 128.27C139.626 128.27 139.93 128.187 140.176 128.02C140.423 127.853 140.623 127.64 140.776 127.38L141.556 127.78C141.45 128.027 141.283 128.253 141.056 128.46C140.836 128.66 140.573 128.82 140.266 128.94C139.966 129.06 139.63 129.12 139.256 129.12ZM145.049 129.12C144.509 129.12 144.039 128.987 143.639 128.72C143.239 128.453 142.955 128.093 142.789 127.64L143.529 127.28C143.682 127.6 143.892 127.853 144.159 128.04C144.425 128.227 144.722 128.32 145.049 128.32C145.342 128.32 145.585 128.25 145.779 128.11C145.972 127.97 146.069 127.787 146.069 127.56C146.069 127.4 146.022 127.273 145.929 127.18C145.842 127.08 145.735 127.003 145.609 126.95C145.482 126.89 145.365 126.847 145.259 126.82L144.449 126.59C143.962 126.45 143.605 126.25 143.379 125.99C143.159 125.73 143.049 125.427 143.049 125.08C143.049 124.76 143.129 124.483 143.289 124.25C143.455 124.01 143.679 123.823 143.959 123.69C144.245 123.557 144.565 123.49 144.919 123.49C145.392 123.49 145.815 123.61 146.189 123.85C146.569 124.09 146.839 124.427 146.999 124.86L146.239 125.21C146.119 124.93 145.939 124.71 145.699 124.55C145.459 124.383 145.189 124.3 144.889 124.3C144.615 124.3 144.399 124.37 144.239 124.51C144.079 124.643 143.999 124.813 143.999 125.02C143.999 125.173 144.039 125.3 144.119 125.4C144.199 125.493 144.295 125.567 144.409 125.62C144.522 125.667 144.632 125.707 144.739 125.74L145.619 126C146.059 126.127 146.399 126.323 146.639 126.59C146.885 126.857 147.009 127.177 147.009 127.55C147.009 127.85 146.925 128.12 146.759 128.36C146.592 128.6 146.362 128.787 146.069 128.92C145.775 129.053 145.435 129.12 145.049 129.12ZM150.986 129.12C150.466 129.12 149.996 129 149.576 128.76C149.156 128.513 148.823 128.177 148.576 127.75C148.33 127.323 148.206 126.84 148.206 126.3C148.206 125.76 148.326 125.28 148.566 124.86C148.813 124.44 149.146 124.107 149.566 123.86C149.986 123.613 150.46 123.49 150.986 123.49C151.506 123.49 151.976 123.613 152.396 123.86C152.816 124.1 153.146 124.43 153.386 124.85C153.633 125.27 153.756 125.753 153.756 126.3C153.756 126.847 153.63 127.333 153.376 127.76C153.123 128.18 152.786 128.513 152.366 128.76C151.953 129 151.493 129.12 150.986 129.12ZM150.986 128.22C151.32 128.22 151.62 128.137 151.886 127.97C152.16 127.803 152.373 127.573 152.526 127.28C152.686 126.987 152.766 126.66 152.766 126.3C152.766 125.933 152.686 125.61 152.526 125.33C152.373 125.043 152.16 124.817 151.886 124.65C151.62 124.477 151.32 124.39 150.986 124.39C150.646 124.39 150.34 124.477 150.066 124.65C149.8 124.817 149.586 125.043 149.426 125.33C149.266 125.61 149.186 125.933 149.186 126.3C149.186 126.66 149.266 126.987 149.426 127.28C149.586 127.573 149.8 127.803 150.066 127.97C150.34 128.137 150.646 128.22 150.986 128.22ZM155.169 129V121.43H156.099V129H155.169ZM159.242 129L157.132 123.61H158.172L159.862 128.17H159.502L161.202 123.61H162.242L160.122 129H159.242ZM165.657 129.12C165.137 129.12 164.673 128.997 164.267 128.75C163.86 128.503 163.54 128.167 163.307 127.74C163.073 127.307 162.957 126.823 162.957 126.29C162.957 125.75 163.07 125.27 163.297 124.85C163.53 124.43 163.843 124.1 164.237 123.86C164.637 123.613 165.083 123.49 165.577 123.49C165.977 123.49 166.33 123.563 166.637 123.71C166.95 123.85 167.213 124.043 167.427 124.29C167.647 124.53 167.813 124.807 167.927 125.12C168.047 125.427 168.107 125.747 168.107 126.08C168.107 126.153 168.1 126.237 168.087 126.33C168.08 126.417 168.07 126.5 168.057 126.58H163.637V125.78H167.517L167.077 126.14C167.137 125.793 167.103 125.483 166.977 125.21C166.85 124.937 166.663 124.72 166.417 124.56C166.17 124.4 165.89 124.32 165.577 124.32C165.263 124.32 164.977 124.4 164.717 124.56C164.457 124.72 164.253 124.95 164.107 125.25C163.967 125.543 163.91 125.893 163.937 126.3C163.91 126.693 163.97 127.04 164.117 127.34C164.27 127.633 164.483 127.863 164.757 128.03C165.037 128.19 165.34 128.27 165.667 128.27C166.027 128.27 166.33 128.187 166.577 128.02C166.823 127.853 167.023 127.64 167.177 127.38L167.957 127.78C167.85 128.027 167.683 128.253 167.457 128.46C167.237 128.66 166.973 128.82 166.667 128.94C166.367 129.06 166.03 129.12 165.657 129.12ZM171.969 129.12C171.463 129.12 171.006 128.997 170.599 128.75C170.199 128.503 169.883 128.167 169.649 127.74C169.416 127.313 169.299 126.837 169.299 126.31C169.299 125.77 169.416 125.29 169.649 124.87C169.883 124.443 170.199 124.107 170.599 123.86C171.006 123.613 171.463 123.49 171.969 123.49C172.416 123.49 172.813 123.587 173.159 123.78C173.506 123.967 173.779 124.22 173.979 124.54L173.829 124.77V121.43H174.769V129H173.859V127.85L173.979 128.01C173.793 128.363 173.519 128.637 173.159 128.83C172.806 129.023 172.409 129.12 171.969 129.12ZM172.049 128.22C172.389 128.22 172.693 128.137 172.959 127.97C173.226 127.803 173.436 127.577 173.589 127.29C173.749 126.997 173.829 126.67 173.829 126.31C173.829 125.943 173.749 125.617 173.589 125.33C173.436 125.037 173.226 124.807 172.959 124.64C172.693 124.473 172.389 124.39 172.049 124.39C171.716 124.39 171.413 124.477 171.139 124.65C170.873 124.817 170.663 125.043 170.509 125.33C170.356 125.61 170.279 125.937 170.279 126.31C170.279 126.67 170.356 126.997 170.509 127.29C170.663 127.577 170.873 127.803 171.139 127.97C171.406 128.137 171.709 128.22 172.049 128.22Z" fill="#1D2220" fill-opacity="0.6"/>
<rect x="97" y="63" width="24" height="24" rx="12" fill="#019F53"/>
<path d="M113.667 72.084L107.833 77.9173L104.917 75.0007" stroke="white" stroke-width="1.5" stroke-linecap="round" stroke-linejoin="round"/>
</g>
</g>
<rect x="0.5" y="0.5" width="370" height="233" rx="7.5" stroke="#1D2220" stroke-opacity="0.03"/>
<defs>
<filter id="filter0_d_1_1476" x="89.0867" y="34.2217" width="257.827" height="207.557" filterUnits="userSpaceOnUse" color-interpolation-filters="sRGB">
<feFlood flood-opacity="0" result="BackgroundImageFix"/>
<feColorMatrix in="SourceAlpha" type="matrix" values="0 0 0 0 0 0 0 0 0 0 0 0 0 0 0 0 0 0 127 0" result="hardAlpha"/>
<feOffset dy="8"/>
<feGaussianBlur stdDeviation="10"/>
<feComposite in2="hardAlpha" operator="out"/>
<feColorMatrix type="matrix" values="0 0 0 0 0.113725 0 0 0 0 0.133333 0 0 0 0 0.12549 0 0 0 0.1 0"/>
<feBlend mode="normal" in2="BackgroundImageFix" result="effect1_dropShadow_1_1476"/>
<feBlend mode="normal" in="SourceGraphic" in2="effect1_dropShadow_1_1476" result="shape"/>
</filter>
<filter id="filter1_d_1_1476" x="26.9448" y="37.7622" width="254.11" height="200.475" filterUnits="userSpaceOnUse" color-interpolation-filters="sRGB">
<feFlood flood-opacity="0" result="BackgroundImageFix"/>
<feColorMatrix in="SourceAlpha" type="matrix" values="0 0 0 0 0 0 0 0 0 0 0 0 0 0 0 0 0 0 127 0" result="hardAlpha"/>
<feOffset dy="8"/>
<feGaussianBlur stdDeviation="10"/>
<feComposite in2="hardAlpha" operator="out"/>
<feColorMatrix type="matrix" values="0 0 0 0 0.113725 0 0 0 0 0.133333 0 0 0 0 0.12549 0 0 0 0.1 0"/>
<feBlend mode="normal" in2="BackgroundImageFix" result="effect1_dropShadow_1_1476"/>
<feBlend mode="normal" in="SourceGraphic" in2="effect1_dropShadow_1_1476" result="shape"/>
</filter>
<filter id="filter2_dd_1_1476" x="73" y="43" width="226" height="168" filterUnits="userSpaceOnUse" color-interpolation-filters="sRGB">
<feFlood flood-opacity="0" result="BackgroundImageFix"/>
<feColorMatrix in="SourceAlpha" type="matrix" values="0 0 0 0 0 0 0 0 0 0 0 0 0 0 0 0 0 0 127 0" result="hardAlpha"/>
<feMorphology radius="4" operator="dilate" in="SourceAlpha" result="effect1_dropShadow_1_1476"/>
<feOffset/>
<feComposite in2="hardAlpha" operator="out"/>
<feColorMatrix type="matrix" values="0 0 0 0 0.00392157 0 0 0 0 0.623529 0 0 0 0 0.32549 0 0 0 0.1 0"/>
<feBlend mode="normal" in2="BackgroundImageFix" result="effect1_dropShadow_1_1476"/>
<feColorMatrix in="SourceAlpha" type="matrix" values="0 0 0 0 0 0 0 0 0 0 0 0 0 0 0 0 0 0 127 0" result="hardAlpha"/>
<feOffset dy="8"/>
<feGaussianBlur stdDeviation="4.5"/>
<feComposite in2="hardAlpha" operator="out"/>
<feColorMatrix type="matrix" values="0 0 0 0 0.00392157 0 0 0 0 0.623529 0 0 0 0 0.32549 0 0 0 0.12 0"/>
<feBlend mode="normal" in2="effect1_dropShadow_1_1476" result="effect2_dropShadow_1_1476"/>
<feBlend mode="normal" in="SourceGraphic" in2="effect2_dropShadow_1_1476" result="shape"/>
</filter>
<linearGradient id="paint0_linear_1_1476" x1="182" y1="29" x2="182" y2="234" gradientUnits="userSpaceOnUse">
<stop stop-color="white" stop-opacity="0"/>
<stop offset="1" stop-color="white"/>
</linearGradient>
<linearGradient id="paint1_linear_1_1476" x1="185.5" y1="82" x2="185.5" y2="234" gradientUnits="userSpaceOnUse">
<stop stop-color="white" stop-opacity="0"/>
<stop offset="0.887102" stop-color="#FAFBFC"/>
</linearGradient>
<clipPath id="clip0_1_1476">
<rect width="371" height="234" rx="8" fill="white"/>
</clipPath>
</defs>
</svg>
