<svg width="371" height="234" viewBox="0 0 371 234" fill="none" xmlns="http://www.w3.org/2000/svg">
<g clip-path="url(#clip0_1_1348)">
<rect width="371" height="234" rx="8" fill="#FBFBFB"/>
<mask id="mask0_1_1348" style="mask-type:luminance" maskUnits="userSpaceOnUse" x="-28" y="0" width="418" height="233">
<path d="M389.141 0H-27.5951V233H389.141V0Z" fill="white"/>
</mask>
<g mask="url(#mask0_1_1348)">
<path d="M420.725 263.544H-59.1791V-30.5415H420.725L420.725 263.544ZM-58.5588 262.937H420.105V-29.9347H-58.5588V262.937Z" fill="#1D2220" fill-opacity="0.04"/>
<path d="M420.415 218.914H-58.8689V219.52H420.415V218.914Z" fill="#1D2220" fill-opacity="0.04"/>
<path d="M420.415 204.241H-58.8689V204.848H420.415V204.241Z" fill="#1D2220" fill-opacity="0.04"/>
<path d="M420.415 189.566H-58.8689V190.173H420.415V189.566Z" fill="#1D2220" fill-opacity="0.04"/>
<path d="M420.415 174.892H-58.8689V175.499H420.415V174.892Z" fill="#1D2220" fill-opacity="0.04"/>
<path d="M420.415 160.218H-58.8689V160.825H420.415V160.218Z" fill="#1D2220" fill-opacity="0.04"/>
<path d="M420.415 145.544H-58.8689V146.151H420.415V145.544Z" fill="#1D2220" fill-opacity="0.04"/>
<path d="M420.415 130.871H-58.8689V131.477H420.415V130.871Z" fill="#1D2220" fill-opacity="0.04"/>
<path d="M420.415 116.196H-58.8689V116.803H420.415V116.196Z" fill="#1D2220" fill-opacity="0.04"/>
<path d="M420.415 101.523H-58.8689V102.13H420.415V101.523Z" fill="#1D2220" fill-opacity="0.04"/>
<path d="M420.415 86.8501H-58.8689V87.4569H420.415V86.8501Z" fill="#1D2220" fill-opacity="0.04"/>
<path d="M420.415 72.1763H-58.8689V72.783H420.415V72.1763Z" fill="#1D2220" fill-opacity="0.04"/>
<path d="M420.415 57.5015H-58.8689V58.1082H420.415V57.5015Z" fill="#1D2220" fill-opacity="0.04"/>
<path d="M420.415 42.8276H-58.8689V43.4344H420.415V42.8276Z" fill="#1D2220" fill-opacity="0.04"/>
<path d="M420.415 28.1538H-58.8689V28.7606H420.415V28.1538Z" fill="#1D2220" fill-opacity="0.04"/>
<path d="M420.415 13.48H-58.8689V14.0868H420.415V13.48Z" fill="#1D2220" fill-opacity="0.04"/>
<path d="M362.63 -30.2378H362.01V263.241H362.63V-30.2378Z" fill="#1D2220" fill-opacity="0.04"/>
<path d="M348.106 -30.2378H347.486V263.241H348.106V-30.2378Z" fill="#1D2220" fill-opacity="0.04"/>
<path d="M333.582 -30.2378H332.962V263.241H333.582V-30.2378Z" fill="#1D2220" fill-opacity="0.04"/>
<path d="M319.059 -30.2378H318.438V263.241H319.059V-30.2378Z" fill="#1D2220" fill-opacity="0.04"/>
<path d="M304.535 -30.2378H303.915V263.241H304.535V-30.2378Z" fill="#1D2220" fill-opacity="0.04"/>
<path d="M290.011 -30.2378H289.391V263.241H290.011V-30.2378Z" fill="#1D2220" fill-opacity="0.04"/>
<path d="M275.487 -30.2378H274.867V263.241H275.487V-30.2378Z" fill="#1D2220" fill-opacity="0.04"/>
<path d="M260.964 -30.2378H260.344V263.241H260.964V-30.2378Z" fill="#1D2220" fill-opacity="0.04"/>
<path d="M246.44 -30.2378H245.82V263.241H246.44V-30.2378Z" fill="#1D2220" fill-opacity="0.04"/>
<path d="M231.916 -30.2378H231.296V263.241H231.916V-30.2378Z" fill="#1D2220" fill-opacity="0.04"/>
<path d="M217.392 -30.2378H216.772V263.241H217.392V-30.2378Z" fill="#1D2220" fill-opacity="0.04"/>
<path d="M202.868 -30.2378H202.248V263.241H202.868V-30.2378Z" fill="#1D2220" fill-opacity="0.04"/>
<path d="M188.345 -30.2378H187.725V263.241H188.345V-30.2378Z" fill="#1D2220" fill-opacity="0.04"/>
<path d="M173.821 -30.2378H173.201V263.241H173.821V-30.2378Z" fill="#1D2220" fill-opacity="0.04"/>
<path d="M159.298 -30.2378H158.677V263.241H159.298V-30.2378Z" fill="#1D2220" fill-opacity="0.04"/>
<path d="M144.774 -30.2378H144.154V263.241H144.774V-30.2378Z" fill="#1D2220" fill-opacity="0.04"/>
<path d="M130.25 -30.2378H129.63V263.241H130.25V-30.2378Z" fill="#1D2220" fill-opacity="0.04"/>
<path d="M115.726 -30.2378H115.106V263.241H115.726V-30.2378Z" fill="#1D2220" fill-opacity="0.04"/>
<path d="M101.202 -30.2378H100.582V263.241H101.202V-30.2378Z" fill="#1D2220" fill-opacity="0.04"/>
<path d="M86.6785 -30.2378H86.0583V263.241H86.6785V-30.2378Z" fill="#1D2220" fill-opacity="0.04"/>
<path d="M72.1551 -30.2378H71.5349V263.241H72.1551V-30.2378Z" fill="#1D2220" fill-opacity="0.04"/>
<path d="M57.6311 -30.2378H57.011V263.241H57.6311V-30.2378Z" fill="#1D2220" fill-opacity="0.04"/>
<path d="M43.1075 -30.2378H42.4873V263.241H43.1075V-30.2378Z" fill="#1D2220" fill-opacity="0.04"/>
<path d="M28.5838 -30.2378H27.9636V263.241H28.5838V-30.2378Z" fill="#1D2220" fill-opacity="0.04"/>
<path d="M14.0601 -30.2378H13.4399V263.241H14.0601V-30.2378Z" fill="#1D2220" fill-opacity="0.04"/>
</g>
<rect y="29" width="363" height="205" fill="url(#paint0_linear_1_1348)"/>
<g opacity="0.8" filter="url(#filter0_d_1_1348)">
<rect x="64" y="47" width="244" height="36" rx="8" fill="white" shape-rendering="crispEdges"/>
<rect x="64.5" y="47.5" width="243" height="35" rx="7.5" stroke="#1D2220" stroke-opacity="0.12" shape-rendering="crispEdges"/>
<rect x="76" y="55" width="20" height="20" rx="10" fill="#019F53"/>
<path d="M90 62.5L85 67.5L82.5 65" stroke="white" stroke-width="1.2" stroke-linecap="round" stroke-linejoin="round"/>
<path d="M108.996 70V61.06H112.752C113.288 61.06 113.748 61.156 114.132 61.348C114.524 61.54 114.824 61.812 115.032 62.164C115.248 62.508 115.356 62.92 115.356 63.4C115.356 63.84 115.24 64.24 115.008 64.6C114.784 64.952 114.452 65.228 114.012 65.428L114 64.984C114.384 65.128 114.7 65.32 114.948 65.56C115.204 65.792 115.396 66.064 115.524 66.376C115.652 66.68 115.716 67.004 115.716 67.348C115.716 68.172 115.452 68.82 114.924 69.292C114.396 69.764 113.676 70 112.764 70H108.996ZM110.172 68.92H112.812C113.332 68.92 113.748 68.78 114.06 68.5C114.372 68.22 114.528 67.84 114.528 67.36C114.528 66.88 114.372 66.5 114.06 66.22C113.748 65.932 113.332 65.788 112.812 65.788H110.172V68.92ZM110.172 64.732H112.728C113.16 64.732 113.508 64.608 113.772 64.36C114.036 64.104 114.168 63.78 114.168 63.388C114.168 62.98 114.036 62.668 113.772 62.452C113.508 62.236 113.16 62.128 112.728 62.128H110.172V64.732ZM119.309 70.144C118.885 70.144 118.509 70.068 118.181 69.916C117.861 69.756 117.609 69.54 117.425 69.268C117.241 68.988 117.149 68.668 117.149 68.308C117.149 67.964 117.221 67.656 117.365 67.384C117.517 67.104 117.749 66.868 118.061 66.676C118.381 66.484 118.781 66.348 119.261 66.268L121.661 65.872V66.808L119.513 67.168C119.097 67.24 118.793 67.372 118.601 67.564C118.417 67.756 118.325 67.992 118.325 68.272C118.325 68.536 118.429 68.756 118.637 68.932C118.853 69.108 119.121 69.196 119.441 69.196C119.849 69.196 120.201 69.112 120.497 68.944C120.801 68.768 121.037 68.532 121.205 68.236C121.381 67.94 121.469 67.612 121.469 67.252V65.608C121.469 65.256 121.337 64.972 121.073 64.756C120.817 64.532 120.477 64.42 120.053 64.42C119.685 64.42 119.357 64.516 119.069 64.708C118.789 64.892 118.581 65.14 118.445 65.452L117.473 64.948C117.593 64.652 117.785 64.388 118.049 64.156C118.313 63.916 118.621 63.728 118.973 63.592C119.325 63.456 119.693 63.388 120.077 63.388C120.573 63.388 121.009 63.484 121.385 63.676C121.761 63.86 122.053 64.12 122.261 64.456C122.477 64.784 122.585 65.168 122.585 65.608V70H121.493V68.776L121.697 68.848C121.561 69.104 121.377 69.328 121.145 69.52C120.913 69.712 120.641 69.864 120.329 69.976C120.017 70.088 119.677 70.144 119.309 70.144ZM126.871 70.144C126.223 70.144 125.659 69.984 125.179 69.664C124.699 69.344 124.359 68.912 124.159 68.368L125.047 67.936C125.231 68.32 125.483 68.624 125.803 68.848C126.123 69.072 126.479 69.184 126.871 69.184C127.223 69.184 127.515 69.1 127.747 68.932C127.979 68.764 128.095 68.544 128.095 68.272C128.095 68.08 128.039 67.928 127.927 67.816C127.823 67.696 127.695 67.604 127.543 67.54C127.391 67.468 127.251 67.416 127.123 67.384L126.151 67.108C125.567 66.94 125.139 66.7 124.867 66.388C124.603 66.076 124.471 65.712 124.471 65.296C124.471 64.912 124.567 64.58 124.759 64.3C124.959 64.012 125.227 63.788 125.563 63.628C125.907 63.468 126.291 63.388 126.715 63.388C127.283 63.388 127.791 63.532 128.239 63.82C128.695 64.108 129.019 64.512 129.211 65.032L128.299 65.452C128.155 65.116 127.939 64.852 127.651 64.66C127.363 64.46 127.039 64.36 126.679 64.36C126.351 64.36 126.091 64.444 125.899 64.612C125.707 64.772 125.611 64.976 125.611 65.224C125.611 65.408 125.659 65.56 125.755 65.68C125.851 65.792 125.967 65.88 126.103 65.944C126.239 66 126.371 66.048 126.499 66.088L127.555 66.4C128.083 66.552 128.491 66.788 128.779 67.108C129.075 67.428 129.223 67.812 129.223 68.26C129.223 68.62 129.123 68.944 128.923 69.232C128.723 69.52 128.447 69.744 128.095 69.904C127.743 70.064 127.335 70.144 126.871 70.144ZM130.924 70V63.532H132.04V70H130.924ZM130.924 62.5V61.06H132.04V62.5H130.924ZM137.011 70.144C136.379 70.144 135.815 69.996 135.319 69.7C134.831 69.404 134.447 69 134.167 68.488C133.887 67.976 133.747 67.4 133.747 66.76C133.747 66.112 133.887 65.536 134.167 65.032C134.447 64.528 134.831 64.128 135.319 63.832C135.815 63.536 136.379 63.388 137.011 63.388C137.435 63.388 137.831 63.464 138.199 63.616C138.567 63.768 138.891 63.972 139.171 64.228C139.451 64.484 139.655 64.784 139.783 65.128L138.787 65.608C138.635 65.272 138.403 65 138.091 64.792C137.779 64.576 137.419 64.468 137.011 64.468C136.619 64.468 136.263 64.568 135.943 64.768C135.631 64.968 135.383 65.24 135.199 65.584C135.015 65.928 134.923 66.324 134.923 66.772C134.923 67.204 135.015 67.596 135.199 67.948C135.383 68.292 135.631 68.564 135.943 68.764C136.263 68.964 136.619 69.064 137.011 69.064C137.419 69.064 137.779 68.96 138.091 68.752C138.403 68.536 138.635 68.252 138.787 67.9L139.783 68.404C139.655 68.74 139.451 69.04 139.171 69.304C138.891 69.56 138.567 69.764 138.199 69.916C137.831 70.068 137.435 70.144 137.011 70.144ZM143.928 70V61.06H146.856C147.76 61.06 148.548 61.244 149.22 61.612C149.892 61.98 150.412 62.5 150.78 63.172C151.148 63.836 151.332 64.62 151.332 65.524C151.332 66.42 151.148 67.204 150.78 67.876C150.412 68.548 149.892 69.072 149.22 69.448C148.548 69.816 147.76 70 146.856 70H143.928ZM145.104 68.92H146.868C147.532 68.92 148.104 68.78 148.584 68.5C149.072 68.22 149.448 67.828 149.712 67.324C149.976 66.812 150.108 66.212 150.108 65.524C150.108 64.828 149.972 64.228 149.7 63.724C149.436 63.22 149.06 62.832 148.572 62.56C148.092 62.28 147.524 62.14 146.868 62.14H145.104V68.92ZM155.907 70.144C155.283 70.144 154.727 69.996 154.239 69.7C153.751 69.404 153.367 69 153.087 68.488C152.807 67.968 152.667 67.388 152.667 66.748C152.667 66.1 152.803 65.524 153.075 65.02C153.355 64.516 153.731 64.12 154.203 63.832C154.683 63.536 155.219 63.388 155.811 63.388C156.291 63.388 156.715 63.476 157.083 63.652C157.459 63.82 157.775 64.052 158.031 64.348C158.295 64.636 158.495 64.968 158.631 65.344C158.775 65.712 158.847 66.096 158.847 66.496C158.847 66.584 158.839 66.684 158.823 66.796C158.815 66.9 158.803 67 158.787 67.096H153.483V66.136H158.139L157.611 66.568C157.683 66.152 157.643 65.78 157.491 65.452C157.339 65.124 157.115 64.864 156.819 64.672C156.523 64.48 156.187 64.384 155.811 64.384C155.435 64.384 155.091 64.48 154.779 64.672C154.467 64.864 154.223 65.14 154.047 65.5C153.879 65.852 153.811 66.272 153.843 66.76C153.811 67.232 153.883 67.648 154.059 68.008C154.243 68.36 154.499 68.636 154.827 68.836C155.163 69.028 155.527 69.124 155.919 69.124C156.351 69.124 156.715 69.024 157.011 68.824C157.307 68.624 157.547 68.368 157.731 68.056L158.667 68.536C158.539 68.832 158.339 69.104 158.067 69.352C157.803 69.592 157.487 69.784 157.119 69.928C156.759 70.072 156.355 70.144 155.907 70.144ZM163.17 70.072C162.538 70.072 162.05 69.892 161.706 69.532C161.37 69.172 161.202 68.664 161.202 68.008V64.6H160.026V63.532H160.266C160.554 63.532 160.782 63.444 160.95 63.268C161.118 63.092 161.202 62.86 161.202 62.572V62.044H162.318V63.532H163.77V64.6H162.318V67.972C162.318 68.188 162.35 68.376 162.414 68.536C162.486 68.696 162.602 68.824 162.762 68.92C162.922 69.008 163.134 69.052 163.398 69.052C163.454 69.052 163.522 69.048 163.602 69.04C163.69 69.032 163.77 69.024 163.842 69.016V70C163.738 70.024 163.622 70.04 163.494 70.048C163.366 70.064 163.258 70.072 163.17 70.072ZM167.354 70.144C166.93 70.144 166.554 70.068 166.226 69.916C165.906 69.756 165.654 69.54 165.47 69.268C165.286 68.988 165.194 68.668 165.194 68.308C165.194 67.964 165.266 67.656 165.41 67.384C165.562 67.104 165.794 66.868 166.106 66.676C166.426 66.484 166.826 66.348 167.306 66.268L169.706 65.872V66.808L167.558 67.168C167.142 67.24 166.838 67.372 166.646 67.564C166.462 67.756 166.37 67.992 166.37 68.272C166.37 68.536 166.474 68.756 166.682 68.932C166.898 69.108 167.166 69.196 167.486 69.196C167.894 69.196 168.246 69.112 168.542 68.944C168.846 68.768 169.082 68.532 169.25 68.236C169.426 67.94 169.514 67.612 169.514 67.252V65.608C169.514 65.256 169.382 64.972 169.118 64.756C168.862 64.532 168.522 64.42 168.098 64.42C167.73 64.42 167.402 64.516 167.114 64.708C166.834 64.892 166.626 65.14 166.49 65.452L165.518 64.948C165.638 64.652 165.83 64.388 166.094 64.156C166.358 63.916 166.666 63.728 167.018 63.592C167.37 63.456 167.738 63.388 168.122 63.388C168.618 63.388 169.054 63.484 169.43 63.676C169.806 63.86 170.098 64.12 170.306 64.456C170.522 64.784 170.63 65.168 170.63 65.608V70H169.538V68.776L169.742 68.848C169.606 69.104 169.422 69.328 169.19 69.52C168.958 69.712 168.686 69.864 168.374 69.976C168.062 70.088 167.722 70.144 167.354 70.144ZM172.6 70V63.532H173.716V70H172.6ZM172.6 62.5V61.06H173.716V62.5H172.6ZM175.688 70V60.916H176.804V70H175.688ZM181.091 70.144C180.443 70.144 179.879 69.984 179.399 69.664C178.919 69.344 178.579 68.912 178.379 68.368L179.267 67.936C179.451 68.32 179.703 68.624 180.023 68.848C180.343 69.072 180.699 69.184 181.091 69.184C181.443 69.184 181.735 69.1 181.967 68.932C182.199 68.764 182.315 68.544 182.315 68.272C182.315 68.08 182.259 67.928 182.147 67.816C182.043 67.696 181.915 67.604 181.763 67.54C181.611 67.468 181.471 67.416 181.343 67.384L180.371 67.108C179.787 66.94 179.359 66.7 179.087 66.388C178.823 66.076 178.691 65.712 178.691 65.296C178.691 64.912 178.787 64.58 178.979 64.3C179.179 64.012 179.447 63.788 179.783 63.628C180.127 63.468 180.511 63.388 180.935 63.388C181.503 63.388 182.011 63.532 182.459 63.82C182.915 64.108 183.239 64.512 183.431 65.032L182.519 65.452C182.375 65.116 182.159 64.852 181.871 64.66C181.583 64.46 181.259 64.36 180.899 64.36C180.571 64.36 180.311 64.444 180.119 64.612C179.927 64.772 179.831 64.976 179.831 65.224C179.831 65.408 179.879 65.56 179.975 65.68C180.071 65.792 180.187 65.88 180.323 65.944C180.459 66 180.591 66.048 180.719 66.088L181.775 66.4C182.303 66.552 182.711 66.788 182.999 67.108C183.295 67.428 183.443 67.812 183.443 68.26C183.443 68.62 183.343 68.944 183.143 69.232C182.943 69.52 182.667 69.744 182.315 69.904C181.963 70.064 181.555 70.144 181.091 70.144Z" fill="#1D2220" fill-opacity="0.6"/>
</g>
<g filter="url(#filter1_dd_1_1348)">
<rect x="45" y="95" width="282" height="44" rx="8" fill="white"/>
<rect x="46" y="96" width="280" height="42" rx="7" stroke="#019F53" stroke-opacity="0.5" stroke-width="2"/>
<rect x="57" y="107" width="20" height="20" rx="10" fill="#019F53"/>
<path d="M64.414 121V120.073L66.232 118.174C66.592 117.796 66.868 117.496 67.06 117.274C67.258 117.046 67.396 116.851 67.474 116.689C67.552 116.527 67.591 116.362 67.591 116.194C67.591 115.912 67.501 115.69 67.321 115.528C67.147 115.366 66.922 115.285 66.646 115.285C66.358 115.285 66.109 115.369 65.899 115.537C65.689 115.699 65.536 115.939 65.44 116.257L64.369 115.924C64.441 115.57 64.588 115.264 64.81 115.006C65.032 114.742 65.302 114.541 65.62 114.403C65.944 114.259 66.286 114.187 66.646 114.187C67.078 114.187 67.456 114.265 67.78 114.421C68.11 114.577 68.365 114.796 68.545 115.078C68.731 115.36 68.824 115.69 68.824 116.068C68.824 116.308 68.779 116.545 68.689 116.779C68.599 117.013 68.464 117.253 68.284 117.499C68.104 117.739 67.87 118.009 67.582 118.309L66.007 119.965H68.914V121H64.414Z" fill="white"/>
<path d="M89.996 122V113.06H91.172V118.088L90.884 117.968L95.156 113.06H96.632L93.044 117.2L93.104 116.36L96.812 122H95.408L92.576 117.752L91.172 119.36V122H89.996ZM98.0493 122V115.532H99.1413V116.792L98.9613 116.684C99.1213 116.276 99.3773 115.96 99.7293 115.736C100.089 115.504 100.509 115.388 100.989 115.388C101.453 115.388 101.865 115.492 102.225 115.7C102.593 115.908 102.881 116.196 103.089 116.564C103.305 116.932 103.413 117.348 103.413 117.812V122H102.285V118.172C102.285 117.812 102.221 117.508 102.093 117.26C101.965 117.012 101.781 116.82 101.541 116.684C101.309 116.54 101.041 116.468 100.737 116.468C100.433 116.468 100.161 116.54 99.9213 116.684C99.6893 116.82 99.5053 117.016 99.3693 117.272C99.2333 117.52 99.1653 117.82 99.1653 118.172V122H98.0493ZM108.322 122.144C107.698 122.144 107.134 122 106.63 121.712C106.126 121.416 105.726 121.012 105.43 120.5C105.134 119.988 104.986 119.408 104.986 118.76C104.986 118.112 105.13 117.536 105.418 117.032C105.714 116.528 106.114 116.128 106.618 115.832C107.122 115.536 107.69 115.388 108.322 115.388C108.946 115.388 109.51 115.536 110.014 115.832C110.518 116.12 110.914 116.516 111.202 117.02C111.498 117.524 111.646 118.104 111.646 118.76C111.646 119.416 111.494 120 111.19 120.512C110.886 121.016 110.482 121.416 109.978 121.712C109.482 122 108.93 122.144 108.322 122.144ZM108.322 121.064C108.722 121.064 109.082 120.964 109.402 120.764C109.73 120.564 109.986 120.288 110.17 119.936C110.362 119.584 110.458 119.192 110.458 118.76C110.458 118.32 110.362 117.932 110.17 117.596C109.986 117.252 109.73 116.98 109.402 116.78C109.082 116.572 108.722 116.468 108.322 116.468C107.914 116.468 107.546 116.572 107.218 116.78C106.898 116.98 106.642 117.252 106.45 117.596C106.258 117.932 106.162 118.32 106.162 118.76C106.162 119.192 106.258 119.584 106.45 119.936C106.642 120.288 106.898 120.564 107.218 120.764C107.546 120.964 107.914 121.064 108.322 121.064ZM114.713 122L112.493 115.532H113.729L115.493 120.944L115.061 120.932L116.789 115.532H117.845L119.573 120.932L119.141 120.944L120.917 115.532H122.141L119.921 122H118.853L117.149 116.6H117.485L115.781 122H114.713ZM123.379 122V112.916H124.495V122H123.379ZM129.442 122.144C128.818 122.144 128.262 121.996 127.774 121.7C127.286 121.404 126.902 121 126.622 120.488C126.342 119.968 126.202 119.388 126.202 118.748C126.202 118.1 126.338 117.524 126.61 117.02C126.89 116.516 127.266 116.12 127.738 115.832C128.218 115.536 128.754 115.388 129.346 115.388C129.826 115.388 130.25 115.476 130.618 115.652C130.994 115.82 131.31 116.052 131.566 116.348C131.83 116.636 132.03 116.968 132.166 117.344C132.31 117.712 132.382 118.096 132.382 118.496C132.382 118.584 132.374 118.684 132.358 118.796C132.35 118.9 132.338 119 132.322 119.096H127.018V118.136H131.674L131.146 118.568C131.218 118.152 131.178 117.78 131.026 117.452C130.874 117.124 130.65 116.864 130.354 116.672C130.058 116.48 129.722 116.384 129.346 116.384C128.97 116.384 128.626 116.48 128.314 116.672C128.002 116.864 127.758 117.14 127.582 117.5C127.414 117.852 127.346 118.272 127.378 118.76C127.346 119.232 127.418 119.648 127.594 120.008C127.778 120.36 128.034 120.636 128.362 120.836C128.698 121.028 129.062 121.124 129.454 121.124C129.886 121.124 130.25 121.024 130.546 120.824C130.842 120.624 131.082 120.368 131.266 120.056L132.202 120.536C132.074 120.832 131.874 121.104 131.602 121.352C131.338 121.592 131.022 121.784 130.654 121.928C130.294 122.072 129.89 122.144 129.442 122.144ZM137.017 122.144C136.409 122.144 135.861 121.996 135.373 121.7C134.893 121.404 134.513 121 134.233 120.488C133.953 119.976 133.813 119.404 133.813 118.772C133.813 118.124 133.953 117.548 134.233 117.044C134.513 116.532 134.893 116.128 135.373 115.832C135.861 115.536 136.409 115.388 137.017 115.388C137.553 115.388 138.029 115.504 138.445 115.736C138.861 115.96 139.189 116.264 139.429 116.648L139.249 116.924V112.916H140.377V122H139.285V120.62L139.429 120.812C139.205 121.236 138.877 121.564 138.445 121.796C138.021 122.028 137.545 122.144 137.017 122.144ZM137.113 121.064C137.521 121.064 137.885 120.964 138.205 120.764C138.525 120.564 138.777 120.292 138.961 119.948C139.153 119.596 139.249 119.204 139.249 118.772C139.249 118.332 139.153 117.94 138.961 117.596C138.777 117.244 138.525 116.968 138.205 116.768C137.885 116.568 137.521 116.468 137.113 116.468C136.713 116.468 136.349 116.572 136.021 116.78C135.701 116.98 135.449 117.252 135.265 117.596C135.081 117.932 134.989 118.324 134.989 118.772C134.989 119.204 135.081 119.596 135.265 119.948C135.449 120.292 135.701 120.564 136.021 120.764C136.341 120.964 136.705 121.064 137.113 121.064ZM145.429 124.64C144.973 124.64 144.549 124.568 144.157 124.424C143.773 124.28 143.441 124.08 143.161 123.824C142.889 123.576 142.681 123.284 142.537 122.948L143.581 122.468C143.693 122.772 143.905 123.028 144.217 123.236C144.537 123.452 144.937 123.56 145.417 123.56C145.785 123.56 146.117 123.488 146.413 123.344C146.717 123.208 146.957 123 147.133 122.72C147.309 122.448 147.397 122.116 147.397 121.724V120.272L147.601 120.488C147.377 120.928 147.053 121.264 146.629 121.496C146.213 121.728 145.753 121.844 145.249 121.844C144.641 121.844 144.097 121.704 143.617 121.424C143.137 121.136 142.761 120.748 142.489 120.26C142.217 119.764 142.081 119.216 142.081 118.616C142.081 118.008 142.217 117.46 142.489 116.972C142.761 116.484 143.133 116.1 143.605 115.82C144.085 115.532 144.629 115.388 145.237 115.388C145.741 115.388 146.197 115.504 146.605 115.736C147.021 115.96 147.353 116.272 147.601 116.672L147.433 116.972V115.532H148.525V121.724C148.525 122.284 148.393 122.784 148.129 123.224C147.865 123.664 147.497 124.008 147.025 124.256C146.561 124.512 146.029 124.64 145.429 124.64ZM145.345 120.764C145.729 120.764 146.073 120.668 146.377 120.476C146.689 120.284 146.937 120.028 147.121 119.708C147.305 119.38 147.397 119.016 147.397 118.616C147.397 118.224 147.305 117.864 147.121 117.536C146.937 117.208 146.689 116.948 146.377 116.756C146.073 116.564 145.729 116.468 145.345 116.468C144.953 116.468 144.597 116.564 144.277 116.756C143.957 116.948 143.705 117.208 143.521 117.536C143.345 117.856 143.257 118.216 143.257 118.616C143.257 119.016 143.345 119.38 143.521 119.708C143.705 120.028 143.953 120.284 144.265 120.476C144.585 120.668 144.945 120.764 145.345 120.764ZM153.471 122.144C152.847 122.144 152.291 121.996 151.803 121.7C151.315 121.404 150.931 121 150.651 120.488C150.371 119.968 150.231 119.388 150.231 118.748C150.231 118.1 150.367 117.524 150.639 117.02C150.919 116.516 151.295 116.12 151.767 115.832C152.247 115.536 152.783 115.388 153.375 115.388C153.855 115.388 154.279 115.476 154.647 115.652C155.023 115.82 155.339 116.052 155.595 116.348C155.859 116.636 156.059 116.968 156.195 117.344C156.339 117.712 156.411 118.096 156.411 118.496C156.411 118.584 156.403 118.684 156.387 118.796C156.379 118.9 156.367 119 156.351 119.096H151.047V118.136H155.703L155.175 118.568C155.247 118.152 155.207 117.78 155.055 117.452C154.903 117.124 154.679 116.864 154.383 116.672C154.087 116.48 153.751 116.384 153.375 116.384C152.999 116.384 152.655 116.48 152.343 116.672C152.031 116.864 151.787 117.14 151.611 117.5C151.443 117.852 151.375 118.272 151.407 118.76C151.375 119.232 151.447 119.648 151.623 120.008C151.807 120.36 152.063 120.636 152.391 120.836C152.727 121.028 153.091 121.124 153.483 121.124C153.915 121.124 154.279 121.024 154.575 120.824C154.871 120.624 155.111 120.368 155.295 120.056L156.231 120.536C156.103 120.832 155.903 121.104 155.631 121.352C155.367 121.592 155.051 121.784 154.683 121.928C154.323 122.072 153.919 122.144 153.471 122.144ZM160.552 122V113.06H164.308C164.844 113.06 165.304 113.156 165.688 113.348C166.08 113.54 166.38 113.812 166.588 114.164C166.804 114.508 166.912 114.92 166.912 115.4C166.912 115.84 166.796 116.24 166.564 116.6C166.34 116.952 166.008 117.228 165.568 117.428L165.556 116.984C165.94 117.128 166.256 117.32 166.504 117.56C166.76 117.792 166.952 118.064 167.08 118.376C167.208 118.68 167.272 119.004 167.272 119.348C167.272 120.172 167.008 120.82 166.48 121.292C165.952 121.764 165.232 122 164.32 122H160.552ZM161.728 120.92H164.368C164.888 120.92 165.304 120.78 165.616 120.5C165.928 120.22 166.084 119.84 166.084 119.36C166.084 118.88 165.928 118.5 165.616 118.22C165.304 117.932 164.888 117.788 164.368 117.788H161.728V120.92ZM161.728 116.732H164.284C164.716 116.732 165.064 116.608 165.328 116.36C165.592 116.104 165.724 115.78 165.724 115.388C165.724 114.98 165.592 114.668 165.328 114.452C165.064 114.236 164.716 114.128 164.284 114.128H161.728V116.732ZM170.865 122.144C170.441 122.144 170.065 122.068 169.737 121.916C169.417 121.756 169.165 121.54 168.981 121.268C168.797 120.988 168.705 120.668 168.705 120.308C168.705 119.964 168.777 119.656 168.921 119.384C169.073 119.104 169.305 118.868 169.617 118.676C169.937 118.484 170.337 118.348 170.817 118.268L173.217 117.872V118.808L171.069 119.168C170.653 119.24 170.349 119.372 170.157 119.564C169.973 119.756 169.881 119.992 169.881 120.272C169.881 120.536 169.985 120.756 170.193 120.932C170.409 121.108 170.677 121.196 170.997 121.196C171.405 121.196 171.757 121.112 172.053 120.944C172.357 120.768 172.593 120.532 172.761 120.236C172.937 119.94 173.025 119.612 173.025 119.252V117.608C173.025 117.256 172.893 116.972 172.629 116.756C172.373 116.532 172.033 116.42 171.609 116.42C171.241 116.42 170.913 116.516 170.625 116.708C170.345 116.892 170.137 117.14 170.001 117.452L169.029 116.948C169.149 116.652 169.341 116.388 169.605 116.156C169.869 115.916 170.177 115.728 170.529 115.592C170.881 115.456 171.249 115.388 171.633 115.388C172.129 115.388 172.565 115.484 172.941 115.676C173.317 115.86 173.609 116.12 173.817 116.456C174.033 116.784 174.141 117.168 174.141 117.608V122H173.049V120.776L173.253 120.848C173.117 121.104 172.933 121.328 172.701 121.52C172.469 121.712 172.197 121.864 171.885 121.976C171.573 122.088 171.233 122.144 170.865 122.144ZM178.427 122.144C177.779 122.144 177.215 121.984 176.735 121.664C176.255 121.344 175.915 120.912 175.715 120.368L176.603 119.936C176.787 120.32 177.039 120.624 177.359 120.848C177.679 121.072 178.035 121.184 178.427 121.184C178.779 121.184 179.071 121.1 179.303 120.932C179.535 120.764 179.651 120.544 179.651 120.272C179.651 120.08 179.595 119.928 179.483 119.816C179.379 119.696 179.251 119.604 179.099 119.54C178.947 119.468 178.807 119.416 178.679 119.384L177.707 119.108C177.123 118.94 176.695 118.7 176.423 118.388C176.159 118.076 176.027 117.712 176.027 117.296C176.027 116.912 176.123 116.58 176.315 116.3C176.515 116.012 176.783 115.788 177.119 115.628C177.463 115.468 177.847 115.388 178.271 115.388C178.839 115.388 179.347 115.532 179.795 115.82C180.251 116.108 180.575 116.512 180.767 117.032L179.855 117.452C179.711 117.116 179.495 116.852 179.207 116.66C178.919 116.46 178.595 116.36 178.235 116.36C177.907 116.36 177.647 116.444 177.455 116.612C177.263 116.772 177.167 116.976 177.167 117.224C177.167 117.408 177.215 117.56 177.311 117.68C177.407 117.792 177.523 117.88 177.659 117.944C177.795 118 177.927 118.048 178.055 118.088L179.111 118.4C179.639 118.552 180.047 118.788 180.335 119.108C180.631 119.428 180.779 119.812 180.779 120.26C180.779 120.62 180.679 120.944 180.479 121.232C180.279 121.52 180.003 121.744 179.651 121.904C179.299 122.064 178.891 122.144 178.427 122.144ZM185.456 122.144C184.832 122.144 184.276 121.996 183.788 121.7C183.3 121.404 182.916 121 182.636 120.488C182.356 119.968 182.216 119.388 182.216 118.748C182.216 118.1 182.352 117.524 182.624 117.02C182.904 116.516 183.28 116.12 183.752 115.832C184.232 115.536 184.768 115.388 185.36 115.388C185.84 115.388 186.264 115.476 186.632 115.652C187.008 115.82 187.324 116.052 187.58 116.348C187.844 116.636 188.044 116.968 188.18 117.344C188.324 117.712 188.396 118.096 188.396 118.496C188.396 118.584 188.388 118.684 188.372 118.796C188.364 118.9 188.352 119 188.336 119.096H183.032V118.136H187.688L187.16 118.568C187.232 118.152 187.192 117.78 187.04 117.452C186.888 117.124 186.664 116.864 186.368 116.672C186.072 116.48 185.736 116.384 185.36 116.384C184.984 116.384 184.64 116.48 184.328 116.672C184.016 116.864 183.772 117.14 183.596 117.5C183.428 117.852 183.36 118.272 183.392 118.76C183.36 119.232 183.432 119.648 183.608 120.008C183.792 120.36 184.048 120.636 184.376 120.836C184.712 121.028 185.076 121.124 185.468 121.124C185.9 121.124 186.264 121.024 186.56 120.824C186.856 120.624 187.096 120.368 187.28 120.056L188.216 120.536C188.088 120.832 187.888 121.104 187.616 121.352C187.352 121.592 187.036 121.784 186.668 121.928C186.308 122.072 185.904 122.144 185.456 122.144Z" fill="#1D2220" fill-opacity="0.8"/>
</g>
<g filter="url(#filter2_d_1_1348)">
<rect x="64" y="151" width="244" height="36" rx="8" fill="white" shape-rendering="crispEdges"/>
<rect x="64.5" y="151.5" width="243" height="35" rx="7.5" stroke="#1D2220" stroke-opacity="0.12" shape-rendering="crispEdges"/>
<rect x="76" y="159" width="20" height="20" rx="10" fill="white"/>
<rect x="76.5" y="159.5" width="19" height="19" rx="9.5" stroke="#1D2220" stroke-opacity="0.09"/>
<path d="M85.637 173.108C85.271 173.108 84.923 173.042 84.593 172.91C84.269 172.772 83.99 172.58 83.756 172.334C83.528 172.082 83.372 171.785 83.288 171.443L84.359 171.065C84.467 171.371 84.632 171.605 84.854 171.767C85.076 171.923 85.337 172.001 85.637 172.001C85.877 172.001 86.084 171.956 86.258 171.866C86.438 171.776 86.579 171.647 86.681 171.479C86.783 171.305 86.834 171.101 86.834 170.867C86.834 170.633 86.783 170.435 86.681 170.273C86.585 170.105 86.447 169.976 86.267 169.886C86.087 169.796 85.874 169.751 85.628 169.751C85.514 169.751 85.394 169.763 85.268 169.787C85.148 169.811 85.04 169.847 84.944 169.895L84.665 169.31L86.402 167.33H83.666V166.295H87.779V167.258L86.033 169.301L86.051 168.842C86.453 168.848 86.804 168.935 87.104 169.103C87.404 169.271 87.638 169.502 87.806 169.796C87.974 170.09 88.058 170.435 88.058 170.831C88.058 171.263 87.953 171.653 87.743 172.001C87.533 172.343 87.245 172.613 86.879 172.811C86.513 173.009 86.099 173.108 85.637 173.108Z" fill="#1D2220" fill-opacity="0.7"/>
<path d="M110.556 174V166.14H108.132V165.06H114.132V166.14H111.744V174H110.556ZM117.506 174.144C116.882 174.144 116.326 173.996 115.838 173.7C115.35 173.404 114.966 173 114.686 172.488C114.406 171.968 114.266 171.388 114.266 170.748C114.266 170.1 114.402 169.524 114.674 169.02C114.954 168.516 115.33 168.12 115.802 167.832C116.282 167.536 116.818 167.388 117.41 167.388C117.89 167.388 118.314 167.476 118.682 167.652C119.058 167.82 119.374 168.052 119.63 168.348C119.894 168.636 120.094 168.968 120.23 169.344C120.374 169.712 120.446 170.096 120.446 170.496C120.446 170.584 120.438 170.684 120.422 170.796C120.414 170.9 120.402 171 120.386 171.096H115.082V170.136H119.738L119.21 170.568C119.282 170.152 119.242 169.78 119.09 169.452C118.938 169.124 118.714 168.864 118.418 168.672C118.122 168.48 117.786 168.384 117.41 168.384C117.034 168.384 116.69 168.48 116.378 168.672C116.066 168.864 115.822 169.14 115.646 169.5C115.478 169.852 115.41 170.272 115.442 170.76C115.41 171.232 115.482 171.648 115.658 172.008C115.842 172.36 116.098 172.636 116.426 172.836C116.762 173.028 117.126 173.124 117.518 173.124C117.95 173.124 118.314 173.024 118.61 172.824C118.906 172.624 119.146 172.368 119.33 172.056L120.266 172.536C120.138 172.832 119.938 173.104 119.666 173.352C119.402 173.592 119.086 173.784 118.718 173.928C118.358 174.072 117.954 174.144 117.506 174.144ZM124.457 174.144C123.809 174.144 123.245 173.984 122.765 173.664C122.285 173.344 121.945 172.912 121.745 172.368L122.633 171.936C122.817 172.32 123.069 172.624 123.389 172.848C123.709 173.072 124.065 173.184 124.457 173.184C124.809 173.184 125.101 173.1 125.333 172.932C125.565 172.764 125.681 172.544 125.681 172.272C125.681 172.08 125.625 171.928 125.513 171.816C125.409 171.696 125.281 171.604 125.129 171.54C124.977 171.468 124.837 171.416 124.709 171.384L123.737 171.108C123.153 170.94 122.725 170.7 122.453 170.388C122.189 170.076 122.057 169.712 122.057 169.296C122.057 168.912 122.153 168.58 122.345 168.3C122.545 168.012 122.813 167.788 123.149 167.628C123.493 167.468 123.877 167.388 124.301 167.388C124.869 167.388 125.377 167.532 125.825 167.82C126.281 168.108 126.605 168.512 126.797 169.032L125.885 169.452C125.741 169.116 125.525 168.852 125.237 168.66C124.949 168.46 124.625 168.36 124.265 168.36C123.937 168.36 123.677 168.444 123.485 168.612C123.293 168.772 123.197 168.976 123.197 169.224C123.197 169.408 123.245 169.56 123.341 169.68C123.437 169.792 123.553 169.88 123.689 169.944C123.825 170 123.957 170.048 124.085 170.088L125.141 170.4C125.669 170.552 126.077 170.788 126.365 171.108C126.661 171.428 126.809 171.812 126.809 172.26C126.809 172.62 126.709 172.944 126.509 173.232C126.309 173.52 126.033 173.744 125.681 173.904C125.329 174.064 124.921 174.144 124.457 174.144ZM131.138 174.072C130.506 174.072 130.018 173.892 129.674 173.532C129.338 173.172 129.17 172.664 129.17 172.008V168.6H127.994V167.532H128.234C128.522 167.532 128.75 167.444 128.918 167.268C129.086 167.092 129.17 166.86 129.17 166.572V166.044H130.286V167.532H131.738V168.6H130.286V171.972C130.286 172.188 130.318 172.376 130.382 172.536C130.454 172.696 130.57 172.824 130.73 172.92C130.89 173.008 131.102 173.052 131.366 173.052C131.422 173.052 131.49 173.048 131.57 173.04C131.658 173.032 131.738 173.024 131.81 173.016V174C131.706 174.024 131.59 174.04 131.462 174.048C131.334 174.064 131.226 174.072 131.138 174.072ZM140.07 174.144C139.438 174.144 138.854 174.032 138.318 173.808C137.79 173.576 137.326 173.252 136.926 172.836C136.534 172.42 136.23 171.932 136.014 171.372C135.798 170.812 135.69 170.2 135.69 169.536C135.69 168.864 135.798 168.248 136.014 167.688C136.23 167.128 136.534 166.64 136.926 166.224C137.318 165.808 137.782 165.488 138.318 165.264C138.854 165.032 139.438 164.916 140.07 164.916C140.686 164.916 141.238 165.024 141.726 165.24C142.222 165.456 142.638 165.736 142.974 166.08C143.318 166.424 143.562 166.792 143.706 167.184L142.626 167.676C142.418 167.18 142.094 166.78 141.654 166.476C141.214 166.164 140.686 166.008 140.07 166.008C139.446 166.008 138.89 166.156 138.402 166.452C137.922 166.748 137.546 167.16 137.274 167.688C137.002 168.216 136.866 168.832 136.866 169.536C136.866 170.232 137.002 170.844 137.274 171.372C137.546 171.9 137.922 172.312 138.402 172.608C138.89 172.904 139.446 173.052 140.07 173.052C140.686 173.052 141.214 172.9 141.654 172.596C142.094 172.284 142.418 171.88 142.626 171.384L143.706 171.876C143.562 172.268 143.318 172.636 142.974 172.98C142.638 173.324 142.222 173.604 141.726 173.82C141.238 174.036 140.686 174.144 140.07 174.144ZM145.413 174V164.916H146.529V168.792L146.325 168.684C146.485 168.276 146.741 167.96 147.093 167.736C147.453 167.504 147.873 167.388 148.353 167.388C148.817 167.388 149.229 167.492 149.589 167.7C149.957 167.908 150.245 168.196 150.453 168.564C150.669 168.932 150.777 169.348 150.777 169.812V174H149.649V170.172C149.649 169.812 149.581 169.508 149.445 169.26C149.317 169.012 149.137 168.82 148.905 168.684C148.673 168.54 148.405 168.468 148.101 168.468C147.805 168.468 147.537 168.54 147.297 168.684C147.057 168.82 146.869 169.016 146.733 169.272C146.597 169.52 146.529 169.82 146.529 170.172V174H145.413ZM154.51 174.144C154.086 174.144 153.71 174.068 153.382 173.916C153.062 173.756 152.81 173.54 152.626 173.268C152.442 172.988 152.35 172.668 152.35 172.308C152.35 171.964 152.422 171.656 152.566 171.384C152.718 171.104 152.95 170.868 153.262 170.676C153.582 170.484 153.982 170.348 154.462 170.268L156.862 169.872V170.808L154.714 171.168C154.298 171.24 153.994 171.372 153.802 171.564C153.618 171.756 153.526 171.992 153.526 172.272C153.526 172.536 153.63 172.756 153.838 172.932C154.054 173.108 154.322 173.196 154.642 173.196C155.05 173.196 155.402 173.112 155.698 172.944C156.002 172.768 156.238 172.532 156.406 172.236C156.582 171.94 156.67 171.612 156.67 171.252V169.608C156.67 169.256 156.538 168.972 156.274 168.756C156.018 168.532 155.678 168.42 155.254 168.42C154.886 168.42 154.558 168.516 154.27 168.708C153.99 168.892 153.782 169.14 153.646 169.452L152.674 168.948C152.794 168.652 152.986 168.388 153.25 168.156C153.514 167.916 153.822 167.728 154.174 167.592C154.526 167.456 154.894 167.388 155.278 167.388C155.774 167.388 156.21 167.484 156.586 167.676C156.962 167.86 157.254 168.12 157.462 168.456C157.678 168.784 157.786 169.168 157.786 169.608V174H156.694V172.776L156.898 172.848C156.762 173.104 156.578 173.328 156.346 173.52C156.114 173.712 155.842 173.864 155.53 173.976C155.218 174.088 154.878 174.144 154.51 174.144ZM162.267 174.072C161.635 174.072 161.147 173.892 160.803 173.532C160.467 173.172 160.299 172.664 160.299 172.008V168.6H159.123V167.532H159.363C159.651 167.532 159.879 167.444 160.047 167.268C160.215 167.092 160.299 166.86 160.299 166.572V166.044H161.415V167.532H162.867V168.6H161.415V171.972C161.415 172.188 161.447 172.376 161.511 172.536C161.583 172.696 161.699 172.824 161.859 172.92C162.019 173.008 162.231 173.052 162.495 173.052C162.551 173.052 162.619 173.048 162.699 173.04C162.787 173.032 162.867 173.024 162.939 173.016V174C162.835 174.024 162.719 174.04 162.591 174.048C162.463 174.064 162.355 174.072 162.267 174.072ZM167.985 174.144C167.465 174.144 166.989 174.028 166.557 173.796C166.133 173.564 165.805 173.236 165.573 172.812L165.729 172.62V174H164.637V164.916H165.753V168.924L165.585 168.648C165.825 168.264 166.153 167.96 166.569 167.736C166.985 167.504 167.461 167.388 167.997 167.388C168.605 167.388 169.149 167.536 169.629 167.832C170.117 168.128 170.501 168.532 170.781 169.044C171.061 169.548 171.201 170.124 171.201 170.772C171.201 171.404 171.061 171.976 170.781 172.488C170.501 173 170.117 173.404 169.629 173.7C169.149 173.996 168.601 174.144 167.985 174.144ZM167.901 173.064C168.309 173.064 168.673 172.964 168.993 172.764C169.313 172.564 169.561 172.292 169.737 171.948C169.921 171.596 170.013 171.204 170.013 170.772C170.013 170.324 169.921 169.932 169.737 169.596C169.561 169.252 169.313 168.98 168.993 168.78C168.673 168.572 168.309 168.468 167.901 168.468C167.493 168.468 167.125 168.568 166.797 168.768C166.477 168.968 166.221 169.244 166.029 169.596C165.845 169.94 165.753 170.332 165.753 170.772C165.753 171.204 165.845 171.596 166.029 171.948C166.221 172.292 166.477 172.564 166.797 172.764C167.125 172.964 167.493 173.064 167.901 173.064ZM175.977 174.144C175.353 174.144 174.789 174 174.285 173.712C173.781 173.416 173.381 173.012 173.085 172.5C172.789 171.988 172.641 171.408 172.641 170.76C172.641 170.112 172.785 169.536 173.073 169.032C173.369 168.528 173.769 168.128 174.273 167.832C174.777 167.536 175.345 167.388 175.977 167.388C176.601 167.388 177.165 167.536 177.669 167.832C178.173 168.12 178.569 168.516 178.857 169.02C179.153 169.524 179.301 170.104 179.301 170.76C179.301 171.416 179.149 172 178.845 172.512C178.541 173.016 178.137 173.416 177.633 173.712C177.137 174 176.585 174.144 175.977 174.144ZM175.977 173.064C176.377 173.064 176.737 172.964 177.057 172.764C177.385 172.564 177.641 172.288 177.825 171.936C178.017 171.584 178.113 171.192 178.113 170.76C178.113 170.32 178.017 169.932 177.825 169.596C177.641 169.252 177.385 168.98 177.057 168.78C176.737 168.572 176.377 168.468 175.977 168.468C175.569 168.468 175.201 168.572 174.873 168.78C174.553 168.98 174.297 169.252 174.105 169.596C173.913 169.932 173.817 170.32 173.817 170.76C173.817 171.192 173.913 171.584 174.105 171.936C174.297 172.288 174.553 172.564 174.873 172.764C175.201 172.964 175.569 173.064 175.977 173.064ZM183.507 174.072C182.875 174.072 182.387 173.892 182.043 173.532C181.707 173.172 181.539 172.664 181.539 172.008V168.6H180.363V167.532H180.603C180.891 167.532 181.119 167.444 181.287 167.268C181.455 167.092 181.539 166.86 181.539 166.572V166.044H182.655V167.532H184.107V168.6H182.655V171.972C182.655 172.188 182.687 172.376 182.751 172.536C182.823 172.696 182.939 172.824 183.099 172.92C183.259 173.008 183.471 173.052 183.735 173.052C183.791 173.052 183.859 173.048 183.939 173.04C184.027 173.032 184.107 173.024 184.179 173.016V174C184.075 174.024 183.959 174.04 183.831 174.048C183.703 174.064 183.595 174.072 183.507 174.072Z" fill="#1D2220" fill-opacity="0.6"/>
</g>
<rect y="143" width="371" height="91" fill="url(#paint1_linear_1_1348)"/>
</g>
<rect x="0.5" y="0.5" width="370" height="233" rx="7.5" stroke="#1D2220" stroke-opacity="0.03"/>
<defs>
<filter id="filter0_d_1_1348" x="44" y="35" width="284" height="76" filterUnits="userSpaceOnUse" color-interpolation-filters="sRGB">
<feFlood flood-opacity="0" result="BackgroundImageFix"/>
<feColorMatrix in="SourceAlpha" type="matrix" values="0 0 0 0 0 0 0 0 0 0 0 0 0 0 0 0 0 0 127 0" result="hardAlpha"/>
<feOffset dy="8"/>
<feGaussianBlur stdDeviation="10"/>
<feComposite in2="hardAlpha" operator="out"/>
<feColorMatrix type="matrix" values="0 0 0 0 0 0 0 0 0 0 0 0 0 0 0 0 0 0 0.1 0"/>
<feBlend mode="normal" in2="BackgroundImageFix" result="effect1_dropShadow_1_1348"/>
<feBlend mode="normal" in="SourceGraphic" in2="effect1_dropShadow_1_1348" result="shape"/>
</filter>
<filter id="filter1_dd_1_1348" x="36" y="91" width="300" height="65" filterUnits="userSpaceOnUse" color-interpolation-filters="sRGB">
<feFlood flood-opacity="0" result="BackgroundImageFix"/>
<feColorMatrix in="SourceAlpha" type="matrix" values="0 0 0 0 0 0 0 0 0 0 0 0 0 0 0 0 0 0 127 0" result="hardAlpha"/>
<feMorphology radius="4" operator="dilate" in="SourceAlpha" result="effect1_dropShadow_1_1348"/>
<feOffset/>
<feComposite in2="hardAlpha" operator="out"/>
<feColorMatrix type="matrix" values="0 0 0 0 0.00392157 0 0 0 0 0.623529 0 0 0 0 0.32549 0 0 0 0.1 0"/>
<feBlend mode="normal" in2="BackgroundImageFix" result="effect1_dropShadow_1_1348"/>
<feColorMatrix in="SourceAlpha" type="matrix" values="0 0 0 0 0 0 0 0 0 0 0 0 0 0 0 0 0 0 127 0" result="hardAlpha"/>
<feOffset dy="8"/>
<feGaussianBlur stdDeviation="4.5"/>
<feComposite in2="hardAlpha" operator="out"/>
<feColorMatrix type="matrix" values="0 0 0 0 0.00392157 0 0 0 0 0.623529 0 0 0 0 0.32549 0 0 0 0.12 0"/>
<feBlend mode="normal" in2="effect1_dropShadow_1_1348" result="effect2_dropShadow_1_1348"/>
<feBlend mode="normal" in="SourceGraphic" in2="effect2_dropShadow_1_1348" result="shape"/>
</filter>
<filter id="filter2_d_1_1348" x="44" y="139" width="284" height="76" filterUnits="userSpaceOnUse" color-interpolation-filters="sRGB">
<feFlood flood-opacity="0" result="BackgroundImageFix"/>
<feColorMatrix in="SourceAlpha" type="matrix" values="0 0 0 0 0 0 0 0 0 0 0 0 0 0 0 0 0 0 127 0" result="hardAlpha"/>
<feOffset dy="8"/>
<feGaussianBlur stdDeviation="10"/>
<feComposite in2="hardAlpha" operator="out"/>
<feColorMatrix type="matrix" values="0 0 0 0 0 0 0 0 0 0 0 0 0 0 0 0 0 0 0.1 0"/>
<feBlend mode="normal" in2="BackgroundImageFix" result="effect1_dropShadow_1_1348"/>
<feBlend mode="normal" in="SourceGraphic" in2="effect1_dropShadow_1_1348" result="shape"/>
</filter>
<linearGradient id="paint0_linear_1_1348" x1="182" y1="29" x2="182" y2="234" gradientUnits="userSpaceOnUse">
<stop stop-color="white" stop-opacity="0"/>
<stop offset="1" stop-color="white"/>
</linearGradient>
<linearGradient id="paint1_linear_1_1348" x1="185.5" y1="143" x2="185.5" y2="234" gradientUnits="userSpaceOnUse">
<stop stop-color="white" stop-opacity="0"/>
<stop offset="0.887102" stop-color="#FAFBFC"/>
</linearGradient>
<clipPath id="clip0_1_1348">
<rect width="371" height="234" rx="8" fill="white"/>
</clipPath>
</defs>
</svg>
