<svg width="176" height="91" viewBox="0 0 176 91" fill="none" xmlns="http://www.w3.org/2000/svg">
<g filter="url(#filter0_d_1_134)">
<path d="M18.4058 22.6614C18.4058 16.034 23.7783 10.6614 30.4058 10.6614H145.406C152.033 10.6614 157.406 16.034 157.406 22.6614V52.6614C157.406 59.2888 152.033 64.6614 145.406 64.6614H30.4058C23.7783 64.6614 18.4058 59.2888 18.4058 52.6614V22.6614Z" fill="white"/>
<path d="M38.1103 46.4C36.9853 46.4 35.9825 46.2068 35.1018 45.8205C34.2268 45.4341 33.5308 44.8972 33.0137 44.2097C32.5024 43.5165 32.2239 42.7125 32.1785 41.7978H34.3262C34.3717 42.3603 34.5649 42.8461 34.9058 43.2551C35.2467 43.6585 35.6927 43.971 36.2438 44.1926C36.795 44.4142 37.4058 44.525 38.0762 44.525C38.8262 44.525 39.491 44.3943 40.0705 44.133C40.6501 43.8716 41.1046 43.508 41.4342 43.0421C41.7637 42.5762 41.9285 42.0364 41.9285 41.4228C41.9285 40.7807 41.7694 40.2154 41.4512 39.7267C41.133 39.2324 40.6671 38.8461 40.0535 38.5676C39.4399 38.2892 38.6899 38.15 37.8035 38.15H36.4058V36.275H37.8035C38.4967 36.275 39.1046 36.15 39.6274 35.9C40.1558 35.65 40.5677 35.2978 40.8631 34.8432C41.1643 34.3887 41.3149 33.8546 41.3149 33.2409C41.3149 32.65 41.1842 32.1358 40.9228 31.6983C40.6614 31.2608 40.2921 30.9199 39.8149 30.6756C39.3433 30.4313 38.7864 30.3091 38.1444 30.3091C37.5421 30.3091 36.9739 30.4199 36.4399 30.6415C35.9114 30.8574 35.4796 31.1728 35.1444 31.5875C34.8092 31.9966 34.6274 32.4909 34.5989 33.0705H32.5535C32.5876 32.1557 32.8631 31.3546 33.3802 30.6671C33.8972 29.9739 34.5734 29.4341 35.4086 29.0478C36.2495 28.6614 37.1728 28.4682 38.1785 28.4682C39.258 28.4682 40.1842 28.687 40.9569 29.1245C41.7296 29.5563 42.3234 30.1273 42.7381 30.8375C43.1529 31.5478 43.3603 32.3148 43.3603 33.1387C43.3603 34.1216 43.1018 34.9597 42.5847 35.6529C42.0734 36.3461 41.3774 36.8262 40.4967 37.0932V37.2296C41.5989 37.4114 42.4597 37.8801 43.0791 38.6358C43.6984 39.3858 44.008 40.3148 44.008 41.4228C44.008 42.3716 43.7495 43.2239 43.2325 43.9796C42.7211 44.7296 42.0222 45.3205 41.1359 45.7523C40.2495 46.1841 39.241 46.4 38.1103 46.4ZM53.0847 46.4C51.9143 46.4 50.8802 46.1926 49.9825 45.7779C49.0904 45.3574 48.3944 44.7807 47.8944 44.0478C47.3944 43.3091 47.1472 42.4682 47.1529 41.525C47.1472 40.7864 47.2921 40.1046 47.5876 39.4796C47.883 38.8489 48.2864 38.3233 48.7978 37.9029C49.3149 37.4767 49.8916 37.2068 50.5279 37.0932V36.9909C49.6927 36.775 49.0279 36.3063 48.5336 35.5847C48.0393 34.8574 47.795 34.0307 47.8006 33.1046C47.795 32.2182 48.0194 31.4256 48.4739 30.7267C48.9285 30.0279 49.5535 29.4767 50.3489 29.0733C51.1501 28.6699 52.062 28.4682 53.0847 28.4682C54.0961 28.4682 54.9995 28.6699 55.795 29.0733C56.5904 29.4767 57.2154 30.0279 57.67 30.7267C58.1302 31.4256 58.3631 32.2182 58.3688 33.1046C58.3631 34.0307 58.1103 34.8574 57.6103 35.5847C57.116 36.3063 56.4597 36.775 55.6416 36.9909V37.0932C56.2722 37.2068 56.8404 37.4767 57.3461 37.9029C57.8518 38.3233 58.2552 38.8489 58.5563 39.4796C58.8575 40.1046 59.0109 40.7864 59.0166 41.525C59.0109 42.4682 58.7552 43.3091 58.2495 44.0478C57.7495 44.7807 57.0535 45.3574 56.1614 45.7779C55.2751 46.1926 54.2495 46.4 53.0847 46.4ZM53.0847 44.525C53.8745 44.525 54.5563 44.3972 55.1302 44.1415C55.7041 43.8858 56.1472 43.525 56.4597 43.0591C56.7722 42.5932 56.9313 42.0478 56.937 41.4228C56.9313 40.7637 56.7609 40.1813 56.4256 39.6756C56.0904 39.1699 55.633 38.7722 55.0535 38.4824C54.4796 38.1926 53.8234 38.0478 53.0847 38.0478C52.3404 38.0478 51.6756 38.1926 51.0904 38.4824C50.5109 38.7722 50.0535 39.1699 49.7183 39.6756C49.3887 40.1813 49.2268 40.7637 49.2325 41.4228C49.2268 42.0478 49.3774 42.5932 49.6842 43.0591C49.9967 43.525 50.4427 43.8858 51.0222 44.1415C51.6018 44.3972 52.2893 44.525 53.0847 44.525ZM53.0847 36.2409C53.7097 36.2409 54.2637 36.1159 54.7467 35.8659C55.2353 35.6159 55.6188 35.2665 55.8972 34.8176C56.1756 34.3688 56.3177 33.8432 56.3234 33.2409C56.3177 32.65 56.1785 32.1358 55.9058 31.6983C55.633 31.2551 55.2552 30.9142 54.7722 30.6756C54.2893 30.4313 53.7268 30.3091 53.0847 30.3091C52.4313 30.3091 51.8603 30.4313 51.3717 30.6756C50.883 30.9142 50.5052 31.2551 50.2381 31.6983C49.9711 32.1358 49.8404 32.65 49.8461 33.2409C49.8404 33.8432 49.9739 34.3688 50.2467 34.8176C50.5251 35.2665 50.9086 35.6159 51.3972 35.8659C51.8859 36.1159 52.4484 36.2409 53.0847 36.2409ZM71.1806 42.8887V41.9682C71.1806 41.3318 71.3113 40.7495 71.5727 40.221C71.8397 39.687 72.2261 39.2608 72.7318 38.9426C73.2431 38.6188 73.8624 38.4568 74.5897 38.4568C75.3283 38.4568 75.9477 38.6188 76.4477 38.9426C76.9477 39.2608 77.3255 39.687 77.5812 40.221C77.8369 40.7495 77.9647 41.3318 77.9647 41.9682V42.8887C77.9647 43.525 77.834 44.1103 77.5727 44.6443C77.317 45.1728 76.9363 45.5989 76.4306 45.9228C75.9306 46.2409 75.317 46.4 74.5897 46.4C73.8511 46.4 73.2289 46.2409 72.7232 45.9228C72.2175 45.5989 71.834 45.1728 71.5727 44.6443C71.3113 44.1103 71.1806 43.525 71.1806 42.8887ZM72.9193 41.9682V42.8887C72.9193 43.4171 73.0443 43.8915 73.2943 44.312C73.5443 44.7267 73.9761 44.9341 74.5897 44.9341C75.1863 44.9341 75.6068 44.7267 75.8511 44.312C76.1011 43.8915 76.2261 43.4171 76.2261 42.8887V41.9682C76.2261 41.4398 76.1068 40.9682 75.8681 40.5534C75.6295 40.133 75.2033 39.9228 74.5897 39.9228C73.9931 39.9228 73.5641 40.133 73.3028 40.5534C73.0471 40.9682 72.9193 41.4398 72.9193 41.9682ZM62.4874 32.9V31.9796C62.4874 31.3432 62.6181 30.7608 62.8795 30.2324C63.1465 29.6983 63.5329 29.2722 64.0386 28.954C64.5499 28.6301 65.1693 28.4682 65.8965 28.4682C66.6352 28.4682 67.2545 28.6301 67.7545 28.954C68.2545 29.2722 68.6323 29.6983 68.888 30.2324C69.1437 30.7608 69.2715 31.3432 69.2715 31.9796V32.9C69.2715 33.5364 69.1408 34.1216 68.8795 34.6557C68.6238 35.1841 68.2431 35.6103 67.7374 35.9341C67.2374 36.2523 66.6238 36.4114 65.8965 36.4114C65.1579 36.4114 64.5357 36.2523 64.03 35.9341C63.5244 35.6103 63.1408 35.1841 62.8795 34.6557C62.6181 34.1216 62.4874 33.5364 62.4874 32.9ZM64.2261 31.9796V32.9C64.2261 33.4284 64.3511 33.9029 64.6011 34.3233C64.8511 34.7381 65.2829 34.9455 65.8965 34.9455C66.4931 34.9455 66.9136 34.7381 67.1579 34.3233C67.4079 33.9029 67.5329 33.4284 67.5329 32.9V31.9796C67.5329 31.4512 67.4136 30.9796 67.1749 30.5648C66.9363 30.1443 66.5102 29.9341 65.8965 29.9341C65.2999 29.9341 64.871 30.1443 64.6096 30.5648C64.3539 30.9796 64.2261 31.4512 64.2261 31.9796ZM63.1352 46.1614L75.1352 28.7068H77.0783L65.0783 46.1614H63.1352Z" fill="#1D2220"/>
<path d="M89.8205 34.6614H88.7126L91.9171 25.9341H93.008L96.2126 34.6614H95.1046L92.4967 27.3148H92.4285L89.8205 34.6614ZM90.2296 31.2523H94.6955V32.1898H90.2296V31.2523ZM101.968 28.1159L99.5471 34.6614H98.5244L96.1039 28.1159H97.1948L99.0016 33.3318H99.0698L100.877 28.1159H101.968ZM105.703 37.2523C105.217 37.2523 104.799 37.1898 104.45 37.0648C104.1 36.9426 103.809 36.7807 103.576 36.579C103.346 36.3801 103.163 36.1671 103.026 35.9398L103.828 35.3773C103.919 35.4966 104.034 35.633 104.173 35.7864C104.312 35.9426 104.502 36.0776 104.744 36.1912C104.988 36.3077 105.308 36.3659 105.703 36.3659C106.231 36.3659 106.667 36.2381 107.011 35.9824C107.355 35.7267 107.526 35.3262 107.526 34.7807V33.4512H107.441C107.367 33.5705 107.262 33.7182 107.126 33.8943C106.992 34.0676 106.799 34.2225 106.546 34.3588C106.296 34.4924 105.958 34.5591 105.532 34.5591C105.004 34.5591 104.529 34.4341 104.109 34.1841C103.691 33.9341 103.36 33.5705 103.116 33.0932C102.875 32.6159 102.754 32.0364 102.754 31.3546C102.754 30.6841 102.872 30.1003 103.107 29.6032C103.343 29.1032 103.671 28.7168 104.092 28.4441C104.512 28.1685 104.998 28.0307 105.549 28.0307C105.975 28.0307 106.313 28.1017 106.563 28.2438C106.816 28.383 107.009 28.5421 107.143 28.7211C107.279 28.8972 107.384 29.0421 107.458 29.1557H107.561V28.1159H108.532V34.8489C108.532 35.4114 108.404 35.8688 108.149 36.2211C107.896 36.5762 107.555 36.8361 107.126 37.0009C106.7 37.1685 106.225 37.2523 105.703 37.2523ZM105.669 33.6557C106.072 33.6557 106.413 33.5634 106.691 33.3787C106.97 33.1941 107.181 32.9284 107.326 32.5818C107.471 32.2353 107.544 31.8205 107.544 31.3375C107.544 30.8659 107.473 30.4497 107.33 30.0889C107.188 29.7282 106.978 29.4455 106.7 29.2409C106.421 29.0364 106.078 28.9341 105.669 28.9341C105.242 28.9341 104.887 29.0421 104.603 29.258C104.322 29.4739 104.11 29.7637 103.968 30.1273C103.829 30.4909 103.759 30.8943 103.759 31.3375C103.759 31.7921 103.83 32.1941 103.973 32.5435C104.117 32.8901 104.33 33.1628 104.612 33.3617C104.896 33.5577 105.248 33.6557 105.669 33.6557ZM113.748 34.6614V28.1159H114.72V29.1046H114.788C114.907 28.7807 115.123 28.5179 115.436 28.3162C115.748 28.1145 116.1 28.0137 116.492 28.0137C116.566 28.0137 116.659 28.0151 116.769 28.0179C116.88 28.0208 116.964 28.025 117.021 28.0307V29.0534C116.987 29.0449 116.909 29.0321 116.786 29.0151C116.667 28.9952 116.541 28.9853 116.407 28.9853C116.089 28.9853 115.805 29.052 115.555 29.1855C115.308 29.3162 115.112 29.498 114.967 29.731C114.825 29.9611 114.754 30.2239 114.754 30.5193V34.6614H113.748ZM120.758 34.7978C120.127 34.7978 119.583 34.6586 119.126 34.3801C118.671 34.0989 118.321 33.7068 118.073 33.204C117.829 32.6983 117.707 32.1103 117.707 31.4398C117.707 30.7693 117.829 30.1784 118.073 29.6671C118.321 29.1529 118.664 28.7523 119.105 28.4654C119.548 28.1756 120.065 28.0307 120.656 28.0307C120.997 28.0307 121.333 28.0875 121.666 28.2012C121.998 28.3148 122.301 28.4995 122.573 28.7551C122.846 29.008 123.063 29.3432 123.225 29.7608C123.387 30.1784 123.468 30.6926 123.468 31.3034V31.7296H118.423V30.8603H122.446C122.446 30.4909 122.372 30.1614 122.224 29.8716C122.079 29.5818 121.872 29.3532 121.602 29.1855C121.335 29.0179 121.019 28.9341 120.656 28.9341C120.255 28.9341 119.909 29.0336 119.616 29.2324C119.326 29.4284 119.103 29.6841 118.947 29.9995C118.791 30.3148 118.713 30.6529 118.713 31.0137V31.5932C118.713 32.0875 118.798 32.5066 118.968 32.8503C119.142 33.1912 119.382 33.4512 119.688 33.6301C119.995 33.8063 120.352 33.8943 120.758 33.8943C121.022 33.8943 121.261 33.8574 121.474 33.7836C121.69 33.7068 121.876 33.5932 122.032 33.4426C122.188 33.2892 122.309 33.0989 122.394 32.8716L123.366 33.1443C123.264 33.4739 123.092 33.7637 122.85 34.0137C122.609 34.2608 122.311 34.454 121.955 34.5932C121.6 34.7296 121.201 34.7978 120.758 34.7978ZM124.998 37.1159V28.1159H125.97V29.1557H126.089C126.163 29.0421 126.265 28.8972 126.396 28.7211C126.529 28.5421 126.72 28.383 126.967 28.2438C127.217 28.1017 127.555 28.0307 127.981 28.0307C128.532 28.0307 129.018 28.1685 129.438 28.4441C129.859 28.7196 130.187 29.1103 130.423 29.6159C130.659 30.1216 130.776 30.7182 130.776 31.4057C130.776 32.0989 130.659 32.6997 130.423 33.2083C130.187 33.7139 129.86 34.106 129.443 34.3844C129.025 34.66 128.544 34.7978 127.998 34.7978C127.578 34.7978 127.241 34.7282 126.988 34.5889C126.735 34.4469 126.541 34.2864 126.404 34.1074C126.268 33.9256 126.163 33.775 126.089 33.6557H126.004V37.1159H124.998ZM125.987 31.3887C125.987 31.883 126.059 32.3191 126.204 32.6969C126.349 33.0719 126.561 33.3659 126.839 33.579C127.117 33.7892 127.458 33.8943 127.862 33.8943C128.282 33.8943 128.633 33.7836 128.914 33.562C129.198 33.3375 129.411 33.0364 129.553 32.6586C129.698 32.2779 129.771 31.8546 129.771 31.3887C129.771 30.9284 129.7 30.5137 129.558 30.1443C129.419 29.7722 129.207 29.4782 128.923 29.2622C128.642 29.0435 128.288 28.9341 127.862 28.9341C127.453 28.9341 127.109 29.0378 126.83 29.2452C126.552 29.4497 126.342 29.7367 126.2 30.106C126.058 30.4725 125.987 30.9 125.987 31.3887ZM133.316 25.9341V34.6614H132.311V25.9341H133.316ZM135.806 37.1159C135.636 37.1159 135.484 37.1017 135.35 37.0733C135.216 37.0478 135.124 37.0222 135.073 36.9966L135.329 36.1103C135.573 36.1728 135.789 36.1955 135.976 36.1784C136.164 36.1614 136.33 36.0776 136.475 35.927C136.623 35.7793 136.758 35.5392 136.88 35.2068L137.067 34.6955L134.647 28.1159H135.738L137.545 33.3318H137.613L139.42 28.1159H140.511L137.732 35.6159C137.607 35.954 137.452 36.2338 137.268 36.4554C137.083 36.6799 136.868 36.8461 136.624 36.954C136.383 37.062 136.11 37.1159 135.806 37.1159ZM89.3262 49.6614V43.1159H90.2978V44.1046H90.366C90.4853 43.7807 90.7012 43.5179 91.0137 43.3162C91.3262 43.1145 91.6785 43.0137 92.0705 43.0137C92.1444 43.0137 92.2367 43.0151 92.3475 43.0179C92.4583 43.0208 92.5421 43.025 92.5989 43.0307V44.0534C92.5649 44.0449 92.4867 44.0321 92.3646 44.0151C92.2453 43.9952 92.1188 43.9853 91.9853 43.9853C91.6671 43.9853 91.383 44.052 91.133 44.1855C90.8859 44.3162 90.6899 44.498 90.545 44.731C90.4029 44.9611 90.3319 45.2239 90.3319 45.5193V49.6614H89.3262ZM95.7172 49.8148C95.3024 49.8148 94.926 49.7367 94.5879 49.5804C94.2499 49.4213 93.9814 49.1926 93.7825 48.8943C93.5837 48.5932 93.4842 48.2296 93.4842 47.8034C93.4842 47.4284 93.5581 47.1245 93.7058 46.8915C93.8536 46.6557 94.051 46.471 94.2982 46.3375C94.5453 46.204 94.818 46.1046 95.1163 46.0392C95.4175 45.971 95.72 45.9171 96.024 45.8773C96.4217 45.8262 96.7442 45.7878 96.9913 45.7622C97.2413 45.7338 97.4232 45.687 97.5368 45.6216C97.6533 45.5563 97.7115 45.4426 97.7115 45.2807V45.2466C97.7115 44.8262 97.5965 44.4995 97.3663 44.2665C97.1391 44.0335 96.7939 43.9171 96.3308 43.9171C95.8507 43.9171 95.4743 44.0222 95.2016 44.2324C94.9288 44.4426 94.7371 44.6671 94.6263 44.9057L93.6717 44.5648C93.8422 44.1671 94.0695 43.8574 94.3536 43.6358C94.6405 43.4114 94.953 43.2551 95.2911 43.1671C95.632 43.0762 95.9672 43.0307 96.2967 43.0307C96.507 43.0307 96.7484 43.0563 97.0212 43.1074C97.2967 43.1557 97.5624 43.2566 97.818 43.41C98.0766 43.5634 98.2911 43.7949 98.4615 44.1046C98.632 44.4142 98.7172 44.829 98.7172 45.3489V49.6614H97.7115V48.775H97.6604C97.5922 48.9171 97.4786 49.0691 97.3195 49.231C97.1604 49.3929 96.9487 49.5307 96.6845 49.6443C96.4203 49.758 96.0979 49.8148 95.7172 49.8148ZM95.8706 48.9114C96.2683 48.9114 96.6036 48.8333 96.8763 48.677C97.1519 48.5208 97.3592 48.3191 97.4984 48.0719C97.6405 47.8247 97.7115 47.5648 97.7115 47.2921V46.3716C97.6689 46.4228 97.5752 46.4696 97.4303 46.5122C97.2882 46.552 97.1234 46.5875 96.9359 46.6188C96.7513 46.6472 96.5709 46.6728 96.3948 46.6955C96.2215 46.7154 96.0808 46.7324 95.9729 46.7466C95.7115 46.7807 95.4672 46.8361 95.2399 46.9128C95.0155 46.9867 94.8337 47.0989 94.6945 47.2495C94.5581 47.3972 94.4899 47.5989 94.4899 47.8546C94.4899 48.204 94.6192 48.4682 94.8777 48.6472C95.1391 48.8233 95.47 48.9114 95.8706 48.9114ZM103.399 43.1159V43.9682H100.007V43.1159H103.399ZM100.996 41.5478H102.002V47.7864C102.002 48.0705 102.043 48.2835 102.125 48.4256C102.21 48.5648 102.318 48.6585 102.449 48.7068C102.583 48.7523 102.723 48.775 102.871 48.775C102.982 48.775 103.073 48.7693 103.144 48.758C103.215 48.7438 103.272 48.7324 103.314 48.7239L103.519 49.6273C103.451 49.6529 103.355 49.6784 103.233 49.704C103.111 49.7324 102.956 49.7466 102.769 49.7466C102.485 49.7466 102.206 49.6855 101.933 49.5634C101.664 49.4412 101.439 49.2551 101.26 49.0051C101.084 48.7551 100.996 48.4398 100.996 48.0591V41.5478ZM107.586 49.7978C106.955 49.7978 106.411 49.6585 105.954 49.3801C105.5 49.0989 105.149 48.7068 104.901 48.204C104.657 47.6983 104.535 47.1103 104.535 46.4398C104.535 45.7693 104.657 45.1784 104.901 44.6671C105.149 44.1529 105.492 43.7523 105.933 43.4654C106.376 43.1756 106.893 43.0307 107.484 43.0307C107.825 43.0307 108.161 43.0875 108.494 43.2012C108.826 43.3148 109.129 43.4995 109.401 43.7551C109.674 44.008 109.892 44.3432 110.053 44.7608C110.215 45.1784 110.296 45.6926 110.296 46.3034V46.7296H105.251V45.8603H109.274C109.274 45.4909 109.2 45.1614 109.052 44.8716C108.907 44.5818 108.7 44.3532 108.43 44.1855C108.163 44.0179 107.848 43.9341 107.484 43.9341C107.083 43.9341 106.737 44.0335 106.444 44.2324C106.154 44.4284 105.931 44.6841 105.775 44.9995C105.619 45.3148 105.541 45.6529 105.541 46.0137V46.5932C105.541 47.0875 105.626 47.5066 105.796 47.8503C105.97 48.1912 106.21 48.4512 106.517 48.6301C106.823 48.8063 107.18 48.8943 107.586 48.8943C107.85 48.8943 108.089 48.8574 108.302 48.7835C108.518 48.7068 108.704 48.5932 108.86 48.4426C109.017 48.2892 109.137 48.0989 109.223 47.8716L110.194 48.1443C110.092 48.4739 109.92 48.7637 109.678 49.0137C109.437 49.2608 109.139 49.454 108.784 49.5932C108.428 49.7296 108.029 49.7978 107.586 49.7978Z" fill="#1D2220" fill-opacity="0.4"/>
</g>
<defs>
<filter id="filter0_d_1_134" x="0.405762" y="0.661392" width="175" height="90" filterUnits="userSpaceOnUse" color-interpolation-filters="sRGB">
<feFlood flood-opacity="0" result="BackgroundImageFix"/>
<feColorMatrix in="SourceAlpha" type="matrix" values="0 0 0 0 0 0 0 0 0 0 0 0 0 0 0 0 0 0 127 0" result="hardAlpha"/>
<feOffset dy="8"/>
<feGaussianBlur stdDeviation="9"/>
<feComposite in2="hardAlpha" operator="out"/>
<feColorMatrix type="matrix" values="0 0 0 0 0 0 0 0 0 0 0 0 0 0 0 0 0 0 0.12 0"/>
<feBlend mode="normal" in2="BackgroundImageFix" result="effect1_dropShadow_1_134"/>
<feBlend mode="normal" in="SourceGraphic" in2="effect1_dropShadow_1_134" result="shape"/>
</filter>
</defs>
</svg>
