<svg width="40" height="40" viewBox="0 0 40 40" fill="none" xmlns="http://www.w3.org/2000/svg">
<rect width="40" height="40" rx="8" fill="#F2FAF6"/>
<path d="M24.6263 9.82457L25.0255 11.053C25.1494 11.4268 25.3591 11.7663 25.6378 12.0446C25.9165 12.3228 26.2564 12.532 26.6304 12.6553L27.859 13.0545L27.8831 13.0614C27.9779 13.0947 28.06 13.1567 28.118 13.2386C28.1761 13.3206 28.2073 13.4186 28.2073 13.519C28.2073 13.6195 28.1761 13.7174 28.118 13.7994C28.06 13.8814 27.9779 13.9433 27.8831 13.9767L26.6545 14.3758C26.2805 14.4992 25.9406 14.7084 25.6619 14.9866C25.3832 15.2648 25.1735 15.6044 25.0496 15.9782L24.6504 17.2055C24.617 17.3002 24.5551 17.3823 24.4731 17.4403C24.3911 17.4984 24.2931 17.5295 24.1926 17.5295C24.0922 17.5295 23.9942 17.4984 23.9122 17.4403C23.8302 17.3823 23.7683 17.3002 23.7349 17.2055L23.3345 15.9782C23.2116 15.6036 23.0026 15.263 22.7242 14.9837C22.4457 14.7039 22.1055 14.4934 21.7308 14.369L20.5021 13.9698C20.4074 13.9364 20.3253 13.8745 20.2672 13.7925C20.2092 13.7106 20.178 13.6126 20.178 13.5121C20.178 13.4117 20.2092 13.3137 20.2672 13.2318C20.3253 13.1498 20.4074 13.0879 20.5021 13.0545L21.7308 12.6553C22.1001 12.5286 22.435 12.318 22.7091 12.0399C22.9832 11.7619 23.1891 11.4241 23.3104 11.053L23.7097 9.82571C23.7428 9.73057 23.8047 9.64809 23.8868 9.58973C23.969 9.53136 24.0672 9.5 24.168 9.5C24.2687 9.5 24.367 9.53136 24.4491 9.58973C24.5312 9.64809 24.5932 9.72942 24.6263 9.82457ZM30.2532 18.9225L29.3745 18.6381C29.1078 18.5489 28.8656 18.399 28.6669 18.2001C28.4682 18.0013 28.3185 17.7589 28.2296 17.4922L27.9428 16.6159C27.919 16.5482 27.8748 16.4895 27.8162 16.4479C27.7577 16.4064 27.6876 16.3841 27.6158 16.3841C27.544 16.3841 27.474 16.4064 27.4154 16.4479C27.3569 16.4895 27.3126 16.5482 27.2889 16.6159L27.0044 17.4922C26.9171 17.7572 26.7699 17.9985 26.5741 18.1972C26.3783 18.396 26.1392 18.5468 25.8756 18.6381L24.998 18.9225C24.9307 18.9468 24.8726 18.9912 24.8315 19.0497C24.7904 19.1082 24.7684 19.1779 24.7684 19.2494C24.7684 19.3209 24.7904 19.3906 24.8315 19.4491C24.8726 19.5076 24.9307 19.552 24.998 19.5763L25.8756 19.8619C26.143 19.9511 26.3859 20.1014 26.5851 20.3009C26.7842 20.5004 26.9341 20.7436 27.0227 21.0112L27.3072 21.8875C27.331 21.9552 27.3752 22.0139 27.4338 22.0555C27.4924 22.097 27.5624 22.1193 27.6342 22.1193C27.706 22.1193 27.776 22.097 27.8346 22.0555C27.8932 22.0139 27.9374 21.9552 27.9611 21.8875L28.2468 21.0112C28.3358 20.7444 28.4857 20.5019 28.6846 20.3031C28.8835 20.1042 29.126 19.9543 29.3928 19.8653L30.2704 19.5809C30.3377 19.5566 30.3958 19.5122 30.4369 19.4537C30.478 19.3952 30.5 19.3255 30.5 19.254C30.5 19.1825 30.478 19.1128 30.4369 19.0543C30.3958 18.9958 30.3377 18.9514 30.2704 18.9271L30.2532 18.9225ZM15.0151 20.971C14.863 20.971 14.7171 20.9106 14.6096 20.8031C14.502 20.6955 14.4416 20.5497 14.4416 20.3975C14.4416 20.2454 14.502 20.0996 14.6096 19.992C14.7171 19.8845 14.863 19.8241 15.0151 19.8241C15.1673 19.8241 15.3132 19.8845 15.4207 19.992C15.5283 20.0996 15.5887 20.2454 15.5887 20.3975C15.5887 20.5497 15.5283 20.6955 15.4207 20.8031C15.3132 20.9106 15.1673 20.971 15.0151 20.971ZM15.5887 24.9855C15.5887 25.1376 15.5283 25.2835 15.4207 25.391C15.3132 25.4986 15.1673 25.559 15.0151 25.559C14.863 25.559 14.7171 25.4986 14.6096 25.391C14.502 25.2835 14.4416 25.1376 14.4416 24.9855C14.4416 24.8334 14.502 24.6875 14.6096 24.58C14.7171 24.4724 14.863 24.412 15.0151 24.412C15.1673 24.412 15.3132 24.4724 15.4207 24.58C15.5283 24.6875 15.5887 24.8334 15.5887 24.9855ZM14.4416 12.9421H19.1508C19.0781 13.125 19.0374 13.3189 19.0303 13.5156C19.0343 13.8602 19.1475 14.1946 19.3537 14.4708C19.5598 14.747 19.8482 14.9507 20.1775 15.0526L20.7385 15.2361H13.868C13.7158 15.2361 13.5699 15.2965 13.4624 15.4041C13.3548 15.5116 13.2944 15.6575 13.2944 15.8096C13.2944 15.9617 13.3548 16.1075 13.4624 16.2151C13.5699 16.3227 13.7158 16.3831 13.868 16.3831H22.2803L22.6439 17.5301C22.7472 17.826 22.9307 18.0875 23.1716 18.2871C23.3246 18.4003 23.4929 18.4805 23.6764 18.528C23.5981 18.7604 23.5784 19.0086 23.619 19.2506C23.6187 19.4473 23.6573 19.6423 23.7326 19.8241H18.4567C18.3046 19.8241 18.1587 19.8845 18.0511 19.992C17.9435 20.0996 17.8831 20.2454 17.8831 20.3975C17.8831 20.5497 17.9435 20.6955 18.0511 20.8031C18.1587 20.9106 18.3046 20.971 18.4567 20.971H24.1926C24.2933 20.971 24.3922 20.9445 24.4794 20.8942C24.5666 20.8439 24.639 20.7715 24.6894 20.6843L25.5234 20.9481C25.6167 20.9863 25.7008 21.0399 25.7758 21.1087C25.8486 21.1833 25.9035 21.2735 25.9364 21.3725L26.2117 22.2442C26.283 22.4456 26.3952 22.6301 26.5413 22.7861C26.6874 22.942 26.8642 23.066 27.0606 23.1503V25.559C27.0606 26.4716 26.698 27.3469 26.0526 27.9922C25.4072 28.6375 24.5318 29 23.619 29H14.4416C13.5288 29 12.6534 28.6375 12.008 27.9922C11.3626 27.3469 11 26.4716 11 25.559V16.3831C11 15.4705 11.3626 14.5952 12.008 13.9499C12.6534 13.3046 13.5288 12.9421 14.4416 12.9421ZM15.0151 22.118C15.4715 22.118 15.9092 21.9368 16.2319 21.6141C16.5546 21.2915 16.7359 20.8539 16.7359 20.3975C16.7359 19.9412 16.5546 19.5036 16.2319 19.181C15.9092 18.8583 15.4715 18.6771 15.0151 18.6771C14.5588 18.6771 14.1211 18.8583 13.7984 19.181C13.4757 19.5036 13.2944 19.9412 13.2944 20.3975C13.2944 20.8539 13.4757 21.2915 13.7984 21.6141C14.1211 21.9368 14.5588 22.118 15.0151 22.118ZM16.7359 24.9855C16.7359 24.5292 16.5546 24.0916 16.2319 23.769C15.9092 23.4463 15.4715 23.265 15.0151 23.265C14.5588 23.265 14.1211 23.4463 13.7984 23.769C13.4757 24.0916 13.2944 24.5292 13.2944 24.9855C13.2944 25.4418 13.4757 25.8794 13.7984 26.2021C14.1211 26.5247 14.5588 26.706 15.0151 26.706C15.4715 26.706 15.9092 26.5247 16.2319 26.2021C16.5546 25.8794 16.7359 25.4418 16.7359 24.9855ZM18.4567 24.412C18.3046 24.412 18.1587 24.4724 18.0511 24.58C17.9435 24.6875 17.8831 24.8334 17.8831 24.9855C17.8831 25.1376 17.9435 25.2835 18.0511 25.391C18.1587 25.4986 18.3046 25.559 18.4567 25.559H24.1926C24.3448 25.559 24.4907 25.4986 24.5982 25.391C24.7058 25.2835 24.7662 25.1376 24.7662 24.9855C24.7662 24.8334 24.7058 24.6875 24.5982 24.58C24.4907 24.4724 24.3448 24.412 24.1926 24.412H18.4567Z" fill="#019F53"/>
</svg>
