<svg width="40" height="40" viewBox="0 0 40 40" fill="none" xmlns="http://www.w3.org/2000/svg">
<rect width="40" height="40" rx="8" fill="#F2FAF6"/>
<path fill-rule="evenodd" clip-rule="evenodd" d="M17.5622 14.9453L26.9029 11.1435C27.2196 11.0192 27.5615 10.9746 27.8991 11.0138C28.2367 11.0529 28.5597 11.1745 28.8402 11.3681C29.1206 11.5616 29.3501 11.8213 29.5086 12.1246C29.6672 12.4278 29.75 12.7655 29.75 13.1084V24.6698C29.75 25.0037 29.6713 25.3329 29.5205 25.6302C29.3696 25.9275 29.151 26.1844 28.8824 26.3797C28.6139 26.575 28.3033 26.7032 27.9761 26.7536C27.6489 26.804 27.3145 26.7753 27.0004 26.6697L17.5622 23.3781V14.9453ZM14.4282 14.9453H15.8211V24.7836C15.8211 25.1563 15.9678 25.5138 16.229 25.7774C16.4902 26.041 16.8445 26.1891 17.214 26.1891H17.9104C18.2798 26.1891 18.6341 26.3371 18.8953 26.6007C19.1565 26.8643 19.3033 27.2218 19.3033 27.5945C19.3033 27.9673 19.1565 28.3248 18.8953 28.5883C18.6341 28.8519 18.2798 29 17.9104 29H17.214C16.1057 29 15.0428 28.5558 14.2592 27.765C13.4755 26.9743 13.0353 25.9019 13.0353 24.7836V23.1392C12.106 22.8073 11.3229 22.1547 10.8242 21.2967C10.3256 20.4387 10.1435 19.4304 10.3102 18.4501C10.4768 17.4697 10.9815 16.5804 11.735 15.939C12.4885 15.2977 13.4424 14.9458 14.4282 14.9453Z" fill="#019F53"/>
</svg>
