<svg width="40" height="40" viewBox="0 0 40 40" fill="none" xmlns="http://www.w3.org/2000/svg">
<rect width="40" height="40" rx="8" fill="#F2FAF6"/>
<path d="M19.1001 16.6999H20.9001V17.5999H19.1001V16.6999ZM19.1001 13.0999H20.9001V13.9999H19.1001V13.0999ZM19.1001 18.4999H20.9001V19.3999H19.1001V18.4999Z" fill="#019F53"/>
<path d="M28.1 20.2994V17.5994C25.3562 17.5985 22.6978 18.5532 20.5814 20.2994H19.4186C17.3022 18.5532 14.6438 17.5985 11.9 17.5994V20.2994C11.6613 20.2994 11.4324 20.3942 11.2636 20.563C11.0948 20.7318 11 20.9607 11 21.1994V22.9994C11 23.2381 11.0948 23.467 11.2636 23.6358C11.4324 23.8045 11.6613 23.8994 11.9 23.8994V27.4994C14.9079 27.4963 17.8041 28.6387 20 30.6944C22.1983 28.6426 25.0929 27.5009 28.1 27.4994V23.8994C28.3387 23.8994 28.5676 23.8045 28.7364 23.6358C28.9052 23.467 29 23.2381 29 22.9994V21.1994C29 20.9607 28.9052 20.7318 28.7364 20.563C28.5676 20.3942 28.3387 20.2994 28.1 20.2994Z" fill="#019F53"/>
<path d="M17.2999 14.0004C17.797 14.0004 18.1999 13.5975 18.1999 13.1004C18.1999 12.6034 17.797 12.2004 17.2999 12.2004C16.8028 12.2004 16.3999 12.6034 16.3999 13.1004C16.3999 13.5975 16.8028 14.0004 17.2999 14.0004Z" fill="#019F53"/>
<path d="M22.7 14.0004C23.1971 14.0004 23.6 13.5975 23.6 13.1004C23.6 12.6034 23.1971 12.2004 22.7 12.2004C22.203 12.2004 21.8 12.6034 21.8 13.1004C21.8 13.5975 22.203 14.0004 22.7 14.0004Z" fill="#019F53"/>
<path d="M23.6 16.7H16.4C15.6841 16.6993 14.9977 16.4146 14.4916 15.9084C13.9854 15.4022 13.7007 14.7159 13.7 14V12.2C13.7007 11.4841 13.9854 10.7978 14.4916 10.2916C14.9977 9.78541 15.6841 9.50071 16.4 9.5H23.6C24.3158 9.50071 25.0022 9.78541 25.5084 10.2916C26.0145 10.7978 26.2992 11.4841 26.3 12.2V14C26.2992 14.7159 26.0145 15.4022 25.5084 15.9084C25.0022 16.4146 24.3158 16.6993 23.6 16.7ZM16.4 11.3C16.1613 11.3 15.9323 11.3948 15.7636 11.5636C15.5948 11.7324 15.5 11.9613 15.5 12.2V14C15.5 14.2387 15.5948 14.4676 15.7636 14.6364C15.9323 14.8052 16.1613 14.9 16.4 14.9H23.6C23.8386 14.9 24.0676 14.8052 24.2364 14.6364C24.4051 14.4676 24.5 14.2387 24.5 14V12.2C24.5 11.9613 24.4051 11.7324 24.2364 11.5636C24.0676 11.3948 23.8386 11.3 23.6 11.3H16.4Z" fill="#019F53"/>
</svg>
