<svg width="41" height="40" viewBox="0 0 41 40" fill="none" xmlns="http://www.w3.org/2000/svg">
<rect x="0.5" width="40" height="40" rx="8" fill="#F2FAF6"/>
<path fill-rule="evenodd" clip-rule="evenodd" d="M22.6856 11.1368C22.3351 11 21.8898 11 21.0003 11C20.1107 11 19.6664 11 19.3149 11.1368C19.0836 11.2266 18.8734 11.3589 18.6961 11.5262C18.5189 11.6935 18.3783 11.8924 18.2823 12.1115C18.1932 12.3122 18.1591 12.5471 18.1449 12.8882C18.1381 13.1353 18.0654 13.3766 17.9335 13.5896C17.8016 13.8026 17.6148 13.9803 17.3908 14.1059C17.1623 14.2266 16.9053 14.2905 16.6438 14.2918C16.3823 14.293 16.1248 14.2316 15.8949 14.1131C15.5747 13.9529 15.3426 13.8647 15.1133 13.8359C14.6118 13.7737 14.1046 13.9018 13.7018 14.1923C13.4005 14.4101 13.1779 14.7737 12.7336 15.5C12.2883 16.2263 12.0666 16.589 12.0164 16.9445C11.9501 17.4179 12.0865 17.8967 12.3954 18.2756C12.5356 18.4484 12.7336 18.5933 13.0396 18.7751C13.4915 19.0424 13.7813 19.4978 13.7813 20C13.7813 20.5022 13.4915 20.9576 13.0405 21.224C12.7336 21.4067 12.5356 21.5516 12.3944 21.7244C12.2424 21.9118 12.1308 22.1258 12.0659 22.3542C12.0011 22.5826 11.9842 22.8209 12.0164 23.0555C12.0666 23.4101 12.2883 23.7737 12.7336 24.5C13.1788 25.2263 13.4005 25.589 13.7018 25.8077C14.1034 26.0984 14.6112 26.2262 15.1133 26.1641C15.3426 26.1353 15.5747 26.0471 15.8949 25.8869C16.1249 25.7683 16.3826 25.7067 16.6443 25.708C16.906 25.7092 17.1631 25.7732 17.3918 25.8941C17.8522 26.1461 18.125 26.6096 18.1449 27.1118C18.1591 27.4538 18.1932 27.6878 18.2823 27.8885C18.4755 28.3295 18.8469 28.6805 19.3149 28.8632C19.6654 29 20.1107 29 21.0003 29C21.8898 29 22.3351 29 22.6856 28.8632C22.9169 28.7734 23.1272 28.6411 23.3044 28.4738C23.4816 28.3065 23.6223 28.1076 23.7183 27.8885C23.8073 27.6878 23.8414 27.4538 23.8556 27.1118C23.8746 26.6096 24.1484 26.1452 24.6097 25.8941C24.8383 25.7734 25.0952 25.7095 25.3567 25.7082C25.6182 25.707 25.8758 25.7684 26.1056 25.8869C26.4258 26.0471 26.6579 26.1353 26.8872 26.1641C27.3893 26.2271 27.8971 26.0984 28.2988 25.8077C28.6 25.5899 28.8227 25.2263 29.267 24.5C29.7122 23.7737 29.9339 23.411 29.9841 23.0555C30.0162 22.8209 29.9992 22.5825 29.9342 22.3541C29.8691 22.1257 29.7573 21.9117 29.6052 21.7244C29.465 21.5516 29.267 21.4067 28.961 21.2249C28.5091 20.9576 28.2192 20.5022 28.2192 20C28.2192 19.4978 28.5091 19.0424 28.96 18.776C29.267 18.5933 29.465 18.4484 29.6061 18.2756C29.7581 18.0882 29.8697 17.8742 29.9346 17.6458C29.9995 17.4174 30.0163 17.1791 29.9841 16.9445C29.9339 16.5899 29.7122 16.2263 29.267 15.5C28.8217 14.7737 28.6 14.411 28.2988 14.1923C27.8959 13.9018 27.3887 13.7737 26.8872 13.8359C26.6579 13.8647 26.4258 13.9529 26.1056 14.1131C25.8757 14.2317 25.6179 14.2933 25.3562 14.292C25.0946 14.2908 24.8375 14.2268 24.6088 14.1059C24.3849 13.9802 24.1984 13.8025 24.0666 13.5895C23.9349 13.3765 23.8623 13.1352 23.8556 12.8882C23.8414 12.5462 23.8073 12.3122 23.7183 12.1115C23.6223 11.8924 23.4816 11.6935 23.3044 11.5262C23.1272 11.3589 22.9169 11.2266 22.6856 11.1368ZM21.0003 22.7C22.5824 22.7 23.8642 21.4913 23.8642 20C23.8642 18.5087 22.5814 17.3 21.0003 17.3C19.4191 17.3 18.1364 18.5087 18.1364 20C18.1364 21.4913 19.4191 22.7 21.0003 22.7Z" fill="#019F53"/>
</svg>
