<svg width="41" height="40" viewBox="0 0 41 40" fill="none" xmlns="http://www.w3.org/2000/svg">
<rect x="0.5" width="40" height="40" rx="8" fill="#F2FAF6"/>
<g clip-path="url(#clip0_1_1066)">
<path d="M15.3334 19L14.6667 21.0667H16.0001L15.3334 19Z" fill="#019F53"/>
<path d="M28.4677 11H17.629V14.3505H20.3387V15.6907H11.5323C10.3806 15.6907 9.5 16.5619 9.5 17.701V25.0722C9.5 26.2113 10.3806 27.0825 11.5323 27.0825H12.2097V30.5L16.4774 27.0825H21.0161V22.3918H28.4677C29.6194 22.3918 30.5 21.5206 30.5 20.3814V13.0103C30.5 11.8711 29.6194 11 28.4677 11ZM16.8161 24.3351L16.4774 23.2629H14.3774L13.971 24.3351H12.3452L14.5806 18.3711H16.2065L18.4419 24.3351H16.8161ZM27.1129 19.0412V20.3814C26.2323 20.3814 25.2839 20.1134 24.471 19.7113C23.6581 20.1134 22.7097 20.3144 21.7613 20.3814L21.6935 19.0412C22.1677 19.0412 22.6419 18.9742 23.1161 18.8402C22.5065 18.2371 22.1 17.5 21.8968 16.6959H23.3194C23.5226 17.299 23.929 17.768 24.4032 18.1701C25.1484 17.567 25.6226 16.6959 25.6903 15.6907H21.6258V14.3505H23.6581V13.0103H25.0129V14.3505H27.2484L27.3161 15.0206C27.3839 16.4278 26.8419 17.8351 25.8258 18.8402C26.3 18.9742 26.7065 19.0412 27.1129 19.0412Z" fill="#019F53"/>
</g>
<defs>
<clipPath id="clip0_1_1066">
<rect width="24" height="24" fill="white" transform="translate(8 8)"/>
</clipPath>
</defs>
</svg>
