<svg width="17" height="16" viewBox="0 0 17 16" fill="none" xmlns="http://www.w3.org/2000/svg">
<path d="M13.9167 2.5H3.41675C2.95277 2.5005 2.50794 2.68503 2.17986 3.01311C1.85178 3.34119 1.66724 3.78602 1.66675 4.25V11.75C1.66724 12.214 1.85178 12.6588 2.17986 12.9869C2.50794 13.315 2.95277 13.4995 3.41675 13.5H13.9167C14.3807 13.4995 14.8256 13.315 15.1536 12.9869C15.4817 12.6588 15.6663 12.214 15.6667 11.75V4.25C15.6663 3.78602 15.4817 3.34119 15.1536 3.01311C14.8256 2.68503 14.3807 2.5005 13.9167 2.5ZM13.4736 5.39469L8.97362 8.89469C8.88587 8.9629 8.77789 8.99994 8.66675 8.99994C8.5556 8.99994 8.44762 8.9629 8.35987 8.89469L3.85987 5.39469C3.807 5.35476 3.76259 5.30472 3.72923 5.24749C3.69586 5.19025 3.6742 5.12695 3.66551 5.06127C3.65682 4.99559 3.66127 4.92884 3.6786 4.86489C3.69593 4.80094 3.7258 4.74108 3.76647 4.68878C3.80713 4.63647 3.85779 4.59277 3.91549 4.56021C3.97319 4.52766 4.03679 4.50689 4.10259 4.49913C4.16838 4.49136 4.23507 4.49675 4.29876 4.51498C4.36246 4.53321 4.4219 4.56391 4.47362 4.60531L8.66675 7.86656L12.8599 4.60531C12.9647 4.52613 13.0965 4.4914 13.2268 4.50864C13.357 4.52587 13.4753 4.59369 13.5559 4.69741C13.6366 4.80114 13.6731 4.93244 13.6577 5.06293C13.6423 5.19341 13.5762 5.31259 13.4736 5.39469Z" fill="#1D2220"/>
</svg>
