<svg width="20" height="20" viewBox="0 0 20 20" fill="none" xmlns="http://www.w3.org/2000/svg">
<path d="M12.9166 9.58341C12.9166 9.96644 12.8411 10.3457 12.6946 10.6996C12.548 11.0534 12.3332 11.375 12.0623 11.6458C11.7915 11.9166 11.4699 12.1315 11.1161 12.2781C10.7622 12.4246 10.3829 12.5001 9.99992 12.5001C9.6169 12.5001 9.23763 12.4246 8.88376 12.2781C8.52989 12.1315 8.20836 11.9166 7.93752 11.6458C7.66669 11.375 7.45185 11.0534 7.30527 10.6996C7.15869 10.3457 7.08325 9.96644 7.08325 9.58341C7.08325 8.80987 7.39054 8.068 7.93752 7.52102C8.48451 6.97404 9.22637 6.66675 9.99992 6.66675C10.7735 6.66675 11.5153 6.97404 12.0623 7.52102C12.6093 8.068 12.9166 8.80987 12.9166 9.58341Z" stroke="#1D2220" stroke-width="1.2" stroke-linecap="round" stroke-linejoin="round"/>
<path d="M17.5 11.3334C17.7633 11.2601 18.0411 11.2231 18.3333 11.2226V7.94425C15.9525 7.94425 14.405 5.35841 15.61 3.30591L12.7233 1.66675C11.5033 3.74508 8.49829 3.74508 7.27829 1.66675L4.39163 3.30591C5.59663 5.35841 4.04746 7.94425 1.66663 7.94425V11.2226C4.04746 11.2226 5.59496 13.8084 4.38996 15.8609L7.27663 17.5001C7.55341 17.0237 7.95091 16.6287 8.42904 16.355C8.90717 16.0813 9.44902 15.9384 9.99996 15.9409" stroke="#1D2220" stroke-width="1.2" stroke-linecap="round" stroke-linejoin="round"/>
<path d="M15.4167 12.5L15.6317 13.0808C15.9133 13.8425 16.0542 14.2233 16.3317 14.5008C16.61 14.7792 16.9908 14.92 17.7525 15.2017L18.3333 15.4167L17.7525 15.6317C16.9908 15.9133 16.61 16.0542 16.3325 16.3317C16.0542 16.61 15.9133 16.9908 15.6317 17.7525L15.4167 18.3333L15.2017 17.7525C14.92 16.9908 14.7792 16.61 14.5017 16.3325C14.2233 16.0542 13.8425 15.9133 13.0808 15.6317L12.5 15.4167L13.0808 15.2017C13.8425 14.92 14.2233 14.7792 14.5008 14.5017C14.7792 14.2233 14.92 13.8425 15.2017 13.0808L15.4167 12.5Z" stroke="#1D2220" stroke-width="1.2" stroke-linecap="round" stroke-linejoin="round"/>
</svg>
