<svg width="41" height="40" viewBox="0 0 41 40" fill="none" xmlns="http://www.w3.org/2000/svg">
<rect x="0.333252" width="40" height="40" rx="8" fill="white"/>
<rect x="0.833252" y="0.5" width="39" height="39" rx="7.5" stroke="url(#paint0_linear_1_2302)" stroke-opacity="0.1"/>
<path d="M20.3334 16.8753C18.6131 16.8753 17.2091 18.2792 17.2091 19.9995C17.2091 21.7198 18.6131 23.1237 20.3334 23.1237C22.0537 23.1237 23.4576 21.7198 23.4576 19.9995C23.4576 18.2792 22.0537 16.8753 20.3334 16.8753ZM29.7037 19.9995C29.7037 18.7058 29.7154 17.4237 29.6427 16.1323C29.5701 14.6323 29.2279 13.3011 28.131 12.2042C27.0318 11.105 25.7029 10.7652 24.2029 10.6925C22.9091 10.6198 21.6271 10.6316 20.3357 10.6316C19.042 10.6316 17.7599 10.6198 16.4685 10.6925C14.9685 10.7652 13.6373 11.1073 12.5404 12.2042C11.4412 13.3034 11.1013 14.6323 11.0287 16.1323C10.956 17.4261 10.9677 18.7081 10.9677 19.9995C10.9677 21.2909 10.956 22.5753 11.0287 23.8667C11.1013 25.3667 11.4435 26.698 12.5404 27.7948C13.6396 28.8941 14.9685 29.2339 16.4685 29.3066C17.7623 29.3792 19.0443 29.3675 20.3357 29.3675C21.6295 29.3675 22.9115 29.3792 24.2029 29.3066C25.7029 29.2339 27.0341 28.8917 28.131 27.7948C29.2302 26.6956 29.5701 25.3667 29.6427 23.8667C29.7177 22.5753 29.7037 21.2933 29.7037 19.9995ZM20.3334 24.8066C17.6732 24.8066 15.5263 22.6597 15.5263 19.9995C15.5263 17.3394 17.6732 15.1925 20.3334 15.1925C22.9935 15.1925 25.1404 17.3394 25.1404 19.9995C25.1404 22.6597 22.9935 24.8066 20.3334 24.8066ZM25.3373 16.1183C24.7162 16.1183 24.2146 15.6167 24.2146 14.9956C24.2146 14.3745 24.7162 13.873 25.3373 13.873C25.9584 13.873 26.4599 14.3745 26.4599 14.9956C26.4601 15.1431 26.4312 15.2892 26.3748 15.4255C26.3185 15.5617 26.2358 15.6856 26.1315 15.7899C26.0272 15.8942 25.9034 15.9768 25.7671 16.0332C25.6308 16.0895 25.4848 16.1185 25.3373 16.1183Z" fill="#1D2220"/>
<defs>
<linearGradient id="paint0_linear_1_2302" x1="20.3333" y1="40" x2="20.3332" y2="-3.68833e-07" gradientUnits="userSpaceOnUse">
<stop stop-color="#1D2220"/>
<stop offset="1" stop-color="#1D2220" stop-opacity="0.6"/>
</linearGradient>
</defs>
</svg>
