<svg width="17" height="16" viewBox="0 0 17 16" fill="none" xmlns="http://www.w3.org/2000/svg">
<path d="M12.8856 14.9997C12.2756 14.9997 11.4187 14.7791 10.1356 14.0622C8.57529 13.1872 7.36842 12.3794 5.81654 10.8316C4.32029 9.33627 3.59217 8.36815 2.5731 6.51377C1.42185 4.42002 1.6181 3.32252 1.83748 2.85346C2.09873 2.29283 2.48435 1.95752 2.98279 1.62471C3.2659 1.43922 3.5655 1.28022 3.87779 1.14971C3.90904 1.13627 3.9381 1.12346 3.96404 1.1119C4.11873 1.04221 4.3531 0.936898 4.64998 1.0494C4.8481 1.12377 5.02498 1.27596 5.30185 1.5494C5.86967 2.1094 6.6456 3.35659 6.93185 3.96908C7.12404 4.3819 7.25123 4.6544 7.25154 4.96002C7.25154 5.31783 7.07154 5.59377 6.8531 5.89158C6.81217 5.94752 6.77154 6.00096 6.73217 6.05283C6.49435 6.36533 6.44217 6.45565 6.47654 6.6169C6.54623 6.94096 7.06592 7.90565 7.91998 8.75784C8.77404 9.61002 9.71092 10.0969 10.0362 10.1663C10.2044 10.2022 10.2965 10.1478 10.619 9.90158C10.6653 9.86627 10.7128 9.82971 10.7625 9.79315C11.0956 9.54534 11.3587 9.37002 11.7081 9.37002H11.71C12.014 9.37002 12.2744 9.5019 12.7056 9.7194C13.2681 10.0031 14.5528 10.7691 15.1162 11.3375C15.3903 11.6138 15.5431 11.79 15.6178 11.9878C15.7303 12.2856 15.6244 12.5191 15.5553 12.6753C15.5437 12.7013 15.5309 12.7297 15.5175 12.7613C15.3859 13.073 15.226 13.372 15.0397 13.6544C14.7075 14.1513 14.3709 14.536 13.809 14.7975C13.5205 14.934 13.2048 15.0032 12.8856 14.9997Z" fill="#1D2220"/>
</svg>
