<svg width="41" height="40" viewBox="0 0 41 40" fill="none" xmlns="http://www.w3.org/2000/svg">
<rect x="0.333252" width="40" height="40" rx="8" fill="white"/>
<rect x="0.833252" y="0.5" width="39" height="39" rx="7.5" stroke="url(#paint0_linear_1_2305)" stroke-opacity="0.1"/>
<path d="M28.8033 10.0001H11.8633C11.6729 9.9975 11.4838 10.0324 11.3069 10.1028C11.1299 10.1733 10.9686 10.2779 10.8321 10.4107C10.6956 10.5434 10.5866 10.7018 10.5113 10.8767C10.436 11.0517 10.3959 11.2397 10.3933 11.4301V28.5701C10.3959 28.7606 10.436 28.9486 10.5113 29.1235C10.5866 29.2985 10.6956 29.4568 10.8321 29.5896C10.9686 29.7224 11.1299 29.827 11.3069 29.8975C11.4838 29.9679 11.6729 30.0028 11.8633 30.0001H28.8033C28.9937 30.0028 29.1828 29.9679 29.3597 29.8975C29.5367 29.827 29.698 29.7224 29.8345 29.5896C29.971 29.4568 30.08 29.2985 30.1553 29.1235C30.2306 28.9486 30.2707 28.7606 30.2733 28.5701V11.4301C30.2707 11.2397 30.2306 11.0517 30.1553 10.8767C30.08 10.7018 29.971 10.5434 29.8345 10.4107C29.698 10.2779 29.5367 10.1733 29.3597 10.1028C29.1828 10.0324 28.9937 9.9975 28.8033 10.0001ZM16.4233 26.7401H13.4233V17.7401H16.4233V26.7401ZM14.9233 16.4801C14.5096 16.4801 14.1128 16.3158 13.8202 16.0232C13.5277 15.7307 13.3633 15.3339 13.3633 14.9201C13.3633 14.5064 13.5277 14.1096 13.8202 13.8171C14.1128 13.5245 14.5096 13.3601 14.9233 13.3601C15.143 13.3352 15.3655 13.357 15.5762 13.424C15.7869 13.4911 15.981 13.6018 16.146 13.7491C16.3109 13.8964 16.4428 14.0768 16.5332 14.2786C16.6235 14.4804 16.6702 14.699 16.6702 14.9201C16.6702 15.1412 16.6235 15.3599 16.5332 15.5617C16.4428 15.7635 16.3109 15.9439 16.146 16.0912C15.981 16.2385 15.7869 16.3492 15.5762 16.4163C15.3655 16.4833 15.143 16.5051 14.9233 16.4801ZM27.2433 26.7401H24.2433V21.9101C24.2433 20.7001 23.8133 19.9101 22.7233 19.9101C22.386 19.9126 22.0575 20.0184 21.7821 20.2133C21.5068 20.4082 21.2978 20.6828 21.1833 21.0001C21.1051 21.2352 21.0711 21.4827 21.0833 21.7301V26.7301H18.0833V17.7301H21.0833V19.0001C21.3558 18.5272 21.7522 18.1377 22.2298 17.8733C22.7073 17.609 23.2479 17.48 23.7933 17.5001C25.7933 17.5001 27.2433 18.7901 27.2433 21.5601V26.7401Z" fill="#1D2220"/>
<defs>
<linearGradient id="paint0_linear_1_2305" x1="20.3333" y1="40" x2="20.3332" y2="-3.68833e-07" gradientUnits="userSpaceOnUse">
<stop stop-color="#1D2220"/>
<stop offset="1" stop-color="#1D2220" stop-opacity="0.6"/>
</linearGradient>
</defs>
</svg>
