<svg width="33" height="30" viewBox="0 0 33 30" fill="none" xmlns="http://www.w3.org/2000/svg">
<path d="M19.7 30V19.0435C19.7 14 20.7667 9.82609 22.9 6.52174C25.1187 3.21739 28.3187 1.04348 32.5 0V4.56521C29.94 5.26087 28.1053 6.56521 26.996 8.47826C25.8867 10.3043 25.2467 12.6957 25.076 15.6522H29.94V30H19.7ZM0.5 30V19.0435C0.5 14 1.56667 9.82609 3.7 6.52174C5.91867 3.21739 9.11867 1.04348 13.3 0V4.56521C10.74 5.26087 8.90533 6.56521 7.796 8.47826C6.68667 10.3043 6.04667 12.6957 5.876 15.6522H10.74V30H0.5Z" fill="#019F53" fill-opacity="0.1"/>
</svg>
