<svg width="20" height="20" viewBox="0 0 20 20" fill="none" xmlns="http://www.w3.org/2000/svg">
<g clip-path="url(#clip0_1_1083)">
<path d="M7.34837 14.4195C6.46449 17.0712 2.92896 17.0712 2.92896 17.0712C2.92896 17.0712 2.92895 13.5356 5.58061 12.6517M15.3033 8.23232L10 13.5356L6.46449 10.0001L11.7678 4.69679C13.7759 2.68865 15.7841 2.70824 16.6405 2.83602C16.7723 2.85567 16.8944 2.91717 16.9887 3.01144C17.0829 3.10571 17.1444 3.22777 17.1641 3.35963C17.2919 4.21605 17.3115 6.22418 15.3033 8.23232Z" stroke="#1D2220" stroke-width="1.2" stroke-linecap="round" stroke-linejoin="round"/>
<path d="M14.4194 9.1161V14.1605C14.4194 14.2426 14.4032 14.3239 14.3718 14.3997C14.3404 14.4755 14.2944 14.5444 14.2363 14.6025L11.7096 17.1292C11.6296 17.2092 11.5294 17.2659 11.4197 17.2934C11.31 17.321 11.1949 17.3182 11.0866 17.2854C10.9783 17.2526 10.881 17.1911 10.8049 17.1073C10.7289 17.0235 10.677 16.9207 10.6548 16.8098L9.99998 13.5355M10.8839 5.58057H5.83944C5.75737 5.58057 5.6761 5.59673 5.60027 5.62814C5.52444 5.65955 5.45554 5.70559 5.3975 5.76362L2.8708 8.29032C2.79081 8.37032 2.73403 8.47052 2.70651 8.58025C2.679 8.68997 2.68178 8.80511 2.71456 8.91338C2.74734 9.02165 2.8089 9.119 2.89266 9.19503C2.97642 9.27107 3.07924 9.32294 3.19017 9.34513L6.46444 9.99998" stroke="#1D2220" stroke-width="1.2" stroke-linecap="round" stroke-linejoin="round"/>
</g>
<defs>
<clipPath id="clip0_1_1083">
<rect width="20" height="20" fill="white"/>
</clipPath>
</defs>
</svg>
