<svg width="41" height="40" viewBox="0 0 41 40" fill="none" xmlns="http://www.w3.org/2000/svg">
<rect x="0.333252" width="40" height="40" rx="8" fill="white"/>
<rect x="0.833252" y="0.5" width="39" height="39" rx="7.5" stroke="url(#paint0_linear_1_2297)" stroke-opacity="0.1"/>
<path d="M28.0863 12.659C28.1727 12.5601 28.2389 12.4452 28.2809 12.3207C28.323 12.1963 28.3401 12.0647 28.3313 11.9337C28.3226 11.8026 28.2881 11.6746 28.2298 11.5568C28.1715 11.4391 28.0906 11.334 27.9918 11.2475C27.8929 11.161 27.7779 11.0949 27.6535 11.0528C27.529 11.0108 27.3975 10.9936 27.2664 11.0024C27.1354 11.0112 27.0073 11.0457 26.8896 11.104C26.7718 11.1622 26.6667 11.2431 26.5803 11.342L21.4703 17.182L17.1333 11.4C17.0401 11.2758 16.9193 11.175 16.7805 11.1056C16.6416 11.0361 16.4885 11 16.3333 11H12.3333C12.1475 11 11.9655 11.0517 11.8075 11.1493C11.6495 11.247 11.5219 11.3867 11.4388 11.5528C11.3558 11.7189 11.3206 11.9048 11.3373 12.0898C11.354 12.2748 11.4218 12.4514 11.5333 12.6L17.9703 21.182L12.5803 27.342C12.4938 27.4409 12.4276 27.5558 12.3856 27.6803C12.3435 27.8047 12.3264 27.9363 12.3352 28.0673C12.3439 28.1984 12.3785 28.3265 12.4367 28.4442C12.495 28.5619 12.5759 28.667 12.6748 28.7535C12.7736 28.84 12.8886 28.9061 13.013 28.9482C13.1375 28.9902 13.269 29.0074 13.4001 28.9986C13.5311 28.9898 13.6592 28.9553 13.7769 28.897C13.8947 28.8388 13.9998 28.7579 14.0863 28.659L19.1963 22.818L23.5333 28.6C23.6264 28.7242 23.7472 28.825 23.886 28.8944C24.0249 28.9639 24.178 29 24.3333 29H28.3333C28.519 29 28.701 28.9483 28.859 28.8507C29.017 28.753 29.1446 28.6133 29.2277 28.4472C29.3107 28.2811 29.3459 28.0952 29.3292 27.9102C29.3125 27.7252 29.2447 27.5486 29.1333 27.4L22.6963 18.818L28.0863 12.659Z" fill="#1D2220"/>
<defs>
<linearGradient id="paint0_linear_1_2297" x1="20.3333" y1="40" x2="20.3332" y2="-3.68833e-07" gradientUnits="userSpaceOnUse">
<stop stop-color="#1D2220"/>
<stop offset="1" stop-color="#1D2220" stop-opacity="0.6"/>
</linearGradient>
</defs>
</svg>
