<svg width="41" height="40" viewBox="0 0 41 40" fill="none" xmlns="http://www.w3.org/2000/svg">
<rect x="0.333252" width="40" height="40" rx="8" fill="white"/>
<rect x="0.833252" y="0.5" width="39" height="39" rx="7.5" stroke="url(#paint0_linear_1_2294)" stroke-opacity="0.1"/>
<path d="M18.3333 23L23.5233 20L18.3333 17V23ZM29.8933 15.17C30.0233 15.64 30.1133 16.27 30.1733 17.07C30.2433 17.87 30.2733 18.56 30.2733 19.16L30.3333 20C30.3333 22.19 30.1733 23.8 29.8933 24.83C29.6433 25.73 29.0633 26.31 28.1633 26.56C27.6933 26.69 26.8333 26.78 25.5133 26.84C24.2133 26.91 23.0233 26.94 21.9233 26.94L20.3333 27C16.1433 27 13.5333 26.84 12.5033 26.56C11.6033 26.31 11.0233 25.73 10.7733 24.83C10.6433 24.36 10.5533 23.73 10.4933 22.93C10.4233 22.13 10.3933 21.44 10.3933 20.84L10.3333 20C10.3333 17.81 10.4933 16.2 10.7733 15.17C11.0233 14.27 11.6033 13.69 12.5033 13.44C12.9733 13.31 13.8333 13.22 15.1533 13.16C16.4533 13.09 17.6433 13.06 18.7433 13.06L20.3333 13C24.5233 13 27.1333 13.16 28.1633 13.44C29.0633 13.69 29.6433 14.27 29.8933 15.17Z" fill="#1D2220"/>
<defs>
<linearGradient id="paint0_linear_1_2294" x1="20.3333" y1="40" x2="20.3332" y2="-3.68833e-07" gradientUnits="userSpaceOnUse">
<stop stop-color="#1D2220"/>
<stop offset="1" stop-color="#1D2220" stop-opacity="0.6"/>
</linearGradient>
</defs>
</svg>
